<svg width="172.16000366210938px" height="122.39999389648438px" xmlns="http://www.w3.org/2000/svg" viewBox="163.9199981689453 13.800003051757812 172.16000366210938 122.39999389648438" style="background: none;" preserveAspectRatio="xMidYMid"><defs><filter id="editing-extrusion" x="-100%" y="-100%" width="300%" height="300%"><feFlood result="color1" flood-color="#444"></feFlood><feConvolveMatrix order="8,8" divisor="1" kernelMatrix="1 0 0 0 0 0 0 0 0 1 0 0 0 0 0 0 0 0 1 0 0 0 0 0 0 0 0 1 0 0 0 0 0 0 0 0 1 0 0 0 0 0 0 0 0 1 0 0 0 0 0 0 0 0 1 0 0 0 0 0 0 0 0 1" in="SourceAlpha" result="extrude"></feConvolveMatrix><feComposite in="color1" in2="extrude" result="comp-extrude" operator="in"></feComposite><feOffset dx="4" dy="4" in="comp-extrude" result="offset-extrude"></feOffset><feMerge><feMergeNode in="offset-extrude"></feMergeNode><feMergeNode in="SourceGraphic"></feMergeNode></feMerge></filter></defs><g filter="url(#editing-extrusion)"><g transform="translate(194.5750036239624, 98.35999870300293)"><path d="M14.08 1.28L12.74-20.86L7.62-20.29L8.32 0L3.84 0L2.37-45.44L7.55-45.44L7.55-24.64L12.29-25.60L12.29-44.16L17.86-44.16L17.86-41.47L16.90-39.94L18.24 1.28L14.08 1.28ZM38.02-5.31L38.02 0L24.32 0L24.32-45.44L38.02-45.44L38.02-41.47L30.02-41.86L30.02-27.33L38.02-25.86L38.02-22.78L28.93-23.17L28.93-4.80L38.02-5.31ZM58.05-4.42L58.05 0L45.12 0L45.12-45.44L49.86-45.44L49.86-6.72L50.82-5.25L58.05-4.42ZM76.42-4.42L76.42 0L63.49 0L63.49-45.44L68.22-45.44L68.22-6.72L69.18-5.25L76.42-4.42ZM94.98 0L86.46 0L86.46 0Q83.84 0 82.82-0.83L82.82-0.83L82.82-0.83Q81.79-1.66 81.79-3.58L81.79-3.58L81.79-43.90L81.79-43.90Q83.20-44.67 85.47-45.06L85.47-45.06L85.47-45.06Q87.74-45.44 91.52-45.44L91.52-45.44L91.52-45.44Q93.25-45.44 94.34-44.58L94.34-44.58L94.34-44.58Q95.42-43.71 95.42-42.37L95.42-42.37L94.98 0ZM85.89-4.03L90.43-3.65L91.01-4.22L91.39-40.77L91.39-40.77Q91.39-41.09 90.82-41.15L90.82-41.15L86.85-41.34L86.27-40.96L85.89-4.03ZM103.30-12.16L101.82-45.44L108.48-45.44L106.05-11.78L103.30-12.16ZM101.82 0L101.82-5.89L107.97-6.14L107.71 0L101.82 0Z" fill="#ccc"></path></g></g><style>text {
  font-size: 64px;
  font-family: Arial Black;
  dominant-baseline: central;
  text-anchor: middle;
}</style></svg>