<svg width="242.8800048828125px" height="122.39999389648438px" xmlns="http://www.w3.org/2000/svg" viewBox="128.55999755859375 13.800003051757812 242.8800048828125 122.39999389648438" style="background: none;" preserveAspectRatio="xMidYMid"><defs><filter id="editing-extrusion" x="-100%" y="-100%" width="300%" height="300%"><feFlood result="color1" flood-color="#444"></feFlood><feConvolveMatrix order="8,8" divisor="1" kernelMatrix="1 0 0 0 0 0 0 0 0 1 0 0 0 0 0 0 0 0 1 0 0 0 0 0 0 0 0 1 0 0 0 0 0 0 0 0 1 0 0 0 0 0 0 0 0 1 0 0 0 0 0 0 0 0 1 0 0 0 0 0 0 0 0 1" in="SourceAlpha" result="extrude"></feConvolveMatrix><feComposite in="color1" in2="extrude" result="comp-extrude" operator="in"></feComposite><feOffset dx="4" dy="4" in="comp-extrude" result="offset-extrude"></feOffset><feMerge><feMergeNode in="offset-extrude"></feMergeNode><feMergeNode in="SourceGraphic"></feMergeNode></feMerge></filter></defs><g filter="url(#editing-extrusion)"><g transform="translate(170.22500824928284, 97.71999931335449)"><path d="M16.45-45.44L20.93-45.44L18.62 0L14.59 0L10.69-26.69L10.43-26.69L6.53 0L3.01 0L0.51-45.44L5.18-45.44L5.18-5.50L5.44-5.50L9.09-38.27L11.84-38.27L16.13-5.50L16.45-5.50L16.45-45.44ZM36.67 0L34.82-19.84L29.31-20.93L29.31 0L24.58 0L24.58-45.44L29.18-45.44L28.48-25.28L34.82-25.60L34.82-45.44L39.49-45.44L39.49 0L36.67 0ZM59.01 0L50.50 0L50.50 0Q47.87 0 46.85-0.83L46.85-0.83L46.85-0.83Q45.82-1.66 45.82-3.58L45.82-3.58L45.82-43.90L45.82-43.90Q47.23-44.67 49.50-45.06L49.50-45.06L49.50-45.06Q51.78-45.44 55.55-45.44L55.55-45.44L55.55-45.44Q57.28-45.44 58.37-44.58L58.37-44.58L58.37-44.58Q59.46-43.71 59.46-42.37L59.46-42.37L59.01 0ZM49.92-4.03L54.46-3.65L55.04-4.22L55.42-40.77L55.42-40.77Q55.42-41.09 54.85-41.15L54.85-41.15L50.88-41.34L50.30-40.96L49.92-4.03ZM89.02-45.44L91.65 0L88.83 0L86.53-17.02L81.41-14.59L80 0L76.03 0L78.91-45.44L89.02-45.44ZM85.70-42.37L85.70-42.37Q85.70-42.75 85.31-42.75L85.31-42.75L82.56-42.11L82.56-42.11Q82.18-41.92 82.18-41.47L82.18-41.47L82.18-18.94L82.18-18.94Q82.18-18.62 82.56-18.62L82.56-18.62L84.93-19.01L84.93-19.01Q85.31-19.01 85.31-19.39L85.31-19.39L85.70-42.37ZM100.29 0L96.96 0L96.96-45.44L101.57-45.44L106.24-17.66L106.75-17.66L111.10-45.44L114.82-45.44L116.29 0L112.06 0L112.06-34.24L111.62-34.24L107.20-10.05L105.09-9.60L100.54-37.70L100.29-37.70L100.29 0ZM138.88-45.44L138.30 0L133.57 0L133.57-39.42L132.42-42.50L132.42-45.44L138.88-45.44ZM151.10-9.92L148.22-10.43L148.22-22.98L153.47-31.49L154.24-41.34L149.50-41.34L148.35-39.81L148.16-34.69L145.02-35.14L145.02-44.16L150.53-45.44L159.04-45.44L158.21-29.70L152-20.42L151.10-9.92ZM146.75 0L146.75-5.89L152.90-6.14L152.64 0L146.75 0Z" fill="#ccc"></path></g></g><style>text {
  font-size: 64px;
  font-family: Arial Black;
  dominant-baseline: central;
  text-anchor: middle;
}</style></svg>