<svg width="497.95998535156247px" height="122.39999389648438px" xmlns="http://www.w3.org/2000/svg" viewBox="1.020007324218767 13.800003051757812 497.95998535156247 122.39999389648438" style="background: none;" preserveAspectRatio="xMidYMid"><defs><filter id="editing-extrusion" x="-100%" y="-100%" width="300%" height="300%"><feFlood result="color1" flood-color="#444"></feFlood><feConvolveMatrix order="8,8" divisor="1" kernelMatrix="1 0 0 0 0 0 0 0 0 1 0 0 0 0 0 0 0 0 1 0 0 0 0 0 0 0 0 1 0 0 0 0 0 0 0 0 1 0 0 0 0 0 0 0 0 1 0 0 0 0 0 0 0 0 1 0 0 0 0 0 0 0 0 1" in="SourceAlpha" result="extrude"></feConvolveMatrix><feComposite in="color1" in2="extrude" result="comp-extrude" operator="in"></feComposite><feOffset dx="4" dy="4" in="comp-extrude" result="offset-extrude"></feOffset><feMerge><feMergeNode in="offset-extrude"></feMergeNode><feMergeNode in="SourceGraphic"></feMergeNode></feMerge></filter></defs><g filter="url(#editing-extrusion)"><g transform="translate(74.64000916481018, 98.35999870300293)"><path d="M16.45-45.44L20.93-45.44L18.62 0L14.59 0L10.69-26.69L10.43-26.69L6.53 0L3.01 0L0.51-45.44L5.18-45.44L5.18-5.50L5.44-5.50L9.09-38.27L11.84-38.27L16.13-5.50L16.45-5.50L16.45-45.44ZM36.67 0L34.82-19.84L29.31-20.93L29.31 0L24.58 0L24.58-45.44L29.18-45.44L28.48-25.28L34.82-25.60L34.82-45.44L39.49-45.44L39.49 0L36.67 0ZM59.01 0L50.50 0L50.50 0Q47.87 0 46.85-0.83L46.85-0.83L46.85-0.83Q45.82-1.66 45.82-3.58L45.82-3.58L45.82-43.90L45.82-43.90Q47.23-44.67 49.50-45.06L49.50-45.06L49.50-45.06Q51.78-45.44 55.55-45.44L55.55-45.44L55.55-45.44Q57.28-45.44 58.37-44.58L58.37-44.58L58.37-44.58Q59.46-43.71 59.46-42.37L59.46-42.37L59.01 0ZM49.92-4.03L54.46-3.65L55.04-4.22L55.42-40.77L55.42-40.77Q55.42-41.09 54.85-41.15L54.85-41.15L50.88-41.34L50.30-40.96L49.92-4.03ZM69.18 0L65.86 0L65.86-45.44L70.46-45.44L75.14-17.66L75.65-17.66L80-45.44L83.71-45.44L85.18 0L80.96 0L80.96-34.24L80.51-34.24L76.10-10.05L73.98-9.60L69.44-37.70L69.18-37.70L69.18 0ZM112.45-45.44L117.38-43.39L117.38-3.58L117.38-3.58Q117.38-1.47 116.03-0.74L116.03-0.74L116.03-0.74Q114.69 0 113.60 0L113.60 0L102.85 0L102.85-3.58L103.23-5.38L101.89-45.44L112.45-45.44ZM110.02-4.42L110.02-4.42Q110.98-4.42 111.49-5.18L111.49-5.18L111.49-5.18Q112.00-5.95 112.13-8.38L112.13-8.38L113.41-40.83L113.41-40.83Q113.41-41.22 113.28-41.31L113.28-41.31L113.28-41.31Q113.15-41.41 112.83-41.41L112.83-41.41L107.97-41.41L107.97-41.41Q107.39-41.41 107.39-40.83L107.39-40.83L107.39-4.99L107.39-4.99Q107.39-4.42 107.97-4.42L107.97-4.42L110.02-4.42ZM136.90 0L128.38 0L128.38 0Q125.76 0 124.74-0.83L124.74-0.83L124.74-0.83Q123.71-1.66 123.71-3.58L123.71-3.58L123.71-43.90L123.71-43.90Q125.12-44.67 127.39-45.06L127.39-45.06L127.39-45.06Q129.66-45.44 133.44-45.44L133.44-45.44L133.44-45.44Q135.17-45.44 136.26-44.58L136.26-44.58L136.26-44.58Q137.34-43.71 137.34-42.37L137.34-42.37L136.90 0ZM127.81-4.03L132.35-3.65L132.93-4.22L133.31-40.77L133.31-40.77Q133.31-41.09 132.74-41.15L132.74-41.15L128.77-41.34L128.19-40.96L127.81-4.03ZM160.45-45.44L159.87 0L155.14 0L155.14-39.42L153.98-42.50L153.98-45.44L160.45-45.44ZM198.98-0.64L192.83-0.64L187.97-32L187.71-32L186.24 0L179.52 0L175.10-45.44L179.26-45.44L182.53-2.37L182.78-2.37L185.92-44.16L190.53-44.16L190.14-34.50L195.46-2.11L195.78-2.11L197.18-44.80L201.09-44.80L198.98-0.64ZM217.86 0L209.34 0L209.34 0Q206.72 0 205.70-0.83L205.70-0.83L205.70-0.83Q204.67-1.66 204.67-3.58L204.67-3.58L204.67-43.90L204.67-43.90Q206.08-44.67 208.35-45.06L208.35-45.06L208.35-45.06Q210.62-45.44 214.40-45.44L214.40-45.44L214.40-45.44Q216.13-45.44 217.22-44.58L217.22-44.58L217.22-44.58Q218.30-43.71 218.30-42.37L218.30-42.37L217.86 0ZM208.77-4.03L213.31-3.65L213.89-4.22L214.27-40.77L214.27-40.77Q214.27-41.09 213.70-41.15L213.70-41.15L209.73-41.34L209.15-40.96L208.77-4.03ZM224.70-44.74L224.70-44.74Q224.70-45.06 227.33-45.25L227.33-45.25L227.33-45.25Q229.95-45.44 232.51-45.44L232.51-45.44L235.26-45.44L235.26-45.44Q236.29-45.44 236.93-44.67L236.93-44.67L236.93-44.67Q237.57-43.90 237.63-42.69L237.63-42.69L238.27-24.26L235.39-20.48L240.51-1.41L239.30 0L235.52 0L232.26-19.90L228.99-19.58L227.65 0L224.70 0L224.70-44.74ZM228.74-24.38L233.54-24.64L233.54-24.64Q233.92-24.64 233.92-25.02L233.92-25.02L233.92-40.96L232.96-41.92L228.54-41.47L228.74-24.38ZM259.78-1.34L258.62 0L254.85 0L251.46-21.63L250.05-20.54L250.05 0L245.76 0L244.93-44.80L246.59-45.44L249.28-45.44L249.28-23.81L253.82-27.65L253.12-43.97L258.62-45.44L257.28-25.66L254.66-23.62L259.78-1.34ZM281.41 1.28L276.16 1.28L276.16-45.44L289.86-44.16L289.86-40.19L281.22-39.42L281.22-28.61L289.86-28.61L289.86-24.90L280.13-23.81L281.41 1.28ZM308.86 0L300.35 0L300.35 0Q297.73 0 296.70-0.83L296.70-0.83L296.70-0.83Q295.68-1.66 295.68-3.58L295.68-3.58L295.68-43.90L295.68-43.90Q297.09-44.67 299.36-45.06L299.36-45.06L299.36-45.06Q301.63-45.44 305.41-45.44L305.41-45.44L305.41-45.44Q307.14-45.44 308.22-44.58L308.22-44.58L308.22-44.58Q309.31-43.71 309.31-42.37L309.31-42.37L308.86 0ZM299.78-4.03L304.32-3.65L304.90-4.22L305.28-40.77L305.28-40.77Q305.28-41.09 304.70-41.15L304.70-41.15L300.74-41.34L300.16-40.96L299.78-4.03ZM315.71-44.74L315.71-44.74Q315.71-45.06 318.34-45.25L318.34-45.25L318.34-45.25Q320.96-45.44 323.52-45.44L323.52-45.44L326.27-45.44L326.27-45.44Q327.30-45.44 327.94-44.67L327.94-44.67L327.94-44.67Q328.58-43.90 328.64-42.69L328.64-42.69L329.28-24.26L326.40-20.48L331.52-1.41L330.30 0L326.53 0L323.26-19.90L320-19.58L318.66 0L315.71 0L315.71-44.74ZM319.74-24.38L324.54-24.64L324.54-24.64Q324.93-24.64 324.93-25.02L324.93-25.02L324.93-40.96L323.97-41.92L319.55-41.47L319.74-24.38ZM342.27-9.92L339.39-10.43L339.39-22.98L344.64-31.49L345.41-41.34L340.67-41.34L339.52-39.81L339.33-34.69L336.19-35.14L336.19-44.16L341.70-45.44L350.21-45.44L349.38-29.70L343.17-20.42L342.27-9.92ZM337.92 0L337.92-5.89L344.06-6.14L343.81 0L337.92 0Z" fill="#ccc"></path></g></g><style>text {
  font-size: 64px;
  font-family: Arial Black;
  dominant-baseline: central;
  text-anchor: middle;
}</style></svg>