<svg xmlns="http://www.w3.org/2000/svg" viewBox="0 0 500 500"><g id="freepik--Floor--inject-5"><path d="M410.66,241.87c-89.7-51.79-234.64-51.79-323.75,0S-1.73,377.62,88,429.4s234.64,51.79,323.76,0S500.36,293.65,410.66,241.87Z" style="fill:#e0e0e0"></path><path d="M254.45,203.08l-234,135a80,80,0,0,0,.77,8.3L268.78,203.55Q261.63,203.19,254.45,203.08Z" style="fill:#fff"></path><path d="M204.73,465.6c4.32.5,8.65,1,13,1.32l258.34-149q-.91-3.79-2.19-7.56Z" style="fill:#fff"></path><path d="M410.66,241.87C371,219,320.48,206.19,268.78,203.55L21.21,346.38c4.39,30.27,26.64,59.86,66.75,83,33.22,19.18,74,31.23,116.77,36.2L473.89,310.32C465.37,285.24,444.3,261.29,410.66,241.87Z" style="fill:#455a64"></path><path d="M410.66,241.87c-43.35-25-99.59-38-156.21-38.79l-234,135C21.68,371.19,44.19,404.13,88,429.4c36.58,21.12,82.35,33.62,129.78,37.52l258.34-149C469.47,290.08,447.67,263.23,410.66,241.87Z" style="fill:#fff;opacity:0.2"></path><polygon points="297.44 220.33 256.63 244.05 249.85 240.13 290.67 216.42 297.44 220.33" style="fill:#fff"></polygon><polygon points="311 228.15 270.18 251.87 263.41 247.96 304.22 224.24 311 228.15" style="fill:#fff"></polygon><polygon points="324.55 235.98 283.74 259.7 276.96 255.78 317.77 232.07 324.55 235.98" style="fill:#fff"></polygon><polygon points="413.4 287.27 372.59 310.99 365.81 307.08 406.62 283.36 413.4 287.27" style="fill:#fff"></polygon><polygon points="426.95 295.1 386.14 318.82 379.36 314.9 420.18 291.19 426.95 295.1" style="fill:#fff"></polygon><polygon points="399.85 279.45 359.03 303.17 352.26 299.25 393.07 275.54 399.85 279.45" style="fill:#fff"></polygon><polygon points="200.5 276.25 159.69 299.97 152.91 296.06 193.73 272.34 200.5 276.25" style="fill:#fff"></polygon><polygon points="214.06 284.07 173.24 307.79 166.47 303.88 207.28 280.16 214.06 284.07" style="fill:#fff"></polygon><polygon points="227.61 291.9 186.8 315.62 180.02 311.7 220.83 287.99 227.61 291.9" style="fill:#fff"></polygon><polygon points="316.46 343.2 275.64 366.92 268.87 363 309.68 339.28 316.46 343.2" style="fill:#fff"></polygon><polygon points="330.01 351.02 289.2 374.74 282.42 370.83 323.24 347.11 330.01 351.02" style="fill:#fff"></polygon><polygon points="302.9 335.37 262.09 359.09 255.32 355.18 296.13 331.46 302.9 335.37" style="fill:#fff"></polygon><polygon points="102.41 332.7 61.59 356.42 54.82 352.51 95.63 328.79 102.41 332.7" style="fill:#fff"></polygon><polygon points="115.96 340.53 75.15 364.25 68.37 360.33 109.18 336.62 115.96 340.53" style="fill:#fff"></polygon><polygon points="129.51 348.35 88.7 372.07 81.92 368.16 122.74 344.44 129.51 348.35" style="fill:#fff"></polygon><polygon points="218.36 399.65 177.55 423.37 170.77 419.45 211.59 395.74 218.36 399.65" style="fill:#fff"></polygon><polygon points="231.91 407.47 191.1 431.19 184.32 427.28 225.14 403.56 231.91 407.47" style="fill:#fff"></polygon><polygon points="204.81 391.82 164 415.54 157.22 411.63 198.03 387.91 204.81 391.82" style="fill:#fff"></polygon><polygon points="366.88 254.85 326.07 278.57 319.29 274.65 360.11 250.94 363.5 252.89 366.88 254.85" style="fill:#fff"></polygon><polygon points="294 297.2 253.18 320.92 246.41 317.01 287.23 293.29 290.62 295.25 294 297.2" style="fill:#fff"></polygon><polygon points="221.12 339.56 180.3 363.28 173.53 359.37 214.34 335.65 217.73 337.6 221.12 339.56" style="fill:#fff"></polygon><polygon points="148.24 381.91 107.42 405.63 100.65 401.72 141.46 378 144.85 379.96 148.24 381.91" style="fill:#fff"></polygon></g><g id="freepik--Shadows--inject-5"><path d="M94.15,390.13C82.74,396.72,82.68,407.4,94,414s29.78,6.59,41.19,0,11.47-17.26.13-23.85S105.56,383.54,94.15,390.13Z" style="opacity:0.1"></path><path d="M459.32,345.92h0c-2.52-9.66-77.89-40.14-105.37-51l1.39-.94.11-.07,4.61-3.18.18-.13c1.55-1.07,3.12-2.18,4.71-3.3l.21-.14,4.77-3.41.26-.19,4.78-3.47.28-.21,2.38-1.75.14-.1,2.25-1.68.29-.21,2.33-1.75.26-.2c.73-.55,1.45-1.09,2.16-1.64l.24-.18,2.26-1.73.37-.29,2.1-1.62.17-.14,2.19-1.71.41-.32,2.06-1.64.1-.08,2.08-1.67.43-.35q2.05-1.67,4-3.3c.14-.12.28-.24.43-.35l1.72-1.45c19.6,1.43,45.29-.45,50.08-3a2.49,2.49,0,0,0,.62-.46h0c.9-.89,1.06-2.28.13-4h0c-1.92-3.18-18.35-7.83-32.23-12,1.31-4.26.71-10.65-1.2-12.55a14,14,0,0,0-8.75-3.51c-5.59,1.07-10.89,3.12-14.09,1.33-2.95-1.65-3.86-6.84-7.43-13.16-2.55-3.29-5.1-5.53-7.06-5-2.44.66-3.41,3.81-4.15,8.62h0c-.87,4.69-.5,12.19.1,18.61-4,1.57-8.3,3.29-12.79,5.13h0c-18.27,7.5-40,17.12-59.66,27.38-33-29.44-75.4-69.49-88.64-66.67-4.65,1-7.29,3.5-8.21,7.27h0s0,.09,0,.14a10.34,10.34,0,0,0-.25,1.39,28.64,28.64,0,0,0,0,9.32v0c.94,8.62,6.92,21,16.29,35.74-2.26,1.11-4.47,2.27-6.54,3.48l0,0h0c-1.94,1.13-3.77,2.29-5.39,3.46h0c-1.38.76-2.24,2.43-2.25,4.82A16.4,16.4,0,0,0,219.62,277c2.33,1.34,4.41,1.31,5.78.18h0c2.22-1.22,4.65-2.72,7.15-4.36h0c1.73-1.14,3.49-2.34,5.24-3.58q3.69,5.22,7.75,10.68c-1.19.63-2.36,1.28-3.49,1.93l0,0h0a62.06,62.06,0,0,0-5.39,3.47h0c-1.38.76-2.24,2.43-2.25,4.82a16.41,16.41,0,0,0,7.44,12.87,7.6,7.6,0,0,0,2.27.9c-7.33,5.8-11.31,10.28-14.39,14.73-.55.8-1.1,1.64-1.63,2.5h0c-.65,1.05-1.27,2.13-1.84,3.23v0c-.57,1.1-1.09,2.22-1.54,3.34h0c-3.41,8.53-2.62,17,12.79,17.23,16.33.5,43.58-10.47,66.28-21.43q6.32,1.92,12.53,3.74c-.86.55-1.68,1.11-2.46,1.67h0c-1.38.76-2.24,2.42-2.24,4.81A16.37,16.37,0,0,0,319,346.69c2.33,1.34,4.41,1.31,5.78.18h0c2.22-1.22,4.65-2.72,7.15-4.36h0c3.65-2.4,7.44-5.11,10.94-7.7,6.27,1.68,12.4,3.27,18.34,4.75-1.15.72-2.25,1.45-3.26,2.18h0c-1.38.76-2.24,2.43-2.25,4.82a16.43,16.43,0,0,0,7.43,12.88c2.33,1.34,4.41,1.31,5.79.18h0c2.22-1.22,4.65-2.72,7.15-4.37h0c4.39-2.88,9-6.21,13-9.25,35.8,7.58,61.5,9.94,69.29,5.45A2.25,2.25,0,0,0,459,351h0C460,350,460.1,348.27,459.32,345.92Z" style="opacity:0.1"></path></g><g id="freepik--Tower--inject-5"><polygon points="81.95 257.58 81.95 155.42 97.6 164.46 97.6 266.62 81.95 257.58" style="fill:#e6e6e6"></polygon><polygon points="118.89 161.15 118.89 263.31 97.6 266.62 97.6 164.46 118.89 161.15" style="fill:#f0f0f0"></polygon><polygon points="124.53 148.81 124.53 250.97 118.89 263.31 118.89 161.15 124.53 148.81" style="fill:#fafafa"></polygon><g style="opacity:0.05"><polygon points="81.95 257.58 81.95 155.42 97.6 164.46 97.6 266.62 81.95 257.58"></polygon><polygon points="118.89 161.15 118.89 263.31 97.6 266.62 97.6 164.46 118.89 161.15"></polygon><polygon points="124.53 148.81 124.53 250.97 118.89 263.31 118.89 161.15 124.53 148.81"></polygon></g><polygon points="140.56 145.37 130.68 167.01 93.36 172.81 65.92 156.96 75.81 135.33 113.13 129.53 140.56 145.37" style="fill:#f0f0f0"></polygon><polygon points="65.92 162.46 65.92 156.96 93.36 172.81 93.36 178.31 65.92 162.46" style="fill:#e0e0e0"></polygon><polygon points="130.68 167.01 130.68 172.51 93.36 178.31 93.36 172.81 130.68 167.01" style="fill:#ebebeb"></polygon><polygon points="140.56 145.37 140.56 150.87 130.68 172.51 130.68 167.01 140.56 145.37" style="fill:#fafafa"></polygon><polygon points="96.39 138.25 77.36 127.26 77.36 146.63 96.39 157.62 96.39 138.25" style="fill:#e0e0e0"></polygon><polygon points="122.27 134.23 96.39 138.25 96.39 157.61 122.27 153.59 122.27 134.23" style="fill:#e0e0e0"></polygon><polygon points="129.12 119.22 122.27 134.23 122.27 153.46 129.12 138.46 129.12 119.22" style="fill:#e0e0e0"></polygon><polygon points="96.39 138.25 77.36 127.26 77.36 146.63 96.39 157.62 96.39 138.25" style="opacity:0.30000000000000004"></polygon><polygon points="77.36 146.63 77.36 154.24 96.39 165.23 96.39 157.62 77.36 146.63" style="fill:#e0e0e0"></polygon><polygon points="96.39 157.61 96.39 165.23 122.27 161.21 122.27 153.59 96.39 157.61" style="fill:#ebebeb"></polygon><polygon points="122.27 134.23 96.39 138.25 96.39 157.61 122.27 153.59 122.27 134.23" style="opacity:0.2"></polygon><polygon points="129.12 119.22 122.27 134.23 122.27 153.46 129.12 138.46 129.12 119.22" style="opacity:0.1"></polygon><polygon points="122.27 153.46 122.27 161.21 129.12 146.2 129.12 138.46 122.27 153.46" style="fill:#fafafa"></polygon><polygon points="77.36 146.63 77.36 154.24 96.39 165.23 96.39 157.62 77.36 146.63" style="opacity:0.1"></polygon><polygon points="96.39 157.61 96.39 165.23 122.27 161.21 122.27 153.59 96.39 157.61" style="opacity:0.1"></polygon><polygon points="122.27 153.46 122.27 161.21 129.12 146.2 129.12 138.46 122.27 153.46" style="opacity:0.1"></polygon><polygon points="140.56 107.89 130.68 129.52 93.36 135.32 65.92 119.48 75.81 97.84 113.13 92.04 140.56 107.89" style="fill:#f0f0f0"></polygon><polygon points="65.92 124.98 65.92 119.48 93.36 135.32 93.36 140.82 65.92 124.98" style="fill:#e0e0e0"></polygon><polygon points="130.68 129.52 130.68 135.02 93.36 140.82 93.36 135.32 130.68 129.52" style="fill:#ebebeb"></polygon><polygon points="140.56 107.89 140.56 113.39 130.68 135.02 130.68 129.52 140.56 107.89" style="fill:#fafafa"></polygon><path d="M105.4,112.86c0-10.39-.84-23.88-.84-23.88h0a.67.67,0,0,0-.39-.54,2.06,2.06,0,0,0-1.87,0,.67.67,0,0,0-.38.54s-.84,13.49-.84,23.88a1.13,1.13,0,0,0,.64.89,3.41,3.41,0,0,0,3,0A1.09,1.09,0,0,0,105.4,112.86Z" style="fill:#e0e0e0"></path><path d="M105.4,112.86c0-10.39-.84-23.88-.84-23.88h0a.67.67,0,0,0-.39-.54,2.06,2.06,0,0,0-1.87,0,.67.67,0,0,0-.38.54s-.84,13.49-.84,23.88a1.13,1.13,0,0,0,.64.89,3.41,3.41,0,0,0,3,0A1.09,1.09,0,0,0,105.4,112.86Z" style="opacity:0.1"></path><path d="M109.67,91a6.43,6.43,0,1,1-6.43-6.43A6.43,6.43,0,0,1,109.67,91Z" style="fill:#e0e0e0"></path><path d="M109.67,91a6.43,6.43,0,1,1-6.43-6.43A6.43,6.43,0,0,1,109.67,91Z" style="fill:#e0e0e0"></path><path d="M104.52,86c0-6.15-.5-14.13-.5-14.13h0a.41.41,0,0,0-.23-.32,1.25,1.25,0,0,0-1.1,0,.41.41,0,0,0-.23.32s-.5,8-.5,14.13a.65.65,0,0,0,.38.52,2,2,0,0,0,1.81,0A.64.64,0,0,0,104.52,86Z" style="fill:#e0e0e0"></path><path d="M104.52,86c0-6.15-.5-14.13-.5-14.13h0a.41.41,0,0,0-.23-.32,1.25,1.25,0,0,0-1.1,0,.41.41,0,0,0-.23.32s-.5,8-.5,14.13a.65.65,0,0,0,.38.52,2,2,0,0,0,1.81,0A.64.64,0,0,0,104.52,86Z" style="opacity:0.1"></path></g><g id="freepik--Clouds--inject-5"><path d="M350.55,59.22c-4.17-2.41-7.69-1.23-8.81,2.51a12.3,12.3,0,0,0-4.5-5c-3.27-1.89-5.93-.37-5.94,3.38v1.72l-4.38-2.53c-2.29-1.32-4.15-.26-4.16,2.37a9.1,9.1,0,0,0,4.13,7.16L364,90.27c2.29,1.32,4.15.26,4.16-2.37a9.14,9.14,0,0,0-4.13-7.16l-4.39-2.53V75C359.7,69.22,355.61,62.14,350.55,59.22Z" style="fill:#e6e6e6"></path><path d="M314.14,73.27c-3-1.73-5.52-.88-6.33,1.81a8.8,8.8,0,0,0-3.23-3.6c-2.34-1.36-4.25-.27-4.26,2.43v1.23l-3.15-1.81c-1.65-1-3-.19-3,1.7a6.55,6.55,0,0,0,3,5.13l26.67,15.4c1.64,1,3,.19,3-1.7a6.53,6.53,0,0,0-3-5.14l-3.15-1.81V84.63A14.48,14.48,0,0,0,314.14,73.27Z" style="fill:#e6e6e6"></path></g><g id="freepik--Aircraft--inject-5"><path d="M382.76,137s-5.33-33.54,1-35.27c-2.44.66-3.41,3.82-4.15,8.62h0c-1.78,9.55,1.59,30.76,1.59,30.76L400,129.54s-.43-.93-1.16-2.41Z" style="fill:#EA9A97"></path><path d="M382.76,137l16.1-9.88,2.77-1.71S389.85,100,383.72,101.74C377.43,103.47,382.76,137,382.76,137Z" style="fill:#EA9A97"></path><path d="M382.76,137l16.1-9.88,2.77-1.71S389.85,100,383.72,101.74C377.43,103.47,382.76,137,382.76,137Z" style="opacity:0.2"></path><path d="M281,173.53a10.6,10.6,0,0,0-4.83-8.35,3.66,3.66,0,0,0-3.05-.52h0l-.05,0c-1,.34-24.41,8.24-36.46,17l11,17.88c12.67-7,32.15-23,32.15-23A3.51,3.51,0,0,0,281,173.53Z" style="fill:#EA9A97"></path><path d="M281,173.53a10.6,10.6,0,0,0-4.83-8.35,3.66,3.66,0,0,0-3.05-.52h0l-.05,0c-1,.34-24.41,8.24-36.46,17l11,17.88c12.67-7,32.15-23,32.15-23A3.51,3.51,0,0,0,281,173.53Z" style="opacity:0.2"></path><path d="M255.15,192.5c0-5.25-3.69-11.67-8.26-14.31a8.73,8.73,0,0,0-2.9-1.09c-.67.37-1.33.74-2,1.12a5.82,5.82,0,0,1,4.33.89c4.28,2.47,7.75,8.48,7.73,13.39a6.14,6.14,0,0,1-1.12,3.86l1.79-1.17A8.59,8.59,0,0,0,255.15,192.5Z" style="fill:#fff"></path><path d="M245.54,188.7a12,12,0,0,1,1.11,2.55A12,12,0,0,0,245.54,188.7Z" style="fill:none"></path><path d="M236.63,187.8h0a5.91,5.91,0,0,1,.11-1.15A5.91,5.91,0,0,0,236.63,187.8Z" style="fill:none"></path><path d="M245.54,188.7a10.71,10.71,0,0,0-3.68-3.89A10.71,10.71,0,0,1,245.54,188.7Z" style="fill:none"></path><path d="M246.65,191.25a9,9,0,0,1,.4,2.57h0A9,9,0,0,0,246.65,191.25Z" style="fill:none"></path><path d="M241.86,182.24c-4.11-2.38-7.46-.47-7.48,4.26a16.41,16.41,0,0,0,7.44,12.88c4.11,2.38,7.46.46,7.48-4.27A16.39,16.39,0,0,0,241.86,182.24Zm5.19,11.58c0,3.3-2.35,4.64-5.23,3a11.47,11.47,0,0,1-5.19-9h0a5.91,5.91,0,0,1,.11-1.15c.49-2.45,2.6-3.29,5.12-1.84a10.71,10.71,0,0,1,3.68,3.89,12,12,0,0,1,1.11,2.55,9,9,0,0,1,.4,2.57Z" style="fill:#EA9A97"></path><path d="M240.08,185.56h0a5.8,5.8,0,0,1,.11-1.14c0-.08.05-.15.07-.23a2.82,2.82,0,0,0-3.52,2.46,5.91,5.91,0,0,0-.11,1.15h0a11.47,11.47,0,0,0,5.19,9c2.44,1.4,4.48.66,5.06-1.61a5.41,5.41,0,0,1-1.6-.63A11.45,11.45,0,0,1,240.08,185.56Z" style="fill:#37474f"></path><path d="M246.65,191.25a12,12,0,0,0-1.11-2.55,10.71,10.71,0,0,0-3.68-3.89,5.65,5.65,0,0,0-1.6-.62c0,.08,0,.15-.07.23a5.8,5.8,0,0,0-.11,1.14h0a11.45,11.45,0,0,0,5.2,9,5.41,5.41,0,0,0,1.6.63,5.24,5.24,0,0,0,.17-1.37A9,9,0,0,0,246.65,191.25Z" style="fill:#263238"></path><path d="M258.82,147.51a10.64,10.64,0,0,0-4.82-8.36,3.7,3.7,0,0,0-3.05-.52h0l0,0c-1,.34-24.42,8.25-36.47,17l11,17.88c12.68-7,32.16-23,32.16-23A3.48,3.48,0,0,0,258.82,147.51Z" style="fill:#EA9A97"></path><path d="M258.82,147.51a10.64,10.64,0,0,0-4.82-8.36,3.7,3.7,0,0,0-3.05-.52h0l0,0c-1,.34-24.42,8.25-36.47,17l11,17.88c12.68-7,32.16-23,32.16-23A3.48,3.48,0,0,0,258.82,147.51Z" style="opacity:0.2"></path><path d="M233,166.48c0-5.26-3.69-11.68-8.27-14.32a8.44,8.44,0,0,0-2.89-1.08l-2,1.11a5.81,5.81,0,0,1,4.34.9c4.27,2.47,7.74,8.47,7.73,13.39a6.13,6.13,0,0,1-1.13,3.85l1.8-1.16A8.69,8.69,0,0,0,233,166.48Z" style="fill:#fff"></path><path d="M223.34,162.67a12.76,12.76,0,0,1,1.12,2.55A12.76,12.76,0,0,0,223.34,162.67Z" style="fill:none"></path><path d="M214.43,161.77h0a6.68,6.68,0,0,1,.11-1.14A6.68,6.68,0,0,0,214.43,161.77Z" style="fill:none"></path><path d="M223.34,162.67a10.6,10.6,0,0,0-3.68-3.88A10.6,10.6,0,0,1,223.34,162.67Z" style="fill:none"></path><path d="M224.46,165.22a9,9,0,0,1,.4,2.57h0A9,9,0,0,0,224.46,165.22Z" style="fill:none"></path><path d="M219.67,156.22c-4.12-2.38-7.47-.47-7.48,4.26a16.4,16.4,0,0,0,7.43,12.87c4.12,2.38,7.47.46,7.48-4.26A16.34,16.34,0,0,0,219.67,156.22Zm5.19,11.57c0,3.3-2.35,4.64-5.23,3a11.47,11.47,0,0,1-5.2-9h0a6.68,6.68,0,0,1,.11-1.14c.5-2.45,2.6-3.3,5.12-1.84a10.6,10.6,0,0,1,3.68,3.88,12.76,12.76,0,0,1,1.12,2.55,9,9,0,0,1,.4,2.57Z" style="fill:#EA9A97"></path><path d="M217.89,159.54h0a5.83,5.83,0,0,1,.11-1.15,1.87,1.87,0,0,1,.07-.22,2.81,2.81,0,0,0-3.53,2.46,6.68,6.68,0,0,0-.11,1.14h0a11.47,11.47,0,0,0,5.2,9c2.44,1.41,4.48.66,5.06-1.6a5.4,5.4,0,0,1-1.61-.64A11.43,11.43,0,0,1,217.89,159.54Z" style="fill:#37474f"></path><path d="M224.46,165.22a12.76,12.76,0,0,0-1.12-2.55,10.6,10.6,0,0,0-3.68-3.88,5.06,5.06,0,0,0-1.59-.62,1.87,1.87,0,0,0-.07.22,5.83,5.83,0,0,0-.11,1.15h0a11.43,11.43,0,0,0,5.19,9,5.4,5.4,0,0,0,1.61.64,5.79,5.79,0,0,0,.17-1.38A9,9,0,0,0,224.46,165.22Z" style="fill:#263238"></path><path d="M210.35,102.08s0,.09,0,.14l0-.12Z" style="fill:#455a64"></path><path d="M267.23,199.1c-33.74-42.16-59.11-79-57.15-95.48a28.58,28.58,0,0,0,0,9.31v0c2,18.06,26,52.4,57.12,91.31l48.44-30.12V169Z" style="fill:#EA9A97"></path><path d="M267.23,199.1,315.67,169c-33.78-29.55-82.7-77.22-97.1-74.15-4.65,1-7.29,3.49-8.21,7.27l0,.12a10.21,10.21,0,0,0-.25,1.4C208.12,120.14,233.49,156.94,267.23,199.1Z" style="fill:#EA9A97"></path><path d="M267.23,199.1,315.67,169c-33.78-29.55-82.7-77.22-97.1-74.15-4.65,1-7.29,3.49-8.21,7.27l0,.12a10.21,10.21,0,0,0-.25,1.4C208.12,120.14,233.49,156.94,267.23,199.1Z" style="opacity:0.2"></path><path d="M237.48,241.33c25.41.77,77.24-26.2,97.23-37.74s73.82-50,86.34-66.5c2.73-3.63,2.34-12.7,0-15s-7.13-4.15-12.44-3.37S338.52,143.31,293.44,169s-56.74,35.89-63.74,46S216.34,241.07,237.48,241.33Z" style="fill:#EA9A97"></path><path d="M237.48,241.33c25.41.77,77.24-26.2,97.23-37.74s73.82-50,86.34-66.5c2.73-3.63,2.34-12.7,0-15s-7.13-4.15-12.44-3.37S338.52,143.31,293.44,169s-56.74,35.89-63.74,46S216.34,241.07,237.48,241.33Z" style="opacity:0.05"></path><path d="M421.05,122.05c-2.33-2.33-7.13-4.15-12.44-3.37-2.62.39-19.7,6.38-41.74,15.43a20.74,20.74,0,0,1,4.59.25c3.83.66,7.61,2.88,9.12,6.47,2.25,5.32-1.18,11.41-5.51,15.24s-9.7,6.54-13.23,11.12c-4.22,5.49-5.12,12.73-6.94,19.42a36.86,36.86,0,0,1-1.83,5.26c24.31-16.42,58.35-42.06,68-54.78C423.78,133.46,423.39,124.39,421.05,122.05Z" style="fill:#EA9A97"></path><path d="M421.05,122.05c-2.33-2.33-7.13-4.15-12.44-3.37-2.62.39-19.7,6.38-41.74,15.43a20.74,20.74,0,0,1,4.59.25c3.83.66,7.61,2.88,9.12,6.47,2.25,5.32-1.18,11.41-5.51,15.24s-9.7,6.54-13.23,11.12c-4.22,5.49-5.12,12.73-6.94,19.42a36.86,36.86,0,0,1-1.83,5.26c24.31-16.42,58.35-42.06,68-54.78C423.78,133.46,423.39,124.39,421.05,122.05Z" style="fill:#fff;opacity:0.2"></path><path d="M358.22,217.16a10.64,10.64,0,0,0-4.83-8.36,3.71,3.71,0,0,0-3-.52h0l0,0c-1,.35-24.42,8.25-36.47,17l11,17.88c12.67-7,32.15-23,32.16-23A3.48,3.48,0,0,0,358.22,217.16Z" style="fill:#EA9A97"></path><path d="M358.22,217.16a10.64,10.64,0,0,0-4.83-8.36,3.71,3.71,0,0,0-3-.52h0l0,0c-1,.35-24.42,8.25-36.47,17l11,17.88c12.67-7,32.15-23,32.16-23A3.48,3.48,0,0,0,358.22,217.16Z" style="opacity:0.2"></path><path d="M332.36,236.13c0-5.25-3.7-11.68-8.27-14.32a8.73,8.73,0,0,0-2.89-1.08l-2,1.11a5.83,5.83,0,0,1,4.33.9c4.28,2.47,7.75,8.47,7.74,13.39a6.13,6.13,0,0,1-1.13,3.85l1.8-1.16A9.32,9.32,0,0,0,332.36,236.13Z" style="fill:#fff"></path><path d="M322.74,232.32a12.17,12.17,0,0,1,1.11,2.55A12.17,12.17,0,0,0,322.74,232.32Z" style="fill:none"></path><path d="M313.83,231.43h0a5.83,5.83,0,0,1,.11-1.15A5.83,5.83,0,0,0,313.83,231.43Z" style="fill:none"></path><path d="M322.74,232.32a10.6,10.6,0,0,0-3.68-3.88A10.6,10.6,0,0,1,322.74,232.32Z" style="fill:none"></path><path d="M323.85,234.87a8.75,8.75,0,0,1,.4,2.57h0A8.75,8.75,0,0,0,323.85,234.87Z" style="fill:none"></path><path d="M319.07,225.87c-4.12-2.38-7.47-.47-7.48,4.26A16.36,16.36,0,0,0,319,243c4.12,2.38,7.47.47,7.48-4.26A16.38,16.38,0,0,0,319.07,225.87Zm5.18,11.57c0,3.31-2.34,4.65-5.22,3a11.44,11.44,0,0,1-5.2-9h0a5.83,5.83,0,0,1,.11-1.15c.49-2.45,2.6-3.3,5.12-1.84a10.6,10.6,0,0,1,3.68,3.88,12.17,12.17,0,0,1,1.11,2.55,8.75,8.75,0,0,1,.4,2.57Z" style="fill:#EA9A97"></path><path d="M317.29,229.19h0a5.86,5.86,0,0,1,.1-1.15c0-.08.05-.14.07-.22a2.81,2.81,0,0,0-3.52,2.46,5.83,5.83,0,0,0-.11,1.15h0a11.44,11.44,0,0,0,5.2,9c2.43,1.41,4.48.66,5.06-1.6a5.36,5.36,0,0,1-1.61-.63A11.47,11.47,0,0,1,317.29,229.19Z" style="fill:#37474f"></path><path d="M323.85,234.87a12.17,12.17,0,0,0-1.11-2.55,10.6,10.6,0,0,0-3.68-3.88,5.27,5.27,0,0,0-1.6-.62c0,.08,0,.14-.07.22a5.86,5.86,0,0,0-.1,1.15h0a11.47,11.47,0,0,0,5.19,9,5.36,5.36,0,0,0,1.61.63,5.81,5.81,0,0,0,.16-1.38A8.75,8.75,0,0,0,323.85,234.87Z" style="fill:#263238"></path><path d="M402.36,229.9a10.64,10.64,0,0,0-4.82-8.36,3.7,3.7,0,0,0-3.05-.52h0l-.05,0c-1,.34-24.42,8.25-36.46,17l11,17.88c12.67-7,32.15-23,32.15-23A3.48,3.48,0,0,0,402.36,229.9Z" style="fill:#EA9A97"></path><path d="M402.36,229.9a10.64,10.64,0,0,0-4.82-8.36,3.7,3.7,0,0,0-3.05-.52h0l-.05,0c-1,.34-24.42,8.25-36.46,17l11,17.88c12.67-7,32.15-23,32.15-23A3.48,3.48,0,0,0,402.36,229.9Z" style="opacity:0.2"></path><path d="M376.5,248.87c0-5.26-3.69-11.68-8.26-14.32a8.48,8.48,0,0,0-2.9-1.08l-2,1.11a5.8,5.8,0,0,1,4.34.9,17.06,17.06,0,0,1,7.73,13.39,6.06,6.06,0,0,1-1.13,3.85l1.8-1.16A8.69,8.69,0,0,0,376.5,248.87Z" style="fill:#fff"></path><path d="M366.89,245.06a12.17,12.17,0,0,1,1.11,2.55A12.17,12.17,0,0,0,366.89,245.06Z" style="fill:none"></path><path d="M358,244.16h0a5.8,5.8,0,0,1,.11-1.14A5.8,5.8,0,0,0,358,244.16Z" style="fill:none"></path><path d="M366.89,245.06a10.6,10.6,0,0,0-3.68-3.88A10.6,10.6,0,0,1,366.89,245.06Z" style="fill:none"></path><path d="M368,247.61a9,9,0,0,1,.4,2.57h0A9,9,0,0,0,368,247.61Z" style="fill:none"></path><path d="M363.21,238.61c-4.12-2.38-7.46-.47-7.48,4.26a16.43,16.43,0,0,0,7.43,12.87c4.12,2.38,7.47.46,7.48-4.26A16.34,16.34,0,0,0,363.21,238.61Zm5.19,11.57c0,3.3-2.35,4.64-5.23,3a11.44,11.44,0,0,1-5.19-9h0a5.8,5.8,0,0,1,.11-1.14c.49-2.45,2.59-3.3,5.12-1.84a10.6,10.6,0,0,1,3.68,3.88,12.17,12.17,0,0,1,1.11,2.55,9,9,0,0,1,.4,2.57Z" style="fill:#EA9A97"></path><path d="M361.43,241.93h0a5.83,5.83,0,0,1,.11-1.15c0-.08,0-.14.07-.22a2.81,2.81,0,0,0-3.52,2.46,5.8,5.8,0,0,0-.11,1.14h0a11.44,11.44,0,0,0,5.19,9c2.44,1.41,4.48.66,5.06-1.6a5.5,5.5,0,0,1-1.61-.64A11.43,11.43,0,0,1,361.43,241.93Z" style="fill:#37474f"></path><path d="M368,247.61a12.17,12.17,0,0,0-1.11-2.55,10.6,10.6,0,0,0-3.68-3.88,5.11,5.11,0,0,0-1.6-.62c0,.08-.05.14-.07.22a5.83,5.83,0,0,0-.11,1.15h0a11.43,11.43,0,0,0,5.19,9,5.5,5.5,0,0,0,1.61.64,5.32,5.32,0,0,0,.17-1.38A9,9,0,0,0,368,247.61Z" style="fill:#263238"></path><path d="M459.32,242.23h0a1.63,1.63,0,0,1-.93,2c-13.48,7.78-80.67-5-161-29.82v3.58c80.35,24.83,147.54,37.59,161,29.81a2.23,2.23,0,0,0,.57-.45h0C460,246.35,460.1,244.59,459.32,242.23Z" style="fill:#EA9A97"></path><path d="M458.39,244.18a1.63,1.63,0,0,0,.93-2C456.24,230.41,344,187.42,344,187.42l-46.67,26.94C377.72,239.19,444.91,252,458.39,244.18Z" style="fill:#EA9A97"></path><path d="M458.39,244.18a1.63,1.63,0,0,0,.93-2C456.24,230.41,344,187.42,344,187.42l-46.67,26.94C377.72,239.19,444.91,252,458.39,244.18Z" style="opacity:0.2"></path><path d="M272.54,228.7l5-2.91a2.09,2.09,0,0,0,1-1.28c.77-2.95,1.36-9.86.43-13.83a1,1,0,0,0-1.53-.66l-5.4,3.12a2.1,2.1,0,0,0-1,2.19,39.9,39.9,0,0,1-.05,12.3A1,1,0,0,0,272.54,228.7Z" style="fill:#EA9A97"></path><path d="M364.63,177.39l5-2.92a2.1,2.1,0,0,0,1-1.28c.77-2.95,1.36-9.86.43-13.83a1,1,0,0,0-1.53-.66l-5.4,3.12a2.08,2.08,0,0,0-1,2.19,40.21,40.21,0,0,1-.05,12.3A1,1,0,0,0,364.63,177.39Z" style="fill:#EA9A97"></path><path d="M272.54,228.7l5-2.91a2.09,2.09,0,0,0,1-1.28c.77-2.95,1.36-9.86.43-13.83a1,1,0,0,0-1.53-.66l-5.4,3.12a2.1,2.1,0,0,0-1,2.19,39.9,39.9,0,0,1-.05,12.3A1,1,0,0,0,272.54,228.7Z" style="opacity:0.2"></path><path d="M364.63,177.39l5-2.92a2.1,2.1,0,0,0,1-1.28c.77-2.95,1.36-9.86.43-13.83a1,1,0,0,0-1.53-.66l-5.4,3.12a2.08,2.08,0,0,0-1,2.19,40.21,40.21,0,0,1-.05,12.3A1,1,0,0,0,364.63,177.39Z" style="opacity:0.2"></path><path d="M275.65,216.17c1.24-.72,2.25-.14,2.26,1.29v1.83a4.94,4.94,0,0,1-2.24,3.89c-1.25.72-2.26.14-2.27-1.29v-1.83A4.93,4.93,0,0,1,275.65,216.17Z" style="fill:#37474f"></path><path d="M283.29,211.76c1.24-.71,2.25-.14,2.26,1.29v1.83a4.94,4.94,0,0,1-2.24,3.89c-1.25.72-2.26.15-2.27-1.28v-1.84A4.93,4.93,0,0,1,283.29,211.76Z" style="fill:#37474f"></path><path d="M290.92,207.35c1.24-.71,2.26-.14,2.26,1.29v1.83a5,5,0,0,1-2.25,3.89c-1.24.72-2.26.15-2.26-1.28v-1.84A5,5,0,0,1,290.92,207.35Z" style="fill:#37474f"></path><path d="M298.56,203c1.24-.72,2.26-.15,2.26,1.28v1.84a5,5,0,0,1-2.25,3.88c-1.24.72-2.26.15-2.26-1.28v-1.83A5,5,0,0,1,298.56,203Z" style="fill:#37474f"></path><path d="M306.2,198.54c1.24-.72,2.25-.15,2.26,1.28v1.84a4.94,4.94,0,0,1-2.24,3.89c-1.24.71-2.26.14-2.27-1.29v-1.83A5,5,0,0,1,306.2,198.54Z" style="fill:#37474f"></path><path d="M313.84,194.13c1.24-.72,2.25-.14,2.26,1.29v1.83a4.94,4.94,0,0,1-2.24,3.89c-1.25.72-2.26.14-2.27-1.29V198A4.93,4.93,0,0,1,313.84,194.13Z" style="fill:#37474f"></path><path d="M321.48,189.72c1.23-.71,2.25-.14,2.25,1.29v1.83a5,5,0,0,1-2.24,3.89c-1.25.72-2.27.15-2.27-1.28v-1.84A5,5,0,0,1,321.48,189.72Z" style="fill:#37474f"></path><path d="M329.11,185.31c1.24-.71,2.26-.14,2.26,1.29v1.83a5,5,0,0,1-2.25,3.89c-1.24.72-2.26.15-2.26-1.28V189.2A5,5,0,0,1,329.11,185.31Z" style="fill:#37474f"></path><path d="M336.75,180.91c1.24-.72,2.26-.15,2.26,1.28V184a4.91,4.91,0,0,1-2.24,3.88c-1.24.72-2.26.15-2.26-1.28V184.8A5,5,0,0,1,336.75,180.91Z" style="fill:#37474f"></path><path d="M344.39,176.5c1.24-.72,2.25-.15,2.26,1.29v1.83a4.94,4.94,0,0,1-2.24,3.89c-1.25.71-2.26.14-2.27-1.29v-1.83A4.93,4.93,0,0,1,344.39,176.5Z" style="fill:#37474f"></path><path d="M352,172.09c1.23-.71,2.25-.14,2.25,1.29v1.83a5,5,0,0,1-2.24,3.89c-1.25.72-2.27.15-2.27-1.29V176A4.93,4.93,0,0,1,352,172.09Z" style="fill:#37474f"></path><path d="M359.66,167.68c1.24-.71,2.26-.14,2.26,1.29v1.83a5,5,0,0,1-2.25,3.89c-1.24.72-2.26.15-2.26-1.28v-1.84A5,5,0,0,1,359.66,167.68Z" style="fill:#37474f"></path><path d="M367.3,163.27c1.24-.71,2.26-.14,2.26,1.29v1.84a5,5,0,0,1-2.25,3.88c-1.24.72-2.26.15-2.26-1.28v-1.84A5,5,0,0,1,367.3,163.27Z" style="fill:#37474f"></path><path d="M374.94,158.87c1.24-.72,2.25-.15,2.26,1.28V162a4.91,4.91,0,0,1-2.24,3.88c-1.25.72-2.26.15-2.27-1.28v-1.83A4.91,4.91,0,0,1,374.94,158.87Z" style="fill:#37474f"></path><path d="M410.6,75.59a2.22,2.22,0,0,1,.24.32,5.39,5.39,0,0,0-4.73-2.74l-.16,0h-.2c-7.63,1-17.6,32.9-17.6,59l2.21,1.37C390.36,104.33,402.87,67.86,410.6,75.59Z" style="fill:#EA9A97"></path><path d="M410.94,76.07l-.08-.13a.83.83,0,0,1,.07.13Z" style="fill:#455a64"></path><path d="M410.93,76.07a.83.83,0,0,0-.07-.13l0,0a2.22,2.22,0,0,0-.24-.32c-7.73-7.73-20.24,28.74-20.24,58L412.16,121C413.23,103,413.37,80.41,410.93,76.07Z" style="fill:#EA9A97"></path><path d="M410.93,76.07a.83.83,0,0,0-.07-.13l0,0a2.22,2.22,0,0,0-.24-.32c-7.73-7.73-20.24,28.74-20.24,58L412.16,121C413.23,103,413.37,80.41,410.93,76.07Z" style="opacity:0.2"></path><path d="M454.48,146.64c.38.63.17,1.21-.76,1.71-6,3.21-44.33,5.34-63,1.34v2.7c18.67,4,57,1.87,63-1.35a2.27,2.27,0,0,0,.62-.46h0C455.25,149.71,455.41,148.31,454.48,146.64Z" style="fill:#EA9A97"></path><polygon points="454.48 146.62 454.48 146.62 454.48 146.63 454.48 146.62" style="fill:#455a64"></polygon><path d="M453.72,148.35c.93-.5,1.14-1.08.76-1.71h0c-2.08-3.44-21.26-8.63-35.73-13.07l-28,16.14C409.39,153.69,447.76,151.56,453.72,148.35Z" style="fill:#EA9A97"></path><path d="M453.72,148.35c.93-.5,1.14-1.08.76-1.71h0c-2.08-3.44-21.26-8.63-35.73-13.07l-28,16.14C409.39,153.69,447.76,151.56,453.72,148.35Z" style="opacity:0.2"></path><path d="M247.6,223.83a40.3,40.3,0,0,1-8.3,1.17,12.94,12.94,0,0,1-8.44-2.72,8.38,8.38,0,0,1-2.79-4.78,43.26,43.26,0,0,0-3.38,6.6,8.5,8.5,0,0,0,3.82,5.9c2.64,1.73,5.91,2.18,9.07,2.18a36.84,36.84,0,0,0,10.22-1.45,1.23,1.23,0,0,0,.87-1,43.73,43.73,0,0,0,.38-4.72A1.14,1.14,0,0,0,247.6,223.83Z" style="fill:#37474f"></path></g></svg>