<?xml version="1.0" encoding="UTF-8" standalone="no"?>
<svg
   xmlns:dc="http://purl.org/dc/elements/1.1/"
   xmlns:cc="http://creativecommons.org/ns#"
   xmlns:rdf="http://www.w3.org/1999/02/22-rdf-syntax-ns#"
   xmlns:svg="http://www.w3.org/2000/svg"
   xmlns="http://www.w3.org/2000/svg"
   viewBox="0 0 2598.6667 1884.24"
   height="1884.24"
   width="2598.6667"
   xml:space="preserve"
   id="svg2"
   version="1.1"><metadata
     id="metadata8"><rdf:RDF><cc:Work
         rdf:about=""><dc:format>image/svg+xml</dc:format><dc:type
           rdf:resource="http://purl.org/dc/dcmitype/StillImage" /></cc:Work></rdf:RDF></metadata><defs
     id="defs6" /><g
     transform="matrix(1.3333333,0,0,-1.3333333,0,1884.24)"
     id="g10"><g
       transform="scale(0.1)"
       id="g12"><path
         id="path14"
         style="fill:#edf9fe;fill-opacity:1;fill-rule:nonzero;stroke:none"
         d="M 19490,0 H 0 V 14131.8 H 19490 V 0" /><path
         id="path16"
         style="fill:#ffffff;fill-opacity:1;fill-rule:nonzero;stroke:none"
         d="m 7031.93,3865.4 h 5221.67 v 8826.4 H 7031.93 V 3865.4" /><path
         id="path18"
         style="fill:#cbe6f8;fill-opacity:1;fill-rule:nonzero;stroke:none"
         d="m 7031.93,12198 h 5221.67 v 493.8 H 7031.93 V 12198" /><path
         id="path20"
         style="fill:#516dbe;fill-opacity:1;fill-rule:nonzero;stroke:none"
         d="m 11891.4,12444.8 c 0,-54.4 44.2,-98.8 98.9,-98.8 54.4,0 98.7,44.4 98.7,98.8 0,54.8 -44.3,98.8 -98.7,98.8 -54.7,0 -98.9,-44 -98.9,-98.8" /><path
         id="path22"
         style="fill:#f8d044;fill-opacity:1;fill-rule:nonzero;stroke:none"
         d="m 11578.7,12444.8 c 0,-54.4 44.1,-98.8 98.8,-98.8 54.4,0 98.5,44.4 98.5,98.8 0,54.8 -44.1,98.8 -98.5,98.8 -54.7,0 -98.8,-44 -98.8,-98.8" /><path
         id="path24"
         style="fill:#eff7fd;fill-opacity:1;fill-rule:nonzero;stroke:none"
         d="m 11265.9,12444.8 c 0,-54.4 44.1,-98.8 98.7,-98.8 54.5,0 98.8,44.4 98.8,98.8 0,54.8 -44.3,98.8 -98.8,98.8 -54.6,0 -98.7,-44 -98.7,-98.8" /><path
         id="path26"
         style="fill:none;stroke:#445fb5;stroke-width:25.64100075;stroke-linecap:round;stroke-linejoin:round;stroke-miterlimit:10;stroke-dasharray:none;stroke-opacity:1"
         d="M 7031.93,12198 H 12253.6" /><path
         id="path28"
         style="fill:#cbe6f8;fill-opacity:1;fill-rule:nonzero;stroke:none"
         d="m 7913.09,7104.88 c 0,-630.39 -511.03,-1141.42 -1141.41,-1141.42 -630.38,0 -1141.41,511.03 -1141.41,1141.42 0,630.37 511.03,1141.4 1141.41,1141.4 630.38,0 1141.41,-511.03 1141.41,-1141.4" /><path
         id="path30"
         style="fill:none;stroke:#8fb0e1;stroke-width:51.28210068;stroke-linecap:butt;stroke-linejoin:miter;stroke-miterlimit:10;stroke-dasharray:none;stroke-opacity:1"
         d="m 6770.28,5743.44 v -69.35" /><path
         id="path32"
         style="fill:none;stroke:#8fb0e1;stroke-width:51.28210068;stroke-linecap:butt;stroke-linejoin:miter;stroke-miterlimit:10;stroke-dasharray:86.7408, 86.7408;stroke-dashoffset:0;stroke-opacity:1"
         d="M 6770.28,5556.8 V 5146.3" /><path
         id="path34"
         style="fill:none;stroke:#8fb0e1;stroke-width:51.28210068;stroke-linecap:butt;stroke-linejoin:miter;stroke-miterlimit:10;stroke-dasharray:none;stroke-opacity:1"
         d="m 6770.28,5087.66 v -69.35 h 69.34" /><path
         id="path36"
         style="fill:none;stroke:#8fb0e1;stroke-width:51.28210068;stroke-linecap:butt;stroke-linejoin:miter;stroke-miterlimit:10;stroke-dasharray:97.7528, 97.7528;stroke-dashoffset:0;stroke-opacity:1"
         d="M 6971.8,5018.31 H 9549.24" /><path
         id="path38"
         style="fill:none;stroke:#8fb0e1;stroke-width:51.28210068;stroke-linecap:butt;stroke-linejoin:miter;stroke-miterlimit:10;stroke-dasharray:none;stroke-opacity:1"
         d="m 9615.33,5018.31 h 69.34 v 69.35" /><path
         id="path40"
         style="fill:none;stroke:#8fb0e1;stroke-width:51.28210068;stroke-linecap:butt;stroke-linejoin:miter;stroke-miterlimit:10;stroke-dasharray:100.398, 100.398;stroke-dashoffset:0;stroke-opacity:1"
         d="M 9684.67,5223.41 V 6241.57" /><path
         id="path42"
         style="fill:none;stroke:#8fb0e1;stroke-width:51.28210068;stroke-linecap:butt;stroke-linejoin:miter;stroke-miterlimit:10;stroke-dasharray:none;stroke-opacity:1"
         d="m 9684.67,6309.44 v 69.34" /><path
         id="path44"
         style="fill:none;stroke:#8fb0e1;stroke-width:51.28210068;stroke-linecap:butt;stroke-linejoin:miter;stroke-miterlimit:10;stroke-dasharray:none;stroke-opacity:1"
         d="m 6770.28,9086.96 v -69.34" /><path
         id="path46"
         style="fill:none;stroke:#8fb0e1;stroke-width:51.28210068;stroke-linecap:butt;stroke-linejoin:miter;stroke-miterlimit:10;stroke-dasharray:86.7408, 86.7408;stroke-dashoffset:0;stroke-opacity:1"
         d="m 6770.28,8900.33 v -410.5" /><path
         id="path48"
         style="fill:none;stroke:#8fb0e1;stroke-width:51.28210068;stroke-linecap:butt;stroke-linejoin:miter;stroke-miterlimit:10;stroke-dasharray:none;stroke-opacity:1"
         d="m 6770.28,8431.18 v -69.34" /><path
         id="path50"
         style="fill:none;stroke:#445fb5;stroke-width:25.64100075;stroke-linecap:butt;stroke-linejoin:miter;stroke-miterlimit:10;stroke-dasharray:none;stroke-opacity:1"
         d="m 4690.58,9074.23 c 347.76,-49 615.25,-345.1 615.25,-702.96 0,-392.15 -321.09,-710.14 -717.2,-710.14 -396.09,0 -717.19,317.99 -717.19,710.14 0,358.35 268.17,654.74 616.71,703.16" /><path
         id="path52"
         style="fill:none;stroke:#445fb5;stroke-width:25.64100075;stroke-linecap:butt;stroke-linejoin:miter;stroke-miterlimit:10;stroke-dasharray:none;stroke-opacity:1"
         d="m 4990.79,8351.01 c -1.41,231.31 -191.2,418.47 -425.23,418.47 -1.98,0 -3.92,-0.14 -5.87,-0.14" /><path
         id="path54"
         style="fill:none;stroke:#445fb5;stroke-width:25.64100075;stroke-linecap:butt;stroke-linejoin:miter;stroke-miterlimit:10;stroke-dasharray:none;stroke-opacity:1"
         d="m 4732.96,9259.51 c -0.11,-17.01 -13.99,-30.74 -31.21,-30.74 h -226.36 c -17.14,0 -31.02,13.73 -30.97,30.74 l -0.05,122.8 c 0.05,17.05 13.88,30.89 31.02,30.89 l 226.36,-0.09 c 17.22,0 31.21,-13.75 31.1,-30.8 z" /><path
         id="path56"
         style="fill:none;stroke:#445fb5;stroke-width:25.64100075;stroke-linecap:butt;stroke-linejoin:miter;stroke-miterlimit:10;stroke-dasharray:none;stroke-opacity:1"
         d="m 4078.43,8927.09 -51.44,75.05 c -6.05,8.74 -3.75,20.66 5.09,26.59 l 116.59,78.4 c 8.79,5.91 20.86,3.67 26.87,-5.12 l 51.43,-74.94" /><path
         id="path58"
         style="fill:none;stroke:#445fb5;stroke-width:25.64100075;stroke-linecap:butt;stroke-linejoin:miter;stroke-miterlimit:10;stroke-dasharray:none;stroke-opacity:1"
         d="m 5098.85,8927.09 51.45,75.02 c 6.03,8.77 3.69,20.68 -5.13,26.6 l -116.56,78.4 c -8.83,5.91 -20.84,3.69 -26.88,-5.12 l -51.48,-74.92" /><path
         id="path60"
         style="fill:none;stroke:#445fb5;stroke-width:25.64100075;stroke-linecap:butt;stroke-linejoin:miter;stroke-miterlimit:10;stroke-dasharray:none;stroke-opacity:1"
         d="M 4582.87,8968.38 V 8867.94" /><path
         id="path62"
         style="fill:none;stroke:#445fb5;stroke-width:25.64100075;stroke-linecap:butt;stroke-linejoin:miter;stroke-miterlimit:10;stroke-dasharray:none;stroke-opacity:1"
         d="m 4282.15,8885.52 50.68,-86.97" /><path
         id="path64"
         style="fill:none;stroke:#445fb5;stroke-width:25.64100075;stroke-linecap:butt;stroke-linejoin:miter;stroke-miterlimit:10;stroke-dasharray:none;stroke-opacity:1"
         d="m 4063.51,8664.91 87.81,-50.33" /><path
         id="path66"
         style="fill:none;stroke:#445fb5;stroke-width:25.64100075;stroke-linecap:butt;stroke-linejoin:miter;stroke-miterlimit:10;stroke-dasharray:none;stroke-opacity:1"
         d="M 3985.55,8365.53 H 4087" /><path
         id="path68"
         style="fill:none;stroke:#445fb5;stroke-width:25.64100075;stroke-linecap:butt;stroke-linejoin:miter;stroke-miterlimit:10;stroke-dasharray:none;stroke-opacity:1"
         d="m 4069.18,8067.69 87.88,50.22" /><path
         id="path70"
         style="fill:none;stroke:#445fb5;stroke-width:25.64100075;stroke-linecap:butt;stroke-linejoin:miter;stroke-miterlimit:10;stroke-dasharray:none;stroke-opacity:1"
         d="m 4292.02,7851.27 50.83,86.93" /><path
         id="path72"
         style="fill:none;stroke:#445fb5;stroke-width:25.64100075;stroke-linecap:butt;stroke-linejoin:miter;stroke-miterlimit:10;stroke-dasharray:none;stroke-opacity:1"
         d="m 4594.37,7774.09 0.03,100.44" /><path
         id="path74"
         style="fill:none;stroke:#445fb5;stroke-width:25.64100075;stroke-linecap:butt;stroke-linejoin:miter;stroke-miterlimit:10;stroke-dasharray:none;stroke-opacity:1"
         d="m 4895.16,7856.9 -50.68,87.02" /><path
         id="path76"
         style="fill:none;stroke:#445fb5;stroke-width:25.64100075;stroke-linecap:butt;stroke-linejoin:miter;stroke-miterlimit:10;stroke-dasharray:none;stroke-opacity:1"
         d="m 5113.76,8077.57 -87.77,50.28" /><path
         id="path78"
         style="fill:none;stroke:#445fb5;stroke-width:25.64100075;stroke-linecap:butt;stroke-linejoin:miter;stroke-miterlimit:10;stroke-dasharray:none;stroke-opacity:1"
         d="m 5191.69,8376.86 -101.45,0.1" /><path
         id="path80"
         style="fill:none;stroke:#445fb5;stroke-width:25.64100075;stroke-linecap:butt;stroke-linejoin:miter;stroke-miterlimit:10;stroke-dasharray:none;stroke-opacity:1"
         d="m 5108.04,8674.71 -87.9,-50.19" /><path
         id="path82"
         style="fill:none;stroke:#445fb5;stroke-width:25.64100075;stroke-linecap:butt;stroke-linejoin:miter;stroke-miterlimit:10;stroke-dasharray:none;stroke-opacity:1"
         d="m 4885.25,8891.18 -50.78,-86.9" /><path
         id="path84"
         style="fill:none;stroke:#445fb5;stroke-width:25.64100075;stroke-linecap:butt;stroke-linejoin:miter;stroke-miterlimit:10;stroke-dasharray:none;stroke-opacity:1"
         d="m 4623.39,8414.24 213.11,215.07" /><path
         id="path86"
         style="fill:none;stroke:#445fb5;stroke-width:25.64100075;stroke-linecap:butt;stroke-linejoin:miter;stroke-miterlimit:10;stroke-dasharray:none;stroke-opacity:1"
         d="m 4648.42,8371.74 c 0,32.74 -26.83,59.21 -59.83,59.27 -32.96,-0.03 -59.83,-26.53 -59.74,-59.22 0,-32.7 26.75,-59.24 59.78,-59.24 32.96,-0.02 59.79,26.54 59.79,59.19 z" /><path
         id="path88"
         style="fill:none;stroke:#445fb5;stroke-width:25.64100075;stroke-linecap:butt;stroke-linejoin:miter;stroke-miterlimit:10;stroke-dasharray:none;stroke-opacity:1"
         d="m 4588.63,9034.08 v 198.66" /><path
         id="path90"
         style="fill:none;stroke:#445fb5;stroke-width:25.64100075;stroke-linecap:butt;stroke-linejoin:miter;stroke-miterlimit:10;stroke-dasharray:none;stroke-opacity:1"
         d="m 6470.53,7301.83 v 173.24 c 0,140.66 115.36,255.16 257.15,255.16 h 80.04 c 141.76,0 257.21,-114.5 257.21,-255.16 v -173.61" /><path
         id="path92"
         style="fill:none;stroke:#445fb5;stroke-width:25.64100075;stroke-linecap:butt;stroke-linejoin:miter;stroke-miterlimit:10;stroke-dasharray:none;stroke-opacity:1"
         d="m 7162.07,7305.18 h -788.69 v -702.11 h 788.69 z" /><path
         id="path94"
         style="fill:none;stroke:#445fb5;stroke-width:25.64100075;stroke-linecap:butt;stroke-linejoin:miter;stroke-miterlimit:10;stroke-dasharray:none;stroke-opacity:1"
         d="m 6364.22,7113.67 h 143.89" /><path
         id="path96"
         style="fill:none;stroke:#445fb5;stroke-width:25.64100075;stroke-linecap:butt;stroke-linejoin:miter;stroke-miterlimit:10;stroke-dasharray:none;stroke-opacity:1"
         d="m 6364.22,6966.04 h 143.89" /><path
         id="path98"
         style="fill:none;stroke:#445fb5;stroke-width:25.64100075;stroke-linecap:butt;stroke-linejoin:miter;stroke-miterlimit:10;stroke-dasharray:none;stroke-opacity:1"
         d="m 6364.22,6818.42 h 143.89" /><path
         id="path100"
         style="fill:none;stroke:#445fb5;stroke-width:25.64100075;stroke-linecap:butt;stroke-linejoin:miter;stroke-miterlimit:10;stroke-dasharray:none;stroke-opacity:1"
         d="m 7027.35,7113.67 h 143.91" /><path
         id="path102"
         style="fill:none;stroke:#445fb5;stroke-width:25.64100075;stroke-linecap:butt;stroke-linejoin:miter;stroke-miterlimit:10;stroke-dasharray:none;stroke-opacity:1"
         d="m 7027.35,6966.04 h 143.91" /><path
         id="path104"
         style="fill:none;stroke:#445fb5;stroke-width:25.64100075;stroke-linecap:butt;stroke-linejoin:miter;stroke-miterlimit:10;stroke-dasharray:none;stroke-opacity:1"
         d="m 7027.35,6818.42 h 143.91" /><path
         id="path106"
         style="fill:none;stroke:#445fb5;stroke-width:25.64100075;stroke-linecap:butt;stroke-linejoin:miter;stroke-miterlimit:10;stroke-dasharray:none;stroke-opacity:1"
         d="m 6828.67,7050.39 c 0,-33.37 -27.3,-60.42 -60.94,-60.42 v 0 c -33.67,0 -60.93,27.05 -60.93,60.42 v 0 c 0,33.38 27.26,60.43 60.93,60.43 v 0 c 33.64,0 60.94,-27.05 60.94,-60.43 z" /><path
         id="path108"
         style="fill:none;stroke:#445fb5;stroke-width:25.64100075;stroke-linecap:butt;stroke-linejoin:miter;stroke-miterlimit:10;stroke-dasharray:none;stroke-opacity:1"
         d="m 6767.73,7009.47 v -206.6" /><path
         id="path110"
         style="fill:#edf9fe;fill-opacity:1;fill-rule:nonzero;stroke:none"
         d="m 10784.2,10102.4 c 0,-630.44 -511.1,-1141.46 -1141.46,-1141.46 -630.38,0 -1141.41,511.02 -1141.41,1141.46 0,630.3 511.03,1141.4 1141.41,1141.4 630.36,0 1141.46,-511.1 1141.46,-1141.4" /><path
         id="path112"
         style="fill:none;stroke:#445fb5;stroke-width:25.64100075;stroke-linecap:butt;stroke-linejoin:miter;stroke-miterlimit:10;stroke-dasharray:none;stroke-opacity:1"
         d="m 10059.3,10318.7 c 74.8,0 135.4,-51.6 135.4,-115.3 0,-63.7 -60.6,-115.3 -135.4,-115.3" /><path
         id="path114"
         style="fill:none;stroke:#445fb5;stroke-width:25.64100075;stroke-linecap:butt;stroke-linejoin:miter;stroke-miterlimit:10;stroke-dasharray:none;stroke-opacity:1"
         d="m 9822.95,9690.55 h 212.25 c 98.7,0 178.8,-75.19 178.8,-167.94 v -419.5" /><path
         id="path116"
         style="fill:none;stroke:#445fb5;stroke-width:25.64100075;stroke-linecap:butt;stroke-linejoin:miter;stroke-miterlimit:10;stroke-dasharray:none;stroke-opacity:1"
         d="m 9071.53,9103.11 v 419.5 c 0,92.75 80.08,167.94 178.83,167.94 h 212.18" /><path
         id="path118"
         style="fill:none;stroke:#445fb5;stroke-width:25.64100075;stroke-linecap:butt;stroke-linejoin:miter;stroke-miterlimit:10;stroke-dasharray:none;stroke-opacity:1"
         d="m 9822.95,9821.46 v -126.28 l -180.19,-104.66 -180.22,104.66 v 126.28" /><path
         id="path120"
         style="fill:#445fb5;fill-opacity:1;fill-rule:nonzero;stroke:none"
         d="m 9433.42,10893.6 c 0,114.9 92.55,208 206.72,208 114.17,0 206.72,-93.1 206.72,-208" /><path
         id="path122"
         style="fill:none;stroke:#445fb5;stroke-width:25.64100075;stroke-linecap:butt;stroke-linejoin:miter;stroke-miterlimit:10;stroke-dasharray:none;stroke-opacity:1"
         d="m 10062.3,10362.1 v -150.6 c 0,-234.11 -188.69,-423.9 -421.44,-423.9 v 0 c -232.69,0 -421.37,189.79 -421.37,423.9 v 150.6" /><path
         id="path124"
         style="fill:none;stroke:#445fb5;stroke-width:25.64100075;stroke-linecap:butt;stroke-linejoin:miter;stroke-miterlimit:10;stroke-dasharray:none;stroke-opacity:1"
         d="m 9642.76,9482.18 v -69.73" /><path
         id="path126"
         style="fill:none;stroke:#445fb5;stroke-width:25.64100075;stroke-linecap:butt;stroke-linejoin:miter;stroke-miterlimit:10;stroke-dasharray:none;stroke-opacity:1"
         d="m 9642.76,9340.81 v -69.72" /><path
         id="path128"
         style="fill:#445fb5;fill-opacity:1;fill-rule:nonzero;stroke:none"
         d="m 9640.86,10974.6 c -232.69,0 -421.37,-189.8 -421.37,-423.9 v -79 h 547.84 l 73.64,128.3 73.65,-128.3 h 147.68 v 79 c 0,234.1 -188.69,423.9 -421.44,423.9" /><path
         id="path130"
         style="fill:none;stroke:#445fb5;stroke-width:25.64100075;stroke-linecap:butt;stroke-linejoin:miter;stroke-miterlimit:10;stroke-dasharray:none;stroke-opacity:1"
         d="m 9564.44,10038.1 c 17.89,-31.2 47.13,-51.64 80.27,-51.64 33.17,0 62.4,20.44 80.29,51.64" /><path
         id="path132"
         style="fill:none;stroke:#445fb5;stroke-width:25.64100075;stroke-linecap:butt;stroke-linejoin:miter;stroke-miterlimit:10;stroke-dasharray:none;stroke-opacity:1"
         d="m 9466.78,10248 h -76.77" /><path
         id="path134"
         style="fill:none;stroke:#445fb5;stroke-width:25.64100075;stroke-linecap:butt;stroke-linejoin:miter;stroke-miterlimit:10;stroke-dasharray:none;stroke-opacity:1"
         d="m 9892.06,10248 h -76.8" /><path
         id="path136"
         style="fill:none;stroke:#445fb5;stroke-width:25.64100075;stroke-linecap:butt;stroke-linejoin:miter;stroke-miterlimit:10;stroke-dasharray:none;stroke-opacity:1"
         d="M 10104.5,9354.6 H 9826.67" /><path
         id="path138"
         style="fill:#cbe6f8;fill-opacity:1;fill-rule:nonzero;stroke:none"
         d="m 11641.5,9415.54 c 0,-380.62 308.6,-689.2 689.3,-689.2 H 13439 c 380.6,0 689.2,308.58 689.2,689.2 v 514.18 c 0,380.68 -308.6,689.18 -689.2,689.18 h -1108.2 c -380.7,0 -689.3,-308.5 -689.3,-689.18 v -514.18" /><path
         id="path140"
         style="fill:#cbe6f8;fill-opacity:1;fill-rule:nonzero;stroke:none"
         d="m 13198.5,8352.86 v 705.52 h -767.8 z" /><path
         id="path142"
         style="fill:#241717;fill-opacity:1;fill-rule:nonzero;stroke:none"
         d="m 13783,9714.35 c 111.7,-53.74 425.6,-215.48 645,-470.33 219.5,-254.84 331.1,-379.39 145.4,-655.86 -185.7,-276.38 362.3,-296.46 76.3,-438.77 -331.3,-164.84 -413.9,-295 -644.2,-244.97 -405.7,87.99 -548.5,410.99 -418.1,731.75 130.4,320.75 147.2,336.91 42.8,529.2 -104.3,192.31 43.2,601.81 152.8,548.98" /><path
         id="path144"
         style="fill:#f6ab7a;fill-opacity:1;fill-rule:nonzero;stroke:none"
         d="m 14521.8,8894.19 c 0,0 115.2,-466.48 408.9,-484.58 151.6,-9.34 256.4,2.55 256.4,2.55 0,0 -879.4,-792.91 -1056.4,-553.05 -84,113.88 256.8,258.69 145.6,547.04 -210.6,546.05 -191.1,1137.63 245.5,488.04" /><path
         id="path146"
         style="fill:#f6ab7a;fill-opacity:1;fill-rule:nonzero;stroke:none"
         d="m 14191.1,9166.37 c 79.7,-52.98 167.9,-81.81 255.1,-88.32 -190.4,-378.84 -572.3,-317.39 -585,-314.58 -13.7,3.15 -27.3,5.98 -39.4,28.52 -12,22.67 -14.8,46.54 -11.3,58.13 3.4,11.51 15.4,23.07 11.7,25.34 -3.8,2.2 -29,17.28 -35.3,21.05 -6.2,3.77 -7.9,23.58 -7.9,23.58 0,0 19.7,18.89 18.5,19.64 -32.8,19.52 -36.1,36.84 -37.3,46.14 -1.3,9.33 11.4,23.05 22.2,34.44 9.2,9.88 8.2,39.55 4.4,50.36 -3.7,10.68 -36.7,26.93 -42.4,37.26 -5.9,10.35 -10.9,30.32 -6.7,34.58 4.3,4.38 20.6,15.55 52,37.76 31.5,22.19 72.7,79.54 72.4,182.05 -0.2,102.45 24.4,97.02 44.2,143.28 50.7,118.38 104.4,-219.48 284.8,-339.23" /><path
         id="path148"
         style="fill:#212a53;fill-opacity:1;fill-rule:nonzero;stroke:none"
         d="m 13878.6,6195.52 -1383.9,250.27 c 0,0 -441.6,117.78 -529.9,-294.44 -103,-480.47 41.3,-2620.55 41.3,-2620.55 l -14.7,-103 -677.2,-368.1 h 1030.5 l -73.6,323.9 253.1,2178.86 c 0,0 1060,-309.16 1413.3,-309.16 353.3,0 618.3,132.5 618.3,191.39 0,58.89 -426.9,780.27 -677.2,750.83" /><path
         id="path150"
         style="fill:#3b6d83;fill-opacity:1;fill-rule:nonzero;stroke:none"
         d="m 15325.2,4768.26 c 58.3,0 150.3,13.32 230.9,83.49 116,100.85 166.2,280.31 149.3,533.14 -11.3,170.7 -78.5,343.46 -149.6,526.51 -119.9,307.83 -255.5,656.71 -184.5,1118.1 l -131.9,20.29 c -76.3,-496.77 72.5,-879.32 191.9,-1186.72 70.3,-180.65 131,-336.78 141.1,-486.97 13.6,-205.09 -21.8,-351.24 -102.6,-422.59 -76.5,-67.72 -172.3,-50.31 -176.3,-49.56 l -26.7,-130.69 c 2.4,-0.47 24.8,-5 58.4,-5" /><path
         id="path152"
         style="fill:#8ec1dd;fill-opacity:1;fill-rule:nonzero;stroke:none"
         d="m 14302.8,3710.2 -129.9,-198.1 1090.8,-349.4 c 0,0 73,69.7 -194.8,209.6 -311.5,163.1 -766.1,337.9 -766.1,337.9" /><path
         id="path154"
         style="fill:#8ec1dd;fill-opacity:1;fill-rule:nonzero;stroke:none"
         d="m 14109.1,3710.2 129.8,-198.1 -1090.8,-349.4 c 0,0 -72.8,69.7 194.8,209.6 311.7,163.1 766.2,337.9 766.2,337.9" /><path
         id="path156"
         style="fill:#8ec1dd;fill-opacity:1;fill-rule:nonzero;stroke:none"
         d="m 14091.9,3487.8 h 228 v 811.58 h -228 V 3487.8" /><path
         id="path158"
         style="fill:#b3daf4;fill-opacity:1;fill-rule:nonzero;stroke:none"
         d="m 14317.3,3668.5 -111.1,-189 933.8,-333.5 c 0,0 62.3,66.5 -166.7,200.1 -266.8,155.6 -656,322.4 -656,322.4" /><path
         id="path160"
         style="fill:#b3daf4;fill-opacity:1;fill-rule:nonzero;stroke:none"
         d="m 14094.6,3668.5 111,-189 -933.7,-333.5 c 0,0 -62.4,66.5 166.7,200.1 266.8,155.6 656,322.4 656,322.4" /><path
         id="path162"
         style="fill:#17233f;fill-opacity:1;fill-rule:nonzero;stroke:none"
         d="m 15034.3,3070.9 c 0,-43.7 35.5,-79.1 79.1,-79.1 43.8,0 79.3,35.4 79.3,79.1 0,43.8 -35.5,79.3 -79.3,79.3 -43.6,0 -79.1,-35.5 -79.1,-79.3" /><path
         id="path164"
         style="fill:#17233f;fill-opacity:1;fill-rule:nonzero;stroke:none"
         d="m 13224.9,3070.9 c 0,-43.7 35.6,-79.1 79.3,-79.1 43.8,0 79.2,35.4 79.2,79.1 0,43.8 -35.4,79.3 -79.2,79.3 -43.7,0 -79.3,-35.5 -79.3,-79.3" /><path
         id="path166"
         style="fill:#3b6d83;fill-opacity:1;fill-rule:nonzero;stroke:none"
         d="m 15226,3070.9 c 0,-43.7 35.4,-79.1 79.2,-79.1 43.8,0 79.2,35.4 79.2,79.1 0,43.8 -35.4,79.3 -79.2,79.3 -43.8,0 -79.2,-35.5 -79.2,-79.3" /><path
         id="path168"
         style="fill:#3b6d83;fill-opacity:1;fill-rule:nonzero;stroke:none"
         d="m 13033.3,3070.9 c 0,-43.7 35.4,-79.1 79.2,-79.1 43.6,0 79,35.4 79,79.1 0,43.8 -35.4,79.3 -79,79.3 -43.8,0 -79.2,-35.5 -79.2,-79.3" /><path
         id="path170"
         style="fill:#3b6d83;fill-opacity:1;fill-rule:nonzero;stroke:none"
         d="m 14125.5,4304.95 h 166.7 v 291.84 h -166.7 v -291.84" /><path
         id="path172"
         style="fill:#3b6d83;fill-opacity:1;fill-rule:nonzero;stroke:none"
         d="m 14000.4,4750.95 c 0,-89.72 72.9,-162.52 162.6,-162.52 h 91.7 c 89.7,0 162.6,72.8 162.6,162.52 v 0 c 0,89.93 -72.9,162.64 -162.6,162.64 h -91.7 c -89.7,0 -162.6,-72.71 -162.6,-162.64 v 0" /><path
         id="path174"
         style="fill:#9dd1f2;fill-opacity:1;fill-rule:nonzero;stroke:none"
         d="m 12969.6,4899.65 c -3.9,19.16 -6.2,139.17 -6.2,159.79 0,131.28 84.8,237.62 189.5,237.62 h 2112 c 104.5,0 189.5,-106.34 189.5,-237.62 0,-20.62 -2.3,-140.63 -6.4,-159.79 h -2478.4" /><path
         id="path176"
         style="fill:#3b6d83;fill-opacity:1;fill-rule:nonzero;stroke:none"
         d="m 15473.8,4835.33 c 0,-40.22 -23.4,-72.87 -52.5,-72.87 h -2424.9 c -29.1,0 -52.5,32.65 -52.5,72.87 v 0 c 0,40.15 23.4,72.73 52.5,72.73 h 2424.9 c 29.1,0 52.5,-32.58 52.5,-72.73 v 0" /><path
         id="path178"
         style="fill:#9dd1f2;fill-opacity:1;fill-rule:nonzero;stroke:none"
         d="m 15355.6,6119.13 c -52.1,-3.81 -383.1,-9.66 -440.2,-10.4 -362.4,-4.36 -674.4,63.66 -691.8,152.9 -71.5,370.86 -74.8,751.22 -9.4,1122.3 15.5,89.18 332.2,157.19 702.3,152.67 58.1,-0.7 396,-6.58 449.1,-10.49 -113.5,-462.49 -116.8,-944.34 -10,-1406.98" /><path
         id="path180"
         style="fill:#3b6d83;fill-opacity:1;fill-rule:nonzero;stroke:none"
         d="m 15405.4,7526.16 c 40.6,-0.47 68.9,-19.76 63.2,-43.01 -100.9,-434.94 -104.6,-886.19 -11.3,-1321.21 5.1,-23.35 -22.9,-42.58 -62.6,-43.03 v 0 c -39.7,-0.59 -76.5,18.08 -81.5,41.43 -94.5,436.12 -91.7,888.36 8.6,1324.42 5.5,23.4 42.9,41.92 83.6,41.4 v 0" /><path
         id="path182"
         style="fill:#8cc4ec;fill-opacity:1;fill-rule:nonzero;stroke:none"
         d="m 15421.6,6119.84 c -10.7,-3.44 -82.5,-6.11 -95.1,-6.36 -78.9,-0.96 -160.2,68.74 -176,156.46 -65.7,365.34 -64.1,739.93 5.2,1105.25 16.4,87.82 99.7,157.37 180.3,156.44 12.8,-0.22 85.8,-2.96 96.7,-6.42 -113.7,-461.9 -117.4,-943.34 -11.1,-1405.37" /><path
         id="path184"
         style="fill:#ed8656;fill-opacity:1;fill-rule:nonzero;stroke:none"
         d="M 14298.2,6437.12 13236,7299.07 c 0,0 -203,-22.26 -107.7,-151.94 95.3,-129.69 724.9,-890.85 724.9,-890.85 0,0 642.8,-291.77 445,180.84" /><path
         id="path186"
         style="fill:#cbe6f8;fill-opacity:1;fill-rule:nonzero;stroke:none"
         d="m 12983.7,3424.1 c 0,0 14.8,-143.6 14.8,-187.7 0,-44.2 -95.7,-169.3 -103.1,-206.1 -7.4,-36.8 -7.4,-36.8 -7.4,-36.8 h 721.4 c 0,0 14.8,73.6 -103,169.3 -117.8,95.7 -154.6,161.9 -169.3,283.4 -14.7,121.4 -353.4,-22.1 -353.4,-22.1" /><path
         id="path188"
         style="fill:#de1d25;fill-opacity:1;fill-rule:nonzero;stroke:none"
         d="m 14268.4,8436.96 c 0,0 -419.5,-66.25 -474.7,-231.87 -55.3,-165.63 -33.2,-265 -33.2,-342.29 0,-77.3 530,276.03 507.9,574.16" /><path
         id="path190"
         style="fill:#ee222d;fill-opacity:1;fill-rule:nonzero;stroke:none"
         d="m 14721.2,8492.16 -452.8,-55.2 c 0,0 -507.9,-530 -618.3,-552.08 -110.4,-22.08 38.3,-1231.19 11.1,-1394.93 -14.8,-88.33 397.5,-128.81 618.3,-161.94 220.8,-33.12 530,0 530,0 0,0 -110.4,353.34 -33.1,717.71 77.3,364.37 419.5,640.41 342.2,894.37 -77.2,253.95 143.6,253.95 -397.4,552.07" /><path
         id="path192"
         style="fill:#de1d25;fill-opacity:1;fill-rule:nonzero;stroke:none"
         d="m 15041.4,8194.04 c 0,0 -293.9,-136.18 -271.9,-357.01 22.1,-220.84 260.8,-967.97 260.8,-967.97 0,0 132.5,-629.38 386.5,-552.08 253.9,77.28 231.8,794.99 55.2,1247.69 -176.7,452.71 -353.4,739.79 -430.6,629.37" /><path
         id="path194"
         style="fill:#f6ab7a;fill-opacity:1;fill-rule:nonzero;stroke:none"
         d="m 15544,6536.06 c 0,0 -11,-126.97 -11,-154.58 0,-27.61 -121.5,-60.72 -248.4,-60.72 -127,0 -1065.5,541.03 -1153.9,579.67 -88.3,38.65 -292.6,93.86 -342.3,99.38 -49.7,5.52 -88.3,143.53 -60.7,231.87 18.3,58.45 36.5,109.65 64.4,126.4 14.2,8.56 31,8.13 51.5,-4.94 60.8,-38.65 303.7,-248.44 303.7,-248.44 0,0 568.6,-104.89 795,-204.27 226.3,-99.37 491.3,-220.83 601.7,-364.37" /><path
         id="path196"
         style="fill:#ed8656;fill-opacity:1;fill-rule:nonzero;stroke:none"
         d="m 13501.3,7320.01 290.8,38.07 -64.4,-126.4 38.6,-193.23 -160.1,-27.6 c 0,0 -22,27.6 5.6,38.65 27.6,11.03 66.2,27.59 66.2,27.59 0,0 -77.3,11.05 -110.4,16.57 -33.1,5.52 -38.6,16.56 -38.6,33.12 0,16.56 33.1,27.61 33.1,27.61 0,0 -60.8,22.08 -66.3,38.64 -5.5,16.56 -16.5,38.65 -5.5,55.22 11,16.56 -5.5,60.72 11,71.76" /><path
         id="path198"
         style="fill:#4349a6;fill-opacity:1;fill-rule:nonzero;stroke:none"
         d="m 14809.5,6328.01 h -530 l -1540.7,338.61 c 0,0 -618.4,161.95 -456.4,-279.71 161.9,-441.67 716.3,-2856.11 716.3,-2856.11 l 338.6,29.5 c 0,0 -58.9,1604.67 -220.9,1884.39 -161.9,279.72 -176.6,368.05 -176.6,368.05 0,0 1074.7,-574.16 1516.4,-544.72 441.6,29.45 809.7,368.06 353.3,1059.99" /><path
         id="path200"
         style="fill:none;stroke:#9dd1f2;stroke-width:12.27810001;stroke-linecap:butt;stroke-linejoin:miter;stroke-miterlimit:10;stroke-dasharray:none;stroke-opacity:1"
         d="m 14667.3,6283.85 c 0,0 294.5,-515.27 14.8,-574.16 -279.8,-58.9 -2061.1,603.6 -2061.1,603.6 0,0 460.9,-736.1 716.3,-2752.99" /><path
         id="path202"
         style="fill:#d3e1e8;fill-opacity:1;fill-rule:nonzero;stroke:none"
         d="m 13589.2,7187.81 c 0.3,0.6 0.7,1.31 1,1.88 l -1,58.83 h -2435.4 v -58.83 c 0,0 -0.4,-1.28 0,-1.88 l 6.2,-10.95 c 31.3,-51 87.5,-60.17 151.8,-60.17 h 2119.3 c 64.4,0 120.4,9.17 151.8,60.17 l 6.3,10.95" /><path
         id="path204"
         style="fill:#b6c2c8;fill-opacity:1;fill-rule:nonzero;stroke:none"
         d="m 13002.3,7177.88 c 0,0 -0.4,-1.02 0,-1.61 l 6,-8.9 c 9.6,-13.12 21.7,-22.86 35.6,-29.93 h 370.3 c 61.9,0 115.9,7.4 146,48.62 l 5.8,8.96 c 0.5,0.49 0.8,0.97 1.1,1.51 l -0.6,28.93 h -564.2 v -47.58" /><path
         id="path206"
         style="fill:#b6c2c8;fill-opacity:1;fill-rule:nonzero;stroke:none"
         d="m 12673.5,7193.33 h -1216.9 v 41.59 h 1216.9 v -41.59" /><path
         id="path208"
         style="fill:#d9e2e3;fill-opacity:1;fill-rule:nonzero;stroke:none"
         d="M 12988.8,7250.64 12673,8447.31 c -8.4,31.67 -40.7,57.24 -72.2,57.24 h -1708.6 c -31.6,0 -50.4,-25.57 -42.1,-57.24 l 315.7,-1196.67 h 1823" /><path
         id="path210"
         style="fill:#b6c2c8;fill-opacity:1;fill-rule:nonzero;stroke:none"
         d="m 12022.5,7877.54 c 16.2,-61.01 -20.4,-110.58 -81.4,-110.58 -61.2,0 -123.7,49.57 -139.8,110.58 -16.1,61.2 20.2,110.76 81.4,110.76 61.1,0 123.7,-49.56 139.8,-110.76" /><path
         id="path212"
         style="fill:#1f3b57;fill-opacity:1;fill-rule:nonzero;stroke:none"
         d="m 7885.54,3005.8 h -249.31 l 411.27,3983.16 h 361.42 L 7885.54,3005.8" /><path
         id="path214"
         style="fill:#212a53;fill-opacity:1;fill-rule:nonzero;stroke:none"
         d="M 8384.86,6805.36 8226.32,5599.1 8038.3,6899.09 l 9.2,89.87 h 315.92 l 21.44,-183.6" /><path
         id="path216"
         style="fill:#1f3b57;fill-opacity:1;fill-rule:nonzero;stroke:none"
         d="m 11225.1,3005.8 h -249.2 l 411.2,3983.16 h 361.4 L 11225.1,3005.8" /><path
         id="path218"
         style="fill:#212a53;fill-opacity:1;fill-rule:nonzero;stroke:none"
         d="m 11724.4,6805.36 -158.5,-1206.26 -188.1,1299.99 9.3,89.87 h 315.9 l 21.4,-183.6" /><path
         id="path220"
         style="fill:#1f3b57;fill-opacity:1;fill-rule:nonzero;stroke:none"
         d="m 13842.2,3005.8 h 249.2 l -411.2,3983.16 h -361.4 l 523.4,-3983.16" /><path
         id="path222"
         style="fill:#212a53;fill-opacity:1;fill-rule:nonzero;stroke:none"
         d="m 13342.9,6805.36 483.7,-1229.24 -137.2,1322.97 -9.2,89.87 h -315.9 l -21.4,-183.6" /><path
         id="path224"
         style="fill:#516dbe;fill-opacity:1;fill-rule:nonzero;stroke:none"
         d="m 11023.8,6885.5 h 3005.3 v 232.76 H 11023.8 V 6885.5" /><path
         id="path226"
         style="fill:#8fb0e1;fill-opacity:1;fill-rule:nonzero;stroke:none"
         d="m 7750.35,6885.5 h 3412.45 v 232.76 H 7750.35 V 6885.5" /><path
         id="path228"
         style="fill:#212a53;fill-opacity:1;fill-rule:nonzero;stroke:none"
         d="m 13744,9698.12 c 12.2,51.61 623.5,215.26 932.7,52.31 519.3,-273.64 437.6,-636.67 401.2,-693.38 -347.6,-541.34 155.2,-597.89 314.9,-709.42 180.3,-125.86 8.3,-483.62 -220.8,-530.07 -403.5,-81.8 -811.8,464.36 -795,801.57 18.6,374.47 -73.2,504.32 -323.9,653.3 -199.1,118.3 -334.1,319.09 -309.1,425.69" /><path
         id="path230"
         style="fill:#cbe6f8;fill-opacity:1;fill-rule:nonzero;stroke:none"
         d="m 14480.6,9156.71 c 12.2,-81.61 -44,-157.66 -125.6,-169.88 -81.6,-12.21 -157.7,44.05 -169.9,125.65 -12.2,81.61 44,157.66 125.7,169.88 81.6,12.21 157.6,-44.05 169.8,-125.65" /><path
         id="path232"
         style="fill:none;stroke:#eff7fd;stroke-width:22.1515007;stroke-linecap:butt;stroke-linejoin:miter;stroke-miterlimit:10;stroke-dasharray:none;stroke-opacity:1"
         d="m 13691.1,8705.47 c 0,0 635.9,-100.34 641.8,429.12 11.4,1035.41 -344.2,650.04 -344.2,650.04" /><path
         id="path234"
         style="fill:#eff7fd;fill-opacity:1;fill-rule:nonzero;stroke:none"
         d="m 13775.8,8676.87 -57.8,5.94 c -17.2,1.77 -29.8,17.3 -28,34.5 v 0 c 1.7,17.2 17.2,29.84 34.5,28.06 l 57.7,-5.94 c 17.2,-1.77 29.9,-17.29 28.1,-34.5 v 0 c -1.8,-17.2 -17.3,-29.83 -34.5,-28.06" /><path
         id="path236"
         style="fill:#eff7fd;fill-opacity:1;fill-rule:nonzero;stroke:none"
         d="m 14438.9,9150.46 c 8.8,-58.57 -31.6,-113.16 -90.2,-121.92 -58.5,-8.77 -113.1,31.6 -121.9,90.18 -8.8,58.57 31.6,113.17 90.2,121.93 58.6,8.77 113.2,-31.61 121.9,-90.19" /><path
         id="path238"
         style="fill:#8fb0e1;fill-opacity:1;fill-rule:nonzero;stroke:none"
         d="m 6386.93,12005 h 208.03 v 54.3 l 19.23,9.6 c 95.07,47.2 154.12,142.3 154.12,248.1 0,152.9 -124.43,277.4 -277.37,277.4 -152.94,0 -277.36,-124.5 -277.36,-277.4 0,-105.8 59.05,-200.9 154.12,-248.1 l 19.23,-9.6 z m 277.37,-69.4 h -346.71 v 81.5 c -107.46,61.9 -173.35,174.9 -173.35,299.9 0,191.2 155.54,346.7 346.7,346.7 191.17,0 346.71,-155.5 346.71,-346.7 0,-125 -65.89,-238 -173.35,-299.9 v -81.5" /><path
         id="path240"
         style="fill:#8fb0e1;fill-opacity:1;fill-rule:nonzero;stroke:none"
         d="m 6664.3,11831.6 h -346.71 v 69.4 h 346.71 v -69.4" /><path
         id="path242"
         style="fill:#8fb0e1;fill-opacity:1;fill-rule:nonzero;stroke:none"
         d="m 6525.62,12005 h -69.35 v 277.3 h 69.35 V 12005" /><path
         id="path244"
         style="fill:#8fb0e1;fill-opacity:1;fill-rule:nonzero;stroke:none"
         d="M 6560.28,12247.7 H 6421.6 v 69.3 h 138.68 v -69.3" /><path
         id="path246"
         style="fill:#8fb0e1;fill-opacity:1;fill-rule:nonzero;stroke:none"
         d="m 6352.26,12317 h -69.34 c 0,114.7 93.32,208 208.02,208 v -69.3 c -76.48,0 -138.68,-62.2 -138.68,-138.7" /><path
         id="path248"
         style="fill:none;stroke:#8fb0e1;stroke-width:44.63899994;stroke-linecap:butt;stroke-linejoin:miter;stroke-miterlimit:10;stroke-dasharray:none;stroke-opacity:1"
         d="m 4450,9892.04 c 0,-75.3 61.05,-136.36 136.37,-136.36 75.31,0 136.37,61.06 136.37,136.36 0,75.32 -61.06,136.36 -136.37,136.36 -75.32,0 -136.37,-61.04 -136.37,-136.36 z" /><path
         id="path250"
         style="fill:none;stroke:#8fb0e1;stroke-width:51.28210068;stroke-linecap:butt;stroke-linejoin:miter;stroke-miterlimit:10;stroke-dasharray:none;stroke-opacity:1"
         d="m 6663.96,11664.9 h -69.34" /><path
         id="path252"
         style="fill:none;stroke:#8fb0e1;stroke-width:51.28210068;stroke-linecap:butt;stroke-linejoin:miter;stroke-miterlimit:10;stroke-dasharray:95.9259, 95.9259;stroke-dashoffset:0;stroke-opacity:1"
         d="M 6464.91,11664.9 H 4713.88" /><path
         id="path254"
         style="fill:none;stroke:#8fb0e1;stroke-width:51.28210068;stroke-linecap:butt;stroke-linejoin:miter;stroke-miterlimit:10;stroke-dasharray:none;stroke-opacity:1"
         d="m 4649.04,11664.9 h -69.34 v -69.3" /><path
         id="path256"
         style="fill:none;stroke:#8fb0e1;stroke-width:51.28210068;stroke-linecap:butt;stroke-linejoin:miter;stroke-miterlimit:10;stroke-dasharray:97.6459, 97.6459;stroke-dashoffset:0;stroke-opacity:1"
         d="M 4579.7,11463.5 V 10209.2" /><path
         id="path258"
         style="fill:none;stroke:#8fb0e1;stroke-width:51.28210068;stroke-linecap:butt;stroke-linejoin:miter;stroke-miterlimit:10;stroke-dasharray:none;stroke-opacity:1"
         d="m 4579.7,10143.2 v -69.3" /><path
         id="path260"
         style="fill:none;stroke:#8fb0e1;stroke-width:44.63899994;stroke-linecap:butt;stroke-linejoin:miter;stroke-miterlimit:10;stroke-dasharray:none;stroke-opacity:1"
         d="m 6640.59,5925.26 c 0,75.31 61.05,136.35 136.36,136.35 75.32,0 136.37,-61.04 136.37,-136.35 0,-75.32 -61.05,-136.37 -136.37,-136.37 -75.31,0 -136.36,61.05 -136.36,136.37 z" /><path
         id="path262"
         style="fill:none;stroke:#8fb0e1;stroke-width:44.63899994;stroke-linecap:butt;stroke-linejoin:miter;stroke-miterlimit:10;stroke-dasharray:none;stroke-opacity:1"
         d="m 6640.59,9399.49 c 0,75.31 61.05,136.36 136.36,136.36 75.32,0 136.37,-61.05 136.37,-136.36 0,-75.32 -61.05,-136.37 -136.37,-136.37 -75.31,0 -136.36,61.05 -136.36,136.37 z" /><path
         id="path264"
         style="fill:#445fb5;fill-opacity:1;fill-rule:nonzero;stroke:none"
         d="m 10193.5,8128.79 c 0,-260.45 -211.12,-471.59 -471.57,-471.59 -260.46,0 -471.59,211.14 -471.59,471.59 0,260.45 211.13,471.59 471.59,471.59 260.45,0 471.57,-211.14 471.57,-471.59" /><path
         id="path266"
         style="fill:#ffffff;fill-opacity:1;fill-rule:nonzero;stroke:none"
         d="m 9500.2,8095.9 c -6.57,6.57 -6.58,17.25 0,23.82 l 11.91,11.91 35.73,35.73 c 98.51,98.51 258.77,98.5 357.28,0 l 35.72,-35.73 11.92,-11.91 c 6.56,-6.56 6.57,-17.25 0,-23.82 l -47.43,-47.43 c -2.53,1.97 -6.24,5.75 -8.89,8.45 l -3.23,3.25 -50.89,50.87 c -2.71,2.66 -6.48,6.37 -8.45,8.89 l 11.7,11.7 11.91,11.91 -11.91,11.91 c -65.67,65.68 -172.52,65.67 -238.19,0 l -11.91,-11.91 11.91,-11.91 11.71,-11.71 c -1.98,-2.51 -5.76,-6.22 -8.45,-8.88 l -3.26,-3.23 -50.86,-50.9 c -2.69,-2.71 -6.38,-6.46 -8.89,-8.44 z m 80.32,-62.62 3.04,3.08 50.72,50.67 c 9.54,9.39 19.43,19.14 19.48,33.21 0.02,8.02 -3.36,15.54 -9.9,22.41 48.44,37.69 116.8,37.7 165.23,0.01 -6.54,-6.86 -9.93,-14.4 -9.9,-22.43 0.06,-14.06 9.93,-23.8 19.5,-33.2 l 3.06,-3.04 50.68,-50.7 c 9.41,-9.57 19.13,-19.43 33.2,-19.5 8.36,-0.03 16.21,3.56 23.31,10.66 l 47.64,47.63 c 19.69,19.71 19.69,51.76 0,71.46 l -11.91,11.91 -35.73,35.72 c -111.64,111.64 -293.29,111.65 -404.92,0 l -35.73,-35.72 -11.91,-11.91 c -19.71,-19.7 -19.71,-51.75 0,-71.46 l 47.64,-47.63 c 7.09,-7.1 14.94,-10.69 23.3,-10.65 14.07,0.05 23.77,9.98 33.2,19.48" /><path
         id="path268"
         style="fill:none;stroke:#445fb5;stroke-width:25.64100075;stroke-linecap:butt;stroke-linejoin:miter;stroke-miterlimit:10;stroke-dasharray:none;stroke-opacity:1"
         d="m 12938.8,9339.74 c -1.4,-1.11 -2.5,-2.23 -3.3,-3.38 -17.6,-26.72 -35,-53.51 -52.6,-80.33 -15.9,-24.82 -56.2,-28.78 -87.9,-6.17 -34.8,24.86 -140.8,121.76 -206.8,185.05 -62.2,66.9 -158.4,175.3 -182.9,210.89 -22.3,32.14 -18.4,73.08 6.1,89.23 26.4,17.84 52.7,35.58 79.1,53.39 1.1,0.75 2.2,1.95 3.3,3.3 -67.8,83.2 -129.4,167.23 -184.4,250.98 -34.6,-22.3 -67.5,-48.63 -97.8,-79.35 -14.5,-14.77 -27.9,-30.44 -40.7,-46.32 -13,-168.86 63.8,-392.89 276,-606.92 214.5,-227.99 444.3,-311.87 615.2,-298.35 15.7,12.99 31.1,26.68 45.6,41.45 30.2,30.79 56.2,64.2 78.1,99.38 -82.4,55.83 -165.1,118.37 -247,187.15 z" /><path
         id="path270"
         style="fill:none;stroke:#445fb5;stroke-width:25.64100075;stroke-linecap:butt;stroke-linejoin:miter;stroke-miterlimit:10;stroke-dasharray:none;stroke-opacity:1"
         d="m 12661.6,9919.65 c 0,68.94 55,124.85 122.9,124.85 v 0 c 67.8,0 122.8,-55.91 122.8,-124.85 v -16.6 c 0,-73.99 -156.6,-130.03 -208.2,-206.96 -53.4,-79.69 -49,-139.63 -49,-139.63 h 255.5" /><path
         id="path272"
         style="fill:none;stroke:#445fb5;stroke-width:25.64100075;stroke-linecap:butt;stroke-linejoin:miter;stroke-miterlimit:10;stroke-dasharray:none;stroke-opacity:1"
         d="m 13151.3,9528.72 v 532.38" /><path
         id="path274"
         style="fill:none;stroke:#445fb5;stroke-width:25.64100075;stroke-linecap:butt;stroke-linejoin:miter;stroke-miterlimit:10;stroke-dasharray:none;stroke-opacity:1"
         d="M 13233.4,9684.24 H 12928 l 219.7,360.26" /><path
         id="path276"
         style="fill:none;stroke:#445fb5;stroke-width:25.64100075;stroke-linecap:butt;stroke-linejoin:miter;stroke-miterlimit:10;stroke-dasharray:51.2821, 51.2821;stroke-dashoffset:0;stroke-opacity:1"
         d="m 12419.4,10155.1 c 242.2,246 635,246 877.2,0 242.2,-246.06 242.2,-644.92 0,-890.94" /><path
         id="path278"
         style="fill:#cbe6f8;fill-opacity:1;fill-rule:nonzero;stroke:none"
         d="M 8185.84,9897.41 H 5198.23 v 489.49 h 2987.61 v -489.49" /><path
         id="path280"
         style="fill:none;stroke:#445fb5;stroke-width:25.64100075;stroke-linecap:butt;stroke-linejoin:miter;stroke-miterlimit:10;stroke-dasharray:none;stroke-opacity:1"
         d="m 5309.2,10142.1 h 240.13" /><path
         id="path282"
         style="fill:none;stroke:#445fb5;stroke-width:25.64100075;stroke-linecap:butt;stroke-linejoin:miter;stroke-miterlimit:10;stroke-dasharray:none;stroke-opacity:1"
         d="m 5369.24,10038.2 120.08,207.9" /><path
         id="path284"
         style="fill:none;stroke:#445fb5;stroke-width:25.64100075;stroke-linecap:butt;stroke-linejoin:miter;stroke-miterlimit:10;stroke-dasharray:none;stroke-opacity:1"
         d="m 5489.32,10038.2 -120.08,207.9" /><path
         id="path286"
         style="fill:none;stroke:#445fb5;stroke-width:25.64100075;stroke-linecap:butt;stroke-linejoin:miter;stroke-miterlimit:10;stroke-dasharray:none;stroke-opacity:1"
         d="m 5651.4,10142.1 h 240.12" /><path
         id="path288"
         style="fill:none;stroke:#445fb5;stroke-width:25.64100075;stroke-linecap:butt;stroke-linejoin:miter;stroke-miterlimit:10;stroke-dasharray:none;stroke-opacity:1"
         d="m 5711.43,10038.2 120.05,207.9" /><path
         id="path290"
         style="fill:none;stroke:#445fb5;stroke-width:25.64100075;stroke-linecap:butt;stroke-linejoin:miter;stroke-miterlimit:10;stroke-dasharray:none;stroke-opacity:1"
         d="m 5831.48,10038.2 -120.05,207.9" /><path
         id="path292"
         style="fill:none;stroke:#445fb5;stroke-width:25.64100075;stroke-linecap:butt;stroke-linejoin:miter;stroke-miterlimit:10;stroke-dasharray:none;stroke-opacity:1"
         d="m 5993.59,10142.1 h 240.1" /><path
         id="path294"
         style="fill:none;stroke:#445fb5;stroke-width:25.64100075;stroke-linecap:butt;stroke-linejoin:miter;stroke-miterlimit:10;stroke-dasharray:none;stroke-opacity:1"
         d="m 6053.6,10038.2 120.08,207.9" /><path
         id="path296"
         style="fill:none;stroke:#445fb5;stroke-width:25.64100075;stroke-linecap:butt;stroke-linejoin:miter;stroke-miterlimit:10;stroke-dasharray:none;stroke-opacity:1"
         d="m 6173.68,10038.2 -120.08,207.9" /><path
         id="path298"
         style="fill:none;stroke:#445fb5;stroke-width:25.64100075;stroke-linecap:butt;stroke-linejoin:miter;stroke-miterlimit:10;stroke-dasharray:none;stroke-opacity:1"
         d="M 6335.78,10142.1 H 6575.9" /><path
         id="path300"
         style="fill:none;stroke:#445fb5;stroke-width:25.64100075;stroke-linecap:butt;stroke-linejoin:miter;stroke-miterlimit:10;stroke-dasharray:none;stroke-opacity:1"
         d="m 6395.82,10038.2 120.05,207.9" /><path
         id="path302"
         style="fill:none;stroke:#445fb5;stroke-width:25.64100075;stroke-linecap:butt;stroke-linejoin:miter;stroke-miterlimit:10;stroke-dasharray:none;stroke-opacity:1"
         d="m 6515.87,10038.2 -120.05,207.9" /><path
         id="path304"
         style="fill:none;stroke:#445fb5;stroke-width:25.64100075;stroke-linecap:butt;stroke-linejoin:miter;stroke-miterlimit:10;stroke-dasharray:none;stroke-opacity:1"
         d="m 6677.97,10142.1 h 240.1" /><path
         id="path306"
         style="fill:none;stroke:#445fb5;stroke-width:25.64100075;stroke-linecap:butt;stroke-linejoin:miter;stroke-miterlimit:10;stroke-dasharray:none;stroke-opacity:1"
         d="m 6738.01,10038.2 120.03,207.9" /><path
         id="path308"
         style="fill:none;stroke:#445fb5;stroke-width:25.64100075;stroke-linecap:butt;stroke-linejoin:miter;stroke-miterlimit:10;stroke-dasharray:none;stroke-opacity:1"
         d="m 6858.04,10038.2 -120.03,207.9" /><path
         id="path310"
         style="fill:#cbe6f8;fill-opacity:1;fill-rule:nonzero;stroke:none"
         d="M 8185.84,10555.7 H 5198.23 v 489.5 h 2987.61 v -489.5" /><path
         id="path312"
         style="fill:none;stroke:#445fb5;stroke-width:25.64100075;stroke-linecap:butt;stroke-linejoin:miter;stroke-miterlimit:10;stroke-dasharray:none;stroke-opacity:1"
         d="M 5358.86,10783.5 H 7208.97" /></g></g></svg>