<?xml version="1.0" encoding="UTF-8" standalone="no"?>
<svg
   xmlns:dc="http://purl.org/dc/elements/1.1/"
   xmlns:cc="http://creativecommons.org/ns#"
   xmlns:rdf="http://www.w3.org/1999/02/22-rdf-syntax-ns#"
   xmlns:svg="http://www.w3.org/2000/svg"
   xmlns="http://www.w3.org/2000/svg"
   viewBox="0 0 2580.4934 1698.6"
   height="1698.6"
   width="2580.4934"
   xml:space="preserve"
   id="svg2"
   version="1.1"><metadata
     id="metadata8"><rdf:RDF><cc:Work
         rdf:about=""><dc:format>image/svg+xml</dc:format><dc:type
           rdf:resource="http://purl.org/dc/dcmitype/StillImage" /></cc:Work></rdf:RDF></metadata><defs
     id="defs6" /><g
     transform="matrix(1.3333333,0,0,-1.3333333,0,1698.6)"
     id="g10"><g
       transform="scale(0.1)"
       id="g12"><path
         id="path14"
         style="fill:#e8f0fa;fill-opacity:1;fill-rule:evenodd;stroke:none"
         d="M 18076.1,2867.38 C 17744,2420 16826.9,1287.4 15026.1,389.5 14873.7,313.5 14715,239.301 14549.8,167.102 14439.2,118.898 14328.8,73 14218.6,29.4023 H 5817.37 C 5554.86,123.801 5378.87,198.5 5305.27,230.602 5206.37,273.801 5085.86,326.301 4947.98,389.5 3839.28,896.699 1613.28,2080.2 561.215,4455.79 113.285,5467.4 -272.383,6722.24 254.125,7367.88 c 561.242,688.31 966.995,239.22 2689.705,296.51 1059.48,35.26 1621,61.42 2075.54,444.76 540.47,455.88 282.31,989.69 667.12,2096.75 128.77,370.4 739.26,2201.8 1969.63,2477.9 1651.96,370.6 2613.58,-1219.4 2859.18,-1472 1618.7,-1665.04 871.3,-3072.69 2350.8,-4087.48 614.9,-421.77 1331.2,-492.93 2763.9,-635.36 2265.2,-225.24 3142,278.4 3558,-254.15 697.4,-892.57 -1026.7,-3252.64 -1111.9,-3367.43" /><path
         id="path16"
         style="fill:#f685c8;fill-opacity:1;fill-rule:evenodd;stroke:none"
         d="M 5521.63,292.699 C 4853.15,355 4186.03,549.402 3538.76,870.602 3021.18,1127.5 2515.08,1465.6 2034.53,1875.5 1216.42,2573.3 749.664,3246.86 745.055,3253.59 l 26.179,18 C 775.836,3264.9 1240.68,2594.2 2055.85,1899.1 2807.57,1258.1 4019.59,464.5 5524.57,324.402 l -2.94,-31.703" /><path
         id="path18"
         style="fill:#f685c8;fill-opacity:1;fill-rule:evenodd;stroke:none"
         d="m 769.004,3215.89 c 0,0 -928.758,737.14 -650.199,1005 278.558,267.86 650.199,-1005 650.199,-1005" /><path
         id="path20"
         style="fill:#f685c8;fill-opacity:1;fill-rule:evenodd;stroke:none"
         d="m 1410.58,2481.5 c 0,0 -1185.564,-20 -1140.404,363.83 45.16,383.81 1140.404,-363.83 1140.404,-363.83" /><path
         id="path22"
         style="fill:#f685c8;fill-opacity:1;fill-rule:evenodd;stroke:none"
         d="m 2124.51,1812.3 c 0,0 -1175.885,-152.5 -1174.006,234 1.879,386.4 1174.006,-234 1174.006,-234" /><path
         id="path24"
         style="fill:#f685c8;fill-opacity:1;fill-rule:evenodd;stroke:none"
         d="m 2124.17,1804.5 c 0,0 -617.57,1012.22 -263.73,1167.63 353.86,155.41 263.73,-1167.63 263.73,-1167.63" /><path
         id="path26"
         style="fill:#f685c8;fill-opacity:1;fill-rule:evenodd;stroke:none"
         d="m 2855.58,1266.6 c 0,0 -1154.35,-270.998 -1191.61,113.7 -37.27,384.7 1191.61,-113.7 1191.61,-113.7" /><path
         id="path28"
         style="fill:#f685c8;fill-opacity:1;fill-rule:evenodd;stroke:none"
         d="m 2842.38,1265.5 c 0,0 -614.39,1014.1 -260,1168.4 354.4,154.3 260,-1168.4 260,-1168.4" /><path
         id="path30"
         style="fill:#f685c8;fill-opacity:1;fill-rule:evenodd;stroke:none"
         d="m 3732.62,794.699 c 0,0 -928.75,737.201 -650.2,1005.001 278.55,267.9 650.2,-1005.001 650.2,-1005.001" /><path
         id="path32"
         style="fill:#f685c8;fill-opacity:1;fill-rule:evenodd;stroke:none"
         d="m 3736.29,825.801 c 0,0 -1078.55,-492.602 -1190.71,-122.699 -112.18,369.798 1190.71,122.699 1190.71,122.699" /><path
         id="path34"
         style="fill:#f685c8;fill-opacity:1;fill-rule:evenodd;stroke:none"
         d="m 4602.71,471.301 c 0,0 -928.76,737.199 -650.2,1004.999 278.56,267.9 650.2,-1004.999 650.2,-1004.999" /><path
         id="path36"
         style="fill:#f685c8;fill-opacity:1;fill-rule:evenodd;stroke:none"
         d="m 4620.75,487.102 c 0,0 -1021.49,-602.102 -1171.5,-245.903 -150.01,356.203 1171.5,245.903 1171.5,245.903" /><path
         id="path38"
         style="fill:#f685c8;fill-opacity:1;fill-rule:evenodd;stroke:none"
         d="m 1410.58,2481.5 c 0,0 -452.404,1096.02 -78.67,1194.46 373.74,98.44 78.67,-1194.46 78.67,-1194.46" /><path
         id="path40"
         style="fill:#f685c8;fill-opacity:1;fill-rule:evenodd;stroke:none"
         d="m 13987.8,5050.58 c -512,-839.65 -1045.2,-856.48 -1371.1,-1463.59 -333.9,-622.21 350.9,-1147.99 -4.3,-1877.69 -74.6,-153.2 -154.1,-246.2 -191.4,-449 -67,-364.902 72.5,-705.3 224.8,-958.198 16.9,-27.903 43.1,-48.903 74,-59.204 2.9,-0.996 5.9,-1.898 8.9,-2.597 30.9,-8.301 63.9,-5.5 93,8 184.3,85.5 392.2,224.101 516,452.898 169.9,314.001 41.9,539.901 82.6,919.601 21.4,198.6 86.1,415 958.3,1498.05 768.9,954.65 825.7,919.79 963.2,1227.38 276.2,618.44 30.1,723.24 284.7,1518.75 259.6,810.91 582.8,912.66 671,1632.39 29.9,244.33 103.5,844.59 -203.7,1035.47 -2.4,1.46 -4.9,3 -7.4,4.37 -2.8,1.82 -5.8,3.43 -8.8,5.05 -268.5,148.08 -721.7,-44.73 -995.7,-305.3 -418.8,-398 -275.1,-816.3 -632.9,-2004 -169.2,-561.64 -254,-842.47 -461.2,-1182.38" /><path
         id="path42"
         style="fill:#ffffff;fill-opacity:1;fill-rule:evenodd;stroke:none"
         d="m 16077.6,8542.28 c -183.2,-206.02 -348.2,-427.66 -492.9,-662.39 -223.3,-363.09 -396.4,-758.77 -497.5,-1173.55 l -18.8,-77.77 c -5.2,-26.15 -9.8,-52.35 -14.8,-78.57 l -14.7,-78.68 -11.2,-79.23 c -3.4,-26.42 -7.8,-52.81 -10.5,-79.3 l -8.1,-79.54 c -6.1,-53.09 -8.8,-106.38 -13,-159.56 -14.1,-212.59 -21.8,-426.24 -64.4,-635.17 -41.8,-209 -122.1,-408.41 -222.3,-596 -99.9,-188.32 -225.9,-361.59 -374.3,-514.67 -74.4,-76.04 -153.9,-146.99 -237.9,-212.35 -83.8,-65.67 -171.4,-126.49 -259.8,-185.85 -88.5,-59.36 -178,-117.59 -263.9,-180.84 -86.9,-62.2 -167.9,-132.29 -242,-209.38 -73.2,-78.01 -135.4,-165.76 -184.7,-260.75 -48.9,-95.13 -86.8,-195.48 -113.1,-299.13 -13.4,-51.74 -23.9,-104.14 -31.7,-157 -7.3,-52.92 -11.7,-106.25 -12.9,-159.65 -1,-53.4 0.6,-106.7 4.8,-160 4.5,-53.2 10.9,-106.2 18.4,-158.9 15.4,-105.6 34.7,-210.5 48.9,-316 15,-105.5 23.6,-211.8 25.5,-318.3 3.4,-213.1 -26.1,-425.6 -75.6,-632.6 -68.7,-287.198 -166.3,-566.702 -291.3,-834.299 -55.5,-118.801 -48.3,-121.301 8.9,-2.602 128.7,266.403 230.2,545.102 302.7,831.901 51.7,207.8 83,422.4 81.2,638 -1.1,107.6 -8.9,215 -23.2,321.6 -13.6,106.5 -32.1,211.7 -46.6,316.5 -7,52.5 -13,104.8 -17,157.2 -3.6,52.3 -4.8,104.5 -3.5,156.7 1.6,52.1 6,104.07 13.2,155.67 7.7,51.59 18.2,102.75 31.3,153.24 26.1,100.96 63.3,198.7 111.2,291.36 48.1,91.97 108.7,176.93 179.9,252.47 72.7,75.17 152.2,143.52 237.5,204.21 85,62.09 174.2,119.81 263,179.21 88.8,59.41 177.5,120.46 262.6,186.74 85.6,66.18 166.6,138.08 242.4,215.21 151.8,155 277.1,334.33 379.2,524.34 101,190.33 182.4,393.83 224.3,606.74 42.7,212.69 49.8,428.55 63.4,640.17 13.6,211.8 38.2,421.95 86.7,627.74 l 17.9,77.25 c 6.7,25.57 14.5,50.82 21.8,76.25 l 22,76.24 c 3.8,12.72 7,25.59 11.3,38 l 13,37.49 52.1,150.13 58.9,147.76 c 82.3,195.64 178.7,385.03 288.5,566.68 141.4,236.48 303.4,460.07 484,668.17 -2.9,1.88 -5.9,3.49 -8.9,5.11" /><path
         id="path44"
         style="fill:#b1d0ef;fill-opacity:1;fill-rule:evenodd;stroke:none"
         d="m 12810.7,1234 c -385.3,-394.699 -866.9,-398.199 -851,-689.301 3.7,-69.301 34.8,-137.699 80.3,-200.699 3.4,-4.5 6.6,-8.898 9.9,-13.199 74.7,-97.903 182.9,-181 274.4,-231.301 663.7,-364.898 1570.4,382.102 1732.3,515.402 615.2,506.998 478.7,781.898 1078.2,1318.798 566.7,507.4 807.4,368 1464.2,826.85 802.1,560 1525.1,1523.5 1376.6,1929.83 -1.9,5.17 -3.8,10 -5.9,14.89 -6.2,14.14 -13.6,27.72 -22.2,40.56 -210.8,313 -1198.9,214.33 -1871.4,-201.41 -677.7,-418.86 -527.7,-846.28 -1260.9,-1302.58 -636.8,-396.22 -980.3,-217.16 -1420.7,-615.94 -473.1,-428.1 -113.5,-910.1 -583.8,-1391.9" /><path
         id="path46"
         style="fill:#ffffff;fill-opacity:1;fill-rule:evenodd;stroke:none"
         d="m 11668.2,307.699 c 0,0 940.2,9.602 1114.3,66.5 172.9,56.102 337.3,135.5 488.7,236.199 77.2,49.004 146.6,109.403 205.5,179.403 58.7,71.5 107.5,150.597 145,235.199 77.2,169 125.6,348.2 204.7,507.9 76.5,158.5 184.2,299.9 316.6,415.8 65.2,57.7 135.6,109.4 210.2,154.4 76.4,43.5 157.4,78.3 241.5,103.9 85.2,27.1 173.8,51.6 260.6,82.1 86.3,30.4 170.7,66.3 252.6,107.3 40,21.4 80.7,42 119.3,65.6 l 58.4,34.5 56.8,36.9 56.6,37.1 c 19.1,12 36.6,26.3 55,39.3 l 54.5,40.2 c 18.4,13.3 35.1,28.5 52.8,42.7 139.8,114.87 265.2,246.19 373.7,391.08 109.6,143.67 207.2,294.88 315.3,435.53 106.6,141.02 226,272 356.5,391.28 131.3,118.36 273.8,223.84 425.3,315 153.3,91.59 314,170.13 480.5,234.78 168.6,65.99 341.3,120.86 517,164.27 l 9.4,2.2 c -1.8,5.16 -3.8,10 -5.9,14.89 l -8.8,-1.99 c -177.5,-40.65 -352.1,-92.89 -522.7,-156.37 -168.6,-63.02 -331.5,-140.23 -487,-230.78 -154.1,-90.36 -299.1,-195.33 -433.1,-313.44 -133.6,-118.63 -255.3,-250.03 -363.4,-392.31 -109.8,-141.6 -208.1,-292.38 -317.1,-434.18 -107.4,-142.36 -231.6,-271.24 -369.8,-383.86 -17.3,-13.9 -33.8,-28.7 -51.9,-41.7 l -54,-39.3 c -18.2,-12.9 -35.6,-26.7 -54.5,-38.7 l -56,-36.3 -56.2,-36.2 -57.8,-33.7 c -38.2,-23.3 -78.2,-43.3 -117.7,-64.3 -80.3,-40.4 -163,-75.9 -247.7,-106.3 -85.1,-30.3 -173,-54.8 -259.4,-82.8 -86.4,-26.6 -169.5,-62.8 -247.9,-108 -76.4,-46.3 -148.4,-99.6 -215,-159.3 -135.3,-119.3 -245,-264.7 -322.7,-427.5 -39.1,-82.8 -73.7,-167.7 -103.6,-254.3 -31,-86.5 -60.8,-173.6 -97.9,-256.7 -35.7,-82.7 -82.3,-160.2 -138.7,-230.501 -56.6,-68.699 -123.5,-128.297 -198.2,-176.699 -148.4,-101 -309.9,-181.301 -480,-238.801 -174.1,-59 -354.8,-95.898 -538,-109.801 -43.3,-3.796 -86.7,-6.296 -130.5,-7.398 -50,-1.398 -100.2,-1 -150.7,0.602 -95.3,3.199 -190.4,12.097 -284.6,26.597" /><path
         id="path48"
         style="fill:#b1d0ef;fill-opacity:1;fill-rule:evenodd;stroke:none"
         d="m 6352.54,2943.96 c 0,0 1030.41,1575.44 79.58,2739 -950.83,1163.56 -804.6,1201.26 -887.99,1980.68 -83.39,779.42 -303.54,1576 -968.71,1785.26 -665.18,209.26 -328.85,802.3 -1249.8,803.4 0,0 601.53,-1202.38 430.8,-1837.67 -170.75,-635.29 -47.53,-1777.47 392.67,-2246.71 440.2,-469.24 1071.06,-1141.33 1038.13,-1996.89 -32.93,-855.56 794.86,-1253.85 1165.32,-1227.07" /><path
         id="path50"
         style="fill:#ffffff;fill-opacity:1;fill-rule:evenodd;stroke:none"
         d="m 6243.37,2544.9 c 64.09,354.12 78.56,718.1 26.9,1073.6 -25.14,177.64 -67.16,352.5 -125.48,522.17 l -21.86,63.52 c -7.24,21.2 -16.71,41.54 -24.96,62.36 l -25.57,62.1 -12.79,31 c -4.32,10.32 -9.63,20.2 -14.39,30.33 l -58.71,120.77 c -20.15,39.62 -42.55,78.06 -67.08,115.13 -24.65,36.8 -51.9,72.59 -78.56,108.91 -26.66,36.33 -53.35,72.75 -79.51,109.53 -52.42,73.44 -102.96,148.24 -153.36,222.84 -100.81,149.23 -201.23,298.77 -301.26,448.63 -99.45,150.26 -197.99,301.28 -292.37,455.11 -95.74,153.44 -183.3,311.83 -262.34,474.5 l -28.69,61.62 c -9.53,20.56 -17.73,41.75 -26.65,62.59 -8.57,21 -17.9,41.68 -25.86,62.93 l -23.55,63.92 -11.75,32 -10.29,32.49 -20.53,65 c -6.44,21.8 -11.75,43.92 -17.66,65.86 -5.58,22 -12.13,43.82 -16.27,66.19 -39.63,177.18 -59.58,359.81 -47.6,542.05 6.67,90.8 20.22,180.97 40.53,269.73 19.37,88.61 44,175.35 61.84,262.62 9.01,43.42 15.73,87.29 20.14,131.42 3.81,43.94 4.47,88.1 2.01,132.13 -2.84,44.06 -8.72,87.87 -17.62,131.12 -9.46,43.34 -21.4,86.09 -35.77,128.06 -55.49,169.56 -152.31,322.11 -254.72,469.24 -103,147.14 -213.35,289.47 -323.29,432 -110.18,142.4 -219.89,285.25 -331.75,426.27 -112.08,140.86 -225.91,280.36 -341.47,418.56 119.14,-135.1 235.91,-272.2 350.33,-411.39 114.49,-139.14 226.73,-279.94 339.5,-420.4 56.09,-70.51 111.72,-141.4 166.89,-212.66 55.11,-71.31 109.56,-143.21 162,-216.7 52.43,-73.49 103.21,-148.44 148.91,-226.87 46.29,-78.47 84.78,-161.29 114.91,-247.27 15.27,-43.07 28.06,-86.99 38.29,-131.53 9.75,-44.86 16.36,-90.35 19.8,-136.14 2.92,-45.87 2.42,-91.89 -1.47,-137.69 -4.37,-45.5 -11.13,-90.75 -20.25,-135.54 -17.96,-89.26 -42.26,-176 -61,-263.42 -19.57,-86.94 -32.53,-175.23 -38.75,-264.13 -11,-177.54 9.05,-356.53 48.62,-530.35 38.87,-174.17 103.68,-341.65 180,-503.27 77.82,-161.6 164.12,-319 258.53,-471.51 93.43,-153.46 191.18,-304.51 289.95,-454.93 99.16,-150.2 198.98,-300.02 299.47,-449.45 50,-74.86 100.38,-149.25 151.86,-222.9 25.63,-36.9 51.63,-73.53 78.01,-109.91 26.19,-36.56 53.15,-72.74 78.22,-111.01 24.75,-38.31 47.31,-78 67.58,-118.86 l 58.05,-122.82 c 4.7,-10.29 10,-20.34 14.2,-30.83 l 12.61,-31.52 25.17,-63.06 c 8.1,-21.13 17.42,-41.78 24.5,-63.28 l 21.4,-64.42 c 57.04,-171.73 97.43,-348.55 120.62,-528.01 22.46,-179.26 29.31,-360.13 20.46,-540.58 l -3.57,-67.55 c -1.18,-22.5 -3.67,-44.94 -5.44,-67.4 -3.33,-45 -8.82,-89.71 -14.19,-134.45 C 6276.43,2722 6261.85,2633 6243.37,2544.9" /><path
         id="path52"
         style="fill:#f685c8;fill-opacity:1;fill-rule:evenodd;stroke:none"
         d="m 7933.26,1105.8 c 0,0 97.52,1312.2 -1225.63,1999.45 -1323.15,687.24 -2215.19,1026.63 -2520.89,2107.85 -305.68,1081.23 -711.77,1703.45 -1392.33,1970.33 -680.54,266.88 -667.51,526.37 -1191.7,728.46 -524.2,202.09 -1411.554,243.12 -1411.554,243.12 0,0 1539.874,-935.78 1735.264,-2001.61 C 2121.81,5087.57 2520.16,4410.18 3237.15,3929.84 3954.16,3449.5 4376.22,2041.1 5783.45,1838.3 7190.67,1635.5 7933.26,1105.8 7933.26,1105.8" /><path
         id="path54"
         style="fill:#ffffff;fill-opacity:1;fill-rule:evenodd;stroke:none"
         d="M 7985.38,923.402 C 7910.47,1144.4 7810.52,1356 7687.46,1554.2 c -123.39,197.7 -273.8,377.2 -446.88,533.3 -44.33,37.5 -87.7,76.3 -134,111.5 -46,35.5 -93.41,69 -142.21,100.6 -98.37,62 -200.05,118.7 -304.59,169.6 l -625.69,312.86 c -208.47,104.51 -416.84,209.25 -623.84,316.87 -103.6,53.57 -206.69,108.22 -309.26,163.94 -102.43,56 -204.32,113.14 -303.33,175.71 -195.99,128.36 -378.82,275.77 -545.82,440.09 -21.53,19.84 -41.07,41.66 -61.59,62.51 l -60.79,63.32 -58.42,65.46 c -19.51,21.79 -39.15,43.47 -57.51,66.25 -37.4,45 -75.17,89.65 -110.43,136.33 -17.81,23.19 -36.18,46 -53.51,69.5 l -51.72,70.82 c -137.24,189.45 -259,389.23 -377.2,590.38 -116.68,201.77 -235.84,403.2 -333.4,616.12 -49.45,106 -92.45,215.08 -131.37,325.3 -38.91,110.22 -72.7,221.94 -113.41,330.6 -79.91,217.86 -199.9,419.53 -343.35,601.85 -144.28,182.5 -311.08,345.99 -496.44,486.57 -185.83,140.3 -384.59,262.59 -593.59,365.22 l -77.84,39.54 -79.6,35.9 -79.71,35.72 c -26.63,11.73 -52.88,24.42 -80.23,34.51 l -162.593,64 -40.699,15.91 -41.325,14.18 -82.66,28.37 -82.664,28.37 c -13.805,4.65 -27.5,9.62 -41.383,14 l -41.89,12.43 -167.602,49.77 c -55.609,17.61 -112.5,30.43 -168.887,45.18 l -169.4918,43.1 169.9298,-41.39 c 56.551,-14.18 113.609,-26.44 169.402,-43.5 l 168.188,-48.11 42.058,-12 c 13.942,-4.27 27.703,-9.1 41.563,-13.62 l 83,-27.56 82.996,-27.56 41.535,-13.79 40.906,-15.52 163.527,-62.44 c 27.5,-9.85 53.93,-22.28 80.74,-33.77 l 80.26,-35 80.17,-35.19 78.47,-38.87 c 210.6,-101.79 410.97,-223.49 598.39,-363.45 187.5,-140.56 356.44,-304.29 502.79,-487.31 145.83,-182.81 268.29,-386.42 349.25,-606.82 41.34,-109.65 75.15,-221.34 114.22,-330.85 39.06,-109.5 81.75,-217.6 131.08,-322.84 97.22,-211.16 216.29,-411.65 333.35,-613.19 118.35,-200.57 240.08,-399.32 376.77,-587.5 l 51.3,-70.52 c 17.18,-23.43 35.4,-46.08 53.04,-69.16 34.96,-46.45 72.41,-90.89 109.45,-135.64 18.2,-22.66 37.67,-44.21 56.99,-65.9 l 57.9,-65.11 60.22,-62.94 c 20.33,-20.74 39.69,-42.45 61.01,-62.17 165.34,-163.3 346.41,-309.86 540.57,-437.57 98,-62.2 199.48,-119.4 301.55,-175.41 102.07,-56.01 205.07,-110.54 308.5,-164.27 206.75,-107.6 414.51,-213.44 622.3,-319.22 l 623.95,-316.39 c 104.8,-51.8 206.7,-109.3 305.24,-172.2 48.98,-32 96.55,-66.1 142.69,-102.2 46.31,-35.7 89.91,-74.8 133.99,-113.1 172.27,-158.4 321.53,-340.2 443.46,-540 121.27,-199.6 219.27,-412.4 292.09,-634.398" /><path
         id="path56"
         style="fill:#b1d0ef;fill-opacity:1;fill-rule:evenodd;stroke:none"
         d="m 5276.94,1559.5 c -272.82,446.7 -869.23,858.2 -1744.94,794.9 -875.72,-63.2 -1390.07,495.38 -1669.64,989.71 -279.4,494.45 -1012.231,1078 -1012.231,1078 0,0 8.644,-1.38 26.184,-3.46 3.414,-0.52 7.125,-0.92 11.261,-1.38 84.004,-9.83 310.736,-30.47 695.896,-23.5 500.35,9.14 849.09,-507.38 1296.71,-515.67 447.49,-8.13 821,-116.56 1216.7,-345.27 395.69,-228.71 687.31,-329.57 1453.24,-247 765.99,82.42 1676.33,-1176.73 1676.33,-1176.73 2.1,-45.1 2.24,-88.4 0.42,-129.8 0.02,-1.3 -0.02,-2.5 -0.14,-3.8 -54.57,-1190.398 -1677.95,-861.3 -1949.79,-416" /><path
         id="path58"
         style="fill:#ffffff;fill-opacity:1;fill-rule:evenodd;stroke:none"
         d="m 7226.73,1975.5 c -218.5,28.6 -435.67,66.8 -650.47,116 -297.1,68.3 -588.86,157.9 -873,268.3 -142.11,54.9 -281.77,116.4 -419.68,180.6 -137.93,64.1 -275.7,128.2 -416.94,183.2 -141.18,55.5 -285.23,103.28 -431.25,144.95 -145.46,42.54 -293.02,77.51 -442.09,104.77 -74.73,12.57 -149.73,22.42 -225.14,30.16 -75.4,7.72 -151.88,14.7 -227.43,28.79 -75.37,14 -149.68,33.14 -222.43,57.28 -36.57,11.53 -72.35,24.86 -108.36,37.5 l -106.59,41.77 c -141.36,58.5 -277.23,129.48 -406.01,212.08 -128.87,81.92 -251,172.91 -375.71,259.72 -248.93,174.35 -509.28,331.79 -779.31,471.25 -216.71,113.11 -438.71,215.35 -665.996,306.7 3.414,-0.51 7.125,-0.91 11.258,-1.38 224.838,-86.57 445.168,-184.14 660.998,-292.74 272.03,-137.38 534.47,-292.98 785.54,-465.72 l 187.56,-130 93.81,-64.63 c 31.62,-21 63.08,-42.19 95.09,-62.32 127.77,-81.34 262.48,-151.21 402.57,-208.81 l 105.94,-41.13 c 35.73,-12.45 71.26,-25.61 107.28,-36.79 71.73,-23.59 144.98,-42.27 219.25,-55.92 73.99,-13.5 149.41,-20.2 225.24,-27.84 75.83,-7.64 151.76,-17.14 227.2,-29.79 150.08,-27.88 298.61,-63.51 445,-106.76 146.38,-42.27 291.24,-90.71 433,-147.01 142.15,-55.83 280.3,-120.53 417.9,-184.93 137.75,-64.3 276.3,-126.6 417.42,-182.7 282.35,-112.3 572.4,-204.3 867.9,-275.1 213.6,-52.3 429.44,-94.2 647.52,-125.8 0.04,-1.2 0.02,-2.5 -0.07,-3.7" /><path
         id="path60"
         style="fill:#31376e;fill-opacity:1;fill-rule:evenodd;stroke:none"
         d="m 7876.31,8327 c 483.92,46.58 891.11,-280.87 943.46,-333.07 416.3,-415.16 373.94,-1020.81 303.26,-1439.53 -94.31,-558.77 399.41,-661.53 616.7,-1115.59 205.35,-429.11 -36.67,-1096.95 -487.18,-1377.74 -619.39,-386 -1476.53,57.01 -1907.65,461.05 -924.35,866.33 -619.84,2237.26 -575.5,2422.74 46.45,194.38 308,1305.26 1106.91,1382.14" /><path
         id="path62"
         style="fill:#fbceba;fill-opacity:1;fill-rule:evenodd;stroke:none"
         d="m 8391.45,6135.08 c -510.8,69.7 -763.45,539.61 -763.45,539.61 0,0 -238.93,-45.56 -295.47,246.71 -37.58,194.66 221.46,373.67 312.48,21.77 2.1,0 103.92,1.18 191.65,230.33 55.34,144.8 74.82,331.87 278.08,287 22.39,-4.76 45.26,-6.92 68.15,-6.41 197.58,2.66 453.71,166.94 479.14,265.19 0.37,1.28 0.64,2.65 0.91,3.93 0,0 0.55,-1.56 1.56,-4.57 14.27,-41.53 122.49,-362.6 173.44,-705.46 67.28,-452.92 34.61,-943.78 -446.49,-878.1" /><path
         id="path64"
         style="fill:#fbceba;fill-opacity:1;fill-rule:evenodd;stroke:none"
         d="m 8537.88,6213.91 c 0,0 -467.46,-670.8 -377.06,-1058.43 90.4,-387.63 -1449.21,-543.44 -1115.87,169.21 333.34,712.65 580.48,874.83 875.28,1548 294.81,673.17 617.65,-658.78 617.65,-658.78" /><path
         id="path66"
         style="fill:#f254b2;fill-opacity:1;fill-rule:evenodd;stroke:none"
         d="M 8835.81,5587.26 C 8544.43,5515.25 8379.6,5296.97 8445.97,5004.25 8720.65,3793 9411.87,915.801 9780.39,914.801 10247.2,913.5 11967.9,832.5 11967.9,832.5 l 264.2,830.2 -2075.5,-75.5 -679.28,3132.12 c -45.78,260.35 -61.84,546.66 -271.27,707.99 -207.73,159.95 -370.24,159.95 -370.24,159.95" /><path
         id="path68"
         style="fill:#f685c8;fill-opacity:1;fill-rule:evenodd;stroke:none"
         d="M 9515.06,3398.55 C 8722.61,1775.9 9703.75,153.199 9703.75,153.199 H 6005.61 c 0,0 1018.87,1622.701 566,2377.401 -452.87,754.73 -1018.85,2226.46 -867.9,2641.55 110.94,305.66 835.86,406.8 1210.2,438.87 134.34,11.33 223.78,14 223.78,14 l 1291,26.8 256.23,-26.8 c 226.4,-37.74 316.21,-65.28 400.76,-228.3 318.06,-612.87 766.61,-1307.67 429.38,-1998.17" /><path
         id="path70"
         style="fill:#fbceba;fill-opacity:1;fill-rule:evenodd;stroke:none"
         d="m 7665.98,1021.2 c 0,0 716.99,-188.7 830.2,-151.001 113.2,37.801 490.56,264.201 754.72,151.001 187.6,-80.399 451.31,-256.001 588.42,-351.001 23.46,-16.301 35.41,-44.597 30.69,-72.699 -4.73,-28.199 -25.29,-51 -52.76,-58.699 -52.17,-15 -125.62,-22.699 -226.72,-8.199 -264.15,37.699 -603.79,0 -867.94,-113.2 -196.2,-84.101 -1320.76,150.899 -1320.76,150.899 l 264.15,452.899" /><path
         id="path72"
         style="fill:#f254b2;fill-opacity:1;fill-rule:evenodd;stroke:none"
         d="m 6209.74,5472.03 c -296.22,48.12 -576.44,-149.76 -630.19,-445 C 5357.5,3805.03 4987.71,1091.1 5326.32,945.699 5755.23,761.602 7741.45,492.898 7741.45,492.898 l 188.68,490.602 -1817.85,643.3 552.35,3207.87 c 24.95,144.94 -9.09,293.84 -94.53,413.55 -85.44,119.71 -215.19,200.29 -360.36,223.81" /><path
         id="path74"
         style="fill:#fbceba;fill-opacity:1;fill-rule:evenodd;stroke:none"
         d="m 8640.94,4487.56 c 0,0 -1538.37,883.46 -1727,1123.46 134.34,11.33 223.78,14 223.78,14 l 1291,26.8 c 330.86,-655.13 212.22,-1164.26 212.22,-1164.26" /><path
         id="path76"
         style="fill:#31376e;fill-opacity:1;fill-rule:evenodd;stroke:none"
         d="m 7739.1,6515.8 c 242.68,-279.52 118.9,-548.85 64,-713.49 -93.72,-281.17 -204,-324.82 -237.84,-704.35 -36.99,-415.18 222.48,-634.11 155.52,-914.76 -63.11,-264.43 -282,-609.07 -585.44,-631.17 -338.79,-24.69 -669.38,361 -713.5,713.5 -49.52,395.55 221.94,555.06 283.57,1052 48.59,392 -100.14,502.29 -155.51,923.9 -87.21,663.99 253.83,1188.58 329.29,1308.08 322.19,510.12 806.83,789.79 859.88,741 81.58,-75.13 -817.13,-936.21 -603.73,-1363 164.68,-329.37 410.53,-189.14 603.76,-411.71" /><path
         id="path78"
         style="fill:#f254b2;fill-opacity:1;fill-rule:evenodd;stroke:none"
         d="m 8955.53,7312.45 c 0.62,-111.12 -41.46,-218.24 -117.55,-299.23 -56.3,264.4 -30.48,191.51 -101.99,440.91 -25.46,110.51 -34.74,138.45 -73.92,265.19 0.83,-0.19 1.65,-0.37 2.47,-0.65 167.86,-49.47 290.99,-212.57 290.99,-406.22" /><path
         id="path80"
         style="fill:#9471bf;fill-opacity:1;fill-rule:evenodd;stroke:none"
         d="m 7295.18,7152.21 c -95.51,210.35 -93.98,451.99 4.15,661.12 98.14,209.13 283.02,364.72 505.85,425.69 321.11,85.35 671.81,-40.5 881.59,-294.24 150,-212.38 160.54,-333 177.45,-358.74 40.6,-61.68 -129.05,146.13 -201.24,118.91 -140.81,321 -490.72,500.07 -820.21,412.48 -173.99,-46.25 -322.99,-168.4 -408.87,-335.13 -93.73,-181.2 -98.58,-395.52 -13.13,-580.77 l -125.59,-49.32" /><path
         id="path82"
         style="fill:#f254b2;fill-opacity:1;fill-rule:evenodd;stroke:none"
         d="m 7505.73,7240.12 c 219.7,0 397.81,-188.76 397.81,-421.62 0,-232.85 -178.11,-421.62 -397.81,-421.62 -219.71,0 -397.81,188.77 -397.81,421.62 0,232.86 178.1,421.62 397.81,421.62" /><path
         id="path84"
         style="fill:#9471bf;fill-opacity:1;fill-rule:evenodd;stroke:none"
         d="m 7454.59,7240.12 c 191.46,0 346.67,-188.76 346.67,-421.62 0,-232.85 -155.21,-421.62 -346.67,-421.62 -191.46,0 -346.67,188.77 -346.67,421.62 0,232.86 155.21,421.62 346.67,421.62" /><path
         id="path86"
         style="fill:#9471bf;fill-opacity:1;fill-rule:evenodd;stroke:none"
         d="m 8550.92,6414.83 c 78.96,0 142.97,-47.41 142.97,-105.89 0,-58.48 -64.01,-105.88 -142.97,-105.88 -78.95,0 -142.96,47.4 -142.96,105.88 0,58.48 64.01,105.89 142.96,105.89" /><path
         id="path88"
         style="fill:#9471bf;fill-opacity:1;fill-rule:evenodd;stroke:none"
         d="m 8083.25,6143.89 c -109.95,0.22 -218.15,27.55 -315,79.59 -108.56,58.17 -202.62,140.03 -275.25,239.49 l 61.46,41.43 c 66.68,-89.86 152.39,-163.87 251,-216.74 211.38,-111.01 440.73,-90.92 681.68,59.77 l 39.31,-62.85 c -166.07,-103.86 -315.23,-140.69 -443.2,-140.69" /><path
         id="path90"
         style="fill:#f254b2;fill-opacity:1;fill-rule:evenodd;stroke:none"
         d="m 8550.92,6413.07 c 78.96,0 142.97,-47.41 142.97,-105.89 0,-58.48 -64.01,-105.89 -142.97,-105.89 -78.95,0 -142.96,47.41 -142.96,105.89 0,58.48 64.01,105.89 142.96,105.89" /><path
         id="path92"
         style="fill:#9471bf;fill-opacity:1;fill-rule:evenodd;stroke:none"
         d="m 11269.8,4050.59 h 3678.4 L 14126.2,403 h -3678.4 l 822,3647.59" /><path
         id="path94"
         style="fill:#f685c8;fill-opacity:1;fill-rule:evenodd;stroke:none"
         d="m 12776.9,2242.6 c 48.9,189.7 171.2,322.2 273.1,295.9 102,-26.3 144.9,-201.4 96,-391.1 -48.9,-189.8 -171.2,-322.2 -273.2,-295.9 -101.9,26.2 -144.9,201.4 -95.9,391.1" /><path
         id="path96"
         style="fill:#373d7d;fill-opacity:1;fill-rule:evenodd;stroke:none"
         d="M 3971.01,537.699 H 16042.9 V 29.4023 H 3971.01 V 537.699" /><path
         id="path98"
         style="fill:#ffffff;fill-opacity:1;fill-rule:evenodd;stroke:none"
         d="m 10421.7,8519.45 h 3471.7 V 6816.97 h -3471.7 v 1702.48" /><path
         id="path100"
         style="fill:#ffffff;fill-opacity:1;fill-rule:evenodd;stroke:none"
         d="m 13025.5,6835.51 445.1,-597.17 44.5,778.91 c 0,0 -511.9,59.35 -489.6,-181.74" /><path
         id="path102"
         style="fill:#9471bf;fill-opacity:1;fill-rule:nonzero;stroke:none"
         d="m 10464.7,6840.37 h 3395.8 v 1646.15 h -3395.8 z m 3461.6,-65.84 h -3527.4 v 1777.85 h 3527.4 V 6774.53" /><path
         id="path104"
         style="fill:#9471bf;fill-opacity:1;fill-rule:nonzero;stroke:none"
         d="m 13128.6,6766.51 307.9,-431 18.1,438.25 z m 365.8,-625.31 -491.7,688.38 520.6,11.56 -28.9,-699.94" /><path
         id="path106"
         style="fill:#9471bf;fill-opacity:1;fill-rule:evenodd;stroke:none"
         d="m 10690.5,8110.26 h 2850.2 v -141.1 h -2850.2 v 141.1" /><path
         id="path108"
         style="fill:#9471bf;fill-opacity:1;fill-rule:evenodd;stroke:none"
         d="m 10695.2,7701.07 h 2850.2 v -141.1 h -2850.2 v 141.1" /><path
         id="path110"
         style="fill:#9471bf;fill-opacity:1;fill-rule:evenodd;stroke:none"
         d="m 10699.9,7291.89 h 2850.2 v -141.1 h -2850.2 v 141.1" /><path
         id="path112"
         style="fill:#ffffff;fill-opacity:1;fill-rule:evenodd;stroke:none"
         d="m 15270.5,9891.8 h -2687.9 v 1318.1 h 2687.9 V 9891.8" /><path
         id="path114"
         style="fill:#ffffff;fill-opacity:1;fill-rule:evenodd;stroke:none"
         d="m 13254.6,9906.15 -344.6,-462.34 -34.5,602.99 c 0,0 396.3,46 379.1,-140.65" /><path
         id="path116"
         style="fill:#9471bf;fill-opacity:1;fill-rule:nonzero;stroke:none"
         d="M 15237.2,11184.4 H 12608.1 V 9909.91 h 2629.1 z m -2680.1,51 h 2731 V 9858.94 h -2731 v 1376.46" /><path
         id="path118"
         style="fill:#9471bf;fill-opacity:1;fill-rule:nonzero;stroke:none"
         d="m 12922.4,9858.34 14,-339.3 238.3,333.69 z m -53.2,52.17 403.1,-9 -380.7,-533 -22.4,542" /><path
         id="path120"
         style="fill:#9471bf;fill-opacity:1;fill-rule:evenodd;stroke:none"
         d="m 15062.4,10783.9 h -2206.7 v 109.2 h 2206.7 v -109.2" /><path
         id="path122"
         style="fill:#9471bf;fill-opacity:1;fill-rule:evenodd;stroke:none"
         d="m 15058.8,10467.1 h -2206.7 v 109.2 h 2206.7 v -109.2" /><path
         id="path124"
         style="fill:#9471bf;fill-opacity:1;fill-rule:evenodd;stroke:none"
         d="m 15055.1,10150.3 h -2206.6 v 109.2 h 2206.6 v -109.2" /></g></g></svg>