<?xml version="1.0" encoding="UTF-8" standalone="no"?>
<svg
   xmlns:dc="http://purl.org/dc/elements/1.1/"
   xmlns:cc="http://creativecommons.org/ns#"
   xmlns:rdf="http://www.w3.org/1999/02/22-rdf-syntax-ns#"
   xmlns:svg="http://www.w3.org/2000/svg"
   xmlns="http://www.w3.org/2000/svg"
   viewBox="0 0 565.35999 439.41333"
   height="439.41333"
   width="565.35999"
   xml:space="preserve"
   id="svg2"
   version="1.1"><metadata
     id="metadata8"><rdf:RDF><cc:Work
         rdf:about=""><dc:format>image/svg+xml</dc:format><dc:type
           rdf:resource="http://purl.org/dc/dcmitype/StillImage" /></cc:Work></rdf:RDF></metadata><defs
     id="defs6" /><g
     transform="matrix(1.3333333,0,0,-1.3333333,0,439.41333)"
     id="g10"><g
       transform="scale(0.1)"
       id="g12"><path
         id="path14"
         style="fill:#e2eefa;fill-opacity:1;fill-rule:nonzero;stroke:none"
         d="m 38.5,15.5508 c 0,0 284.898,1054.0992 1455.8,919.0002 845.8,-97.602 991.9,485.399 1122.3,805.199 120,293.2 967.8,666.9 1260.6,122 C 4300.3,1074.45 3861,682.449 4080.5,414.051 4300,145.648 4229.4,7.44922 4229.4,7.44922 L 38.5,15.5508" /><path
         id="path16"
         style="fill:#ffffff;fill-opacity:1;fill-rule:nonzero;stroke:none"
         d="m 1746.4,1884.05 h -471.7 v -298.7 h 317 l 91.8,-114 v 114 h 62.9 v 298.7" /><path
         id="path18"
         style="fill:none;stroke:#314ea8;stroke-width:16.29999924;stroke-linecap:butt;stroke-linejoin:miter;stroke-miterlimit:10;stroke-dasharray:none;stroke-opacity:1"
         d="m 1746.4,1884.05 h -471.7 v -298.7 h 317 l 91.8,-114 v 114 h 62.9 z" /><path
         id="path20"
         style="fill:#f7c7e6;fill-opacity:1;fill-rule:nonzero;stroke:none"
         d="m 1393.1,1764.05 c 17.95,0 32.5,-14.55 32.5,-32.5 0,-17.95 -14.55,-32.5 -32.5,-32.5 -17.95,0 -32.5,14.55 -32.5,32.5 0,17.95 14.55,32.5 32.5,32.5" /><path
         id="path22"
         style="fill:none;stroke:#314ea8;stroke-width:14.5;stroke-linecap:butt;stroke-linejoin:miter;stroke-miterlimit:10;stroke-dasharray:none;stroke-opacity:1"
         d="m 1393.1,1764.05 c 17.95,0 32.5,-14.55 32.5,-32.5 0,-17.95 -14.55,-32.5 -32.5,-32.5 -17.95,0 -32.5,14.55 -32.5,32.5 0,17.95 14.55,32.5 32.5,32.5 z" /><path
         id="path24"
         style="fill:#f7c7e6;fill-opacity:1;fill-rule:nonzero;stroke:none"
         d="m 1508.8,1764.05 c 17.95,0 32.5,-14.55 32.5,-32.5 0,-17.95 -14.55,-32.5 -32.5,-32.5 -17.95,0 -32.5,14.55 -32.5,32.5 0,17.95 14.55,32.5 32.5,32.5" /><path
         id="path26"
         style="fill:none;stroke:#314ea8;stroke-width:14.5;stroke-linecap:butt;stroke-linejoin:miter;stroke-miterlimit:10;stroke-dasharray:none;stroke-opacity:1"
         d="m 1508.8,1764.05 c 17.95,0 32.5,-14.55 32.5,-32.5 0,-17.95 -14.55,-32.5 -32.5,-32.5 -17.95,0 -32.5,14.55 -32.5,32.5 0,17.95 14.55,32.5 32.5,32.5 z" /><path
         id="path28"
         style="fill:#f7c7e6;fill-opacity:1;fill-rule:nonzero;stroke:none"
         d="m 1624.4,1764.05 c 17.95,0 32.5,-14.55 32.5,-32.5 0,-17.95 -14.55,-32.5 -32.5,-32.5 -17.95,0 -32.5,14.55 -32.5,32.5 0,17.95 14.55,32.5 32.5,32.5" /><path
         id="path30"
         style="fill:none;stroke:#314ea8;stroke-width:14.5;stroke-linecap:butt;stroke-linejoin:miter;stroke-miterlimit:10;stroke-dasharray:none;stroke-opacity:1"
         d="m 1624.4,1764.05 c 17.95,0 32.5,-14.55 32.5,-32.5 0,-17.95 -14.55,-32.5 -32.5,-32.5 -17.95,0 -32.5,14.55 -32.5,32.5 0,17.95 14.55,32.5 32.5,32.5 z" /><path
         id="path32"
         style="fill:#314ea8;fill-opacity:1;fill-rule:nonzero;stroke:none"
         d="M 2922.6,1135.05 2581.2,164.648 V 7.44922 h -386.4 l -17.9,166.19878 287.5,961.402 h 458.2" /><path
         id="path34"
         style="fill:#ffffff;fill-opacity:1;fill-rule:nonzero;stroke:none"
         d="m 3084.3,1161.95 c 0,0 53.9,-62.9 62.9,-215.598 9,-152.704 -62.9,-727.801 -62.9,-727.801 l 27,-202.1018 H 2716 l -36,129.9998 -18,1015.301 422.3,0.2" /><path
         id="path36"
         style="fill:none;stroke:#314ea8;stroke-width:16.29999924;stroke-linecap:butt;stroke-linejoin:miter;stroke-miterlimit:10;stroke-dasharray:none;stroke-opacity:1"
         d="m 3084.3,1161.95 c 0,0 53.9,-62.9 62.9,-215.598 9,-152.704 -62.9,-727.801 -62.9,-727.801 l 27,-202.1018 H 2716 l -36,129.9998 -18,1015.301 z" /><path
         id="path38"
         style="fill:#314ea8;fill-opacity:1;fill-rule:nonzero;stroke:none"
         d="m 2921.9,2576.75 c 0,0 116.5,0 155.4,-132 38.9,-132 31,-147.6 108.7,-217.5 77.7,-69.9 108.8,-264.1 15.5,-334 -93.3,-69.9 -559.2,-46.6 -605.8,178.7 -46.6,225.3 -93.2,543.6 -93.2,543.6 l 419.4,-38.8" /><path
         id="path40"
         style="fill:#ffffff;fill-opacity:1;fill-rule:nonzero;stroke:none"
         d="m 2941.3,2161.25 -54.3,163.1 70,62.1 -155.5,248.6 -295.1,-132.1 c 0,0 54.4,-380.6 225.2,-271.8 l 38.9,-163.1 170.8,93.2" /><path
         id="path42"
         style="fill:none;stroke:#314ea8;stroke-width:15.60000038;stroke-linecap:butt;stroke-linejoin:miter;stroke-miterlimit:10;stroke-dasharray:none;stroke-opacity:1"
         d="m 2941.3,2161.25 -54.3,163.1 70,62.1 -155.5,248.6 -295.1,-132.1 c 0,0 54.4,-380.6 225.2,-271.8 l 38.9,-163.1 z" /><path
         id="path44"
         style="fill:#314ea8;fill-opacity:1;fill-rule:nonzero;stroke:none"
         d="m 2502.5,2685.55 c 0,0 -101,-264.1 54.4,-217.5 155.4,46.6 140,108.7 140,108.7 l 101,-140 c 0,0 23.3,108.8 54.3,70 31,-38.8 15.6,-124.3 15.6,-124.3 l 20,-83.8 c 0,0 142.9,-24.9 135.1,60.5 -7.8,85.4 19.4,376.4 -186.4,404 0,0 -178.7,116.6 -334,-77.6" /><path
         id="path46"
         style="fill:#ffffff;fill-opacity:1;fill-rule:nonzero;stroke:none"
         d="m 2366.3,2069.45 -152.7,-18 134.8,422.3 c 0,0 107.8,-18 90,36 0,0 18,8.9 9,35.9 0,0 26.9,27 -18,62.9 l -36.1,27 c 0,0 26.9,18 71.9,0 45,-18 62.8,9 62.8,9 0,0 -71.8,71.9 -161.7,62.9 0,0 -134.8,-53.9 -152.7,-242.6 l -243.1,-493.3 c -21.43,-43.5 -3.54,-96.13 39.96,-117.56 12.05,-5.94 25.31,-9.03 38.74,-9.04 h 254.2 l 62.9,224.5" /><path
         id="path48"
         style="fill:none;stroke:#314ea8;stroke-width:16.29999924;stroke-linecap:butt;stroke-linejoin:miter;stroke-miterlimit:10;stroke-dasharray:none;stroke-opacity:1"
         d="m 2366.3,2069.45 -152.7,-18 134.8,422.3 c 0,0 107.8,-18 90,36 0,0 18,8.9 9,35.9 0,0 26.9,27 -18,62.9 l -36.1,27 c 0,0 26.9,18 71.9,0 45,-18 62.8,9 62.8,9 0,0 -71.8,71.9 -161.7,62.9 0,0 -134.8,-53.9 -152.7,-242.6 l -243.1,-493.3 c -21.43,-43.5 -3.54,-96.13 39.96,-117.56 12.05,-5.94 25.31,-9.03 38.74,-9.04 h 254.2 z" /><path
         id="path50"
         style="fill:#314ea8;fill-opacity:1;fill-rule:nonzero;stroke:none"
         d="m 2038.4,1840.35 h 179.7 l 125.8,-332.5 h -188.7 l -116.8,332.5" /><path
         id="path52"
         style="fill:#f7c7e6;fill-opacity:1;fill-rule:nonzero;stroke:none"
         d="m 2698.8,2132.35 c 0,0 161.7,-18 251.5,90 0,0 242.6,-134.7 296.5,-233.6 0,0 -161.7,-548 -152.7,-745.7 L 3148,964.551 2420,946.352 c 28.06,123.708 45.72,249.548 52.8,376.198 8.4,148.3 -15.5,320 1.1,477.4 l -233.6,-9 71.9,296.5 386.6,44.9" /><path
         id="path54"
         style="fill:none;stroke:#314ea8;stroke-width:16.29999924;stroke-linecap:butt;stroke-linejoin:miter;stroke-miterlimit:10;stroke-dasharray:none;stroke-opacity:1"
         d="m 2698.8,2132.35 c 0,0 161.7,-18 251.5,90 0,0 242.6,-134.7 296.5,-233.6 0,0 -161.7,-548 -152.7,-745.7 L 3148,964.551 2420,946.352 c 28.06,123.708 45.72,249.548 52.8,376.198 8.4,148.3 -15.5,320 1.1,477.4 l -233.6,-9 71.9,296.5 z" /><path
         id="path56"
         style="fill:#ffffff;fill-opacity:1;fill-rule:nonzero;stroke:none"
         d="m 2950,1692.05 -71.5,-116.5 -458.5,71.6 c -21.72,41.99 -61.41,71.78 -107.8,80.9 l -62.2,26.9 c -4.77,-22.65 1.97,-46.2 18,-62.9 l -161.7,62.9 c 0,0 -9,-35.9 35.9,-62.9 0,0 -18,-17.9 18,-44.9 0,0 -9,-26.9 35.9,-53.9 l 206.7,-71.9 449,-190 c 47.19,-20.04 101.98,-4.07 131,38.2 l 147.2,214.7 -180,107.8" /><path
         id="path58"
         style="fill:none;stroke:#314ea8;stroke-width:16.29999924;stroke-linecap:butt;stroke-linejoin:miter;stroke-miterlimit:10;stroke-dasharray:none;stroke-opacity:1"
         d="m 2950,1692.05 -71.5,-116.5 -458.5,71.6 c -21.72,41.99 -61.41,71.78 -107.8,80.9 l -62.2,26.9 c -4.77,-22.65 1.97,-46.2 18,-62.9 l -161.7,62.9 c 0,0 -9,-35.9 35.9,-62.9 0,0 -18,-17.9 18,-44.9 0,0 -9,-26.9 35.9,-53.9 l 206.7,-71.9 449,-190 c 47.19,-20.04 101.98,-4.07 131,38.2 l 147.2,214.7 z" /><path
         id="path60"
         style="fill:#f7c7e6;fill-opacity:1;fill-rule:nonzero;stroke:none"
         d="m 2905.4,1674.15 c 5.9,5.8 91.7,175.5 150.9,293.2 28.32,56.17 96.82,78.75 152.99,50.42 2.94,-1.48 5.81,-3.09 8.61,-4.82 v 0 c 47.71,-29.53 66.76,-89.43 44.9,-141.1 l -132.8,-314.5 -224.6,116.8" /><path
         id="path62"
         style="fill:none;stroke:#314ea8;stroke-width:16.29999924;stroke-linecap:butt;stroke-linejoin:miter;stroke-miterlimit:10;stroke-dasharray:none;stroke-opacity:1"
         d="m 2905.4,1674.15 c 5.9,5.8 91.7,175.5 150.9,293.2 28.32,56.17 96.82,78.75 152.99,50.42 2.94,-1.48 5.81,-3.09 8.61,-4.82 v 0 c 47.71,-29.53 66.76,-89.43 44.9,-141.1 L 3130,1557.35 Z" /><path
         id="path64"
         style="fill:#ffffff;fill-opacity:1;fill-rule:nonzero;stroke:none"
         d="M 851.801,3221.05 H 1870.3 v -877.5 H 851.801 v 877.5" /><path
         id="path66"
         style="fill:none;stroke:#314ea8;stroke-width:16.29999924;stroke-linecap:butt;stroke-linejoin:miter;stroke-miterlimit:10;stroke-dasharray:none;stroke-opacity:1"
         d="M 851.801,3221.05 H 1870.3 v -877.5 H 851.801 Z" /><path
         id="path68"
         style="fill:#314ea8;fill-opacity:1;fill-rule:nonzero;stroke:none"
         d="m 1298.3,2432.75 v 131.9 h 132.9 v -132 z m 6.3,192.8 c 0,3.3 0,7.7 0,13.3 0,5.6 0,10 0,12.4 -0.55,22.28 2.35,44.51 8.6,65.9 5.76,17.98 14.85,34.7 26.8,49.3 12.97,14.49 27.37,27.62 43,39.2 13.21,9.58 25.58,20.25 37,31.9 10.21,10.73 18.58,23.06 24.8,36.5 4.61,11.29 6.92,23.4 6.8,35.6 1.49,24.57 -7.15,48.67 -23.9,66.7 -18.05,16.72 -42.15,25.31 -66.7,23.8 -25.62,1.24 -50.41,-9.29 -67.3,-28.6 -16.4,-19 -25.34,-45.67 -26.8,-80 H 1140 v 14 c 0,63.27 20,113.8 60,151.6 40,37.8 93.96,56.63 161.9,56.5 69.4,0 124.6,-17.8 165.6,-53.4 41,-35.6 61.46,-83.27 61.4,-143 0.25,-19.06 -2.07,-38.06 -6.9,-56.5 -4.51,-16.33 -11.75,-31.78 -21.4,-45.7 -16.25,-21.45 -35.44,-40.5 -57,-56.6 -25.7,-20 -41.2,-32.8 -46.6,-37.6 -10.6,-9.92 -19.02,-21.94 -24.7,-35.3 -5.23,-14.1 -7.74,-29.06 -7.4,-44.1 0,-1.5 0,-4.1 0,-7.7 0,-3.6 0,-6.3 0,-8.1 l -120.3,-0.1" /><path
         id="path70"
         style="fill:#f7c7e6;fill-opacity:1;fill-rule:nonzero;stroke:none"
         d="m 3516.4,1296.45 v 85.5 h 86.1 v -85.5 z m 4.1,124.9 c 0,2.1 0,5 0,8.6 0,3.6 0,6.3 0,8 -0.39,14.47 1.46,28.9 5.5,42.8 3.91,11.67 9.95,22.52 17.8,32 8.46,9.31 17.8,17.79 27.9,25.3 8.59,6.25 16.66,13.21 24.1,20.8 6.59,6.96 12.02,14.92 16.1,23.6 2.94,7.34 4.4,15.19 4.3,23.1 2.97,29.39 -18.47,55.63 -47.86,58.6 -3.57,0.36 -7.17,0.36 -10.74,0 -16.63,0.85 -32.74,-5.97 -43.7,-18.5 -11.51,-14.9 -17.61,-33.27 -17.3,-52.1 h -82.3 v 9 c -1.74,36.83 12.43,72.63 38.9,98.3 26,24.4 60.97,36.6 104.9,36.6 45,0 80.77,-11.53 107.3,-34.6 26.73,-23.22 41.45,-57.33 40,-92.7 0.13,-12.35 -1.42,-24.67 -4.6,-36.6 -2.85,-10.71 -7.52,-20.86 -13.8,-30 -10.55,-13.88 -23.01,-26.2 -37,-36.6 -16.6,-13.2 -26.7,-21.3 -30,-24.4 -6.85,-6.39 -12.27,-14.17 -15.9,-22.8 -3.41,-9.14 -5.03,-18.85 -4.8,-28.6 0,-1 0,-2.6 0,-5 0,-2.4 0,-4 0,-5.2 l -78.8,0.4" /><path
         id="path72"
         style="fill:none;stroke:#314ea8;stroke-width:16.29999924;stroke-linecap:butt;stroke-linejoin:miter;stroke-miterlimit:10;stroke-dasharray:none;stroke-opacity:1"
         d="m 3516.4,1296.45 v 85.5 h 86.1 v -85.5 z m 4.1,124.9 c 0,2.1 0,5 0,8.6 0,3.6 0,6.3 0,8 -0.39,14.47 1.46,28.9 5.5,42.8 3.91,11.67 9.95,22.52 17.8,32 8.46,9.31 17.8,17.79 27.9,25.3 8.59,6.25 16.66,13.21 24.1,20.8 6.59,6.96 12.02,14.92 16.1,23.6 2.94,7.34 4.4,15.19 4.3,23.1 2.97,29.39 -18.47,55.63 -47.86,58.6 -3.57,0.36 -7.17,0.36 -10.74,0 -16.63,0.85 -32.74,-5.97 -43.7,-18.5 -11.51,-14.9 -17.61,-33.27 -17.3,-52.1 h -82.3 v 9 c -1.74,36.83 12.43,72.63 38.9,98.3 26,24.4 60.97,36.6 104.9,36.6 45,0 80.77,-11.53 107.3,-34.6 26.73,-23.22 41.45,-57.33 40,-92.7 0.13,-12.35 -1.42,-24.67 -4.6,-36.6 -2.85,-10.71 -7.52,-20.86 -13.8,-30 -10.55,-13.88 -23.01,-26.2 -37,-36.6 -16.6,-13.2 -26.7,-21.3 -30,-24.4 -6.85,-6.39 -12.27,-14.17 -15.9,-22.8 -3.41,-9.14 -5.03,-18.85 -4.8,-28.6 0,-1 0,-2.6 0,-5 0,-2.4 0,-4 0,-5.2 z" /><path
         id="path74"
         style="fill:#ffffff;fill-opacity:1;fill-rule:nonzero;stroke:none"
         d="m 3131.9,3287.45 h 748.3 v -473.9 h -502.8 l -145.7,-180.8 v 180.8 h -99.8 v 473.9" /><path
         id="path76"
         style="fill:none;stroke:#314ea8;stroke-width:16.29999924;stroke-linecap:butt;stroke-linejoin:miter;stroke-miterlimit:10;stroke-dasharray:none;stroke-opacity:1"
         d="m 3131.9,3287.45 h 748.3 v -473.9 h -502.8 l -145.7,-180.8 v 180.8 h -99.8 z" /><path
         id="path78"
         style="fill:#f7c7e6;fill-opacity:1;fill-rule:nonzero;stroke:none"
         d="m 3237.7,3153.25 h 536.8 v -42.3 h -536.8 v 42.3" /><path
         id="path80"
         style="fill:none;stroke:#314ea8;stroke-width:16.29999924;stroke-linecap:butt;stroke-linejoin:miter;stroke-miterlimit:10;stroke-dasharray:none;stroke-opacity:1"
         d="m 3237.7,3153.25 h 536.8 v -42.3 h -536.8 z" /><path
         id="path82"
         style="fill:#f7c7e6;fill-opacity:1;fill-rule:nonzero;stroke:none"
         d="m 3237.7,3068.65 h 536.8 v -42.3 h -536.8 v 42.3" /><path
         id="path84"
         style="fill:none;stroke:#314ea8;stroke-width:16.29999924;stroke-linecap:butt;stroke-linejoin:miter;stroke-miterlimit:10;stroke-dasharray:none;stroke-opacity:1"
         d="m 3237.7,3068.65 h 536.8 v -42.3 h -536.8 z" /><path
         id="path86"
         style="fill:#f7c7e6;fill-opacity:1;fill-rule:nonzero;stroke:none"
         d="m 3237.7,2984.05 h 536.8 v -42.3 h -536.8 v 42.3" /><path
         id="path88"
         style="fill:none;stroke:#314ea8;stroke-width:16.29999924;stroke-linecap:butt;stroke-linejoin:miter;stroke-miterlimit:10;stroke-dasharray:none;stroke-opacity:1"
         d="m 3237.7,2984.05 h 536.8 v -42.3 h -536.8 z" /><path
         id="path90"
         style="fill:none;stroke:#314ea8;stroke-width:14.89999962;stroke-linecap:butt;stroke-linejoin:miter;stroke-miterlimit:10;stroke-dasharray:none;stroke-opacity:1"
         d="M 0,7.44922 H 4230" /></g></g></svg>