<?xml version="1.0" encoding="UTF-8" standalone="no"?>
<svg
   xmlns:dc="http://purl.org/dc/elements/1.1/"
   xmlns:cc="http://creativecommons.org/ns#"
   xmlns:rdf="http://www.w3.org/1999/02/22-rdf-syntax-ns#"
   xmlns:svg="http://www.w3.org/2000/svg"
   xmlns="http://www.w3.org/2000/svg"
   viewBox="0 0 3120 2080"
   height="2080"
   width="3120"
   xml:space="preserve"
   id="svg2"
   version="1.1"><metadata
     id="metadata8"><rdf:RDF><cc:Work
         rdf:about=""><dc:format>image/svg+xml</dc:format><dc:type
           rdf:resource="http://purl.org/dc/dcmitype/StillImage" /></cc:Work></rdf:RDF></metadata><defs
     id="defs6"><clipPath
       id="clipPath26"
       clipPathUnits="userSpaceOnUse"><path
         id="path24"
         d="M 3202.46,8349.03 C 2853.9,8319.98 0,7963.32 0,7486.53 V 0 h 17580 c -57.5,399.398 -148.9,795.5 -295.2,1185.5 -219.1,584.2 -423.8,1229.9 -723.1,1790.1 -388.2,726.6 -935.3,1309.6 -1878.9,1428.8 -680.6,86.1 -1350.6,-62 -1970.4,-339.9 -510.3,-228.8 -1047.7,-658.6 -1632.8,-645.5 -935.5,20.7 -1595.96,1143.6 -2020.49,1846.5 -628.28,1040.41 -1391.68,1969.42 -2490.02,2551.08 -791.85,419.25 -1705.04,565.27 -2603.04,565.29 -256.88,0 -512.4,-11.94 -763.59,-32.84" /></clipPath><clipPath
       id="clipPath38"
       clipPathUnits="userSpaceOnUse"><path
         id="path36"
         d="M 23400,15600 H 11344.2 c -192,-927.4 366.2,-2343.2 876.1,-3047.2 621.3,-857.9 1757.4,-1477.4 2794.8,-1785.8 813.4,-241.9 1752.7,-254 2596.5,-250.2 774.6,3.5 1806.5,318.2 2176.1,-574.11 203.9,-492.43 269.1,-1020.98 522.1,-1498.26 531.6,-1002.53 1367.3,-1824.42 2497.4,-2079.63 198.8,-44.95 396.3,-78.74 592.8,-103.9 z" /></clipPath></defs><g
     transform="matrix(1.3333333,0,0,-1.3333333,0,2080)"
     id="g10"><g
       transform="scale(0.1)"
       id="g12"><path
         id="path14"
         style="fill:#2e214c;fill-opacity:1;fill-rule:nonzero;stroke:none"
         d="M 0,0 H 23400 V 15600 H 0 V 0" /><path
         id="path16"
         style="fill:#978dce;fill-opacity:1;fill-rule:nonzero;stroke:none"
         d="m -7792.6,7741.75 19500,19499.95 19500,-19499.95 -19500,-19500.05 -19500,19500.05" /><path
         id="path18"
         style="fill:#ddd3ed;fill-opacity:1;fill-rule:nonzero;stroke:none"
         d="M 3202.46,8349.03 C 2853.9,8319.98 0,7963.32 0,7486.53 V 0 h 17580 c -57.5,399.398 -148.9,795.5 -295.2,1185.5 -219.1,584.2 -423.8,1229.9 -723.1,1790.1 -388.2,726.6 -935.3,1309.6 -1878.9,1428.8 -680.6,86.1 -1350.6,-62 -1970.4,-339.9 -510.3,-228.8 -1047.7,-658.6 -1632.8,-645.5 -935.5,20.7 -1595.96,1143.6 -2020.49,1846.5 -628.28,1040.41 -1391.68,1969.42 -2490.02,2551.08 -791.85,419.25 -1705.04,565.27 -2603.04,565.29 -256.88,0 -512.4,-11.94 -763.59,-32.84" /><g
         id="g20"><g
           clip-path="url(#clipPath26)"
           id="g22"><path
             id="path28"
             style="fill:#ddd3ed;fill-opacity:1;fill-rule:nonzero;stroke:none"
             d="M 0,8381.87 H 17580 V 0 H 0 v 8381.87" /></g></g><path
         id="path30"
         style="fill:#ddd3ed;fill-opacity:1;fill-rule:nonzero;stroke:none"
         d="M 23400,15600 H 11344.2 c -192,-927.4 366.2,-2343.2 876.1,-3047.2 621.3,-857.9 1757.4,-1477.4 2794.8,-1785.8 813.4,-241.9 1752.7,-254 2596.5,-250.2 774.6,3.5 1806.5,318.2 2176.1,-574.11 203.9,-492.43 269.1,-1020.98 522.1,-1498.26 531.6,-1002.53 1367.3,-1824.42 2497.4,-2079.63 198.8,-44.95 396.3,-78.74 592.8,-103.9 V 15600" /><g
         id="g32"><g
           clip-path="url(#clipPath38)"
           id="g34"><path
             id="path40"
             style="fill:#ddd3ed;fill-opacity:1;fill-rule:nonzero;stroke:none"
             d="M 6482.67,10930.4 17276.1,21723.9 28069.6,10930.4 17276.1,137 6482.67,10930.4" /></g></g><path
         id="path42"
         style="fill:#eae6f5;fill-opacity:1;fill-rule:nonzero;stroke:none"
         d="m 23350,80 v 15520 h -5082.1 c -871.8,-992.8 -688.2,-991.6 -1222.4,-4153 C 16511.2,8285.48 13091.8,5224.6 11595.8,4592.3 8924.35,3974.4 9648.59,841.602 6751.59,381.801 6227,298.5 5946.95,194.5 5840,80 h 17510" /><path
         id="path44"
         style="fill:#978dce;fill-opacity:1;fill-rule:nonzero;stroke:none"
         d="m 4948.13,7694.03 c 0,0 420.2,170.23 953.48,-346.1 -337.85,-169.62 -700.93,-201.36 -953.48,346.1" /><path
         id="path46"
         style="fill:#978dce;fill-opacity:1;fill-rule:nonzero;stroke:none"
         d="m 6087.13,8182.74 c 0,0 -330.71,-204.96 -242.97,-835.92 288.6,148.2 494.44,383.71 242.97,835.92" /><path
         id="path48"
         style="fill:#978dce;fill-opacity:1;fill-rule:nonzero;stroke:none"
         d="m 4673.9,8493.72 c 0,0 370,71.25 721.83,-435.52 -302.76,-83.99 -603.92,-51.5 -721.83,435.52" /><path
         id="path50"
         style="fill:#978dce;fill-opacity:1;fill-rule:nonzero;stroke:none"
         d="m 5560.98,8879.36 c 0,0 -312.83,-210.02 -205.66,-817.56 274.07,153.61 464.98,388.8 205.66,817.56" /><path
         id="path52"
         style="fill:#978dce;fill-opacity:1;fill-rule:nonzero;stroke:none"
         d="m 4415.72,9007.51 c 0,0 240.78,93.98 541.03,-204.25 -193.83,-94.24 -401.05,-109.69 -541.03,204.25" /><path
         id="path54"
         style="fill:#978dce;fill-opacity:1;fill-rule:nonzero;stroke:none"
         d="m 5024.47,9270.44 c 0,0 -156.39,-112.89 -73.19,-469.93 157.67,100 240.9,223.88 73.19,469.93" /><path
         id="path56"
         style="fill:#978dce;fill-opacity:1;fill-rule:nonzero;stroke:none"
         d="m 5448.43,6938.7 c 0,0 490.9,286.95 1024.18,-229.37 -222.09,-226.21 -573.38,-352.05 -1024.18,229.37" /><path
         id="path58"
         style="fill:#978dce;fill-opacity:1;fill-rule:nonzero;stroke:none"
         d="m 6547.73,7596.93 c 0,0 -378.43,-312.64 -118.35,-898.3 249.33,112.82 455.69,360.16 118.35,898.3" /><path
         id="path60"
         style="fill:#978dce;fill-opacity:1;fill-rule:nonzero;stroke:none"
         d="m 5974.07,6236.37 c 0,0 417.8,385.69 1049.54,-4.04 -168.31,-268.63 -484.37,-466.99 -1049.54,4.04" /><path
         id="path62"
         style="fill:#978dce;fill-opacity:1;fill-rule:nonzero;stroke:none"
         d="m 7230.2,7255.08 c 0,0 -479.5,-305.64 -263.76,-1015.88 302.67,94.25 575.07,349.27 263.76,1015.88" /><path
         id="path64"
         style="fill:#b9b9e3;fill-opacity:1;fill-rule:nonzero;stroke:none"
         d="m 4754.93,9271.57 c 4.02,-67.08 30.64,-133.2 55.52,-194.78 39.77,-98.42 86.29,-194.07 134.63,-288.52 59.01,-115.29 121.38,-228.84 185.37,-341.42 68.46,-120.42 138.91,-239.7 210.88,-358.04 68.39,-112.45 138.15,-224.08 209.54,-334.65 58.75,-90.99 118.5,-181.39 180.59,-270.14 66.05,-94.42 137.33,-184.57 209.67,-274.26 126.23,-156.51 256.97,-309.63 397.22,-453.81 139.78,-143.71 289.26,-278.19 451.01,-396.83 171.86,-126.06 357.98,-230.5 546.25,-329.71 46.57,-24.54 93.3,-48.79 140.02,-73.05 29.09,-15.11 54.91,28.89 25.74,44.03 -188.55,97.89 -377.55,196.01 -555.59,312.32 -168.42,110.03 -323.95,238 -468.88,377.34 -143.48,137.93 -276.62,286.24 -404.03,439.02 -63.79,76.51 -126.17,154.16 -187.79,232.41 -6.53,8.29 -13.05,16.57 -19.54,24.88 -1.12,1.42 -2.23,2.86 -3.35,4.28 -3.58,4.61 1.52,-1.99 -1.14,1.48 -5.22,6.81 -10.4,13.64 -15.55,20.51 -11.33,15.12 -22.49,30.38 -33.54,45.72 -58.74,81.53 -114.75,165.04 -169.87,249.05 -69.27,105.58 -136.84,212.28 -203.16,319.73 -71.93,116.54 -142.38,234 -211.06,352.49 -66.58,114.85 -131.59,230.65 -193.73,347.98 -52.35,98.84 -103.07,198.74 -148.32,301.07 -17.06,38.56 -32.53,75.61 -47.56,117.47 -11.14,31.05 -21.42,62.66 -28.04,95.02 -1.26,6.17 -2.28,12.38 -3.28,18.6 -0.74,4.58 0.62,-5.74 0.17,-1.22 -0.16,1.56 -0.38,3.13 -0.52,4.7 -0.25,2.78 -0.5,5.54 -0.66,8.33 -1.96,32.61 -52.97,32.83 -51,0 v 0" /><path
         id="path66"
         style="fill:#b9b9e3;fill-opacity:1;fill-rule:nonzero;stroke:none"
         d="m 6954.35,6284.91 c -28.53,-21.18 -63.11,-34.28 -96.38,-45.91 -43.91,-15.35 -88.99,-27.47 -134.41,-37.45 -44.19,-9.71 -89.02,-17.63 -134.18,-21.13 -52.48,-4.05 -105.97,-0.38 -158.11,6.05 -71.24,8.78 -141.48,26.56 -207.79,54.14 -17.81,7.4 -25.57,-21.62 -7.98,-28.94 60.58,-25.19 124.24,-41.96 189.09,-51.58 56.61,-8.4 115.06,-13.66 172.3,-10.5 93.51,5.17 188.32,26.77 276.96,56.36 39.54,13.19 81.84,27.96 115.64,53.06 15.33,11.38 0.39,37.44 -15.14,25.9 v 0" /><path
         id="path68"
         style="fill:#b9b9e3;fill-opacity:1;fill-rule:nonzero;stroke:none"
         d="m 7169.62,7037.1 c -5.36,-113.94 -15.5,-228.18 -33.95,-340.79 -15.25,-93.16 -37.61,-187.08 -80.7,-271.64 -24.16,-47.39 -54.67,-90.94 -92.61,-128.32 -13.78,-13.57 7.44,-34.78 21.21,-21.21 145.95,143.77 178.49,360.07 199.87,554.52 7.58,68.95 12.92,138.14 16.18,207.44 0.9,19.3 -29.1,19.25 -30,0 v 0" /><path
         id="path70"
         style="fill:#b9b9e3;fill-opacity:1;fill-rule:nonzero;stroke:none"
         d="m 6388.65,6737.89 c -80.05,-17.41 -165.35,-8.25 -245.1,6.38 -90.14,16.53 -178.6,42.53 -264.66,73.87 -42.64,15.54 -84.77,32.51 -126.06,51.36 -17.44,7.95 -32.71,-17.9 -15.14,-25.91 79.58,-36.3 161.97,-66.78 245.88,-91.49 89.84,-26.46 182.71,-47.12 276.45,-52.17 45.65,-2.46 91.83,-0.7 136.61,9.03 18.85,4.11 10.87,33.03 -7.98,28.93 v 0" /><path
         id="path72"
         style="fill:#b9b9e3;fill-opacity:1;fill-rule:nonzero;stroke:none"
         d="m 6537.24,7467.51 c 12.05,-94.74 10.91,-191.93 3.83,-287 -8.13,-109.04 -24.58,-222.86 -69.16,-323.62 -19.94,-45.06 -46.69,-90.54 -86.84,-120.5 -15.3,-11.42 -0.36,-37.47 15.14,-25.91 81.49,60.82 118.08,166.95 140.44,262.2 26.36,112.26 35.67,229.03 35.18,344.16 -0.22,50.28 -2.25,100.77 -8.59,150.67 -2.41,18.9 -32.44,19.14 -30,0 v 0" /><path
         id="path74"
         style="fill:#b9b9e3;fill-opacity:1;fill-rule:nonzero;stroke:none"
         d="m 6062.13,8112.25 c -2.18,-58.3 -5.23,-117.22 -13.68,-175 -6.7,-45.88 -16.8,-91.26 -28.64,-136.08 -25.76,-97.47 -59.57,-193.45 -102.44,-284.73 -21.24,-45.24 -44.84,-89.63 -73.21,-130.83 -10.98,-15.94 15.01,-30.96 25.9,-15.15 54.14,78.62 92.91,168.18 126.04,257.32 34.74,93.44 63.53,190.3 79.34,288.86 10.37,64.56 14.25,130.34 16.69,195.61 0.72,19.31 -29.28,19.28 -30,0 v 0" /><path
         id="path76"
         style="fill:#b9b9e3;fill-opacity:1;fill-rule:nonzero;stroke:none"
         d="m 5081.67,7609.18 c 27.22,-37.26 67.6,-63.44 107.5,-85.39 53.49,-29.43 110.61,-52.42 168.11,-72.72 117.78,-41.57 240.56,-73.3 364.15,-91.76 42.77,-6.39 88.48,-13.98 131.71,-7.56 19.03,2.83 10.94,31.74 -7.97,28.93 -1.84,-0.27 2.62,0.22 -1.21,-0.12 -1.52,-0.14 -3.03,-0.3 -4.56,-0.4 -3.37,-0.26 -6.75,-0.38 -10.13,-0.45 -8.33,-0.18 -16.67,0.07 -24.99,0.5 -20.17,1.05 -40.29,3.22 -60.3,5.93 -55.28,7.5 -110.1,18.68 -164.38,31.51 -120.05,28.37 -241.57,64.08 -352.06,119.81 -42.66,21.52 -92.26,48.94 -119.97,86.87 -11.28,15.43 -37.32,0.47 -25.9,-15.15 v 0" /><path
         id="path78"
         style="fill:#b9b9e3;fill-opacity:1;fill-rule:nonzero;stroke:none"
         d="m 5529.72,8746.9 c 2.8,-11.68 2.99,-15.9 3.97,-28.83 1.11,-14.89 1.49,-29.83 1.51,-44.75 0.06,-40.79 -2.57,-81.61 -6.95,-122.15 -10.18,-94.29 -29.49,-190.95 -68.56,-277.84 -19.95,-44.37 -45.52,-87.03 -81.95,-119.84 -14.37,-12.95 6.9,-34.11 21.22,-21.21 70.42,63.43 106.18,160.04 129.28,249.56 23.35,90.49 35.64,185.02 36.88,278.47 0.41,31.1 0.84,64.1 -6.47,94.57 -4.51,18.77 -33.44,10.82 -28.93,-7.98 v 0" /><path
         id="path80"
         style="fill:#b9b9e3;fill-opacity:1;fill-rule:nonzero;stroke:none"
         d="m 4782.23,8394.38 c 43.25,-41.58 94.05,-77.29 142.98,-111.67 83.22,-58.49 172.08,-112.74 268.25,-147.08 47.74,-17.05 99.33,-29.4 150.33,-25.32 19.12,1.53 19.28,31.55 0,30 -92.14,-7.38 -185.08,37.04 -263.64,80.28 -78.35,43.12 -152.57,94.26 -222.64,149.76 -18.34,14.52 -37.18,29.01 -54.07,45.25 -13.92,13.38 -35.16,-7.8 -21.21,-21.22 v 0" /><path
         id="path82"
         style="fill:#b9b9e3;fill-opacity:1;fill-rule:nonzero;stroke:none"
         d="m 5002.71,9150.17 c 19.37,-62.16 9.58,-127.57 -4.35,-189.8 -10.6,-47.38 -25.63,-101.76 -70,-128.38 -16.54,-9.92 -1.48,-35.88 15.14,-25.91 50.46,30.28 70.55,88.33 82.99,142.79 15.63,68.36 26.45,140.91 5.15,209.28 -5.73,18.37 -34.7,10.53 -28.93,-7.98 v 0" /><path
         id="path84"
         style="fill:#b9b9e3;fill-opacity:1;fill-rule:nonzero;stroke:none"
         d="m 4495.65,8945.82 c 21.21,-15.74 45.94,-27 69.9,-37.8 35.24,-15.88 71.3,-29.97 107.67,-43.06 73.53,-26.46 149.33,-50.82 226.49,-64.16 25.68,-4.44 56.12,-10.53 81.82,-2.86 18.46,5.5 10.6,34.47 -7.97,28.93 -1.72,-0.51 -3.44,-0.89 -5.2,-1.27 -4.11,-0.88 1.17,-0.11 -3.36,-0.41 -5.47,-0.38 -10.93,-0.44 -16.41,-0.22 -12.25,0.47 -24.42,2.03 -36.51,4.02 -34.9,5.75 -69.34,14.44 -103.38,23.97 -74.38,20.84 -148.27,45.92 -219.04,76.98 -26.96,11.83 -55.08,24.13 -78.86,41.78 -15.52,11.51 -30.49,-14.52 -15.15,-25.9 v 0" /><path
         id="path86"
         style="fill:#f7916b;fill-opacity:1;fill-rule:nonzero;stroke:none"
         d="m 7915.32,9640.41 c 0,0 50.76,-117.38 -224.64,-155.71 -275.4,-38.33 -137.31,51.98 -137.31,51.98 l 58.89,14.97 c 0,0 -22.05,42.18 58.88,138.59 80.93,96.4 244.18,-49.83 244.18,-49.83" /><path
         id="path88"
         style="fill:#796ebe;fill-opacity:1;fill-rule:nonzero;stroke:none"
         d="m 7718.88,11836.4 c 109.03,-35 1920.56,-608.4 2393.12,-758 70.6,-22.3 126.2,-76.7 150.2,-146.7 l 174.3,-508.1 c 19.8,-57.7 16.2,-120.8 -10,-176 l -429.39,-903.32 c -46.74,-98.35 -155.28,-151.33 -261.58,-127.68 l -2519.7,560.49 c -127.26,28.31 -206.68,155.35 -176.41,282.11 l 385,1612.4 c 20.86,87.3 89.3,158.3 177.71,174 34.14,6 73.23,4.8 116.75,-9.2" /><path
         id="path90"
         style="fill:#2c2f7b;fill-opacity:1;fill-rule:nonzero;stroke:none"
         d="m 9326.05,10396.8 c -22.4,-83.3 -60.62,-158.1 -110.54,-222 l -1109.85,298.4 c -11.13,80.3 -6.71,164.2 15.69,247.5 89.45,332.7 431.61,529.9 764.25,440.5 332.73,-89.5 529.9,-431.6 440.45,-764.4" /><path
         id="path92"
         style="fill:#c9bee4;fill-opacity:1;fill-rule:nonzero;stroke:none"
         d="m 9217.57,10426 c -22.84,-84.9 -65.78,-159.1 -122.36,-218.9 l -869.25,233.7 c -19.02,80.1 -18.96,165.8 3.87,250.7 73.33,272.8 353.84,434.5 626.61,361.2 272.75,-73.3 434.45,-353.9 361.13,-626.7" /><path
         id="path94"
         style="fill:#554ba9;fill-opacity:1;fill-rule:nonzero;stroke:none"
         d="m 8669.49,10300.6 c -56.03,15 -89.24,72.6 -74.18,128.7 15.06,56 72.69,89.2 128.73,74.2 56.03,-15.1 89.24,-72.7 74.17,-128.8 -15.06,-56 -72.69,-89.2 -128.72,-74.1 z m 82.35,306.3 c -113.15,30.4 -229.52,-36.7 -259.94,-149.8 -30.42,-113.2 36.65,-229.5 149.79,-260 113.14,-30.4 229.52,36.7 259.93,149.8 30.42,113.2 -36.64,229.5 -149.78,260" /><path
         id="path96"
         style="fill:#554ba9;fill-opacity:1;fill-rule:nonzero;stroke:none"
         d="m 8934.13,10300.5 -66.34,17.9 18.88,70.2 66.34,-17.8 -18.88,-70.3" /><path
         id="path98"
         style="fill:#554ba9;fill-opacity:1;fill-rule:nonzero;stroke:none"
         d="m 8953.06,10432.8 -66.37,-17.7 -18.76,70.3 66.37,17.7 18.76,-70.3" /><path
         id="path100"
         style="fill:#554ba9;fill-opacity:1;fill-rule:nonzero;stroke:none"
         d="m 8903.32,10556.8 -48.61,-48.5 -51.39,51.5 48.61,48.5 51.39,-51.5" /><path
         id="path102"
         style="fill:#554ba9;fill-opacity:1;fill-rule:nonzero;stroke:none"
         d="m 8798.23,10639.4 -17.83,-66.4 -70.24,18.9 17.83,66.4 70.24,-18.9" /><path
         id="path104"
         style="fill:#554ba9;fill-opacity:1;fill-rule:nonzero;stroke:none"
         d="m 8665.95,10658.3 17.73,-66.4 -70.27,-18.7 -17.73,66.3 70.27,18.8" /><path
         id="path106"
         style="fill:#554ba9;fill-opacity:1;fill-rule:nonzero;stroke:none"
         d="m 8541.93,10608.6 48.53,-48.7 -51.47,-51.3 -48.53,48.6 51.47,51.4" /><path
         id="path108"
         style="fill:#554ba9;fill-opacity:1;fill-rule:nonzero;stroke:none"
         d="m 8459.39,10503.5 66.34,-17.9 -18.88,-70.2 -66.34,17.8 18.88,70.3" /><path
         id="path110"
         style="fill:#554ba9;fill-opacity:1;fill-rule:nonzero;stroke:none"
         d="m 8440.46,10371.2 66.37,17.7 18.77,-70.2 -66.37,-17.8 -18.77,70.3" /><path
         id="path112"
         style="fill:#554ba9;fill-opacity:1;fill-rule:nonzero;stroke:none"
         d="m 8490.21,10247.2 48.61,48.5 51.39,-51.5 -48.62,-48.5 -51.38,51.5" /><path
         id="path114"
         style="fill:#554ba9;fill-opacity:1;fill-rule:nonzero;stroke:none"
         d="m 8595.29,10164.6 17.84,66.4 70.23,-18.9 -17.83,-66.3 -70.24,18.8" /><path
         id="path116"
         style="fill:#554ba9;fill-opacity:1;fill-rule:nonzero;stroke:none"
         d="m 8727.57,10145.7 -17.72,66.4 70.27,18.7 17.72,-66.3 -70.27,-18.8" /><path
         id="path118"
         style="fill:#554ba9;fill-opacity:1;fill-rule:nonzero;stroke:none"
         d="m 8851.59,10195.4 -48.53,48.7 51.47,51.3 48.54,-48.6 -51.48,-51.4" /><path
         id="path120"
         style="fill:#ed1c24;fill-opacity:1;fill-rule:nonzero;stroke:none"
         d="m 8584.06,10388.4 43.71,-79.1 c 16.18,-29.3 54.17,-38.1 81.61,-19 l 614.78,429.3 -709.54,-250.8 c -32.83,-11.6 -47.39,-49.9 -30.56,-80.4" /><path
         id="path122"
         style="fill:#ffffff;fill-opacity:1;fill-rule:nonzero;stroke:none"
         d="m 8726.41,10388.4 c -7.51,-16.3 -26.86,-23.5 -43.23,-16 -16.37,7.5 -23.56,26.8 -16.06,43.2 7.5,16.4 26.85,23.6 43.23,16 16.37,-7.5 23.56,-26.8 16.06,-43.2" /><path
         id="path124"
         style="fill:#ffffff;fill-opacity:1;fill-rule:nonzero;stroke:none"
         d="m 7285.02,10181.4 c 0,0 2225.61,-630.84 2328.75,-394.76 47.61,224.16 59.51,271.76 59.51,271.76 0,0 23.8,-2.2 15.87,-52.6 -7.94,-50.53 -130.92,-518.66 107.11,-641.64 238.04,-122.98 19.84,-75.38 19.84,-75.38 0,0 -2475.54,535.58 -2531.08,591.12 -55.54,55.54 -28.32,309.5 0,301.5" /><path
         id="path126"
         style="fill:#f7916b;fill-opacity:1;fill-rule:nonzero;stroke:none"
         d="m 7303.45,11393.6 c 0,0 99.46,-431 -99.47,-464.2 -198.91,-33.1 -132.61,-232 -132.61,-232 l -430.99,-33.2 c 0,0 99.46,132.6 99.46,198.9 0,66.3 -99.46,196.2 -99.46,397.9 0,298.4 99.46,364.7 198.92,397.8 99.46,33.2 397.84,66.3 464.15,-265.2" /><path
         id="path128"
         style="fill:#6e8dd0;fill-opacity:1;fill-rule:nonzero;stroke:none"
         d="m 7697.87,9472.08 c 0,0 -870.08,-281.79 -973.3,-263.42 -177.31,20.9 -344.49,338.15 -413.51,488.86 -69.02,150.72 -230.55,563.18 -145.03,712.88 85.51,149.6 307.78,142 419.23,-69.5 111.45,-211.5 210.23,-793.45 268.49,-825.12 58.26,-31.66 698.47,35.46 743.43,48.76 44.96,13.3 100.69,-92.46 100.69,-92.46" /><path
         id="path130"
         style="fill:#b9b9e3;fill-opacity:1;fill-rule:nonzero;stroke:none"
         d="m 8554.29,4365.1 c 0,-107.6 -703.18,-194.7 -1570.61,-194.7 -867.42,0 -1570.61,87.1 -1570.61,194.7 0,107.5 703.19,194.7 1570.61,194.7 867.43,0 1570.61,-87.2 1570.61,-194.7" /><path
         id="path132"
         style="fill:#2c2f7b;fill-opacity:1;fill-rule:nonzero;stroke:none"
         d="m 8198.58,4497.7 c 0,0 4.95,-2.8 12.68,-7.8 45.2,-28.8 185.52,-129.7 -12.68,-158 -232.07,-33.1 -430.99,0 -596.75,0 -165.77,0 -165.77,0 -132.62,132.6 33.16,132.7 66.31,298.4 66.31,364.7 0,66.3 165.76,66.3 165.76,66.3 0,0 0,-232 66.31,-265.2 66.31,-33.1 331.54,-66.3 430.99,-132.6" /><path
         id="path134"
         style="fill:#2c2f7b;fill-opacity:1;fill-rule:nonzero;stroke:none"
         d="m 6375.15,4365.1 c 0,0 198.92,0 132.62,99.4 -66.31,99.5 -198.92,99.5 -298.39,132.7 -99.45,33.1 -198.91,132.6 -198.91,232 0,99.5 -99.46,66.3 -99.46,66.3 0,0 0,-198.9 -66.31,-298.3 -66.31,-99.5 -99.46,-232.1 -33.15,-232.1 66.31,0 563.6,0 563.6,0" /><path
         id="path136"
         style="fill:#192c4a;fill-opacity:1;fill-rule:nonzero;stroke:none"
         d="m 7767.59,4796.1 -265.22,-66.3 c 0,0 -298.39,928.26 -331.54,1790.25 -33.15,430.99 -364.68,1160.36 -364.68,1160.36 0,0 -331.54,-994.6 -364.69,-1193.52 -33.15,-198.92 -331.53,-1591.39 -331.53,-1657.69 0,-66.3 -198.92,-99.4 -265.23,0 -66.31,596.8 33.16,1127.24 99.46,1425.61 66.31,298.39 198.92,961.46 165.77,1292.99 -33.16,331.53 -33.16,729.37 99.45,895.14 265.23,-99.46 1226.68,0 1226.68,0 0,0 165.77,-431 198.92,-861.99 33.15,-430.99 132.61,-2784.85 132.61,-2784.85" /><path
         id="path138"
         style="fill:#6e8dd0;fill-opacity:1;fill-rule:nonzero;stroke:none"
         d="m 7535.52,8409.79 c 0,0 -696.22,-364.69 -1425.59,0 99.45,563.6 99.45,1292.97 66.31,1392.43 0,0 -165.77,530.48 -66.31,629.88 99.45,99.5 497.3,298.4 530.45,298.4 33.16,0 331.53,-66.3 497.3,0 232.07,-165.7 397.84,-364.7 364.69,-663.1 -33.16,-298.33 -66.31,-961.4 -33.16,-1160.32 33.16,-198.92 66.31,-497.29 66.31,-497.29" /><path
         id="path140"
         style="fill:#192c4a;fill-opacity:1;fill-rule:nonzero;stroke:none"
         d="m 7386.33,11542.8 c 16.58,-149.2 -116.04,-215.5 -116.04,-348.1 0,-132.6 -132.61,-66.3 -99.46,66.3 33.15,132.6 -82.88,116 -116.04,16.5 -53.45,-160.3 -16.57,-414.4 -364.68,-265.2 -251.28,107.7 -132.61,397.9 -99.46,497.3 33.15,99.5 33.15,198.9 265.23,265.2 332.81,95.1 513.87,-82.8 530.45,-232" /><path
         id="path142"
         style="fill:#b9b9e3;fill-opacity:1;fill-rule:nonzero;stroke:none"
         d="m 6264.64,9645.19 c -8.74,19.53 -39.46,60.89 -60.68,58.18 -5.15,-0.66 -9.75,-1.4 -14.1,-2.19 16.65,-240.78 2.7,-823.13 -79.93,-1291.4 104.5,-52.25 208.23,-89.12 309.42,-114.64 -24,908.39 -28.8,1068.41 -154.71,1350.05" /><path
         id="path144"
         style="fill:#8b90d0;fill-opacity:1;fill-rule:nonzero;stroke:none"
         d="m 7473.76,10163.6 c -126.68,-4.2 -106.47,-65.2 -101.23,-83.2 28.14,-96.43 -3.64,-339.34 18.5,-437.36 17.92,-79.37 32.67,-161.04 68.51,-233.68 7.7,239.56 25.26,500.01 42.83,658.04 3.7,33.4 4.56,65.3 3.48,96.2 -10.76,0.4 -21.52,0.4 -32.09,0" /><path
         id="path146"
         style="fill:#f7916b;fill-opacity:1;fill-rule:nonzero;stroke:none"
         d="m 9658.69,10169.8 c 0,0 181.74,-128.2 -152.34,-278.16 -363.31,-163.1 -261.04,57.45 -261.04,57.45 l 93.65,4.65 c 0,0 -7.48,44.63 113.86,157.56 90.44,84.2 205.87,58.5 205.87,58.5" /><path
         id="path148"
         style="fill:#6e8dd0;fill-opacity:1;fill-rule:nonzero;stroke:none"
         d="m 9290.98,9974.83 -15.28,-165.06 c 0,0 -807.56,-218.75 -964.5,-155.94 -277.03,110.86 -337.42,104.2 -504.8,166.31 -167.39,62.1 -908.04,222.26 -915.01,362.76 -6.98,140.5 -58.46,231.8 126.53,287.9 184.99,56.1 366.49,182.5 683.66,-59.9 317.17,-242.5 671.23,-424.63 937.56,-446.39 304.64,-24.88 651.84,10.32 651.84,10.32" /><path
         id="path150"
         style="fill:#c9bee4;fill-opacity:1;fill-rule:nonzero;stroke:none"
         d="m 10806.2,9997.77 c -103.5,44.03 -263.4,-98.84 -356.9,-319 -87.4,-206.12 -85.9,-407.14 -0.2,-467.91 l -492.16,206.35 c -103.51,44.08 -111.75,258.22 -18.25,478.39 93.51,220.1 253.31,363.1 356.81,319.2 1.6,-0.6 3.1,-1.3 4.7,-2.2 l 506,-214.83" /><path
         id="path152"
         style="fill:#ffffff;fill-opacity:1;fill-rule:nonzero;stroke:none"
         d="m 10824.2,9519.61 c -93.5,-220.16 -253.1,-363.07 -356.6,-319.21 -6.7,2.89 -12.7,6.23 -18.5,10.46 -85.7,60.77 -87.2,261.79 0.2,467.91 93.5,220.16 253.4,363.03 356.9,319 103.5,-43.85 111.5,-258 18,-478.16" /><path
         id="path154"
         style="fill:#554ba9;fill-opacity:1;fill-rule:nonzero;stroke:none"
         d="m 10775.9,9539.57 c 69.6,192.13 64.2,370.26 -12,397.87 -76.2,27.6 -194.4,-105.78 -264,-297.92 -69.6,-192.14 -64.2,-370.28 12.1,-397.87 76.2,-27.61 194.4,105.78 263.9,297.92" /><path
         id="path156"
         style="fill:#796ebe;fill-opacity:1;fill-rule:nonzero;stroke:none"
         d="m 15363.2,7377.68 c 565.5,531.25 1277.9,45.03 1521.4,380.96 203.3,296.69 -6.5,790.36 146.7,929.99 138.7,158.02 589.1,66.48 773.2,369.19 163.1,268.18 -334.6,624.05 -168.4,832.64 176.1,221.04 408.1,659.84 248.5,806.14 -177.4,162.6 -647.5,-175.2 -795.6,-237.7 -265,-111.9 -658.5,182.9 -1010.5,-55.5 -215.8,-146.3 65.9,-472.73 -117.6,-722.85 -206.8,-281.84 -586.6,127.29 -1004.5,-342.09 -624.1,-701 327.7,-1191.9 217.3,-1834.42 -35.5,-206.46 150.8,-152.33 189.5,-126.36" /><path
         id="path158"
         style="fill:#ffffff;fill-opacity:1;fill-rule:nonzero;stroke:none"
         d="m 17617.1,10422.7 c -258.6,-262 -517.2,-523.92 -775.9,-785.87 -198.4,-200.97 -404.7,-398.79 -573.3,-626.27 -123.1,-166.03 -236,-339.78 -347.7,-513.58 -129,-200.8 -255,-403.59 -379.6,-607.16 -99,-161.85 -197.1,-324.29 -294.7,-487.08 -8,-13.37 -16,-26.74 -24,-40.11 -9.9,-16.61 16,-31.71 25.9,-15.15 91.1,152.14 182.6,304.02 274.9,455.42 123.7,202.91 248.7,405.07 376.4,605.49 115.1,180.62 231.6,360.81 356.6,534.8 151.9,211.52 334.8,396.96 517.4,581.93 256.9,260.31 514,520.58 770.9,780.88 31.5,31.8 62.9,63.6 94.4,95.5 13.5,13.7 -7.7,35 -21.3,21.2 v 0" /><path
         id="path160"
         style="fill:#ffffff;fill-opacity:1;fill-rule:nonzero;stroke:none"
         d="m 17379.8,10141.6 c 44.7,9.8 90,15.6 135.7,16.9 41,1.3 86.2,2.3 123.8,-16.6 17.2,-8.7 32.4,17.1 15.1,25.9 -41.4,20.9 -88.7,21.9 -134.2,20.9 -49.9,-1.2 -99.6,-7.5 -148.3,-18.2 -18.9,-4.2 -10.9,-33.1 7.9,-28.9 v 0" /><path
         id="path162"
         style="fill:#ffffff;fill-opacity:1;fill-rule:nonzero;stroke:none"
         d="m 16538.6,9289.36 c 240.6,48.1 497.7,8.68 713.9,-107.19 60.4,-32.42 117.7,-70.76 170.2,-114.87 14.7,-12.33 36,8.78 21.2,21.22 -193.7,162.57 -445.7,250.1 -698.1,250.86 -72.2,0.22 -144.4,-6.94 -215.2,-21.09 -18.9,-3.78 -10.9,-32.7 8,-28.93 v 0" /><path
         id="path164"
         style="fill:#ffffff;fill-opacity:1;fill-rule:nonzero;stroke:none"
         d="m 17021.8,9780.91 c 14.6,17.24 19.5,40.55 22.7,62.34 4.8,32.26 5.9,64.95 6.1,97.52 0.4,70.93 -4.2,141.73 -5.9,212.63 -0.3,15 -0.5,30 -0.1,45 0.3,11.2 0.9,20.8 2.5,28.2 4.2,18.8 -24.7,26.8 -28.9,8 -4.6,-20.8 -4,-43 -3.8,-64.2 0.4,-31.4 1.8,-62.8 3,-94.2 2.7,-69.4 6.7,-139.76 0,-209.05 -1.3,-13.74 -3.2,-27.47 -6.7,-40.85 -0.8,-3.02 -1.7,-6.02 -2.7,-8.99 -0.4,-1.29 -2.5,-6.69 -1.7,-5.03 -1,-2.11 -2,-4.19 -3.1,-6.18 -0.6,-0.92 -1.1,-1.82 -1.7,-2.72 -2.1,-3.23 0.9,0.85 -0.9,-1.26 -12.4,-14.65 8.7,-35.97 21.2,-21.21 v 0" /><path
         id="path166"
         style="fill:#ffffff;fill-opacity:1;fill-rule:nonzero;stroke:none"
         d="m 15716.4,8124.17 c 1.6,0.97 3.3,1.71 5,2.55 -0.3,-0.12 -3.1,-1.09 0.7,0.27 1.5,0.52 2.9,1.08 4.3,1.6 6.9,2.44 13.9,4.48 20.9,6.4 21.5,5.91 43.5,10.52 65.4,14.65 64.5,12.16 129.9,19.7 195.4,24.01 164.8,10.88 338,3.67 494.7,-53.27 82.9,-30.12 160.3,-77.02 216.2,-146.2 12.1,-15.02 33.2,6.32 21.2,21.22 -107.3,132.75 -284.2,183.57 -447.1,202.71 -154.8,18.19 -314.2,10.6 -467.7,-15.81 -26.9,-4.63 -53.8,-9.91 -80.3,-16.84 -14.6,-3.81 -30.8,-7.57 -43.9,-15.39 -16.5,-9.9 -1.5,-35.85 15.2,-25.9 v 0" /><path
         id="path168"
         style="fill:#ffffff;fill-opacity:1;fill-rule:nonzero;stroke:none"
         d="m 15203.4,9218.6 c 25.8,-20.04 55.3,-35.66 83,-52.92 50.9,-31.84 100.9,-65.12 149.3,-100.72 128.7,-94.64 248.9,-206.51 336.1,-341.31 53.8,-83.12 93.6,-174.55 112.4,-271.98 3.7,-18.94 32.6,-10.92 28.9,7.97 -33.5,173.99 -133,326.81 -254.8,452.49 -100,103.18 -215.8,190.04 -336.9,266.93 -21,13.36 -42.3,26.39 -63.5,39.49 -7.2,4.44 -14.4,8.87 -21.5,13.44 -2.7,1.79 -5.5,3.59 -8.3,5.46 -1.5,1.07 -8.3,6.18 -3.4,2.36 -15.1,11.71 -36.5,-9.37 -21.3,-21.21 v 0" /><path
         id="path170"
         style="fill:#ffffff;fill-opacity:1;fill-rule:nonzero;stroke:none"
         d="m 15966.9,9414.47 c 89.3,-110.11 170.1,-232.93 207.3,-371.19 10.3,-38.52 17,-77.8 19.4,-117.62 1.2,-19.18 31.2,-19.31 30,0 -9.1,148.95 -74.4,286.6 -158.2,407.73 -24.4,35.14 -50.4,69.11 -77.3,102.29 -12.1,15 -33.3,-6.33 -21.2,-21.21 v 0" /><path
         id="path172"
         style="fill:#ffffff;fill-opacity:1;fill-rule:nonzero;stroke:none"
         d="m 15064.1,8559.36 c 97.9,-52.3 177.2,-139.18 244,-226.23 71.2,-92.69 134,-195.14 177.1,-303.99 18,-45.5 34.3,-93.93 37.3,-143.11 1.2,-19.18 31.2,-19.32 30,0 -2.7,44.82 -15.2,88.7 -30.6,130.68 -19.8,54.06 -44.9,106.19 -72.8,156.45 -60.8,109.04 -135.5,212.82 -224.5,300.57 -43.5,42.8 -91.4,82.7 -145.4,111.53 -17,9.1 -32.1,-16.79 -15.1,-25.9 v 0" /><path
         id="path174"
         style="fill:#ffffff;fill-opacity:1;fill-rule:nonzero;stroke:none"
         d="m 16302.7,10302 c 84.5,-222.2 197.1,-432.45 312.1,-640.12 32,-57.67 64.2,-115.2 96.2,-172.85 9.3,-16.89 35.2,-1.77 25.9,15.14 -114,205.44 -231.1,409.66 -328.8,623.53 -27.4,60 -53.1,120.7 -76.5,182.3 -6.8,17.9 -35.8,10.1 -28.9,-8 v 0" /><path
         id="path176"
         style="fill:#ffffff;fill-opacity:1;fill-rule:nonzero;stroke:none"
         d="m 16109.1,8731.13 c 88.1,24.82 181.8,32.59 272.9,35.23 112.2,3.23 226.6,-3.24 335.7,-31.06 53.7,-13.72 106.5,-32.97 153.2,-63.47 16.2,-10.6 31.2,15.36 15.1,25.9 -89.5,58.54 -200.4,80.39 -305.1,91.56 -111.6,11.9 -225.2,10.29 -336.6,-2.89 -48.2,-5.7 -96.5,-13.18 -143.2,-26.34 -18.5,-5.23 -10.7,-34.18 8,-28.93 v 0" /><path
         id="path178"
         style="fill:#ffffff;fill-opacity:1;fill-rule:nonzero;stroke:none"
         d="m 17147,9242.91 c 18.1,19.09 51.2,20.95 75.5,26.35 32.1,7.15 64.1,14.56 96.1,22.22 64,15.34 127.7,31.74 191.1,49.13 18.6,5.09 10.7,34.04 -7.9,28.93 -66.6,-18.26 -133.5,-35.43 -200.7,-51.42 -32.8,-7.81 -65.7,-15.34 -98.6,-22.6 -27.2,-5.97 -56.7,-10.29 -76.7,-31.4 -13.3,-14 7.8,-35.25 21.2,-21.21 v 0" /><path
         id="path180"
         style="fill:#544ba9;fill-opacity:1;fill-rule:nonzero;stroke:none"
         d="M 17417.5,4839.3 H 7524.04 c -144.07,0 -260.87,116.8 -260.87,260.9 v 2561.87 c 0,144.07 116.8,260.86 260.87,260.86 h 9893.46 c 144,0 260.8,-116.79 260.8,-260.86 V 5100.2 c 0,-144.1 -116.8,-260.9 -260.8,-260.9" /><path
         id="path182"
         style="fill:#ffffff;fill-opacity:1;fill-rule:nonzero;stroke:none"
         d="M 17140.5,4909.5 H 7247.08 c -144.07,0 -260.86,116.8 -260.86,260.9 v 2561.85 c 0,144.07 116.79,260.86 260.86,260.86 h 9893.42 c 144.1,0 260.9,-116.79 260.9,-260.86 V 5170.4 c 0,-144.1 -116.8,-260.9 -260.9,-260.9" /><path
         id="path184"
         style="fill:#544ba9;fill-opacity:1;fill-rule:nonzero;stroke:none"
         d="m 16038.3,12464 -33,186 -402.7,36.2 c -24.7,78.4 -55.3,153.7 -91.3,225.4 l 263.6,306.4 -106,156.3 -382.4,-130.7 c -54.1,60.9 -112.7,117.3 -175.3,168.7 l 116.1,387.3 -160.3,99.8 -296.3,-275.1 c -73.6,33.6 -150,61.5 -228.7,83.1 l -51.3,400.7 -187.1,26.1 -158.7,-371.6 c -80.2,0.5 -161.1,-5.2 -242.6,-17.7 l -210.1,345.7 -181.4,-52.5 6,-403.9 c -75.2,-32.8 -146.9,-71.1 -214.6,-114.6 l -332.3,230 -144.5,-121.6 170,-367 c -54.6,-60 -104.7,-124.1 -149.2,-191.8 l -397.4,75.2 -82.6,-169.9 304.4,-265.8 c -25.6,-76.6 -45.3,-155.7 -58.5,-236.3 l -393.4,-92.9 -6.2,-188.8 386.3,-119.1 c 4,-40.1 9.5,-80.3 16.6,-120.5 7.2,-40.4 16,-80 26,-119 l -321.5,-245 70.9,-174.9 401.3,48.3 c 40.2,-71.1 85.9,-138.5 136.4,-201.6 l -194.1,-354.5 136.2,-131 347.1,207.6 c 65.1,-48.1 134.2,-91 206.2,-128.6 l -33,-403.1 177.6,-64.2 232.5,330.4 c 78.6,-17.4 159.1,-28.6 241,-33.5 l 133.6,-381.2 188.5,13.3 78,396.9 c 80.7,16.4 158.6,39 233.7,67.1 l 277.1,-294.1 166.6,89 -90,393.9 c 66.4,47.4 128.6,99.9 186,156.8 l 373.1,-156 116,149 -242.7,323.6 c 41.1,69.8 76.7,142.8 106.5,218.6 l 404.1,9.2 45.5,183.3 -353.1,196.7 c 9.1,79.8 11.8,161 8,243.1 l 365.4,172.8" /><path
         id="path186"
         style="fill:#ffffff;fill-opacity:1;fill-rule:nonzero;stroke:none"
         d="m 14303.3,11327.2 c -494.6,-88 -967,241.7 -1054.9,736.6 -88,494.6 241.7,966.7 736.1,1054.9 494.9,87.9 967.2,-241.8 1055.2,-736.4 87.9,-494.6 -241.8,-967 -736.4,-1055.1" /><path
         id="path188"
         style="fill:#544ba9;fill-opacity:1;fill-rule:nonzero;stroke:none"
         d="m 13148.2,7146.87 c -516.7,0 -935.6,418.94 -935.6,935.84 0,516.66 418.9,935.6 935.6,935.6 516.9,0 935.8,-418.94 935.8,-935.6 0,-516.9 -418.9,-935.84 -935.8,-935.84 z m 2477.6,761.75 v 348.16 l -358.6,65 c -7.2,63.67 -16.9,126.66 -29.4,188.32 l 320.5,172.75 -107.7,331 -360.6,-48.75 c -26.5,57.88 -55.4,114.65 -86.8,169.63 l 251.7,263.34 -204.5,281.59 -328.6,-158.05 c -42.7,46.75 -87.7,91.72 -134.7,134.68 l 158.3,328.56 -281.6,204.55 -263.4,-251.74 c -55.2,31.39 -111.7,60.34 -169.8,86.84 l 48.8,360.8 -331.1,107.6 -172.7,-320.8 c -61.7,12.7 -124.4,22.5 -188.1,29.3 l -65.2,358.9 h -348.2 l -65,-358.9 c -63.6,-6.8 -126.4,-16.6 -188.3,-29.3 l -172.7,320.8 -330.8,-107.6 48.5,-360.8 c -57.9,-26.5 -114.6,-55.45 -169.6,-86.84 l -263.4,251.74 -281.6,-204.55 158.1,-328.56 c -46.8,-42.96 -91.7,-87.93 -134.7,-134.68 l -328.6,158.05 -204.5,-281.59 251.7,-263.34 c -31.4,-54.98 -60.3,-111.75 -86.8,-169.63 l -360.8,48.75 -107.5,-331 320.7,-172.75 c -12.7,-61.66 -22.5,-124.65 -29.4,-188.32 l -358.8,-65 v -348.16 l 358.8,-65.21 c 6.9,-63.45 16.7,-126.45 29.4,-188.11 l -320.7,-172.73 107.5,-331.02 360.8,48.75 c 26.5,-58.1 55.4,-114.64 86.8,-169.85 l -251.7,-263.34 204.5,-281.59 328.6,158.27 c 43,-46.97 87.9,-91.93 134.7,-134.68 l -158.1,-328.56 281.6,-204.36 263.4,251.55 c 55,-31.39 111.7,-60.33 169.6,-86.81 l -48.5,-360.63 330.8,-107.73 172.7,320.55 c 61.9,-12.48 124.7,-22.27 188.3,-29.39 l 65,-358.62 h 348.2 l 65.2,358.62 c 63.7,7.12 126.4,16.91 188.1,29.39 l 172.7,-320.55 331.1,107.73 -48.8,360.63 c 58.1,26.48 114.6,55.42 169.8,86.81 l 263.4,-251.55 281.6,204.36 -158.3,328.56 c 47,42.75 92,87.71 134.7,134.68 l 328.6,-158.27 204.5,281.59 -251.7,263.34 c 31.4,55.21 60.3,111.75 86.8,169.85 l 360.6,-48.75 107.7,331.02 -320.5,172.73 c 12.5,61.66 22.2,124.66 29.4,188.11 l 358.6,65.21" /><path
         id="path190"
         style="fill:#ffffff;fill-opacity:1;fill-rule:nonzero;stroke:none"
         d="m 14084,8082.71 c 0,-516.9 -418.9,-935.84 -935.8,-935.84 -516.7,0 -935.6,418.94 -935.6,935.84 0,516.66 418.9,935.6 935.6,935.6 516.9,0 935.8,-418.94 935.8,-935.6" /><path
         id="path192"
         style="fill:#554ba9;fill-opacity:1;fill-rule:nonzero;stroke:none"
         d="M 13791.1,11857.9 H 13560 v 346.7 h 231.1 v -346.7" /><path
         id="path194"
         style="fill:#554ba9;fill-opacity:1;fill-rule:nonzero;stroke:none"
         d="m 14080,11857.9 h -231.1 v 736.7 h 231.1 v -736.7" /><path
         id="path196"
         style="fill:#554ba9;fill-opacity:1;fill-rule:nonzero;stroke:none"
         d="m 14368.9,11857.9 h -231.1 v 515.2 h 231.1 v -515.2" /><path
         id="path198"
         style="fill:#554ba9;fill-opacity:1;fill-rule:nonzero;stroke:none"
         d="m 14657.7,11857.9 h -231.1 v 880.5 h 231.1 v -880.5" /><path
         id="path200"
         style="fill:#f25a1a;fill-opacity:1;fill-rule:nonzero;stroke:none"
         d="m 13442.5,8080.43 c 0,162.51 -131.7,294.25 -294.2,294.25 -162.5,0 -294.3,-131.74 -294.3,-294.25 0,-162.51 131.8,-294.25 294.3,-294.25 162.5,0 294.2,131.74 294.2,294.25" /><path
         id="path202"
         style="fill:#f25a1a;fill-opacity:1;fill-rule:nonzero;stroke:none"
         d="m 13306,7668.87 h -315.4 c -9.4,0 -16.9,7.56 -16.9,16.88 v 41.41 c 0,9.32 7.5,16.88 16.9,16.88 h 315.4 c 9.3,0 16.9,-7.56 16.9,-16.88 v -41.41 c 0,-9.32 -7.6,-16.88 -16.9,-16.88" /><path
         id="path204"
         style="fill:#f25a1a;fill-opacity:1;fill-rule:nonzero;stroke:none"
         d="m 13306,7574.37 h -315.4 c -9.4,0 -16.9,7.56 -16.9,16.89 v 41.4 c 0,9.32 7.5,16.88 16.9,16.88 h 315.4 c 9.3,0 16.9,-7.56 16.9,-16.88 v -41.4 c 0,-9.33 -7.6,-16.89 -16.9,-16.89" /><path
         id="path206"
         style="fill:#f25a1a;fill-opacity:1;fill-rule:nonzero;stroke:none"
         d="m 13306,7471.5 h -315.4 c -9.4,0 -16.9,7.56 -16.9,16.89 v 41.4 c 0,9.33 7.5,16.89 16.9,16.89 h 315.4 c 9.3,0 16.9,-7.56 16.9,-16.89 v -41.4 c 0,-9.33 -7.6,-16.89 -16.9,-16.89" /><path
         id="path208"
         style="fill:#f25a1a;fill-opacity:1;fill-rule:nonzero;stroke:none"
         d="m 13247.2,7444.6 c 0,-20.49 -44.3,-37.08 -98.9,-37.08 -54.7,0 -99,16.59 -99,37.08 0,3.1 1,6.08 2.9,8.95 h 192.1 c 1.9,-2.87 2.9,-5.85 2.9,-8.95" /><path
         id="path210"
         style="fill:#f25a1a;fill-opacity:1;fill-rule:nonzero;stroke:none"
         d="m 13157.2,8442.16 h -21.7 c -4.9,0 -8.9,3.97 -8.9,8.87 v 298.05 c 0,4.89 4,8.86 8.9,8.86 h 21.7 c 4.9,0 8.9,-3.97 8.9,-8.86 v -298.05 c 0,-4.9 -4,-8.87 -8.9,-8.87" /><path
         id="path212"
         style="fill:#f25a1a;fill-opacity:1;fill-rule:nonzero;stroke:none"
         d="m 12898.8,8342.53 -15.4,-15.36 c -3.4,-3.46 -9,-3.46 -12.5,0 l -210.8,210.75 c -3.4,3.47 -3.4,9.08 0,12.54 l 15.4,15.37 c 3.5,3.45 9.1,3.45 12.5,0 l 210.8,-210.76 c 3.5,-3.46 3.5,-9.07 0,-12.54" /><path
         id="path214"
         style="fill:#f25a1a;fill-opacity:1;fill-rule:nonzero;stroke:none"
         d="m 12786.5,8089.37 v -21.73 c 0,-4.9 -3.9,-8.87 -8.8,-8.87 h -298.1 c -4.9,0 -8.8,3.97 -8.8,8.87 v 21.73 c 0,4.89 3.9,8.86 8.8,8.86 h 298.1 c 4.9,0 8.8,-3.97 8.8,-8.86" /><path
         id="path216"
         style="fill:#f25a1a;fill-opacity:1;fill-rule:nonzero;stroke:none"
         d="m 12886.2,7830.96 15.3,-15.36 c 3.5,-3.46 3.5,-9.07 0,-12.53 l -210.7,-210.77 c -3.5,-3.45 -9.1,-3.45 -12.6,0 l -15.3,15.38 c -3.5,3.45 -3.5,9.07 0,12.53 l 210.7,210.75 c 3.5,3.46 9.1,3.46 12.6,0" /><path
         id="path218"
         style="fill:#f25a1a;fill-opacity:1;fill-rule:nonzero;stroke:none"
         d="m 13397.7,7818.33 15.4,15.36 c 3.5,3.46 9.1,3.46 12.5,0 l 210.8,-210.76 c 3.4,-3.46 3.4,-9.07 0,-12.53 l -15.4,-15.37 c -3.4,-3.46 -9,-3.46 -12.5,0 l -210.8,210.76 c -3.4,3.46 -3.4,9.07 0,12.54" /><path
         id="path220"
         style="fill:#f25a1a;fill-opacity:1;fill-rule:nonzero;stroke:none"
         d="m 13510,8071.49 v 21.73 c 0,4.9 4,8.86 8.9,8.86 h 298 c 4.9,0 8.9,-3.96 8.9,-8.86 v -21.73 c 0,-4.89 -4,-8.86 -8.9,-8.86 h -298 c -4.9,0 -8.9,3.97 -8.9,8.86" /><path
         id="path222"
         style="fill:#f25a1a;fill-opacity:1;fill-rule:nonzero;stroke:none"
         d="m 13410.4,8329.89 -15.4,15.37 c -3.4,3.46 -3.4,9.07 0,12.53 l 210.8,210.76 c 3.4,3.46 9,3.46 12.5,0 l 15.4,-15.37 c 3.4,-3.46 3.4,-9.07 0,-12.53 l -210.8,-210.76 c -3.5,-3.45 -9.1,-3.45 -12.5,0" /><path
         id="path224"
         style="fill:#544ba9;fill-opacity:1;fill-rule:nonzero;stroke:none"
         d="m 9086.73,6465.48 c -494.48,-87.86 -966.92,241.85 -1054.95,736.51 -87.85,494.65 241.69,966.92 736.35,1054.94 494.82,88.03 967.08,-241.68 1055.11,-736.17 88.02,-494.82 -241.68,-967.25 -736.51,-1055.28 z m 1369.57,964.01 365.5,172.8 -33,185.96 -402.7,36.24 c -24.6,78.45 -55.2,153.67 -91.3,225.45 l 263.6,306.3 -106,156.4 -382.3,-130.77 c -54.2,60.85 -112.85,117.27 -175.41,168.71 l 116.21,387.32 -160.31,99.81 -296.38,-275.19 c -73.5,33.68 -150.07,61.54 -228.7,83.08 l -51.28,400.81 -187.16,26.16 -158.62,-371.76 c -80.16,0.51 -161.18,-5.14 -242.54,-17.61 l -210.07,345.61 -181.52,-52.3 5.98,-404.07 c -75.2,-32.82 -146.82,-71.11 -214.67,-114.52 l -332.11,229.89 -144.6,-121.52 170.06,-366.98 c -54.69,-59.99 -104.77,-124.09 -149.21,-191.77 l -397.4,75.2 -82.73,-169.89 304.42,-265.97 c -25.64,-76.57 -45.12,-155.54 -58.45,-236.21 l -393.31,-92.82 -6.15,-188.87 386.29,-119.13 c 3.93,-40 9.41,-80.16 16.41,-120.49 7.35,-40.36 16.07,-79.83 26.15,-118.97 l -321.51,-244.94 70.77,-175.03 401.33,48.38 c 40.33,-71.11 85.97,-138.46 136.39,-201.52 l -194,-354.5 136.06,-131.1 347.15,207.68 c 65.12,-48.21 134.18,-91.11 206.13,-128.72 l -32.98,-403.04 177.58,-64.3 232.64,330.44 c 78.62,-17.44 159.12,-28.54 241,-33.51 l 133.66,-381.13 188.36,13.3 77.94,396.89 c 80.85,16.4 158.79,38.97 233.83,67.17 l 277.06,-294.16 166.65,89.06 -90.08,393.81 c 66.5,47.34 128.71,99.99 185.98,156.9 l 373.14,-156.05 116,148.87 -242.7,323.73 c 41,69.74 76.8,142.73 106.5,218.62 l 404.1,9.22 45.4,183.24 -352.9,196.74 c 9,79.64 11.8,161 7.8,243.05" /><path
         id="path226"
         style="fill:#ffffff;fill-opacity:1;fill-rule:nonzero;stroke:none"
         d="m 9086.73,6465.48 c -494.48,-87.86 -966.92,241.85 -1054.95,736.51 -87.85,494.65 241.69,966.92 736.35,1054.94 494.82,88.03 967.08,-241.68 1055.11,-736.17 88.02,-494.82 -241.68,-967.25 -736.51,-1055.28" /><path
         id="path228"
         style="fill:#544ba9;fill-opacity:1;fill-rule:nonzero;stroke:none"
         d="m 9014.7,7370.52 -35.91,49.02 -100.77,-73.8 35.91,-49.02 100.77,73.8" /><path
         id="path230"
         style="fill:#544ba9;fill-opacity:1;fill-rule:nonzero;stroke:none"
         d="m 9019.33,7838.4 c -151.92,-111.27 -184.88,-324.63 -73.6,-476.54 111.27,-151.93 324.63,-184.88 476.54,-73.61 151.92,111.27 184.87,324.63 73.6,476.54 -111.27,151.93 -324.63,184.88 -476.54,73.61" /><path
         id="path232"
         style="fill:#e3ecf8;fill-opacity:1;fill-rule:nonzero;stroke:none"
         d="m 9051.24,7794.82 c -127.85,-93.64 -155.58,-273.2 -61.94,-401.05 93.64,-127.85 273.2,-155.59 401.06,-61.94 127.85,93.64 155.58,273.2 61.93,401.05 -93.64,127.86 -273.2,155.59 -401.05,61.94" /><path
         id="path234"
         style="fill:#544ba9;fill-opacity:1;fill-rule:nonzero;stroke:none"
         d="m 8927.89,7277.65 c 4.1,27.54 -46.19,89.38 -63.83,87.15 l -642.75,-470.77 c -17.87,-31.74 10.1,-90.2 63.84,-87.16 l 642.74,470.78" /><path
         id="path236"
         style="fill:#796ebe;fill-opacity:1;fill-rule:nonzero;stroke:none"
         d="m 17953.9,1523.6 h -500.2 l -57,110.4 h 516.7 l 40.5,-110.4" /><path
         id="path238"
         style="fill:#796ebe;fill-opacity:1;fill-rule:nonzero;stroke:none"
         d="m 19297.2,1266.8 c -63.1,0 -114.3,51.2 -114.3,114.3 0,63.2 51.2,114.3 114.3,114.3 63.1,0 114.3,-51.1 114.3,-114.3 0,-63.1 -51.2,-114.3 -114.3,-114.3 z m 0,295.5 c -100.1,0 -181.1,-81.1 -181.1,-181.2 0,-100 81,-181.1 181.1,-181.1 100,0 181.1,81.1 181.1,181.1 0,100.1 -81.1,181.2 -181.1,181.2" /><path
         id="path240"
         style="fill:#796ebe;fill-opacity:1;fill-rule:nonzero;stroke:none"
         d="m 19959.2,4040 -1598.1,1807.39 -99.2,-87.69 1598.1,-1807.4 99.2,87.7" /><path
         id="path242"
         style="fill:#ffffff;fill-opacity:1;fill-rule:nonzero;stroke:none"
         d="m 18580.5,3675.4 c -19,10 -287.5,182.5 -287.5,182.5 l 153.6,257 308.2,45.4 c 0,0 50.3,-89.9 66.9,-110 16.5,-20 116.6,-191.6 116.6,-191.6 l -357.8,-183.3" /><path
         id="path244"
         style="fill:#b1b1b0;fill-opacity:1;fill-rule:nonzero;stroke:none"
         d="m 18441.3,4075.2 139.2,-167.8 -161.9,-155.5 45.7,-64.4 142.9,20.1 277.9,197 -128.9,103.1 -314.9,67.5" /><path
         id="path246"
         style="fill:#ffffff;fill-opacity:1;fill-rule:nonzero;stroke:none"
         d="m 17933.7,3710.1 c -11,18.4 -150.8,305.2 -150.8,305.2 l 264.8,139.8 286.9,-121.4 c 0,0 -3.7,-102.9 0,-128.7 3.7,-25.7 0,-224.3 0,-224.3 l -400.9,29.4" /><path
         id="path248"
         style="fill:#ccccc9;fill-opacity:1;fill-rule:nonzero;stroke:none"
         d="m 18059.6,4066.8 17.5,-205.9 114,-169.7 62.6,169.7 -136.1,235.3 -88.3,22.1 30.3,-51.5" /><path
         id="path250"
         style="fill:#ffffff;fill-opacity:1;fill-rule:nonzero;stroke:none"
         d="m 19152.3,3718.3 c -19,9.9 -287.5,182.4 -287.5,182.4 l 153.6,257 308.1,45.4 c 0,0 50.4,-89.9 66.9,-110 16.6,-20 116.6,-191.6 116.6,-191.6 l -357.7,-183.2" /><path
         id="path252"
         style="fill:#b1b1b0;fill-opacity:1;fill-rule:nonzero;stroke:none"
         d="m 19013,4118 139.3,-167.8 -162,-155.5 45.7,-64.4 143,20.1 277.9,197.1 -128.9,103 -315,67.5" /><path
         id="path254"
         style="fill:#796ebe;fill-opacity:1;fill-rule:nonzero;stroke:none"
         d="m 18897.2,1274.5 c 0,220.9 179.1,399.9 400,399.9 25,0 49.3,-2.6 73,-6.9 l 525.5,2250.4 h -2442 l 625.2,-2677.4 h 820 c -0.9,11.2 -1.7,22.5 -1.7,34" /><path
         id="path256"
         style="fill:#b9b9e3;fill-opacity:1;fill-rule:nonzero;stroke:none"
         d="m 13933.1,1388.3 c 0,-103.8 617.2,-187.9 1378.6,-187.9 761.4,0 1378.7,84.1 1378.7,187.9 0,103.8 -617.3,188 -1378.7,188 -761.4,0 -1378.6,-84.2 -1378.6,-188" /><path
         id="path258"
         style="fill:#3c43a2;fill-opacity:1;fill-rule:nonzero;stroke:none"
         d="m 16012.1,1567.7 -423.1,-44.3 c 0,0 -8.1,-28.2 -112.9,455.4 -104.8,483.6 -627.3,2792.7 -627.3,2792.7 h -86 l 36.3,-2522.7 c 0,0 116.8,-169.3 16.1,-270 84.6,-145.1 72.5,-310.3 32.2,-330.5 -40.3,-20.1 -374.8,0 -455.3,-145.1 -48.4,399 -362.7,3429.5 -282.1,3703.6 l 1358.1,120.9 c 0,0 225.6,-2700.1 314.3,-2857.3 88.7,-157.1 161.2,-407 149.1,-544 -12.1,-137 80.6,-358.7 80.6,-358.7" /><path
         id="path260"
         style="fill:#1b3743;fill-opacity:1;fill-rule:nonzero;stroke:none"
         d="m 16415.1,1338 h -795.2 c 0,0 -37.7,32.2 0,177.3 37.6,145.1 389.2,96.7 389.2,96.7 0,0 153.5,-72.5 187,-72.5 33.6,0 248.5,56.4 219,-201.5" /><path
         id="path262"
         style="fill:#1b3743;fill-opacity:1;fill-rule:nonzero;stroke:none"
         d="m 14966.3,1317.9 c 0,0 -483.6,-5.1 -497.7,0 -14.1,5 -87.6,78.5 -44.3,138 43.3,59.4 72.5,100.7 72.5,100.7 0,0 73.2,81.6 191.8,72.6 118.5,-9.1 171.9,-69.6 155.8,-108.8 0,0 169.3,-49.4 139,-152.2 -30.2,-102.7 -17.1,-50.3 -17.1,-50.3" /><path
         id="path264"
         style="fill:#d2dddb;fill-opacity:1;fill-rule:nonzero;stroke:none"
         d="m 15391.5,5249.8 c 0,0 -510.5,-231.1 -924.2,-145.1 -338.5,86 -338.5,86 -338.5,86 l 69.8,2235.25 c 0,0 403,327.77 849,182.69 333.1,-139.7 343.9,-123.58 343.9,-123.58 V 5249.8" /><path
         id="path266"
         style="fill:#6e8dd0;fill-opacity:1;fill-rule:nonzero;stroke:none"
         d="m 14666.1,4948.9 c 0,0 80.6,2057.94 59.1,2197.64 -21.5,139.71 -177.3,295.53 -177.3,295.53 L 14435,7597.9 c 0,0 -456.7,-16.12 -445.9,-306.28 10.7,-290.16 59.1,-2122.42 59.1,-2122.42 0,0 5.3,-149.8 216.9,-180 211.6,-30.3 401,-40.3 401,-40.3" /><path
         id="path268"
         style="fill:#f4725b;fill-opacity:1;fill-rule:nonzero;stroke:none"
         d="m 16526,6748.64 c 0,0 53.5,103.63 30.1,181.38 -23.4,77.75 -2.2,203.7 33.2,203.95 35.4,0.27 35.5,-11.86 34,-93.96 -1.4,-82.1 69.2,-81.03 118.1,16.25 21.3,42.2 332.9,108.97 310.7,-135.89 -28.4,-311.76 -431.4,-243.86 -431.4,-243.86 0,0 -79.5,-36.74 -94.7,72.13" /><path
         id="path270"
         style="fill:#4251ac;fill-opacity:1;fill-rule:nonzero;stroke:none"
         d="m 16528.7,6835.92 c 0,0 135.2,-235.66 228.1,-218.93 -287.5,-331.65 -567.1,-748.91 -752.3,-615.04 -185.1,133.88 -518.1,494.14 -518.1,494.14 0,0 -320.9,1187.05 -153.5,1011.07 167.5,-176 684.9,-1010.19 723,-1041.73 38,-31.53 469.5,318.91 472.8,370.49" /><path
         id="path272"
         style="fill:#6e8dd0;fill-opacity:1;fill-rule:nonzero;stroke:none"
         d="m 15286.7,5056.3 -201.5,2025.76 c 0,0 -14.1,546.73 -197.5,585.02 249.9,-56.43 485.6,-114.85 548.1,-298.22 62.5,-183.36 100.8,-1667.74 84.6,-2248.06 -161.2,-64.5 -233.7,-64.5 -233.7,-64.5" /><path
         id="path274"
         style="fill:#2c2f7b;fill-opacity:1;fill-rule:nonzero;stroke:none"
         d="m 15059,7356.77 c 0,0 40.3,118.88 120.9,120.9 -78.6,130.97 -219.6,376.8 -610.5,278.07 -169.3,-56.42 -243.8,-314.34 -88.7,-481.58 92.7,56.42 185.4,34.25 185.4,34.25 0,0 -197.5,157.17 -177.3,231.73 20.1,74.55 169.2,185.37 445.3,104.77 84.6,-38.28 137,-304.26 124.9,-288.14" /><path
         id="path276"
         style="fill:#f4725b;fill-opacity:1;fill-rule:nonzero;stroke:none"
         d="m 16741.4,7056.26 c 37.7,28.48 341.1,108.09 310.7,-135.89 -22.3,-178.08 -578.8,-66.78 -310.7,135.89" /><path
         id="path278"
         style="fill:#ffffff;fill-opacity:1;fill-rule:nonzero;stroke:none"
         d="m 15767.6,6000.33 c 0,-310.3 251.6,-561.83 561.9,-561.83 310.3,0 561.8,251.53 561.8,561.83 0,310.29 -251.5,561.85 -561.8,561.85 -310.3,0 -561.9,-251.56 -561.9,-561.85" /><path
         id="path280"
         style="fill:#544ba9;fill-opacity:1;fill-rule:nonzero;stroke:none"
         d="m 15805.6,5997.79 c 0,287.57 233.1,520.7 520.7,520.7 287.6,0 520.7,-233.13 520.7,-520.7 0,-287.57 -233.1,-520.69 -520.7,-520.69 -287.6,0 -520.7,233.12 -520.7,520.69 z m -285.2,-140.25 c 8.4,-48.72 20.9,-96.05 37.6,-141.41 l -155.4,-89.7 140.2,-242.93 155.7,89.9 c 31.3,-37.5 65.9,-72.1 103.4,-103.4 l -89.9,-155.7 243,-140.2 89.7,155.3 c 45.3,-16.6 92.6,-29.1 141.4,-37.5 v -179.8 h 280.5 v 179.8 c 48.7,8.4 96,20.9 141.4,37.5 l 89.7,-155.3 242.9,140.2 -89.8,155.7 c 37.4,31.3 72,65.9 103.4,103.4 l 155.6,-89.9 140.3,242.93 -155.4,89.7 c 16.6,45.36 29.1,92.69 37.5,141.41 h 179.8 v 280.51 h -179.8 c -8.4,48.72 -20.9,96.04 -37.5,141.4 l 155.4,89.71 -140.3,242.93 -155.6,-89.86 c -31.4,37.47 -66,72.08 -103.4,103.4 l 89.8,155.65 -242.9,140.25 -89.7,-155.38 c -45.4,16.64 -92.7,29.14 -141.4,37.56 v 179.76 h -280.5 v -179.76 c -48.8,-8.42 -96.1,-20.92 -141.4,-37.56 l -89.7,155.38 -243,-140.25 89.9,-155.65 c -37.5,-31.32 -72.1,-65.93 -103.4,-103.4 l -155.7,89.86 -140.2,-242.93 155.4,-89.71 c -16.7,-45.36 -29.2,-92.68 -37.6,-141.4 h -179.7 v -280.51 h 179.7" /><path
         id="path282"
         style="fill:#544ba9;fill-opacity:1;fill-rule:nonzero;stroke:none"
         d="M 16197.1,6380.64 H 16593 V 5597.8 h -533.4 v 645.37 h 137.5 v 137.47" /><path
         id="path284"
         style="fill:#8f9195;fill-opacity:1;fill-rule:nonzero;stroke:none"
         d="m 16197.1,6243.17 h -137.5 l 137.5,137.47 z" /><path
         id="path286"
         style="fill:#ddd3ed;fill-opacity:1;fill-rule:nonzero;stroke:none"
         d="m 16159.9,6184.73 h 339.1 v 4.94 h -339.1 v -4.94" /><path
         id="path288"
         style="fill:#ddd3ed;fill-opacity:1;fill-rule:nonzero;stroke:none"
         d="m 16159.9,6146.86 h 339.1 v 4.94 h -339.1 v -4.94" /><path
         id="path290"
         style="fill:#ddd3ed;fill-opacity:1;fill-rule:nonzero;stroke:none"
         d="m 16159.9,6108.99 h 339.1 v 4.94 h -339.1 v -4.94" /><path
         id="path292"
         style="fill:#ddd3ed;fill-opacity:1;fill-rule:nonzero;stroke:none"
         d="m 16159.9,6071.12 h 339.1 v 4.94 h -339.1 v -4.94" /><path
         id="path294"
         style="fill:#ddd3ed;fill-opacity:1;fill-rule:nonzero;stroke:none"
         d="m 16159.9,6033.26 h 339.1 v 4.93 h -339.1 v -4.93" /><path
         id="path296"
         style="fill:#ddd3ed;fill-opacity:1;fill-rule:nonzero;stroke:none"
         d="m 16159.9,5995.39 h 339.1 v 4.94 h -339.1 v -4.94" /><path
         id="path298"
         style="fill:#ddd3ed;fill-opacity:1;fill-rule:nonzero;stroke:none"
         d="m 16159.9,5957.53 h 339.1 v 4.93 h -339.1 v -4.93" /><path
         id="path300"
         style="fill:#ddd3ed;fill-opacity:1;fill-rule:nonzero;stroke:none"
         d="m 16159.9,5919.66 h 339.1 v 4.94 h -339.1 v -4.94" /><path
         id="path302"
         style="fill:#ddd3ed;fill-opacity:1;fill-rule:nonzero;stroke:none"
         d="m 16159.9,5881.79 h 339.1 v 4.94 h -339.1 v -4.94" /><path
         id="path304"
         style="fill:#ddd3ed;fill-opacity:1;fill-rule:nonzero;stroke:none"
         d="m 16159.9,5843.93 h 339.1 v 4.94 h -339.1 v -4.94" /><path
         id="path306"
         style="fill:#ddd3ed;fill-opacity:1;fill-rule:nonzero;stroke:none"
         d="m 16159.9,5806.05 h 339.1 v 4.95 h -339.1 v -4.95" /><path
         id="path308"
         style="fill:#ddd3ed;fill-opacity:1;fill-rule:nonzero;stroke:none"
         d="m 16159.9,5768.19 h 339.1 v 4.94 h -339.1 v -4.94" /><path
         id="path310"
         style="fill:#ddd3ed;fill-opacity:1;fill-rule:nonzero;stroke:none"
         d="m 16159.9,5730.32 h 339.1 v 4.94 h -339.1 v -4.94" /><path
         id="path312"
         style="fill:#ddd3ed;fill-opacity:1;fill-rule:nonzero;stroke:none"
         d="m 16159.9,5692.46 h 339.1 v 4.94 h -339.1 v -4.94" /><path
         id="path314"
         style="fill:#f57a5b;fill-opacity:1;fill-rule:nonzero;stroke:none"
         d="m 15511.5,5790.31 c 0,0 54.8,-60.76 81.6,-44.75 26.8,16 113.7,80.79 264.5,-48.96 19.7,-40.61 -56.7,-60.69 -112.9,-7.01 10.8,-34.66 -2.6,-168.39 119.3,-173.39 l 149.4,-12.8 c 7.7,-8.9 -61.3,-33 -61.3,-33 0,0 17.1,-17.9 -34.7,-44.7 -51.8,-26.8 -203.4,-72.5 -261.1,-1.7 -57.8,70.8 -111,143.5 -132.2,157.7 -21.3,14.1 -63.3,40.6 -63.3,40.6 0,0 -13.4,125.2 50.7,168.01" /><path
         id="path316"
         style="fill:#4251ac;fill-opacity:1;fill-rule:nonzero;stroke:none"
         d="m 14017.4,7413.36 c 0,0 118,33.67 390.6,-237.3 121.6,-255.7 157.3,-997.71 157.3,-997.71 0,0 1081.8,-349.74 1089.8,-359 -100.1,15.05 -232.5,-115.96 -134.4,-310.05 -184.7,140.28 -1178.7,277.17 -1310.8,488.18 -132.1,211 -262.2,1355.05 -192.5,1415.88" /><path
         id="path318"
         style="fill:#ed5a42;fill-opacity:1;fill-rule:nonzero;stroke:none"
         d="m 14867.6,7546.18 c 0,0 -58.4,-82.62 -171.3,-28.21 -112.8,54.4 -131,82.62 -131,82.62 0,0 46.4,306.27 54.4,423.14 8.1,116.87 260,24.18 260,24.18 0,0 -22.2,-447.32 -12.1,-501.73" /><path
         id="path320"
         style="fill:#ed5a42;fill-opacity:1;fill-rule:nonzero;stroke:none"
         d="m 15067.1,8434.79 c 0,0 22.1,-74.56 18.1,-340.54 -4,-265.97 -76.6,-314.33 -344.6,-270 -268,44.32 -227.7,288.14 -197.4,485.61 30.2,197.47 348.6,372.77 523.9,124.93" /><path
         id="path322"
         style="fill:#100f0d;fill-opacity:1;fill-rule:nonzero;stroke:none"
         d="m 15185.4,8183.22 c 0,0 -21.8,-86.26 -99.7,-7 -77.9,79.25 -79,186.03 -53.5,208.86 0,0 -272.6,-278.79 -533.3,-201.86 -260.6,76.94 82.8,361.37 172,406.05 89.2,44.68 612.5,110.77 514.5,-406.05" /><path
         id="path324"
         style="fill:#ddd3ed;fill-opacity:1;fill-rule:nonzero;stroke:none"
         d="m 10300.2,10212.6 c -1.6,0.9 -3.1,1.6 -4.7,2.2 -103.5,43.9 -263.3,-99.1 -356.81,-319.2 -93.5,-220.17 -85.26,-434.31 18.25,-478.39 l 16.75,-7.02 c -3.33,12.85 -7.09,25 -8.13,34.07 -6.12,53.06 7.98,106.81 23.99,156.94 23.05,72.25 50.45,143.02 77.95,213.71 29.6,76.37 60.3,154.22 113.1,216.89 41.7,49.3 102.6,89.3 166.8,82.4 25.1,-2.8 48.8,-12.4 72.2,-21.5 79.3,-30.8 160.3,-56.9 242.6,-78.1 24.8,-6.4 51.7,-11.5 77.6,-11.8 10.8,2.2 21.2,2.9 31.3,2.4 3.7,0.7 7.4,1.7 11,2.8 l -481.9,204.6" /><path
         id="path326"
         style="fill:#ffffff;fill-opacity:1;fill-rule:nonzero;stroke:none"
         d="m 10512.3,9310.6 c 0,0 -19.8,-410.6 -216.2,-499.87 -196.3,-89.26 -115.9,-387.91 156.3,-298.09 272.2,89.82 128.2,-130.56 106,-156.4 -22.3,-25.85 -164.1,-532.78 40.7,-550.92 204.8,-18.12 183.9,15.51 196.4,-54.63 12.4,-70.14 66,-113.12 26.3,-148.4 -39.7,-35.28 -363,-42.19 -228.1,-241.06 134.9,-198.88 213,-89.99 183.8,0 -29.3,89.99 -42.2,119.85 6.8,146.22 48.9,26.38 382.6,86.58 192.2,342.84 -242.2,46.76 -296.4,137.25 -305.9,212.63 -9.5,75.37 12.6,196.13 41.5,201.38 29,5.25 282.3,146.93 109.7,373.46 -172.6,226.53 -55.5,270.17 -39.7,274.14 15.9,3.96 141.4,124.97 24.1,190.42 -117.3,65.46 -212.5,299.53 -222.4,406.64 -10,107.12 -100.4,80.58 -100.4,80.58 0,0 -78.2,-249.14 28.9,-278.94" /><path
         id="path328"
         style="fill:#4251ac;fill-opacity:1;fill-rule:nonzero;stroke:none"
         d="m 15308.1,10214.9 c 4.1,1.1 89.9,24.9 217.2,86.4 190.7,92.3 475.6,269.7 714,584.6 119.1,157.3 226.3,348.9 303.3,579.7 77,230.8 123.9,500.7 123.9,814.2 0,153.8 -11.3,318.2 -35.7,493.7 -42.5,305 -60.4,566.2 -60.4,789.5 0,463.3 76.9,762.6 168.5,953.9 l -160.6,76.8 c -106.1,-221.7 -185.9,-548.1 -185.9,-1030.7 0,-232.8 18.5,-502.1 62,-814.1 23.3,-167.8 34,-324 34,-469.1 -0.1,-394.5 -78.2,-707.6 -193.8,-957.3 -86.7,-187.3 -194.8,-339 -308.4,-462 -170.4,-184.3 -353.5,-303.6 -493.5,-376.3 -69.9,-36.4 -129,-61.1 -170.1,-76.6 -20.5,-7.7 -36.5,-13.1 -47,-16.5 -5.3,-1.7 -9.3,-2.9 -11.7,-3.6 l -2.6,-0.8 -0.4,-0.1 15.6,-56.5 -15.5,56.5 h -0.1 l 15.6,-56.5 -15.5,56.5 47.1,-171.7 v 0" /><path
         id="path330"
         style="fill:#4251ac;fill-opacity:1;fill-rule:nonzero;stroke:none"
         d="m 17054.2,14950 c -109.2,-258.4 -211.6,-610.1 -221.8,-878.2 l -211.5,417.9 -429.8,185.8 c 267,26.4 611.9,149.8 863.1,274.5" /><path
         id="path332"
         style="fill:#c9bee4;fill-opacity:1;fill-rule:nonzero;stroke:none"
         d="m 10611.1,9238.53 c 0,0 106.9,-130.92 171.7,-162.66 64.8,-31.73 22.5,-112.4 -11.9,-126.94 -34.4,-14.55 -79.7,-93.9 -57.1,-141.5 -39.5,56.86 -2.4,144.14 37.2,173.23 39.7,29.1 29.1,60.83 14.6,72.73 -14.6,11.91 -146.3,146.79 -154.5,185.14" /><path
         id="path334"
         style="fill:#978dce;fill-opacity:1;fill-rule:nonzero;stroke:none"
         d="m 10599.1,7805.33 c 54.1,-4.79 92.4,-5.97 119.8,-6.39 -1.3,3.64 -2.6,7.31 -4.3,10.83 -25.6,51.46 -88.2,73.45 -122.3,119.69 -38.7,52.5 -33.3,124.26 -26.3,189.1 7.2,65.98 15,133.97 47.3,191.94 19.7,35.36 47.9,65.68 65.5,102.12 17.5,36.45 22.3,83.74 -3.8,114.67 -24.4,28.9 -66.1,33.84 -103.6,38.73 -56.9,7.42 -113.3,19.33 -168.3,35.59 -9.7,2.86 -19.6,6.01 -27.4,12.47 -11.8,9.8 -16.6,25.58 -19.2,40.71 -10.2,61.83 9.6,124.81 36.3,181.52 26.6,56.71 60.5,110.23 81.3,169.34 14,39.96 21.7,82.11 23,124.45 0.4,12.74 1.9,35.85 0.7,58.07 -21.8,-128.54 -75,-319.84 -201.7,-377.43 -196.3,-89.27 -115.9,-387.92 156.3,-298.1 272.2,89.82 128.2,-130.56 106,-156.41 -22.3,-25.84 -164.1,-532.77 40.7,-550.9" /><path
         id="path336"
         style="fill:#c9bee4;fill-opacity:1;fill-rule:nonzero;stroke:none"
         d="m 10330,8783.93 c -3.8,-4.17 -7.6,-8.98 -11.2,-12.47 -8,-7.61 -15.9,-15.17 -23.5,-24.02 -14.2,-16.44 -28.6,-38.64 -33.1,-71.75 -8.5,-63.95 17.7,-126.67 48.4,-136.38 30.8,-9.73 65.1,6.41 95.4,17.56 3.1,1.17 6.4,2.42 9,6 9.4,12.59 0.8,25.05 -6.2,27.15 -8.6,2.56 -17.5,3.33 -26,6.94 -21.5,9.16 -58.6,13.94 -62.8,68 -1.5,17.99 2.1,37.69 6.6,53.25 4.6,16.52 14.5,20.05 21.7,30.73 5,7.32 8.7,20.68 6.1,31.85 -2.2,9.37 -8.1,13.28 -13.2,11.68 -3.8,-1.2 -7.6,-4.59 -11.2,-8.54" /></g></g></svg>