<svg width="335.2800048828125px" height="122.39999389648438px" xmlns="http://www.w3.org/2000/svg" viewBox="82.35999755859376 13.800003051757812 335.2800048828125 122.39999389648438" style="background: none;" preserveAspectRatio="xMidYMid"><defs><filter id="editing-extrusion" x="-100%" y="-100%" width="300%" height="300%"><feFlood result="color1" flood-color="#444"></feFlood><feConvolveMatrix order="8,8" divisor="1" kernelMatrix="1 0 0 0 0 0 0 0 0 1 0 0 0 0 0 0 0 0 1 0 0 0 0 0 0 0 0 1 0 0 0 0 0 0 0 0 1 0 0 0 0 0 0 0 0 1 0 0 0 0 0 0 0 0 1 0 0 0 0 0 0 0 0 1" in="SourceAlpha" result="extrude"></feConvolveMatrix><feComposite in="color1" in2="extrude" result="comp-extrude" operator="in"></feComposite><feOffset dx="4" dy="4" in="comp-extrude" result="offset-extrude"></feOffset><feMerge><feMergeNode in="offset-extrude"></feMergeNode><feMergeNode in="SourceGraphic"></feMergeNode></feMerge></filter></defs><g filter="url(#editing-extrusion)"><g transform="translate(134.89999759197235, 98.35999870300293)"><path d="M16.26-45.44L16.26 0L12.54 0L10.88-17.79L7.62-17.79L4.67 0L1.66 0L4.54-45.44L16.26-45.44ZM12.22-43.01L12.22-43.01Q12.22-43.39 11.84-43.39L11.84-43.39L9.09-43.39L9.09-43.39Q8.70-43.39 8.70-43.01L8.70-43.01L8.70-21.12L8.70-21.12Q8.70-20.80 9.09-20.80L9.09-20.80L11.84-20.80L11.84-20.80Q12.22-20.80 12.22-21.18L12.22-21.18L12.22-43.01ZM22.66-44.74L22.66-44.74Q22.66-45.06 25.28-45.25L25.28-45.25L25.28-45.25Q27.90-45.44 30.46-45.44L30.46-45.44L33.22-45.44L33.22-45.44Q34.24-45.44 34.88-44.67L34.88-44.67L34.88-44.67Q35.52-43.90 35.58-42.69L35.58-42.69L36.22-24.26L33.34-20.48L38.46-1.41L37.25 0L33.47 0L30.21-19.90L26.94-19.58L25.60 0L22.66 0L22.66-44.74ZM26.69-24.38L31.49-24.64L31.49-24.64Q31.87-24.64 31.87-25.02L31.87-25.02L31.87-40.96L30.91-41.92L26.50-41.47L26.69-24.38ZM58.82-11.97L58.82-1.28L45.18-1.28L42.56-3.97L43.84-41.79L43.84-41.79Q43.90-43.20 45.02-44.32L45.02-44.32L45.02-44.32Q46.14-45.44 48.13-45.44L48.13-45.44L48.96-45.38L58.82-44.10L57.79-33.79L54.85-33.79L54.85-39.74L54.85-39.74Q54.85-40.32 54.08-40.32L54.08-40.32L50.11-40.32L50.11-40.32Q48.90-40.32 48.35-39.33L48.35-39.33L48.35-39.33Q47.81-38.34 47.81-37.12L47.81-37.12L47.81-37.12Q47.81-36.42 48-36.29L48-36.29L48-6.34L48-6.34Q47.81-6.27 47.81-6.14L47.81-6.14L47.81-6.14Q47.81-5.95 48.38-5.95L48.38-5.95L54.72-5.95L54.72-5.95Q55.49-5.95 55.49-6.34L55.49-6.34L55.49-11.14L56.70-11.90L58.82-11.97ZM76.54 0L74.69-19.84L69.18-20.93L69.18 0L64.45 0L64.45-45.44L69.06-45.44L68.35-25.28L74.69-25.60L74.69-45.44L79.36-45.44L79.36 0L76.54 0ZM89.79-45.44L91.14-1.28L85.76-1.28L85.76-45.44L89.79-45.44ZM96.19-45.44L109.44-44.54L109.76-40.51L104.13-40.51L104.13 0L98.69 0L99.97-39.36L95.36-40.90L96.19-45.44ZM128.58-5.31L128.58 0L114.88 0L114.88-45.44L128.58-45.44L128.58-41.47L120.58-41.86L120.58-27.33L128.58-25.86L128.58-22.78L119.49-23.17L119.49-4.80L128.58-5.31ZM151.42-11.97L151.42-1.28L137.79-1.28L135.17-3.97L136.45-41.79L136.45-41.79Q136.51-43.20 137.63-44.32L137.63-44.32L137.63-44.32Q138.75-45.44 140.74-45.44L140.74-45.44L141.57-45.38L151.42-44.10L150.40-33.79L147.46-33.79L147.46-39.74L147.46-39.74Q147.46-40.32 146.69-40.32L146.69-40.32L142.72-40.32L142.72-40.32Q141.50-40.32 140.96-39.33L140.96-39.33L140.96-39.33Q140.42-38.34 140.42-37.12L140.42-37.12L140.42-37.12Q140.42-36.42 140.61-36.29L140.61-36.29L140.61-6.34L140.61-6.34Q140.42-6.27 140.42-6.14L140.42-6.14L140.42-6.14Q140.42-5.95 140.99-5.95L140.99-5.95L147.33-5.95L147.33-5.95Q148.10-5.95 148.10-6.34L148.10-6.34L148.10-11.14L149.31-11.90L151.42-11.97ZM156.29-45.44L169.54-44.54L169.86-40.51L164.22-40.51L164.22 0L158.78 0L160.06-39.36L155.46-40.90L156.29-45.44ZM175.17-44.80L179.90-44.80L178.56-3.97L183.94-4.35L183.94-43.97L188.42-43.71L188.42 1.28L173.70 1.28L175.17-44.80ZM194.11-44.74L194.11-44.74Q194.11-45.06 196.74-45.25L196.74-45.25L196.74-45.25Q199.36-45.44 201.92-45.44L201.92-45.44L204.67-45.44L204.67-45.44Q205.70-45.44 206.34-44.67L206.34-44.67L206.34-44.67Q206.98-43.90 207.04-42.69L207.04-42.69L207.68-24.26L204.80-20.48L209.92-1.41L208.70 0L204.93 0L201.66-19.90L198.40-19.58L197.06 0L194.11 0L194.11-44.74ZM198.14-24.38L202.94-24.64L202.94-24.64Q203.33-24.64 203.33-25.02L203.33-25.02L203.33-40.96L202.37-41.92L197.95-41.47L198.14-24.38ZM228.54-5.31L228.54 0L214.85 0L214.85-45.44L228.54-45.44L228.54-41.47L220.54-41.86L220.54-27.33L228.54-25.86L228.54-22.78L219.46-23.17L219.46-4.80L228.54-5.31Z" fill="#ccc"></path></g></g><style>text {
  font-size: 64px;
  font-family: Arial Black;
  dominant-baseline: central;
  text-anchor: middle;
}</style></svg>