<svg width="244.48001708984376px" height="122.39999389648438px" xmlns="http://www.w3.org/2000/svg" viewBox="127.75999145507812 13.800003051757812 244.48001708984376 122.39999389648438" style="background: none;" preserveAspectRatio="xMidYMid"><defs><filter id="editing-extrusion" x="-100%" y="-100%" width="300%" height="300%"><feFlood result="color1" flood-color="#444"></feFlood><feConvolveMatrix order="8,8" divisor="1" kernelMatrix="1 0 0 0 0 0 0 0 0 1 0 0 0 0 0 0 0 0 1 0 0 0 0 0 0 0 0 1 0 0 0 0 0 0 0 0 1 0 0 0 0 0 0 0 0 1 0 0 0 0 0 0 0 0 1 0 0 0 0 0 0 0 0 1" in="SourceAlpha" result="extrude"></feConvolveMatrix><feComposite in="color1" in2="extrude" result="comp-extrude" operator="in"></feComposite><feOffset dx="4" dy="4" in="comp-extrude" result="offset-extrude"></feOffset><feMerge><feMergeNode in="offset-extrude"></feMergeNode><feMergeNode in="SourceGraphic"></feMergeNode></feMerge></filter></defs><g filter="url(#editing-extrusion)"><g transform="translate(167.66499781608582, 98.35999870300293)"><path d="M13.44-23.94L13.44-23.94Q14.98-23.68 15.84-23.39L15.84-23.39L15.84-23.39Q16.70-23.10 16.70-22.53L16.70-22.53L16.70-3.20L16.70-3.20Q16.70-2.05 15.07-1.66L15.07-1.66L15.07-1.66Q13.44-1.28 11.90-1.28L11.90-1.28L3.20-1.28L3.20-45.44L10.43-45.44L10.43-45.44Q12.42-45.44 14.24-44.80L14.24-44.80L14.24-44.80Q16.06-44.16 16.06-42.37L16.06-42.37L16-41.73L14.14-25.41L14.14-25.41Q14.14-24.70 14.02-24.45L14.02-24.45L14.02-24.45Q13.89-24.19 13.44-23.94L13.44-23.94ZM6.85-26.56L6.85-26.56Q6.85-26.05 7.62-26.05L7.62-26.05L10.05-27.01L10.05-27.01Q10.62-27.14 10.62-27.58L10.62-27.58L11.26-41.41L11.26-41.41Q11.26-41.66 10.37-41.66L10.37-41.66L7.62-41.66L7.62-41.66Q6.85-41.66 6.85-41.41L6.85-41.41L6.85-26.56ZM9.92-4.86L9.92-4.86Q11.07-4.86 11.55-5.38L11.55-5.38L11.55-5.38Q12.03-5.89 12.03-6.40L12.03-6.40L12.03-6.40Q12.03-6.78 11.90-6.78L11.90-6.78L11.90-21.18L11.90-21.18Q12.10-21.31 12.10-21.38L12.10-21.38L12.10-21.38Q12.10-21.57 11.65-21.57L11.65-21.57L8.96-21.57L8.96-21.57Q8.77-21.57 8.54-21.44L8.54-21.44L8.54-21.44Q8.32-21.31 8.26-21.18L8.26-21.18L8.26-5.06L8.26-5.06Q8.32-4.99 8.51-4.93L8.51-4.93L8.51-4.93Q8.70-4.86 8.96-4.86L8.96-4.86L9.92-4.86ZM34.56-45.44L37.18 0L34.37 0L32.06-17.02L26.94-14.59L25.54 0L21.57 0L24.45-45.44L34.56-45.44ZM31.23-42.37L31.23-42.37Q31.23-42.75 30.85-42.75L30.85-42.75L28.10-42.11L28.10-42.11Q27.71-41.92 27.71-41.47L27.71-41.47L27.71-18.94L27.71-18.94Q27.71-18.62 28.10-18.62L28.10-18.62L30.46-19.01L30.46-19.01Q30.85-19.01 30.85-19.39L30.85-19.39L31.23-42.37ZM58.24-11.97L58.24-1.28L44.61-1.28L41.98-3.97L43.26-41.79L43.26-41.79Q43.33-43.20 44.45-44.32L44.45-44.32L44.45-44.32Q45.57-45.44 47.55-45.44L47.55-45.44L48.38-45.38L58.24-44.10L57.22-33.79L54.27-33.79L54.27-39.74L54.27-39.74Q54.27-40.32 53.50-40.32L53.50-40.32L49.54-40.32L49.54-40.32Q48.32-40.32 47.78-39.33L47.78-39.33L47.78-39.33Q47.23-38.34 47.23-37.12L47.23-37.12L47.23-37.12Q47.23-36.42 47.42-36.29L47.42-36.29L47.42-6.34L47.42-6.34Q47.23-6.27 47.23-6.14L47.23-6.14L47.23-6.14Q47.23-5.95 47.81-5.95L47.81-5.95L54.14-5.95L54.14-5.95Q54.91-5.95 54.91-6.34L54.91-6.34L54.91-11.14L56.13-11.90L58.24-11.97ZM78.53-1.34L77.38 0L73.60 0L70.21-21.63L68.80-20.54L68.80 0L64.51 0L63.68-44.80L65.34-45.44L68.03-45.44L68.03-23.81L72.58-27.65L71.87-43.97L77.38-45.44L76.03-25.66L73.41-23.62L78.53-1.34ZM80.64-23.42L100.99-22.85L100.99-19.71L80.83-19.71L80.64-23.42ZM118.91-7.74L119.68-1.28L104.64-1.28L106.11-45.44L119.10-45.44L119.10-40.45L109.95-40.45L109.95-27.26L116.93-27.26L116.93-24.06L110.27-22.91L110.27-6.59L118.91-7.74ZM140.80-45.44L139.52 1.28L135.17 1.28L128.90-35.46L128.64-35.46L127.42 1.28L124.16 1.28L126.21-45.44L130.11-45.44L136.58-8.38L137.02-8.38L137.02-45.44L140.80-45.44ZM156.54-45.44L161.47-43.39L161.47-3.58L161.47-3.58Q161.47-1.47 160.13-0.74L160.13-0.74L160.13-0.74Q158.78 0 157.70 0L157.70 0L146.94 0L146.94-3.58L147.33-5.38L145.98-45.44L156.54-45.44ZM154.11-4.42L154.11-4.42Q155.07-4.42 155.58-5.18L155.58-5.18L155.58-5.18Q156.10-5.95 156.22-8.38L156.22-8.38L157.50-40.83L157.50-40.83Q157.50-41.22 157.38-41.31L157.38-41.31L157.38-41.31Q157.25-41.41 156.93-41.41L156.93-41.41L152.06-41.41L152.06-41.41Q151.49-41.41 151.49-40.83L151.49-40.83L151.49-4.99L151.49-4.99Q151.49-4.42 152.06-4.42L152.06-4.42L154.11-4.42Z" fill="#ccc"></path></g></g><style>text {
  font-size: 64px;
  font-family: Arial Black;
  dominant-baseline: central;
  text-anchor: middle;
}</style></svg>