<svg width="512.5999999999999px" height="122.39999389648438px" xmlns="http://www.w3.org/2000/svg" viewBox="-6.2999999999999545 13.800003051757812 512.5999999999999 122.39999389648438" style="background: none;" preserveAspectRatio="xMidYMid"><defs><filter id="editing-extrusion" x="-100%" y="-100%" width="300%" height="300%"><feFlood result="color1" flood-color="#444"></feFlood><feConvolveMatrix order="8,8" divisor="1" kernelMatrix="1 0 0 0 0 0 0 0 0 1 0 0 0 0 0 0 0 0 1 0 0 0 0 0 0 0 0 1 0 0 0 0 0 0 0 0 1 0 0 0 0 0 0 0 0 1 0 0 0 0 0 0 0 0 1 0 0 0 0 0 0 0 0 1" in="SourceAlpha" result="extrude"></feConvolveMatrix><feComposite in="color1" in2="extrude" result="comp-extrude" operator="in"></feComposite><feOffset dx="4" dy="4" in="comp-extrude" result="offset-extrude"></feOffset><feMerge><feMergeNode in="offset-extrude"></feMergeNode><feMergeNode in="SourceGraphic"></feMergeNode></feMerge></filter></defs><g filter="url(#editing-extrusion)"><g transform="translate(69.97001338005066, 98.35999870300293)"><path d="M13.44-23.94L13.44-23.94Q14.98-23.68 15.84-23.39L15.84-23.39L15.84-23.39Q16.70-23.10 16.70-22.53L16.70-22.53L16.70-3.20L16.70-3.20Q16.70-2.05 15.07-1.66L15.07-1.66L15.07-1.66Q13.44-1.28 11.90-1.28L11.90-1.28L3.20-1.28L3.20-45.44L10.43-45.44L10.43-45.44Q12.42-45.44 14.24-44.80L14.24-44.80L14.24-44.80Q16.06-44.16 16.06-42.37L16.06-42.37L16-41.73L14.14-25.41L14.14-25.41Q14.14-24.70 14.02-24.45L14.02-24.45L14.02-24.45Q13.89-24.19 13.44-23.94L13.44-23.94ZM6.85-26.56L6.85-26.56Q6.85-26.05 7.62-26.05L7.62-26.05L10.05-27.01L10.05-27.01Q10.62-27.14 10.62-27.58L10.62-27.58L11.26-41.41L11.26-41.41Q11.26-41.66 10.37-41.66L10.37-41.66L7.62-41.66L7.62-41.66Q6.85-41.66 6.85-41.41L6.85-41.41L6.85-26.56ZM9.92-4.86L9.92-4.86Q11.07-4.86 11.55-5.38L11.55-5.38L11.55-5.38Q12.03-5.89 12.03-6.40L12.03-6.40L12.03-6.40Q12.03-6.78 11.90-6.78L11.90-6.78L11.90-21.18L11.90-21.18Q12.10-21.31 12.10-21.38L12.10-21.38L12.10-21.38Q12.10-21.57 11.65-21.57L11.65-21.57L8.96-21.57L8.96-21.57Q8.77-21.57 8.54-21.44L8.54-21.44L8.54-21.44Q8.32-21.31 8.26-21.18L8.26-21.18L8.26-5.06L8.26-5.06Q8.32-4.99 8.51-4.93L8.51-4.93L8.51-4.93Q8.70-4.86 8.96-4.86L8.96-4.86L9.92-4.86ZM23.30-44.80L28.03-44.80L26.69-3.97L32.06-4.35L32.06-43.97L36.54-43.71L36.54 1.28L21.82 1.28L23.30-44.80ZM54.34-36.42L51.97-36.42L50.69-41.41L46.85-40.96L45.89-26.75L55.17-25.09L54.27-3.84L54.27-3.84Q54.27-2.56 52.61-1.28L52.61-1.28L52.61-1.28Q50.94 0 49.54 0L49.54 0L42.05 0L41.47-10.94L45.25-10.94L45.18-5.38L49.66-4.35L50.69-21.38L42.05-23.30L42.05-43.90L44.61-45.44L54.66-45.44L54.34-36.42ZM64.77-45.44L66.11-1.28L60.74-1.28L60.74-45.44L64.77-45.44ZM87.62-45.44L86.34 1.28L81.98 1.28L75.71-35.46L75.46-35.46L74.24 1.28L70.98 1.28L73.02-45.44L76.93-45.44L83.39-8.38L83.84-8.38L83.84-45.44L87.62-45.44ZM107.39-5.31L107.39 0L93.70 0L93.70-45.44L107.39-45.44L107.39-41.47L99.39-41.86L99.39-27.33L107.39-25.86L107.39-22.78L98.30-23.17L98.30-4.80L107.39-5.31ZM126.59-36.42L124.22-36.42L122.94-41.41L119.10-40.96L118.14-26.75L127.42-25.09L126.53-3.84L126.53-3.84Q126.53-2.56 124.86-1.28L124.86-1.28L124.86-1.28Q123.20 0 121.79 0L121.79 0L114.30 0L113.73-10.94L117.50-10.94L117.44-5.38L121.92-4.35L122.94-21.38L114.30-23.30L114.30-43.90L116.86-45.44L126.91-45.44L126.59-36.42ZM145.09-36.42L142.72-36.42L141.44-41.41L137.60-40.96L136.64-26.75L145.92-25.09L145.02-3.84L145.02-3.84Q145.02-2.56 143.36-1.28L143.36-1.28L143.36-1.28Q141.70 0 140.29 0L140.29 0L132.80 0L132.22-10.94L136-10.94L135.94-5.38L140.42-4.35L141.44-21.38L132.80-23.30L132.80-43.90L135.36-45.44L145.41-45.44L145.09-36.42ZM174.98-4.10L174.98 0L162.88 0L162.88-45.44L169.09-45.44L167.74-5.25L174.98-4.10ZM192.90 0L184.38 0L184.38 0Q181.76 0 180.74-0.83L180.74-0.83L180.74-0.83Q179.71-1.66 179.71-3.58L179.71-3.58L179.71-43.90L179.71-43.90Q181.12-44.67 183.39-45.06L183.39-45.06L183.39-45.06Q185.66-45.44 189.44-45.44L189.44-45.44L189.44-45.44Q191.17-45.44 192.26-44.58L192.26-44.58L192.26-44.58Q193.34-43.71 193.34-42.37L193.34-42.37L192.90 0ZM183.81-4.03L188.35-3.65L188.93-4.22L189.31-40.77L189.31-40.77Q189.31-41.09 188.74-41.15L188.74-41.15L184.77-41.34L184.19-40.96L183.81-4.03ZM217.09-18.82L214.59-17.73L214.59-3.71L214.59-3.71Q214.59-2.05 213.25-1.02L213.25-1.02L213.25-1.02Q211.90 0 210.11 0L210.11 0L200.51 0L199.10-41.98L199.10-41.98Q199.17-43.52 200.03-44.48L200.03-44.48L200.03-44.48Q200.90-45.44 202.24-45.44L202.24-45.44L215.04-45.44L215.04-42.75L213.89-35.78L211.07-35.78L211.07-41.92L203.90-40.32L204.99-7.17L204.99-7.17Q204.99-6.72 205.44-6.37L205.44-6.37L205.44-6.37Q205.89-6.02 206.34-6.02L206.34-6.02L209.28-6.02L209.28-6.02Q209.73-6.02 210.14-6.24L210.14-6.24L210.14-6.24Q210.56-6.46 210.56-6.78L210.56-6.78L210.56-21.95L217.09-21.31L217.09-18.82ZM226.56-45.44L227.90-1.28L222.53-1.28L222.53-45.44L226.56-45.44ZM249.47-11.97L249.47-1.28L235.84-1.28L233.22-3.97L234.50-41.79L234.50-41.79Q234.56-43.20 235.68-44.32L235.68-44.32L235.68-44.32Q236.80-45.44 238.78-45.44L238.78-45.44L239.62-45.38L249.47-44.10L248.45-33.79L245.50-33.79L245.50-39.74L245.50-39.74Q245.50-40.32 244.74-40.32L244.74-40.32L240.77-40.32L240.77-40.32Q239.55-40.32 239.01-39.33L239.01-39.33L239.01-39.33Q238.46-38.34 238.46-37.12L238.46-37.12L238.46-37.12Q238.46-36.42 238.66-36.29L238.66-36.29L238.66-6.34L238.66-6.34Q238.46-6.27 238.46-6.14L238.46-6.14L238.46-6.14Q238.46-5.95 239.04-5.95L239.04-5.95L245.38-5.95L245.38-5.95Q246.14-5.95 246.14-6.34L246.14-6.34L246.14-11.14L247.36-11.90L249.47-11.97ZM278.59-4.10L278.59 0L266.50 0L266.50-45.44L272.70-45.44L271.36-5.25L278.59-4.10ZM295.17-45.44L297.79 0L294.98 0L292.67-17.02L287.55-14.59L286.14 0L282.18 0L285.06-45.44L295.17-45.44ZM291.84-42.37L291.84-42.37Q291.84-42.75 291.46-42.75L291.46-42.75L288.70-42.11L288.70-42.11Q288.32-41.92 288.32-41.47L288.32-41.47L288.32-18.94L288.32-18.94Q288.32-18.62 288.70-18.62L288.70-18.62L291.07-19.01L291.07-19.01Q291.46-19.01 291.46-19.39L291.46-19.39L291.84-42.37ZM310.66-23.62L311.74 0L306.82 0L306.82-23.94L300.86-44.80L306.69-44.80L308.86-26.43L309.38-26.56L311.30-45.44L315.78-45.44L312.96-27.58L310.66-23.62ZM333.95-5.31L333.95 0L320.26 0L320.26-45.44L333.95-45.44L333.95-41.47L325.95-41.86L325.95-27.33L333.95-25.86L333.95-22.78L324.86-23.17L324.86-4.80L333.95-5.31ZM341.06-44.74L341.06-44.74Q341.06-45.06 343.68-45.25L343.68-45.25L343.68-45.25Q346.30-45.44 348.86-45.44L348.86-45.44L351.62-45.44L351.62-45.44Q352.64-45.44 353.28-44.67L353.28-44.67L353.28-44.67Q353.92-43.90 353.98-42.69L353.98-42.69L354.62-24.26L351.74-20.48L356.86-1.41L355.65 0L351.87 0L348.61-19.90L345.34-19.58L344 0L341.06 0L341.06-44.74ZM345.09-24.38L349.89-24.64L349.89-24.64Q350.27-24.64 350.27-25.02L350.27-25.02L350.27-40.96L349.31-41.92L344.90-41.47L345.09-24.38Z" fill="#ccc"></path></g></g><style>text {
  font-size: 64px;
  font-family: Arial Black;
  dominant-baseline: central;
  text-anchor: middle;
}</style></svg>