<svg width="134.3199951171875px" height="122.39999389648438px" xmlns="http://www.w3.org/2000/svg" viewBox="182.84000244140626 13.800003051757812 134.3199951171875 122.39999389648438" style="background: none;" preserveAspectRatio="xMidYMid"><defs><filter id="editing-extrusion" x="-100%" y="-100%" width="300%" height="300%"><feFlood result="color1" flood-color="#444"></feFlood><feConvolveMatrix order="8,8" divisor="1" kernelMatrix="1 0 0 0 0 0 0 0 0 1 0 0 0 0 0 0 0 0 1 0 0 0 0 0 0 0 0 1 0 0 0 0 0 0 0 0 1 0 0 0 0 0 0 0 0 1 0 0 0 0 0 0 0 0 1 0 0 0 0 0 0 0 0 1" in="SourceAlpha" result="extrude"></feConvolveMatrix><feComposite in="color1" in2="extrude" result="comp-extrude" operator="in"></feComposite><feOffset dx="4" dy="4" in="comp-extrude" result="offset-extrude"></feOffset><feMerge><feMergeNode in="offset-extrude"></feMergeNode><feMergeNode in="SourceGraphic"></feMergeNode></feMerge></filter></defs><g filter="url(#editing-extrusion)"><g transform="translate(208.46499705314636, 97.71999931335449)"><path d="M18.82-10.69L18.82 0L9.66 0L9.66 0Q6.40 0 4.80-1.12L4.80-1.12L4.80-1.12Q3.20-2.24 3.20-3.97L3.20-3.97L3.20-41.86L3.20-41.86Q3.20-43.39 4.54-44.42L4.54-44.42L4.54-44.42Q5.89-45.44 8.32-45.44L8.32-45.44L18.82-45.44L18.82-41.86L17.79-33.86L13.57-33.86L12.93-41.09L12.93-41.09Q12.93-41.66 12.16-41.66L12.16-41.66L9.47-41.66L9.47-41.66Q8.26-41.66 7.71-40.67L7.71-40.67L7.71-40.67Q7.17-39.68 7.17-38.46L7.17-38.46L7.17-38.46Q7.17-37.76 7.36-37.63L7.36-37.63L8.64-5.70L8.64-5.70Q8.45-5.63 8.45-5.50L8.45-5.50L8.45-5.50Q8.45-5.31 9.02-5.31L9.02-5.31L12.80-5.31L12.80-5.31Q13.57-5.31 13.57-5.70L13.57-5.70L14.85-10.69L18.82-10.69ZM37.70 0L29.18 0L29.18 0Q26.56 0 25.54-0.83L25.54-0.83L25.54-0.83Q24.51-1.66 24.51-3.58L24.51-3.58L24.51-43.90L24.51-43.90Q25.92-44.67 28.19-45.06L28.19-45.06L28.19-45.06Q30.46-45.44 34.24-45.44L34.24-45.44L34.24-45.44Q35.97-45.44 37.06-44.58L37.06-44.58L37.06-44.58Q38.14-43.71 38.14-42.37L38.14-42.37L37.70 0ZM28.61-4.03L33.15-3.65L33.73-4.22L34.11-40.77L34.11-40.77Q34.11-41.09 33.54-41.15L33.54-41.15L29.57-41.34L28.99-40.96L28.61-4.03ZM54.53-45.44L59.46-43.39L59.46-3.58L59.46-3.58Q59.46-1.47 58.11-0.74L58.11-0.74L58.11-0.74Q56.77 0 55.68 0L55.68 0L44.93 0L44.93-3.58L45.31-5.38L43.97-45.44L54.53-45.44ZM52.10-4.42L52.10-4.42Q53.06-4.42 53.57-5.18L53.57-5.18L53.57-5.18Q54.08-5.95 54.21-8.38L54.21-8.38L55.49-40.83L55.49-40.83Q55.49-41.22 55.36-41.31L55.36-41.31L55.36-41.31Q55.23-41.41 54.91-41.41L54.91-41.41L50.05-41.41L50.05-41.41Q49.47-41.41 49.47-40.83L49.47-40.83L49.47-4.99L49.47-4.99Q49.47-4.42 50.05-4.42L50.05-4.42L52.10-4.42ZM79.87-5.31L79.87 0L66.18 0L66.18-45.44L79.87-45.44L79.87-41.47L71.87-41.86L71.87-27.33L79.87-25.86L79.87-22.78L70.78-23.17L70.78-4.80L79.87-5.31Z" fill="#ccc"></path></g></g><style>text {
  font-size: 64px;
  font-family: Arial Black;
  dominant-baseline: central;
  text-anchor: middle;
}</style></svg>