<svg width="441.5199951171875px" height="122.39999389648438px" xmlns="http://www.w3.org/2000/svg" viewBox="29.24000244140626 13.800003051757812 441.5199951171875 122.39999389648438" style="background: none;" preserveAspectRatio="xMidYMid"><defs><filter id="editing-extrusion" x="-100%" y="-100%" width="300%" height="300%"><feFlood result="color1" flood-color="#444"></feFlood><feConvolveMatrix order="8,8" divisor="1" kernelMatrix="1 0 0 0 0 0 0 0 0 1 0 0 0 0 0 0 0 0 1 0 0 0 0 0 0 0 0 1 0 0 0 0 0 0 0 0 1 0 0 0 0 0 0 0 0 1 0 0 0 0 0 0 0 0 1 0 0 0 0 0 0 0 0 1" in="SourceAlpha" result="extrude"></feConvolveMatrix><feComposite in="color1" in2="extrude" result="comp-extrude" operator="in"></feComposite><feOffset dx="4" dy="4" in="comp-extrude" result="offset-extrude"></feOffset><feMerge><feMergeNode in="offset-extrude"></feMergeNode><feMergeNode in="SourceGraphic"></feMergeNode></feMerge></filter></defs><g filter="url(#editing-extrusion)"><g transform="translate(95.66500544548035, 98.35999870300293)"><path d="M18.82-10.69L18.82 0L9.66 0L9.66 0Q6.40 0 4.80-1.12L4.80-1.12L4.80-1.12Q3.20-2.24 3.20-3.97L3.20-3.97L3.20-41.86L3.20-41.86Q3.20-43.39 4.54-44.42L4.54-44.42L4.54-44.42Q5.89-45.44 8.32-45.44L8.32-45.44L18.82-45.44L18.82-41.86L17.79-33.86L13.57-33.86L12.93-41.09L12.93-41.09Q12.93-41.66 12.16-41.66L12.16-41.66L9.47-41.66L9.47-41.66Q8.26-41.66 7.71-40.67L7.71-40.67L7.71-40.67Q7.17-39.68 7.17-38.46L7.17-38.46L7.17-38.46Q7.17-37.76 7.36-37.63L7.36-37.63L8.64-5.70L8.64-5.70Q8.45-5.63 8.45-5.50L8.45-5.50L8.45-5.50Q8.45-5.31 9.02-5.31L9.02-5.31L12.80-5.31L12.80-5.31Q13.57-5.31 13.57-5.70L13.57-5.70L14.85-10.69L18.82-10.69ZM37.70 0L29.18 0L29.18 0Q26.56 0 25.54-0.83L25.54-0.83L25.54-0.83Q24.51-1.66 24.51-3.58L24.51-3.58L24.51-43.90L24.51-43.90Q25.92-44.67 28.19-45.06L28.19-45.06L28.19-45.06Q30.46-45.44 34.24-45.44L34.24-45.44L34.24-45.44Q35.97-45.44 37.06-44.58L37.06-44.58L37.06-44.58Q38.14-43.71 38.14-42.37L38.14-42.37L37.70 0ZM28.61-4.03L33.15-3.65L33.73-4.22L34.11-40.77L34.11-40.77Q34.11-41.09 33.54-41.15L33.54-41.15L29.57-41.34L28.99-40.96L28.61-4.03ZM54.53-45.44L59.46-43.39L59.46-3.58L59.46-3.58Q59.46-1.47 58.11-0.74L58.11-0.74L58.11-0.74Q56.77 0 55.68 0L55.68 0L44.93 0L44.93-3.58L45.31-5.38L43.97-45.44L54.53-45.44ZM52.10-4.42L52.10-4.42Q53.06-4.42 53.57-5.18L53.57-5.18L53.57-5.18Q54.08-5.95 54.21-8.38L54.21-8.38L55.49-40.83L55.49-40.83Q55.49-41.22 55.36-41.31L55.36-41.31L55.36-41.31Q55.23-41.41 54.91-41.41L54.91-41.41L50.05-41.41L50.05-41.41Q49.47-41.41 49.47-40.83L49.47-40.83L49.47-4.99L49.47-4.99Q49.47-4.42 50.05-4.42L50.05-4.42L52.10-4.42ZM69.89-45.44L71.23-1.28L65.86-1.28L65.86-45.44L69.89-45.44ZM92.74-45.44L91.46 1.28L87.10 1.28L80.83-35.46L80.58-35.46L79.36 1.28L76.10 1.28L78.14-45.44L82.05-45.44L88.51-8.38L88.96-8.38L88.96-45.44L92.74-45.44ZM115.84-18.82L113.34-17.73L113.34-3.71L113.34-3.71Q113.34-2.05 112-1.02L112-1.02L112-1.02Q110.66 0 108.86 0L108.86 0L99.26 0L97.86-41.98L97.86-41.98Q97.92-43.52 98.78-44.48L98.78-44.48L98.78-44.48Q99.65-45.44 100.99-45.44L100.99-45.44L113.79-45.44L113.79-42.75L112.64-35.78L109.82-35.78L109.82-41.92L102.66-40.32L103.74-7.17L103.74-7.17Q103.74-6.72 104.19-6.37L104.19-6.37L104.19-6.37Q104.64-6.02 105.09-6.02L105.09-6.02L108.03-6.02L108.03-6.02Q108.48-6.02 108.90-6.24L108.90-6.24L108.90-6.24Q109.31-6.46 109.31-6.78L109.31-6.78L109.31-21.95L115.84-21.31L115.84-18.82ZM136.19-41.09L137.15-26.94L145.28-24.83L145.28-3.84L145.28-3.84Q145.28-2.50 143.94-1.25L143.94-1.25L143.94-1.25Q142.59 0 141.18 0L141.18 0L132.03 0L132.03-4.35L140.93-4.35L139.39-21.50L132.03-23.42L132.03-42.43L132.03-42.43Q132.03-43.46 132.83-44.45L132.83-44.45L132.83-44.45Q133.63-45.44 134.59-45.44L134.59-45.44L145.28-45.44L145.28-42.30L136.19-41.09ZM150.27-45.44L163.52-44.54L163.84-40.51L158.21-40.51L158.21 0L152.77 0L154.05-39.36L149.44-40.90L150.27-45.44ZM180.42-45.44L183.04 0L180.22 0L177.92-17.02L172.80-14.59L171.39 0L167.42 0L170.30-45.44L180.42-45.44ZM177.09-42.37L177.09-42.37Q177.09-42.75 176.70-42.75L176.70-42.75L173.95-42.11L173.95-42.11Q173.57-41.92 173.57-41.47L173.57-41.47L173.57-18.94L173.57-18.94Q173.57-18.62 173.95-18.62L173.95-18.62L176.32-19.01L176.32-19.01Q176.70-19.01 176.70-19.39L176.70-19.39L177.09-42.37ZM204.03-45.44L202.75 1.28L198.40 1.28L192.13-35.46L191.87-35.46L190.66 1.28L187.39 1.28L189.44-45.44L193.34-45.44L199.81-8.38L200.26-8.38L200.26-45.44L204.03-45.44ZM219.78-45.44L224.70-43.39L224.70-3.58L224.70-3.58Q224.70-1.47 223.36-0.74L223.36-0.74L223.36-0.74Q222.02 0 220.93 0L220.93 0L210.18 0L210.18-3.58L210.56-5.38L209.22-45.44L219.78-45.44ZM217.34-4.42L217.34-4.42Q218.30-4.42 218.82-5.18L218.82-5.18L218.82-5.18Q219.33-5.95 219.46-8.38L219.46-8.38L220.74-40.83L220.74-40.83Q220.74-41.22 220.61-41.31L220.61-41.31L220.61-41.31Q220.48-41.41 220.16-41.41L220.16-41.41L215.30-41.41L215.30-41.41Q214.72-41.41 214.72-40.83L214.72-40.83L214.72-4.99L214.72-4.99Q214.72-4.42 215.30-4.42L215.30-4.42L217.34-4.42ZM242.88-45.44L245.50 0L242.69 0L240.38-17.02L235.26-14.59L233.86 0L229.89 0L232.77-45.44L242.88-45.44ZM239.55-42.37L239.55-42.37Q239.55-42.75 239.17-42.75L239.17-42.75L236.42-42.11L236.42-42.11Q236.03-41.92 236.03-41.47L236.03-41.47L236.03-18.94L236.03-18.94Q236.03-18.62 236.42-18.62L236.42-18.62L238.78-19.01L238.78-19.01Q239.17-19.01 239.17-19.39L239.17-19.39L239.55-42.37ZM250.82-44.74L250.82-44.74Q250.82-45.06 253.44-45.25L253.44-45.25L253.44-45.25Q256.06-45.44 258.62-45.44L258.62-45.44L261.38-45.44L261.38-45.44Q262.40-45.44 263.04-44.67L263.04-44.67L263.04-44.67Q263.68-43.90 263.74-42.69L263.74-42.69L264.38-24.26L261.50-20.48L266.62-1.41L265.41 0L261.63 0L258.37-19.90L255.10-19.58L253.76 0L250.82 0L250.82-44.74ZM254.85-24.38L259.65-24.64L259.65-24.64Q260.03-24.64 260.03-25.02L260.03-25.02L260.03-40.96L259.07-41.92L254.66-41.47L254.85-24.38ZM281.22-45.44L286.14-43.39L286.14-3.58L286.14-3.58Q286.14-1.47 284.80-0.74L284.80-0.74L284.80-0.74Q283.46 0 282.37 0L282.37 0L271.62 0L271.62-3.58L272-5.38L270.66-45.44L281.22-45.44ZM278.78-4.42L278.78-4.42Q279.74-4.42 280.26-5.18L280.26-5.18L280.26-5.18Q280.77-5.95 280.90-8.38L280.90-8.38L282.18-40.83L282.18-40.83Q282.18-41.22 282.05-41.31L282.05-41.31L282.05-41.31Q281.92-41.41 281.60-41.41L281.60-41.41L276.74-41.41L276.74-41.41Q276.16-41.41 276.16-40.83L276.16-40.83L276.16-4.99L276.16-4.99Q276.16-4.42 276.74-4.42L276.74-4.42L278.78-4.42ZM304.64-36.42L302.27-36.42L300.99-41.41L297.15-40.96L296.19-26.75L305.47-25.09L304.58-3.84L304.58-3.84Q304.58-2.56 302.91-1.28L302.91-1.28L302.91-1.28Q301.25 0 299.84 0L299.84 0L292.35 0L291.78-10.94L295.55-10.94L295.49-5.38L299.97-4.35L300.99-21.38L292.35-23.30L292.35-43.90L294.91-45.44L304.96-45.44L304.64-36.42Z" fill="#ccc"></path></g></g><style>text {
  font-size: 64px;
  font-family: Arial Black;
  dominant-baseline: central;
  text-anchor: middle;
}</style></svg>