<svg width="285.0799926757812px" height="122.39999389648438px" xmlns="http://www.w3.org/2000/svg" viewBox="107.46000366210939 13.800003051757812 285.0799926757812 122.39999389648438" style="background: none;" preserveAspectRatio="xMidYMid"><defs><filter id="editing-extrusion" x="-100%" y="-100%" width="300%" height="300%"><feFlood result="color1" flood-color="#444444"></feFlood><feConvolveMatrix order="8,8" divisor="1" kernelMatrix="1 0 0 0 0 0 0 0 0 1 0 0 0 0 0 0 0 0 1 0 0 0 0 0 0 0 0 1 0 0 0 0 0 0 0 0 1 0 0 0 0 0 0 0 0 1 0 0 0 0 0 0 0 0 1 0 0 0 0 0 0 0 0 1" in="SourceAlpha" result="extrude"></feConvolveMatrix><feComposite in="color1" in2="extrude" result="comp-extrude" operator="in"></feComposite><feOffset dx="4" dy="4" in="comp-extrude" result="offset-extrude"></feOffset><feMerge><feMergeNode in="offset-extrude"></feMergeNode><feMergeNode in="SourceGraphic"></feMergeNode></feMerge></filter></defs><g filter="url(#editing-extrusion)"><g transform="translate(153.13499903678894, 98.35999870300293)"><path d="M18.82-10.69L18.82 0L9.66 0L9.66 0Q6.40 0 4.80-1.12L4.80-1.12L4.80-1.12Q3.20-2.24 3.20-3.97L3.20-3.97L3.20-41.86L3.20-41.86Q3.20-43.39 4.54-44.42L4.54-44.42L4.54-44.42Q5.89-45.44 8.32-45.44L8.32-45.44L18.82-45.44L18.82-41.86L17.79-33.86L13.57-33.86L12.93-41.09L12.93-41.09Q12.93-41.66 12.16-41.66L12.16-41.66L9.47-41.66L9.47-41.66Q8.26-41.66 7.71-40.67L7.71-40.67L7.71-40.67Q7.17-39.68 7.17-38.46L7.17-38.46L7.17-38.46Q7.17-37.76 7.36-37.63L7.36-37.63L8.64-5.70L8.64-5.70Q8.45-5.63 8.45-5.50L8.45-5.50L8.45-5.50Q8.45-5.31 9.02-5.31L9.02-5.31L12.80-5.31L12.80-5.31Q13.57-5.31 13.57-5.70L13.57-5.70L14.85-10.69L18.82-10.69ZM37.70 0L29.18 0L29.18 0Q26.56 0 25.54-0.83L25.54-0.83L25.54-0.83Q24.51-1.66 24.51-3.58L24.51-3.58L24.51-43.90L24.51-43.90Q25.92-44.67 28.19-45.06L28.19-45.06L28.19-45.06Q30.46-45.44 34.24-45.44L34.24-45.44L34.24-45.44Q35.97-45.44 37.06-44.58L37.06-44.58L37.06-44.58Q38.14-43.71 38.14-42.37L38.14-42.37L37.70 0ZM28.61-4.03L33.15-3.65L33.73-4.22L34.11-40.77L34.11-40.77Q34.11-41.09 33.54-41.15L33.54-41.15L29.57-41.34L28.99-40.96L28.61-4.03ZM60.22-45.44L58.94 1.28L54.59 1.28L48.32-35.46L48.06-35.46L46.85 1.28L43.58 1.28L45.63-45.44L49.54-45.44L56-8.38L56.45-8.38L56.45-45.44L60.22-45.44ZM81.73-11.97L81.73-1.28L68.10-1.28L65.47-3.97L66.75-41.79L66.75-41.79Q66.82-43.20 67.94-44.32L67.94-44.32L67.94-44.32Q69.06-45.44 71.04-45.44L71.04-45.44L71.87-45.38L81.73-44.10L80.70-33.79L77.76-33.79L77.76-39.74L77.76-39.74Q77.76-40.32 76.99-40.32L76.99-40.32L73.02-40.32L73.02-40.32Q71.81-40.32 71.26-39.33L71.26-39.33L71.26-39.33Q70.72-38.34 70.72-37.12L70.72-37.12L70.72-37.12Q70.72-36.42 70.91-36.29L70.91-36.29L70.91-6.34L70.91-6.34Q70.72-6.27 70.72-6.14L70.72-6.14L70.72-6.14Q70.72-5.95 71.30-5.95L71.30-5.95L77.63-5.95L77.63-5.95Q78.40-5.95 78.40-6.34L78.40-6.34L78.40-11.14L79.62-11.90L81.73-11.97ZM100.29-4.42L100.29 0L87.36 0L87.36-45.44L92.10-45.44L92.10-6.72L93.06-5.25L100.29-4.42ZM106.24-44.80L110.98-44.80L109.63-3.97L115.01-4.35L115.01-43.97L119.49-43.71L119.49 1.28L104.77 1.28L106.24-44.80ZM137.28-36.42L134.91-36.42L133.63-41.41L129.79-40.96L128.83-26.75L138.11-25.09L137.22-3.84L137.22-3.84Q137.22-2.56 135.55-1.28L135.55-1.28L135.55-1.28Q133.89 0 132.48 0L132.48 0L124.99 0L124.42-10.94L128.19-10.94L128.13-5.38L132.61-4.35L133.63-21.38L124.99-23.30L124.99-43.90L127.55-45.44L137.60-45.44L137.28-36.42ZM147.71-45.44L149.06-1.28L143.68-1.28L143.68-45.44L147.71-45.44ZM168 0L159.49 0L159.49 0Q156.86 0 155.84-0.83L155.84-0.83L155.84-0.83Q154.82-1.66 154.82-3.58L154.82-3.58L154.82-43.90L154.82-43.90Q156.22-44.67 158.50-45.06L158.50-45.06L158.50-45.06Q160.77-45.44 164.54-45.44L164.54-45.44L164.54-45.44Q166.27-45.44 167.36-44.58L167.36-44.58L167.36-44.58Q168.45-43.71 168.45-42.37L168.45-42.37L168 0ZM158.91-4.03L163.46-3.65L164.03-4.22L164.42-40.77L164.42-40.77Q164.42-41.09 163.84-41.15L163.84-41.15L159.87-41.34L159.30-40.96L158.91-4.03ZM190.53-45.44L189.25 1.28L184.90 1.28L178.62-35.46L178.37-35.46L177.15 1.28L173.89 1.28L175.94-45.44L179.84-45.44L186.30-8.38L186.75-8.38L186.75-45.44L190.53-45.44Z" fill="#ccc"></path></g></g><style>text {
  font-size: 64px;
  font-family: Arial Black;
  dominant-baseline: central;
  text-anchor: middle;
}</style></svg>