<svg width="537.5px" height="122.39999389648438px" xmlns="http://www.w3.org/2000/svg" viewBox="-18.75 13.800003051757812 537.5 122.39999389648438" style="background: none;" preserveAspectRatio="xMidYMid"><defs><filter id="editing-extrusion" x="-100%" y="-100%" width="300%" height="300%"><feFlood result="color1" flood-color="#444"></feFlood><feConvolveMatrix order="8,8" divisor="1" kernelMatrix="1 0 0 0 0 0 0 0 0 1 0 0 0 0 0 0 0 0 1 0 0 0 0 0 0 0 0 1 0 0 0 0 0 0 0 0 1 0 0 0 0 0 0 0 0 1 0 0 0 0 0 0 0 0 1 0 0 0 0 0 0 0 0 1" in="SourceAlpha" result="extrude"></feConvolveMatrix><feComposite in="color1" in2="extrude" result="comp-extrude" operator="in"></feComposite><feOffset dx="4" dy="4" in="comp-extrude" result="offset-extrude"></feOffset><feMerge><feMergeNode in="offset-extrude"></feMergeNode><feMergeNode in="SourceGraphic"></feMergeNode></feMerge></filter></defs><g filter="url(#editing-extrusion)"><g transform="translate(58.480000257492065, 97.71999931335449)"><path d="M10.56-45.44L10.56-45.44Q13.63-45.44 15.58-43.46L15.58-43.46L15.58-43.46Q17.54-41.47 17.54-38.40L17.54-38.40L15.62-3.65L11.71 0L3.20 0L3.20-45.44L10.56-45.44ZM12.03-40.83L12.03-40.83Q12.03-41.22 11.26-41.22L11.26-41.22L8.38-41.22L8.38-41.22Q8.19-41.22 8-41.09L8-41.09L8-41.09Q7.81-40.96 7.81-40.83L7.81-40.83L7.81-4.61L8.38-4.22L10.75-4.54L10.75-4.54Q11.33-4.93 11.33-5.38L11.33-5.38L12.03-40.83ZM34.94-45.44L37.57 0L34.75 0L32.45-17.02L27.33-14.59L25.92 0L21.95 0L24.83-45.44L34.94-45.44ZM31.62-42.37L31.62-42.37Q31.62-42.75 31.23-42.75L31.23-42.75L28.48-42.11L28.48-42.11Q28.10-41.92 28.10-41.47L28.10-41.47L28.10-18.94L28.10-18.94Q28.10-18.62 28.48-18.62L28.48-18.62L30.85-19.01L30.85-19.01Q31.23-19.01 31.23-19.39L31.23-19.39L31.62-42.37ZM42.11-45.44L55.36-44.54L55.68-40.51L50.05-40.51L50.05 0L44.61 0L45.89-39.36L41.28-40.90L42.11-45.44ZM72.26-45.44L74.88 0L72.06 0L69.76-17.02L64.64-14.59L63.23 0L59.26 0L62.14-45.44L72.26-45.44ZM68.93-42.37L68.93-42.37Q68.93-42.75 68.54-42.75L68.54-42.75L65.79-42.11L65.79-42.11Q65.41-41.92 65.41-41.47L65.41-41.47L65.41-18.94L65.41-18.94Q65.41-18.62 65.79-18.62L65.79-18.62L68.16-19.01L68.16-19.01Q68.54-19.01 68.54-19.39L68.54-19.39L68.93-42.37ZM89.02-23.42L109.38-22.85L109.38-19.71L89.22-19.71L89.02-23.42ZM137.73-45.44L137.73 0L134.02 0L132.35-17.79L129.09-17.79L126.14 0L123.14 0L126.02-45.44L137.73-45.44ZM133.70-43.01L133.70-43.01Q133.70-43.39 133.31-43.39L133.31-43.39L130.56-43.39L130.56-43.39Q130.18-43.39 130.18-43.01L130.18-43.01L130.18-21.12L130.18-21.12Q130.18-20.80 130.56-20.80L130.56-20.80L133.31-20.80L133.31-20.80Q133.70-20.80 133.70-21.18L133.70-21.18L133.70-43.01ZM159.87-11.97L159.87-1.28L146.24-1.28L143.62-3.97L144.90-41.79L144.90-41.79Q144.96-43.20 146.08-44.32L146.08-44.32L146.08-44.32Q147.20-45.44 149.18-45.44L149.18-45.44L150.02-45.38L159.87-44.10L158.85-33.79L155.90-33.79L155.90-39.74L155.90-39.74Q155.90-40.32 155.14-40.32L155.14-40.32L151.17-40.32L151.17-40.32Q149.95-40.32 149.41-39.33L149.41-39.33L149.41-39.33Q148.86-38.34 148.86-37.12L148.86-37.12L148.86-37.12Q148.86-36.42 149.06-36.29L149.06-36.29L149.06-6.34L149.06-6.34Q148.86-6.27 148.86-6.14L148.86-6.14L148.86-6.14Q148.86-5.95 149.44-5.95L149.44-5.95L155.78-5.95L155.78-5.95Q156.54-5.95 156.54-6.34L156.54-6.34L156.54-11.14L157.76-11.90L159.87-11.97ZM181.25-11.97L181.25-1.28L167.62-1.28L164.99-3.97L166.27-41.79L166.27-41.79Q166.34-43.20 167.46-44.32L167.46-44.32L167.46-44.32Q168.58-45.44 170.56-45.44L170.56-45.44L171.39-45.38L181.25-44.10L180.22-33.79L177.28-33.79L177.28-39.74L177.28-39.74Q177.28-40.32 176.51-40.32L176.51-40.32L172.54-40.32L172.54-40.32Q171.33-40.32 170.78-39.33L170.78-39.33L170.78-39.33Q170.24-38.34 170.24-37.12L170.24-37.12L170.24-37.12Q170.24-36.42 170.43-36.29L170.43-36.29L170.43-6.34L170.43-6.34Q170.24-6.27 170.24-6.14L170.24-6.14L170.24-6.14Q170.24-5.95 170.82-5.95L170.82-5.95L177.15-5.95L177.15-5.95Q177.92-5.95 177.92-6.34L177.92-6.34L177.92-11.14L179.14-11.90L181.25-11.97ZM200.90-5.31L200.90 0L187.20 0L187.20-45.44L200.90-45.44L200.90-41.47L192.90-41.86L192.90-27.33L200.90-25.86L200.90-22.78L191.81-23.17L191.81-4.80L200.90-5.31ZM220.10-36.42L217.73-36.42L216.45-41.41L212.61-40.96L211.65-26.75L220.93-25.09L220.03-3.84L220.03-3.84Q220.03-2.56 218.37-1.28L218.37-1.28L218.37-1.28Q216.70 0 215.30 0L215.30 0L207.81 0L207.23-10.94L211.01-10.94L210.94-5.38L215.42-4.35L216.45-21.38L207.81-23.30L207.81-43.90L210.37-45.44L220.42-45.44L220.10-36.42ZM238.59-36.42L236.22-36.42L234.94-41.41L231.10-40.96L230.14-26.75L239.42-25.09L238.53-3.84L238.53-3.84Q238.53-2.56 236.86-1.28L236.86-1.28L236.86-1.28Q235.20 0 233.79 0L233.79 0L226.30 0L225.73-10.94L229.50-10.94L229.44-5.38L233.92-4.35L234.94-21.38L226.30-23.30L226.30-43.90L228.86-45.44L238.91-45.44L238.59-36.42ZM253.82-23.42L274.18-22.85L274.18-19.71L254.02-19.71L253.82-23.42ZM301.57-4.10L301.57 0L289.47 0L289.47-45.44L295.68-45.44L294.34-5.25L301.57-4.10ZM318.14-45.44L320.77 0L317.95 0L315.65-17.02L310.53-14.59L309.12 0L305.15 0L308.03-45.44L318.14-45.44ZM314.82-42.37L314.82-42.37Q314.82-42.75 314.43-42.75L314.43-42.75L311.68-42.11L311.68-42.11Q311.30-41.92 311.30-41.47L311.30-41.47L311.30-18.94L311.30-18.94Q311.30-18.62 311.68-18.62L311.68-18.62L314.05-19.01L314.05-19.01Q314.43-19.01 314.43-19.39L314.43-19.39L314.82-42.37ZM333.63-23.62L334.72 0L329.79 0L329.79-23.94L323.84-44.80L329.66-44.80L331.84-26.43L332.35-26.56L334.27-45.44L338.75-45.44L335.94-27.58L333.63-23.62ZM356.93-5.31L356.93 0L343.23 0L343.23-45.44L356.93-45.44L356.93-41.47L348.93-41.86L348.93-27.33L356.93-25.86L356.93-22.78L347.84-23.17L347.84-4.80L356.93-5.31ZM364.03-44.74L364.03-44.74Q364.03-45.06 366.66-45.25L366.66-45.25L366.66-45.25Q369.28-45.44 371.84-45.44L371.84-45.44L374.59-45.44L374.59-45.44Q375.62-45.44 376.26-44.67L376.26-44.67L376.26-44.67Q376.90-43.90 376.96-42.69L376.96-42.69L377.60-24.26L374.72-20.48L379.84-1.41L378.62 0L374.85 0L371.58-19.90L368.32-19.58L366.98 0L364.03 0L364.03-44.74ZM368.06-24.38L372.86-24.64L372.86-24.64Q373.25-24.64 373.25-25.02L373.25-25.02L373.25-40.96L372.29-41.92L367.87-41.47L368.06-24.38Z" fill="#ccc"></path></g></g><style>text {
  font-size: 64px;
  font-family: Arial Black;
  dominant-baseline: central;
  text-anchor: middle;
}</style></svg>