<svg width="476.07998046874997px" height="122.39999389648438px" xmlns="http://www.w3.org/2000/svg" viewBox="11.960009765625017 13.800003051757812 476.07998046874997 122.39999389648438" style="background: none;" preserveAspectRatio="xMidYMid"><defs><filter id="editing-extrusion" x="-100%" y="-100%" width="300%" height="300%"><feFlood result="color1" flood-color="#444"></feFlood><feConvolveMatrix order="8,8" divisor="1" kernelMatrix="1 0 0 0 0 0 0 0 0 1 0 0 0 0 0 0 0 0 1 0 0 0 0 0 0 0 0 1 0 0 0 0 0 0 0 0 1 0 0 0 0 0 0 0 0 1 0 0 0 0 0 0 0 0 1 0 0 0 0 0 0 0 0 1" in="SourceAlpha" result="extrude"></feConvolveMatrix><feComposite in="color1" in2="extrude" result="comp-extrude" operator="in"></feComposite><feOffset dx="4" dy="4" in="comp-extrude" result="offset-extrude"></feOffset><feMerge><feMergeNode in="offset-extrude"></feMergeNode><feMergeNode in="SourceGraphic"></feMergeNode></feMerge></filter></defs><g filter="url(#editing-extrusion)"><g transform="translate(81.2650191783905, 97.71999931335449)"><path d="M10.56-45.44L10.56-45.44Q13.63-45.44 15.58-43.46L15.58-43.46L15.58-43.46Q17.54-41.47 17.54-38.40L17.54-38.40L15.62-3.65L11.71 0L3.20 0L3.20-45.44L10.56-45.44ZM12.03-40.83L12.03-40.83Q12.03-41.22 11.26-41.22L11.26-41.22L8.38-41.22L8.38-41.22Q8.19-41.22 8-41.09L8-41.09L8-41.09Q7.81-40.96 7.81-40.83L7.81-40.83L7.81-4.61L8.38-4.22L10.75-4.54L10.75-4.54Q11.33-4.93 11.33-5.38L11.33-5.38L12.03-40.83ZM34.94-45.44L37.57 0L34.75 0L32.45-17.02L27.33-14.59L25.92 0L21.95 0L24.83-45.44L34.94-45.44ZM31.62-42.37L31.62-42.37Q31.62-42.75 31.23-42.75L31.23-42.75L28.48-42.11L28.48-42.11Q28.10-41.92 28.10-41.47L28.10-41.47L28.10-18.94L28.10-18.94Q28.10-18.62 28.48-18.62L28.48-18.62L30.85-19.01L30.85-19.01Q31.23-19.01 31.23-19.39L31.23-19.39L31.62-42.37ZM42.11-45.44L55.36-44.54L55.68-40.51L50.05-40.51L50.05 0L44.61 0L45.89-39.36L41.28-40.90L42.11-45.44ZM72.26-45.44L74.88 0L72.06 0L69.76-17.02L64.64-14.59L63.23 0L59.26 0L62.14-45.44L72.26-45.44ZM68.93-42.37L68.93-42.37Q68.93-42.75 68.54-42.75L68.54-42.75L65.79-42.11L65.79-42.11Q65.41-41.92 65.41-41.47L65.41-41.47L65.41-18.94L65.41-18.94Q65.41-18.62 65.79-18.62L65.79-18.62L68.16-19.01L68.16-19.01Q68.54-19.01 68.54-19.39L68.54-19.39L68.93-42.37ZM77.63-23.42L97.98-22.85L97.98-19.71L77.82-19.71L77.63-23.42ZM114.94-45.44L114.94 0L111.23 0L109.57-17.79L106.30-17.79L103.36 0L100.35 0L103.23-45.44L114.94-45.44ZM110.91-43.01L110.91-43.01Q110.91-43.39 110.53-43.39L110.53-43.39L107.78-43.39L107.78-43.39Q107.39-43.39 107.39-43.01L107.39-43.01L107.39-21.12L107.39-21.12Q107.39-20.80 107.78-20.80L107.78-20.80L110.53-20.80L110.53-20.80Q110.91-20.80 110.91-21.18L110.91-21.18L110.91-43.01ZM137.09-11.97L137.09-1.28L123.46-1.28L120.83-3.97L122.11-41.79L122.11-41.79Q122.18-43.20 123.30-44.32L123.30-44.32L123.30-44.32Q124.42-45.44 126.40-45.44L126.40-45.44L127.23-45.38L137.09-44.10L136.06-33.79L133.12-33.79L133.12-39.74L133.12-39.74Q133.12-40.32 132.35-40.32L132.35-40.32L128.38-40.32L128.38-40.32Q127.17-40.32 126.62-39.33L126.62-39.33L126.62-39.33Q126.08-38.34 126.08-37.12L126.08-37.12L126.08-37.12Q126.08-36.42 126.27-36.29L126.27-36.29L126.27-6.34L126.27-6.34Q126.08-6.27 126.08-6.14L126.08-6.14L126.08-6.14Q126.08-5.95 126.66-5.95L126.66-5.95L132.99-5.95L132.99-5.95Q133.76-5.95 133.76-6.34L133.76-6.34L133.76-11.14L134.98-11.90L137.09-11.97ZM158.46-11.97L158.46-1.28L144.83-1.28L142.21-3.97L143.49-41.79L143.49-41.79Q143.55-43.20 144.67-44.32L144.67-44.32L144.67-44.32Q145.79-45.44 147.78-45.44L147.78-45.44L148.61-45.38L158.46-44.10L157.44-33.79L154.50-33.79L154.50-39.74L154.50-39.74Q154.50-40.32 153.73-40.32L153.73-40.32L149.76-40.32L149.76-40.32Q148.54-40.32 148-39.33L148-39.33L148-39.33Q147.46-38.34 147.46-37.12L147.46-37.12L147.46-37.12Q147.46-36.42 147.65-36.29L147.65-36.29L147.65-6.34L147.65-6.34Q147.46-6.27 147.46-6.14L147.46-6.14L147.46-6.14Q147.46-5.95 148.03-5.95L148.03-5.95L154.37-5.95L154.37-5.95Q155.14-5.95 155.14-6.34L155.14-6.34L155.14-11.14L156.35-11.90L158.46-11.97ZM178.11-5.31L178.11 0L164.42 0L164.42-45.44L178.11-45.44L178.11-41.47L170.11-41.86L170.11-27.33L178.11-25.86L178.11-22.78L169.02-23.17L169.02-4.80L178.11-5.31ZM197.31-36.42L194.94-36.42L193.66-41.41L189.82-40.96L188.86-26.75L198.14-25.09L197.25-3.84L197.25-3.84Q197.25-2.56 195.58-1.28L195.58-1.28L195.58-1.28Q193.92 0 192.51 0L192.51 0L185.02 0L184.45-10.94L188.22-10.94L188.16-5.38L192.64-4.35L193.66-21.38L185.02-23.30L185.02-43.90L187.58-45.44L197.63-45.44L197.31-36.42ZM215.81-36.42L213.44-36.42L212.16-41.41L208.32-40.96L207.36-26.75L216.64-25.09L215.74-3.84L215.74-3.84Q215.74-2.56 214.08-1.28L214.08-1.28L214.08-1.28Q212.42 0 211.01 0L211.01 0L203.52 0L202.94-10.94L206.72-10.94L206.66-5.38L211.14-4.35L212.16-21.38L203.52-23.30L203.52-43.90L206.08-45.44L216.13-45.44L215.81-36.42ZM219.65-23.42L240.00-22.85L240.00-19.71L219.84-19.71L219.65-23.42ZM256.00-4.10L256.00 0L243.90 0L243.90-45.44L250.11-45.44L248.77-5.25L256.00-4.10ZM272.58-45.44L275.20 0L272.38 0L270.08-17.02L264.96-14.59L263.55 0L259.58 0L262.46-45.44L272.58-45.44ZM269.25-42.37L269.25-42.37Q269.25-42.75 268.86-42.75L268.86-42.75L266.11-42.11L266.11-42.11Q265.73-41.92 265.73-41.47L265.73-41.47L265.73-18.94L265.73-18.94Q265.73-18.62 266.11-18.62L266.11-18.62L268.48-19.01L268.48-19.01Q268.86-19.01 268.86-19.39L268.86-19.39L269.25-42.37ZM288.06-23.62L289.15 0L284.22 0L284.22-23.94L278.27-44.80L284.10-44.80L286.27-26.43L286.78-26.56L288.70-45.44L293.18-45.44L290.37-27.58L288.06-23.62ZM311.36-5.31L311.36 0L297.66 0L297.66-45.44L311.36-45.44L311.36-41.47L303.36-41.86L303.36-27.33L311.36-25.86L311.36-22.78L302.27-23.17L302.27-4.80L311.36-5.31ZM318.46-44.74L318.46-44.74Q318.46-45.06 321.09-45.25L321.09-45.25L321.09-45.25Q323.71-45.44 326.27-45.44L326.27-45.44L329.02-45.44L329.02-45.44Q330.05-45.44 330.69-44.67L330.69-44.67L330.69-44.67Q331.33-43.90 331.39-42.69L331.39-42.69L332.03-24.26L329.15-20.48L334.27-1.41L333.06 0L329.28 0L326.02-19.90L322.75-19.58L321.41 0L318.46 0L318.46-44.74ZM322.50-24.38L327.30-24.64L327.30-24.64Q327.68-24.64 327.68-25.02L327.68-25.02L327.68-40.96L326.72-41.92L322.30-41.47L322.50-24.38Z" fill="#ccc"></path></g></g><style>text {
  font-size: 64px;
  font-family: Arial Black;
  dominant-baseline: central;
  text-anchor: middle;
}</style></svg>