<svg width="232.0399963378906px" height="122.39999389648438px" xmlns="http://www.w3.org/2000/svg" viewBox="133.9800018310547 13.800003051757812 232.0399963378906 122.39999389648438" style="background: none;" preserveAspectRatio="xMidYMid"><defs><filter id="editing-extrusion" x="-100%" y="-100%" width="300%" height="300%"><feFlood result="color1" flood-color="#444"></feFlood><feConvolveMatrix order="8,8" divisor="1" kernelMatrix="1 0 0 0 0 0 0 0 0 1 0 0 0 0 0 0 0 0 1 0 0 0 0 0 0 0 0 1 0 0 0 0 0 0 0 0 1 0 0 0 0 0 0 0 0 1 0 0 0 0 0 0 0 0 1 0 0 0 0 0 0 0 0 1" in="SourceAlpha" result="extrude"></feConvolveMatrix><feComposite in="color1" in2="extrude" result="comp-extrude" operator="in"></feComposite><feOffset dx="4" dy="4" in="comp-extrude" result="offset-extrude"></feOffset><feMerge><feMergeNode in="offset-extrude"></feMergeNode><feMergeNode in="SourceGraphic"></feMergeNode></feMerge></filter></defs><g filter="url(#editing-extrusion)"><g transform="translate(171.24999690055847, 97.71999931335449)"><path d="M10.56-45.44L10.56-45.44Q13.63-45.44 15.58-43.46L15.58-43.46L15.58-43.46Q17.54-41.47 17.54-38.40L17.54-38.40L15.62-3.65L11.71 0L3.20 0L3.20-45.44L10.56-45.44ZM12.03-40.83L12.03-40.83Q12.03-41.22 11.26-41.22L11.26-41.22L8.38-41.22L8.38-41.22Q8.19-41.22 8-41.09L8-41.09L8-41.09Q7.81-40.96 7.81-40.83L7.81-40.83L7.81-4.61L8.38-4.22L10.75-4.54L10.75-4.54Q11.33-4.93 11.33-5.38L11.33-5.38L12.03-40.83ZM34.94-45.44L37.57 0L34.75 0L32.45-17.02L27.33-14.59L25.92 0L21.95 0L24.83-45.44L34.94-45.44ZM31.62-42.37L31.62-42.37Q31.62-42.75 31.23-42.75L31.23-42.75L28.48-42.11L28.48-42.11Q28.10-41.92 28.10-41.47L28.10-41.47L28.10-18.94L28.10-18.94Q28.10-18.62 28.48-18.62L28.48-18.62L30.85-19.01L30.85-19.01Q31.23-19.01 31.23-19.39L31.23-19.39L31.62-42.37ZM42.11-45.44L55.36-44.54L55.68-40.51L50.05-40.51L50.05 0L44.61 0L45.89-39.36L41.28-40.90L42.11-45.44ZM72.26-45.44L74.88 0L72.06 0L69.76-17.02L64.64-14.59L63.23 0L59.26 0L62.14-45.44L72.26-45.44ZM68.93-42.37L68.93-42.37Q68.93-42.75 68.54-42.75L68.54-42.75L65.79-42.11L65.79-42.11Q65.41-41.92 65.41-41.47L65.41-41.47L65.41-18.94L65.41-18.94Q65.41-18.62 65.79-18.62L65.79-18.62L68.16-19.01L68.16-19.01Q68.54-19.01 68.54-19.39L68.54-19.39L68.93-42.37ZM92.35-23.30L92.35-23.30Q93.63-22.98 94.94-21.57L94.94-21.57L94.94-21.57Q96.26-20.16 96.26-18.05L96.26-18.05L94.98-1.92L94.98-1.92Q94.98-0.77 92.83-0.38L92.83-0.38L92.83-0.38Q90.69 0 88.90 0L88.90 0L80.19 0L80.19-45.44L88.70-45.44L88.70-45.44Q90.94-45.44 92.96-44.35L92.96-44.35L92.96-44.35Q94.98-43.26 94.98-41.47L94.98-41.47L94.98-28.61L92.35-23.30ZM84.22-25.92L84.22-25.92Q84.22-25.41 84.99-25.41L84.99-25.41L89.60-25.41L89.60-25.41Q89.79-25.41 90.05-25.66L90.05-25.66L90.05-25.66Q90.11-25.73 90.18-25.98L90.18-25.98L90.75-41.28L90.75-41.28Q90.75-41.54 89.86-41.54L89.86-41.54L84.22-41.28L84.22-25.92ZM85.70-3.58L85.70-3.58Q90.94-5.50 90.94-7.04L90.94-7.04L90.94-7.04Q90.94-7.42 90.82-7.42L90.82-7.42L90.82-20.54L90.82-20.54Q91.01-20.67 91.01-20.74L91.01-20.74L91.01-20.74Q91.01-20.93 90.56-20.93L90.56-20.93L85.70-21.57L85.70-21.57Q85.50-21.57 85.28-21.44L85.28-21.44L85.28-21.44Q85.06-21.31 84.99-21.18L84.99-21.18L84.99-3.78L85.70-3.58ZM113.86-45.44L116.48 0L113.66 0L111.36-17.02L106.24-14.59L104.83 0L100.86 0L103.74-45.44L113.86-45.44ZM110.53-42.37L110.53-42.37Q110.53-42.75 110.14-42.75L110.14-42.75L107.39-42.11L107.39-42.11Q107.01-41.92 107.01-41.47L107.01-41.47L107.01-18.94L107.01-18.94Q107.01-18.62 107.39-18.62L107.39-18.62L109.76-19.01L109.76-19.01Q110.14-19.01 110.14-19.39L110.14-19.39L110.53-42.37ZM133.89-36.42L131.52-36.42L130.24-41.41L126.40-40.96L125.44-26.75L134.72-25.09L133.82-3.84L133.82-3.84Q133.82-2.56 132.16-1.28L132.16-1.28L132.16-1.28Q130.50 0 129.09 0L129.09 0L121.60 0L121.02-10.94L124.80-10.94L124.74-5.38L129.22-4.35L130.24-21.38L121.60-23.30L121.60-43.90L124.16-45.44L134.21-45.44L133.89-36.42ZM154.30-5.31L154.30 0L140.61 0L140.61-45.44L154.30-45.44L154.30-41.47L146.30-41.86L146.30-27.33L154.30-25.86L154.30-22.78L145.22-23.17L145.22-4.80L154.30-5.31Z" fill="#ccc"></path></g></g><style>text {
  font-size: 64px;
  font-family: Arial Black;
  dominant-baseline: central;
  text-anchor: middle;
}</style></svg>