<svg width="448.1199951171875px" height="122.39999389648438px" xmlns="http://www.w3.org/2000/svg" viewBox="25.94000244140625 13.800003051757812 448.1199951171875 122.39999389648438" style="background: none;" preserveAspectRatio="xMidYMid"><defs><filter id="editing-extrusion" x="-100%" y="-100%" width="300%" height="300%"><feFlood result="color1" flood-color="#444"></feFlood><feConvolveMatrix order="8,8" divisor="1" kernelMatrix="1 0 0 0 0 0 0 0 0 1 0 0 0 0 0 0 0 0 1 0 0 0 0 0 0 0 0 1 0 0 0 0 0 0 0 0 1 0 0 0 0 0 0 0 0 1 0 0 0 0 0 0 0 0 1 0 0 0 0 0 0 0 0 1" in="SourceAlpha" result="extrude"></feConvolveMatrix><feComposite in="color1" in2="extrude" result="comp-extrude" operator="in"></feComposite><feOffset dx="4" dy="4" in="comp-extrude" result="offset-extrude"></feOffset><feMerge><feMergeNode in="offset-extrude"></feMergeNode><feMergeNode in="SourceGraphic"></feMergeNode></feMerge></filter></defs><g filter="url(#editing-extrusion)"><g transform="translate(91.56999659538269, 97.71999931335449)"><path d="M10.56-45.44L10.56-45.44Q13.63-45.44 15.58-43.46L15.58-43.46L15.58-43.46Q17.54-41.47 17.54-38.40L17.54-38.40L15.62-3.65L11.71 0L3.20 0L3.20-45.44L10.56-45.44ZM12.03-40.83L12.03-40.83Q12.03-41.22 11.26-41.22L11.26-41.22L8.38-41.22L8.38-41.22Q8.19-41.22 8-41.09L8-41.09L8-41.09Q7.81-40.96 7.81-40.83L7.81-40.83L7.81-4.61L8.38-4.22L10.75-4.54L10.75-4.54Q11.33-4.93 11.33-5.38L11.33-5.38L12.03-40.83ZM34.94-45.44L37.57 0L34.75 0L32.45-17.02L27.33-14.59L25.92 0L21.95 0L24.83-45.44L34.94-45.44ZM31.62-42.37L31.62-42.37Q31.62-42.75 31.23-42.75L31.23-42.75L28.48-42.11L28.48-42.11Q28.10-41.92 28.10-41.47L28.10-41.47L28.10-18.94L28.10-18.94Q28.10-18.62 28.48-18.62L28.48-18.62L30.85-19.01L30.85-19.01Q31.23-19.01 31.23-19.39L31.23-19.39L31.62-42.37ZM42.11-45.44L55.36-44.54L55.68-40.51L50.05-40.51L50.05 0L44.61 0L45.89-39.36L41.28-40.90L42.11-45.44ZM72.26-45.44L74.88 0L72.06 0L69.76-17.02L64.64-14.59L63.23 0L59.26 0L62.14-45.44L72.26-45.44ZM68.93-42.37L68.93-42.37Q68.93-42.75 68.54-42.75L68.54-42.75L65.79-42.11L65.79-42.11Q65.41-41.92 65.41-41.47L65.41-41.47L65.41-18.94L65.41-18.94Q65.41-18.62 65.79-18.62L65.79-18.62L68.16-19.01L68.16-19.01Q68.54-19.01 68.54-19.39L68.54-19.39L68.93-42.37ZM104.64-45.44L104.64 0L100.93 0L99.26-17.79L96-17.79L93.06 0L90.05 0L92.93-45.44L104.64-45.44ZM100.61-43.01L100.61-43.01Q100.61-43.39 100.22-43.39L100.22-43.39L97.47-43.39L97.47-43.39Q97.09-43.39 97.09-43.01L97.09-43.01L97.09-21.12L97.09-21.12Q97.09-20.80 97.47-20.80L97.47-20.80L100.22-20.80L100.22-20.80Q100.61-20.80 100.61-21.18L100.61-21.18L100.61-43.01ZM126.78-11.97L126.78-1.28L113.15-1.28L110.53-3.97L111.81-41.79L111.81-41.79Q111.87-43.20 112.99-44.32L112.99-44.32L112.99-44.32Q114.11-45.44 116.10-45.44L116.10-45.44L116.93-45.38L126.78-44.10L125.76-33.79L122.82-33.79L122.82-39.74L122.82-39.74Q122.82-40.32 122.05-40.32L122.05-40.32L118.08-40.32L118.08-40.32Q116.86-40.32 116.32-39.33L116.32-39.33L116.32-39.33Q115.78-38.34 115.78-37.12L115.78-37.12L115.78-37.12Q115.78-36.42 115.97-36.29L115.97-36.29L115.97-6.34L115.97-6.34Q115.78-6.27 115.78-6.14L115.78-6.14L115.78-6.14Q115.78-5.95 116.35-5.95L116.35-5.95L122.69-5.95L122.69-5.95Q123.46-5.95 123.46-6.34L123.46-6.34L123.46-11.14L124.67-11.90L126.78-11.97ZM148.16-11.97L148.16-1.28L134.53-1.28L131.90-3.97L133.18-41.79L133.18-41.79Q133.25-43.20 134.37-44.32L134.37-44.32L134.37-44.32Q135.49-45.44 137.47-45.44L137.47-45.44L138.30-45.38L148.16-44.10L147.14-33.79L144.19-33.79L144.19-39.74L144.19-39.74Q144.19-40.32 143.42-40.32L143.42-40.32L139.46-40.32L139.46-40.32Q138.24-40.32 137.70-39.33L137.70-39.33L137.70-39.33Q137.15-38.34 137.15-37.12L137.15-37.12L137.15-37.12Q137.15-36.42 137.34-36.29L137.34-36.29L137.34-6.34L137.34-6.34Q137.15-6.27 137.15-6.14L137.15-6.14L137.15-6.14Q137.15-5.95 137.73-5.95L137.73-5.95L144.06-5.95L144.06-5.95Q144.83-5.95 144.83-6.34L144.83-6.34L144.83-11.14L146.05-11.90L148.16-11.97ZM167.81-5.31L167.81 0L154.11 0L154.11-45.44L167.81-45.44L167.81-41.47L159.81-41.86L159.81-27.33L167.81-25.86L167.81-22.78L158.72-23.17L158.72-4.80L167.81-5.31ZM187.01-36.42L184.64-36.42L183.36-41.41L179.52-40.96L178.56-26.75L187.84-25.09L186.94-3.84L186.94-3.84Q186.94-2.56 185.28-1.28L185.28-1.28L185.28-1.28Q183.62 0 182.21 0L182.21 0L174.72 0L174.14-10.94L177.92-10.94L177.86-5.38L182.34-4.35L183.36-21.38L174.72-23.30L174.72-43.90L177.28-45.44L187.33-45.44L187.01-36.42ZM205.50-36.42L203.14-36.42L201.86-41.41L198.02-40.96L197.06-26.75L206.34-25.09L205.44-3.84L205.44-3.84Q205.44-2.56 203.78-1.28L203.78-1.28L203.78-1.28Q202.11 0 200.70 0L200.70 0L193.22 0L192.64-10.94L196.42-10.94L196.35-5.38L200.83-4.35L201.86-21.38L193.22-23.30L193.22-43.90L195.78-45.44L205.82-45.44L205.50-36.42ZM235.39-4.10L235.39 0L223.30 0L223.30-45.44L229.50-45.44L228.16-5.25L235.39-4.10ZM251.97-45.44L254.59 0L251.78 0L249.47-17.02L244.35-14.59L242.94 0L238.98 0L241.86-45.44L251.97-45.44ZM248.64-42.37L248.64-42.37Q248.64-42.75 248.26-42.75L248.26-42.75L245.50-42.11L245.50-42.11Q245.12-41.92 245.12-41.47L245.12-41.47L245.12-18.94L245.12-18.94Q245.12-18.62 245.50-18.62L245.50-18.62L247.87-19.01L247.87-19.01Q248.26-19.01 248.26-19.39L248.26-19.39L248.64-42.37ZM267.46-23.62L268.54 0L263.62 0L263.62-23.94L257.66-44.80L263.49-44.80L265.66-26.43L266.18-26.56L268.10-45.44L272.58-45.44L269.76-27.58L267.46-23.62ZM290.75-5.31L290.75 0L277.06 0L277.06-45.44L290.75-45.44L290.75-41.47L282.75-41.86L282.75-27.33L290.75-25.86L290.75-22.78L281.66-23.17L281.66-4.80L290.75-5.31ZM297.86-44.74L297.86-44.74Q297.86-45.06 300.48-45.25L300.48-45.25L300.48-45.25Q303.10-45.44 305.66-45.44L305.66-45.44L308.42-45.44L308.42-45.44Q309.44-45.44 310.08-44.67L310.08-44.67L310.08-44.67Q310.72-43.90 310.78-42.69L310.78-42.69L311.42-24.26L308.54-20.48L313.66-1.41L312.45 0L308.67 0L305.41-19.90L302.14-19.58L300.80 0L297.86 0L297.86-44.74ZM301.89-24.38L306.69-24.64L306.69-24.64Q307.07-24.64 307.07-25.02L307.07-25.02L307.07-40.96L306.11-41.92L301.70-41.47L301.89-24.38Z" fill="#ccc"></path></g></g><style>text {
  font-size: 64px;
  font-family: Arial Black;
  dominant-baseline: central;
  text-anchor: middle;
}</style></svg>