<svg width="288.88001708984376px" height="122.39999389648438px" xmlns="http://www.w3.org/2000/svg" viewBox="105.55999145507812 13.800003051757812 288.88001708984376 122.39999389648438" style="background: none;" preserveAspectRatio="xMidYMid"><defs><filter id="editing-extrusion" x="-100%" y="-100%" width="300%" height="300%"><feFlood result="color1" flood-color="#444"></feFlood><feConvolveMatrix order="8,8" divisor="1" kernelMatrix="1 0 0 0 0 0 0 0 0 1 0 0 0 0 0 0 0 0 1 0 0 0 0 0 0 0 0 1 0 0 0 0 0 0 0 0 1 0 0 0 0 0 0 0 0 1 0 0 0 0 0 0 0 0 1 0 0 0 0 0 0 0 0 1" in="SourceAlpha" result="extrude"></feConvolveMatrix><feComposite in="color1" in2="extrude" result="comp-extrude" operator="in"></feComposite><feOffset dx="4" dy="4" in="comp-extrude" result="offset-extrude"></feOffset><feMerge><feMergeNode in="offset-extrude"></feMergeNode><feMergeNode in="SourceGraphic"></feMergeNode></feMerge></filter></defs><g filter="url(#editing-extrusion)"><g transform="translate(149.03999018669128, 98.35999870300293)"><path d="M10.56-45.44L10.56-45.44Q13.63-45.44 15.58-43.46L15.58-43.46L15.58-43.46Q17.54-41.47 17.54-38.40L17.54-38.40L15.62-3.65L11.71 0L3.20 0L3.20-45.44L10.56-45.44ZM12.03-40.83L12.03-40.83Q12.03-41.22 11.26-41.22L11.26-41.22L8.38-41.22L8.38-41.22Q8.19-41.22 8-41.09L8-41.09L8-41.09Q7.81-40.96 7.81-40.83L7.81-40.83L7.81-4.61L8.38-4.22L10.75-4.54L10.75-4.54Q11.33-4.93 11.33-5.38L11.33-5.38L12.03-40.83ZM37.18-5.31L37.18 0L23.49 0L23.49-45.44L37.18-45.44L37.18-41.47L29.18-41.86L29.18-27.33L37.18-25.86L37.18-22.78L28.10-23.17L28.10-4.80L37.18-5.31ZM44.80-43.97L44.80-43.97Q44.80-44.61 47.17-45.02L47.17-45.02L47.17-45.02Q49.54-45.44 51.78-45.44L51.78-45.44L54.53-45.44L54.53-45.44Q55.36-45.44 56.10-45.09L56.10-45.09L56.10-45.09Q56.83-44.74 56.83-44.10L56.83-44.10L57.54-24.26L55.30-20.29L48.26-19.58L47.74 0L43.33 0L44.80-43.97ZM48.64-24.45L52.80-24.64L52.80-24.64Q53.18-24.64 53.18-25.02L53.18-25.02L53.18-41.60L52.22-42.56L48.64-42.11L48.64-24.45ZM75.90-4.42L75.90 0L62.98 0L62.98-45.44L67.71-45.44L67.71-6.72L68.67-5.25L75.90-4.42ZM94.46 0L85.95 0L85.95 0Q83.33 0 82.30-0.83L82.30-0.83L82.30-0.83Q81.28-1.66 81.28-3.58L81.28-3.58L81.28-43.90L81.28-43.90Q82.69-44.67 84.96-45.06L84.96-45.06L84.96-45.06Q87.23-45.44 91.01-45.44L91.01-45.44L91.01-45.44Q92.74-45.44 93.82-44.58L93.82-44.58L93.82-44.58Q94.91-43.71 94.91-42.37L94.91-42.37L94.46 0ZM85.38-4.03L89.92-3.65L90.50-4.22L90.88-40.77L90.88-40.77Q90.88-41.09 90.30-41.15L90.30-41.15L86.34-41.34L85.76-40.96L85.38-4.03ZM108.86-23.62L109.95 0L105.02 0L105.02-23.94L99.07-44.80L104.90-44.80L107.07-26.43L107.58-26.56L109.50-45.44L113.98-45.44L111.17-27.58L108.86-23.62ZM121.47 0L118.14 0L118.14-45.44L122.75-45.44L127.42-17.66L127.94-17.66L132.29-45.44L136.00-45.44L137.47 0L133.25 0L133.25-34.24L132.80-34.24L128.38-10.05L126.27-9.60L121.73-37.70L121.47-37.70L121.47 0ZM157.38-5.31L157.38 0L143.68 0L143.68-45.44L157.38-45.44L157.38-41.47L149.38-41.86L149.38-27.33L157.38-25.86L157.38-22.78L148.29-23.17L148.29-4.80L157.38-5.31ZM180.16-45.44L178.88 1.28L174.53 1.28L168.26-35.46L168.00-35.46L166.78 1.28L163.52 1.28L165.57-45.44L169.47-45.44L175.94-8.38L176.38-8.38L176.38-45.44L180.16-45.44ZM185.15-45.44L198.40-44.54L198.72-40.51L193.09-40.51L193.09 0L187.65 0L188.93-39.36L184.32-40.90L185.15-45.44Z" fill="#ccc"></path></g></g><style>text {
  font-size: 64px;
  font-family: Arial Black;
  dominant-baseline: central;
  text-anchor: middle;
}</style></svg>