<svg width="180.07999267578126px" height="122.39999389648438px" xmlns="http://www.w3.org/2000/svg" viewBox="159.9600036621094 13.800003051757812 180.07999267578126 122.39999389648438" style="background: none;" preserveAspectRatio="xMidYMid"><defs><filter id="editing-extrusion" x="-100%" y="-100%" width="300%" height="300%"><feFlood result="color1" flood-color="#444"></feFlood><feConvolveMatrix order="8,8" divisor="1" kernelMatrix="1 0 0 0 0 0 0 0 0 1 0 0 0 0 0 0 0 0 1 0 0 0 0 0 0 0 0 1 0 0 0 0 0 0 0 0 1 0 0 0 0 0 0 0 0 1 0 0 0 0 0 0 0 0 1 0 0 0 0 0 0 0 0 1" in="SourceAlpha" result="extrude"></feConvolveMatrix><feComposite in="color1" in2="extrude" result="comp-extrude" operator="in"></feComposite><feOffset dx="4" dy="4" in="comp-extrude" result="offset-extrude"></feOffset><feMerge><feMergeNode in="offset-extrude"></feMergeNode><feMergeNode in="SourceGraphic"></feMergeNode></feMerge></filter></defs><g filter="url(#editing-extrusion)"><g transform="translate(192.17499613761902, 98.35999870300293)"><path d="M10.56-45.44L10.56-45.44Q13.63-45.44 15.58-43.46L15.58-43.46L15.58-43.46Q17.54-41.47 17.54-38.40L17.54-38.40L15.62-3.65L11.71 0L3.20 0L3.20-45.44L10.56-45.44ZM12.03-40.83L12.03-40.83Q12.03-41.22 11.26-41.22L11.26-41.22L8.38-41.22L8.38-41.22Q8.19-41.22 8-41.09L8-41.09L8-41.09Q7.81-40.96 7.81-40.83L7.81-40.83L7.81-4.61L8.38-4.22L10.75-4.54L10.75-4.54Q11.33-4.93 11.33-5.38L11.33-5.38L12.03-40.83ZM37.18-5.31L37.18 0L23.49 0L23.49-45.44L37.18-45.44L37.18-41.47L29.18-41.86L29.18-27.33L37.18-25.86L37.18-22.78L28.10-23.17L28.10-4.80L37.18-5.31ZM56.38-36.42L54.02-36.42L52.74-41.41L48.90-40.96L47.94-26.75L57.22-25.09L56.32-3.84L56.32-3.84Q56.32-2.56 54.66-1.28L54.66-1.28L54.66-1.28Q52.99 0 51.58 0L51.58 0L44.10 0L43.52-10.94L47.30-10.94L47.23-5.38L51.71-4.35L52.74-21.38L44.10-23.30L44.10-43.90L46.66-45.44L56.70-45.44L56.38-36.42ZM66.82-45.44L68.16-1.28L62.78-1.28L62.78-45.44L66.82-45.44ZM91.33-18.82L88.83-17.73L88.83-3.71L88.83-3.71Q88.83-2.05 87.49-1.02L87.49-1.02L87.49-1.02Q86.14 0 84.35 0L84.35 0L74.75 0L73.34-41.98L73.34-41.98Q73.41-43.52 74.27-44.48L74.27-44.48L74.27-44.48Q75.14-45.44 76.48-45.44L76.48-45.44L89.28-45.44L89.28-42.75L88.13-35.78L85.31-35.78L85.31-41.92L78.14-40.32L79.23-7.17L79.23-7.17Q79.23-6.72 79.68-6.37L79.68-6.37L79.68-6.37Q80.13-6.02 80.58-6.02L80.58-6.02L83.52-6.02L83.52-6.02Q83.97-6.02 84.38-6.24L84.38-6.24L84.38-6.24Q84.80-6.46 84.80-6.78L84.80-6.78L84.80-21.95L91.33-21.31L91.33-18.82ZM112.45-45.44L111.17 1.28L106.82 1.28L100.54-35.46L100.29-35.46L99.07 1.28L95.81 1.28L97.86-45.44L101.76-45.44L108.22-8.38L108.67-8.38L108.67-45.44L112.45-45.44Z" fill="#ccc"></path></g></g><style>text {
  font-size: 64px;
  font-family: Arial Black;
  dominant-baseline: central;
  text-anchor: middle;
}</style></svg>