<svg width="518.7599975585938px" height="122.39999389648438px" xmlns="http://www.w3.org/2000/svg" viewBox="-9.379998779296898 13.800003051757812 518.7599975585938 122.39999389648438" style="background: none;" preserveAspectRatio="xMidYMid"><defs><filter id="editing-extrusion" x="-100%" y="-100%" width="300%" height="300%"><feFlood result="color1" flood-color="#444"></feFlood><feConvolveMatrix order="8,8" divisor="1" kernelMatrix="1 0 0 0 0 0 0 0 0 1 0 0 0 0 0 0 0 0 1 0 0 0 0 0 0 0 0 1 0 0 0 0 0 0 0 0 1 0 0 0 0 0 0 0 0 1 0 0 0 0 0 0 0 0 1 0 0 0 0 0 0 0 0 1" in="SourceAlpha" result="extrude"></feConvolveMatrix><feComposite in="color1" in2="extrude" result="comp-extrude" operator="in"></feComposite><feOffset dx="4" dy="4" in="comp-extrude" result="offset-extrude"></feOffset><feMerge><feMergeNode in="offset-extrude"></feMergeNode><feMergeNode in="SourceGraphic"></feMergeNode></feMerge></filter></defs><g filter="url(#editing-extrusion)"><g transform="translate(62.930012464523315, 98.35999870300293)"><path d="M10.56-45.44L10.56-45.44Q13.63-45.44 15.58-43.46L15.58-43.46L15.58-43.46Q17.54-41.47 17.54-38.40L17.54-38.40L15.62-3.65L11.71 0L3.20 0L3.20-45.44L10.56-45.44ZM12.03-40.83L12.03-40.83Q12.03-41.22 11.26-41.22L11.26-41.22L8.38-41.22L8.38-41.22Q8.19-41.22 8-41.09L8-41.09L8-41.09Q7.81-40.96 7.81-40.83L7.81-40.83L7.81-4.61L8.38-4.22L10.75-4.54L10.75-4.54Q11.33-4.93 11.33-5.38L11.33-5.38L12.03-40.83ZM37.18-5.31L37.18 0L23.49 0L23.49-45.44L37.18-45.44L37.18-41.47L29.18-41.86L29.18-27.33L37.18-25.86L37.18-22.78L28.10-23.17L28.10-4.80L37.18-5.31ZM52.67 0L45.95 0L42.18-45.44L46.21-45.44L50.05-1.60L50.37-1.60L54.66-44.80L58.88-44.80L52.67 0ZM76.29-5.31L76.29 0L62.59 0L62.59-45.44L76.29-45.44L76.29-41.47L68.29-41.86L68.29-27.33L76.29-25.86L76.29-22.78L67.20-23.17L67.20-4.80L76.29-5.31ZM96.32-4.42L96.32 0L83.39 0L83.39-45.44L88.13-45.44L88.13-6.72L89.09-5.25L96.32-4.42ZM114.88 0L106.37 0L106.37 0Q103.74 0 102.72-0.83L102.72-0.83L102.72-0.83Q101.70-1.66 101.70-3.58L101.70-3.58L101.70-43.90L101.70-43.90Q103.10-44.67 105.38-45.06L105.38-45.06L105.38-45.06Q107.65-45.44 111.42-45.44L111.42-45.44L111.42-45.44Q113.15-45.44 114.24-44.58L114.24-44.58L114.24-44.58Q115.33-43.71 115.33-42.37L115.33-42.37L114.88 0ZM105.79-4.03L110.34-3.65L110.91-4.22L111.30-40.77L111.30-40.77Q111.30-41.09 110.72-41.15L110.72-41.15L106.75-41.34L106.18-40.96L105.79-4.03ZM122.24-43.97L122.24-43.97Q122.24-44.61 124.61-45.02L124.61-45.02L124.61-45.02Q126.98-45.44 129.22-45.44L129.22-45.44L131.97-45.44L131.97-45.44Q132.80-45.44 133.54-45.09L133.54-45.09L133.54-45.09Q134.27-44.74 134.27-44.10L134.27-44.10L134.98-24.26L132.74-20.29L125.70-19.58L125.18 0L120.77 0L122.24-43.97ZM126.08-24.45L130.24-24.64L130.24-24.64Q130.62-24.64 130.62-25.02L130.62-25.02L130.62-41.60L129.66-42.56L126.08-42.11L126.08-24.45ZM143.74 0L140.42 0L140.42-45.44L145.02-45.44L149.70-17.66L150.21-17.66L154.56-45.44L158.27-45.44L159.74 0L155.52 0L155.52-34.24L155.07-34.24L150.66-10.05L148.54-9.60L144-37.70L143.74-37.70L143.74 0ZM179.65-5.31L179.65 0L165.95 0L165.95-45.44L179.65-45.44L179.65-41.47L171.65-41.86L171.65-27.33L179.65-25.86L179.65-22.78L170.56-23.17L170.56-4.80L179.65-5.31ZM202.43-45.44L201.15 1.28L196.80 1.28L190.53-35.46L190.27-35.46L189.06 1.28L185.79 1.28L187.84-45.44L191.74-45.44L198.21-8.38L198.66-8.38L198.66-45.44L202.43-45.44ZM207.42-45.44L220.67-44.54L220.99-40.51L215.36-40.51L215.36 0L209.92 0L211.20-39.36L206.59-40.90L207.42-45.44ZM245.12-45.44L245.12-45.44Q247.55-45.44 249.22-44.51L249.22-44.51L249.22-44.51Q250.88-43.58 250.88-42.30L250.88-42.30L250.88-24.26L250.88-24.26Q250.88-23.55 250.40-22.50L250.40-22.50L250.40-22.50Q249.92-21.44 248.45-20.51L248.45-20.51L248.45-20.51Q246.98-19.58 244.29-19.58L244.29-19.58L240.90-19.58L240.90 0L237.18 0L237.18-42.82L235.78-43.58L235.78-45.44L245.12-45.44ZM241.79-23.87L241.79-23.87Q241.79-23.68 242.02-23.52L242.02-23.52L242.02-23.52Q242.24-23.36 242.56-23.36L242.56-23.36L245.31-24L245.31-24Q245.70-24 245.70-24.38L245.70-24.38L246.34-40.51L246.34-40.51Q246.27-41.34 245.63-41.95L245.63-41.95L245.63-41.95Q244.99-42.56 243.65-42.56L243.65-42.56L242.56-42.56L242.56-42.56Q241.79-42.56 241.79-42.11L241.79-42.11L241.79-23.87ZM256.64-44.74L256.64-44.74Q256.64-45.06 259.26-45.25L259.26-45.25L259.26-45.25Q261.89-45.44 264.45-45.44L264.45-45.44L267.20-45.44L267.20-45.44Q268.22-45.44 268.86-44.67L268.86-44.67L268.86-44.67Q269.50-43.90 269.57-42.69L269.57-42.69L270.21-24.26L267.33-20.48L272.45-1.41L271.23 0L267.46 0L264.19-19.90L260.93-19.58L259.58 0L256.64 0L256.64-44.74ZM260.67-24.38L265.47-24.64L265.47-24.64Q265.86-24.64 265.86-25.02L265.86-25.02L265.86-40.96L264.90-41.92L260.48-41.47L260.67-24.38ZM290.18 0L281.66 0L281.66 0Q279.04 0 278.02-0.83L278.02-0.83L278.02-0.83Q276.99-1.66 276.99-3.58L276.99-3.58L276.99-43.90L276.99-43.90Q278.40-44.67 280.67-45.06L280.67-45.06L280.67-45.06Q282.94-45.44 286.72-45.44L286.72-45.44L286.72-45.44Q288.45-45.44 289.54-44.58L289.54-44.58L289.54-44.58Q290.62-43.71 290.62-42.37L290.62-42.37L290.18 0ZM281.09-4.03L285.63-3.65L286.21-4.22L286.59-40.77L286.59-40.77Q286.59-41.09 286.02-41.15L286.02-41.15L282.05-41.34L281.47-40.96L281.09-4.03ZM312.77-11.97L312.77-1.28L299.14-1.28L296.51-3.97L297.79-41.79L297.79-41.79Q297.86-43.20 298.98-44.32L298.98-44.32L298.98-44.32Q300.10-45.44 302.08-45.44L302.08-45.44L302.91-45.38L312.77-44.10L311.74-33.79L308.80-33.79L308.80-39.74L308.80-39.74Q308.80-40.32 308.03-40.32L308.03-40.32L304.06-40.32L304.06-40.32Q302.85-40.32 302.30-39.33L302.30-39.33L302.30-39.33Q301.76-38.34 301.76-37.12L301.76-37.12L301.76-37.12Q301.76-36.42 301.95-36.29L301.95-36.29L301.95-6.34L301.95-6.34Q301.76-6.27 301.76-6.14L301.76-6.14L301.76-6.14Q301.76-5.95 302.34-5.95L302.34-5.95L308.67-5.95L308.67-5.95Q309.44-5.95 309.44-6.34L309.44-6.34L309.44-11.14L310.66-11.90L312.77-11.97ZM332.42-5.31L332.42 0L318.72 0L318.72-45.44L332.42-45.44L332.42-41.47L324.42-41.86L324.42-27.33L332.42-25.86L332.42-22.78L323.33-23.17L323.33-4.80L332.42-5.31ZM351.62-36.42L349.25-36.42L347.97-41.41L344.13-40.96L343.17-26.75L352.45-25.09L351.55-3.84L351.55-3.84Q351.55-2.56 349.89-1.28L349.89-1.28L349.89-1.28Q348.22 0 346.82 0L346.82 0L339.33 0L338.75-10.94L342.53-10.94L342.46-5.38L346.94-4.35L347.97-21.38L339.33-23.30L339.33-43.90L341.89-45.44L351.94-45.44L351.62-36.42ZM370.11-36.42L367.74-36.42L366.46-41.41L362.62-40.96L361.66-26.75L370.94-25.09L370.05-3.84L370.05-3.84Q370.05-2.56 368.38-1.28L368.38-1.28L368.38-1.28Q366.72 0 365.31 0L365.31 0L357.82 0L357.25-10.94L361.02-10.94L360.96-5.38L365.44-4.35L366.46-21.38L357.82-23.30L357.82-43.90L360.38-45.44L370.43-45.44L370.11-36.42Z" fill="#ccc"></path></g></g><style>text {
  font-size: 64px;
  font-family: Arial Black;
  dominant-baseline: central;
  text-anchor: middle;
}</style></svg>