<svg width="181.85999755859373px" height="122.39999389648438px" xmlns="http://www.w3.org/2000/svg" viewBox="159.07000122070315 13.800003051757812 181.85999755859373 122.39999389648438" style="background: none;" preserveAspectRatio="xMidYMid"><defs><filter id="editing-extrusion" x="-100%" y="-100%" width="300%" height="300%"><feFlood result="color1" flood-color="#444"></feFlood><feConvolveMatrix order="8,8" divisor="1" kernelMatrix="1 0 0 0 0 0 0 0 0 1 0 0 0 0 0 0 0 0 1 0 0 0 0 0 0 0 0 1 0 0 0 0 0 0 0 0 1 0 0 0 0 0 0 0 0 1 0 0 0 0 0 0 0 0 1 0 0 0 0 0 0 0 0 1" in="SourceAlpha" result="extrude"></feConvolveMatrix><feComposite in="color1" in2="extrude" result="comp-extrude" operator="in"></feComposite><feOffset dx="4" dy="4" in="comp-extrude" result="offset-extrude"></feOffset><feMerge><feMergeNode in="offset-extrude"></feMergeNode><feMergeNode in="SourceGraphic"></feMergeNode></feMerge></filter></defs><g filter="url(#editing-extrusion)"><g transform="translate(190.93000483512878, 98.35999870300293)"><path d="M10.56-45.44L10.56-45.44Q13.63-45.44 15.58-43.46L15.58-43.46L15.58-43.46Q17.54-41.47 17.54-38.40L17.54-38.40L15.62-3.65L11.71 0L3.20 0L3.20-45.44L10.56-45.44ZM12.03-40.83L12.03-40.83Q12.03-41.22 11.26-41.22L11.26-41.22L8.38-41.22L8.38-41.22Q8.19-41.22 8-41.09L8-41.09L8-41.09Q7.81-40.96 7.81-40.83L7.81-40.83L7.81-4.61L8.38-4.22L10.75-4.54L10.75-4.54Q11.33-4.93 11.33-5.38L11.33-5.38L12.03-40.83ZM36.29 0L27.78 0L27.78 0Q25.15 0 24.13-0.83L24.13-0.83L24.13-0.83Q23.10-1.66 23.10-3.58L23.10-3.58L23.10-43.90L23.10-43.90Q24.51-44.67 26.78-45.06L26.78-45.06L26.78-45.06Q29.06-45.44 32.83-45.44L32.83-45.44L32.83-45.44Q34.56-45.44 35.65-44.58L35.65-44.58L35.65-44.58Q36.74-43.71 36.74-42.37L36.74-42.37L36.29 0ZM27.20-4.03L31.74-3.65L32.32-4.22L32.70-40.77L32.70-40.77Q32.70-41.09 32.13-41.15L32.13-41.15L28.16-41.34L27.58-40.96L27.20-4.03ZM46.46 0L43.14 0L43.14-45.44L47.74-45.44L52.42-17.66L52.93-17.66L57.28-45.44L60.99-45.44L62.46 0L58.24 0L58.24-34.24L57.79-34.24L53.38-10.05L51.26-9.60L46.72-37.70L46.46-37.70L46.46 0ZM80.13-45.44L82.75 0L79.94 0L77.63-17.02L72.51-14.59L71.10 0L67.14 0L70.02-45.44L80.13-45.44ZM76.80-42.37L76.80-42.37Q76.80-42.75 76.42-42.75L76.42-42.75L73.66-42.11L73.66-42.11Q73.28-41.92 73.28-41.47L73.28-41.47L73.28-18.94L73.28-18.94Q73.28-18.62 73.66-18.62L73.66-18.62L76.03-19.01L76.03-19.01Q76.42-19.01 76.42-19.39L76.42-19.39L76.80-42.37ZM92.10-45.44L93.44-1.28L88.06-1.28L88.06-45.44L92.10-45.44ZM114.94-45.44L113.66 1.28L109.31 1.28L103.04-35.46L102.78-35.46L101.57 1.28L98.30 1.28L100.35-45.44L104.26-45.44L110.72-8.38L111.17-8.38L111.17-45.44L114.94-45.44Z" fill="#ccc"></path></g></g><style>text {
  font-size: 64px;
  font-family: Arial Black;
  dominant-baseline: central;
  text-anchor: middle;
}</style></svg>