<svg width="500.1599975585937px" height="122.39999389648438px" xmlns="http://www.w3.org/2000/svg" viewBox="-0.07999877929685795 13.800003051757812 500.1599975585937 122.39999389648438" style="background: none;" preserveAspectRatio="xMidYMid"><defs><filter id="editing-extrusion" x="-100%" y="-100%" width="300%" height="300%"><feFlood result="color1" flood-color="#444"></feFlood><feConvolveMatrix order="8,8" divisor="1" kernelMatrix="1 0 0 0 0 0 0 0 0 1 0 0 0 0 0 0 0 0 1 0 0 0 0 0 0 0 0 1 0 0 0 0 0 0 0 0 1 0 0 0 0 0 0 0 0 1 0 0 0 0 0 0 0 0 1 0 0 0 0 0 0 0 0 1" in="SourceAlpha" result="extrude"></feConvolveMatrix><feComposite in="color1" in2="extrude" result="comp-extrude" operator="in"></feComposite><feOffset dx="4" dy="4" in="comp-extrude" result="offset-extrude"></feOffset><feMerge><feMergeNode in="offset-extrude"></feMergeNode><feMergeNode in="SourceGraphic"></feMergeNode></feMerge></filter></defs><g filter="url(#editing-extrusion)"><g transform="translate(72.55999994277954, 98.35999870300293)"><path d="M17.22-7.74L17.98-1.28L2.94-1.28L4.42-45.44L17.41-45.44L17.41-40.45L8.26-40.45L8.26-27.26L15.23-27.26L15.23-24.06L8.58-22.91L8.58-6.59L17.22-7.74ZM39.10-45.44L37.82 1.28L33.47 1.28L27.20-35.46L26.94-35.46L25.73 1.28L22.46 1.28L24.51-45.44L28.42-45.44L34.88-8.38L35.33-8.38L35.33-45.44L39.10-45.44ZM44.10-45.44L57.34-44.54L57.66-40.51L52.03-40.51L52.03 0L46.59 0L47.87-39.36L43.26-40.90L44.10-45.44ZM66.50-45.44L67.84-1.28L62.46-1.28L62.46-45.44L66.50-45.44ZM72.90-45.44L86.14-44.54L86.46-40.51L80.83-40.51L80.83 0L75.39 0L76.67-39.36L72.06-40.90L72.90-45.44ZM98.82-23.62L99.90 0L94.98 0L94.98-23.94L89.02-44.80L94.85-44.80L97.02-26.43L97.54-26.56L99.46-45.44L103.94-45.44L101.12-27.58L98.82-23.62ZM123.20-19.90L123.20 0L119.49 0L119.49-42.82L118.08-43.58L118.08-45.44L128.06-45.44L128.06-45.44Q130.50-45.44 132.13-44.51L132.13-44.51L132.13-44.51Q133.76-43.58 133.82-42.30L133.82-42.30L133.18-24.58L133.18-24.58Q133.18-23.62 132.32-22.24L132.32-22.24L132.32-22.24Q131.46-20.86 129.15-20.22L129.15-20.22L132.93-13.18L134.27 0L129.60 0.19L128.58-12.35L125.06-19.90L123.20-19.90ZM124.10-24.51L124.10-24.51Q124.10-24.32 124.32-24.16L124.32-24.16L124.32-24.16Q124.54-24 124.86-24L124.86-24L128.26-24L128.26-24Q128.64-24 128.64-24.38L128.64-24.38L129.02-40.58L129.02-40.58Q129.02-41.47 128.22-42.08L128.22-42.08L128.22-42.08Q127.42-42.69 124.86-42.69L124.86-42.69L124.86-42.69Q124.10-42.43 124.10-41.92L124.10-41.92L124.10-24.51ZM153.92-5.31L153.92 0L140.22 0L140.22-45.44L153.92-45.44L153.92-41.47L145.92-41.86L145.92-27.33L153.92-25.86L153.92-22.78L144.83-23.17L144.83-4.80L153.92-5.31ZM173.95-4.42L173.95 0L161.02 0L161.02-45.44L165.76-45.44L165.76-6.72L166.72-5.25L173.95-4.42ZM191.17-45.44L193.79 0L190.98 0L188.67-17.02L183.55-14.59L182.14 0L178.18 0L181.06-45.44L191.17-45.44ZM187.84-42.37L187.84-42.37Q187.84-42.75 187.46-42.75L187.46-42.75L184.70-42.11L184.70-42.11Q184.32-41.92 184.32-41.47L184.32-41.47L184.32-18.94L184.32-18.94Q184.32-18.62 184.70-18.62L184.70-18.62L187.07-19.01L187.07-19.01Q187.46-19.01 187.46-19.39L187.46-19.39L187.84-42.37ZM198.34-45.44L211.58-44.54L211.90-40.51L206.27-40.51L206.27 0L200.83 0L202.11-39.36L197.50-40.90L198.34-45.44ZM220.74-45.44L222.08-1.28L216.70-1.28L216.70-45.44L220.74-45.44ZM241.02 0L232.51 0L232.51 0Q229.89 0 228.86-0.83L228.86-0.83L228.86-0.83Q227.84-1.66 227.84-3.58L227.84-3.58L227.84-43.90L227.84-43.90Q229.25-44.67 231.52-45.06L231.52-45.06L231.52-45.06Q233.79-45.44 237.57-45.44L237.57-45.44L237.57-45.44Q239.30-45.44 240.38-44.58L240.38-44.58L240.38-44.58Q241.47-43.71 241.47-42.37L241.47-42.37L241.02 0ZM231.94-4.03L236.48-3.65L237.06-4.22L237.44-40.77L237.44-40.77Q237.44-41.09 236.86-41.15L236.86-41.15L232.90-41.34L232.32-40.96L231.94-4.03ZM263.55-45.44L262.27 1.28L257.92 1.28L251.65-35.46L251.39-35.46L250.18 1.28L246.91 1.28L248.96-45.44L252.86-45.44L259.33-8.38L259.78-8.38L259.78-45.44L263.55-45.44ZM281.41-36.42L279.04-36.42L277.76-41.41L273.92-40.96L272.96-26.75L282.24-25.09L281.34-3.84L281.34-3.84Q281.34-2.56 279.68-1.28L279.68-1.28L279.68-1.28Q278.02 0 276.61 0L276.61 0L269.12 0L268.54-10.94L272.32-10.94L272.26-5.38L276.74-4.35L277.76-21.38L269.12-23.30L269.12-43.90L271.68-45.44L281.73-45.44L281.41-36.42ZM299.90 0L298.05-19.84L292.54-20.93L292.54 0L287.81 0L287.81-45.44L292.42-45.44L291.71-25.28L298.05-25.60L298.05-45.44L302.72-45.44L302.72 0L299.90 0ZM313.15-45.44L314.50-1.28L309.12-1.28L309.12-45.44L313.15-45.44ZM320.83-43.97L320.83-43.97Q320.83-44.61 323.20-45.02L323.20-45.02L323.20-45.02Q325.57-45.44 327.81-45.44L327.81-45.44L330.56-45.44L330.56-45.44Q331.39-45.44 332.13-45.09L332.13-45.09L332.13-45.09Q332.86-44.74 332.86-44.10L332.86-44.10L333.57-24.26L331.33-20.29L324.29-19.58L323.78 0L319.36 0L320.83-43.97ZM324.67-24.45L328.83-24.64L328.83-24.64Q329.22-24.64 329.22-25.02L329.22-25.02L329.22-41.60L328.26-42.56L324.67-42.11L324.67-24.45ZM351.10-36.42L348.74-36.42L347.46-41.41L343.62-40.96L342.66-26.75L351.94-25.09L351.04-3.84L351.04-3.84Q351.04-2.56 349.38-1.28L349.38-1.28L349.38-1.28Q347.71 0 346.30 0L346.30 0L338.82 0L338.24-10.94L342.02-10.94L341.95-5.38L346.43-4.35L347.46-21.38L338.82-23.30L338.82-43.90L341.38-45.44L351.42-45.44L351.10-36.42Z" fill="#ccc"></path></g></g><style>text {
  font-size: 64px;
  font-family: Arial Black;
  dominant-baseline: central;
  text-anchor: middle;
}</style></svg>