<svg width="257.1200073242187px" height="122.39999389648438px" xmlns="http://www.w3.org/2000/svg" viewBox="121.43999633789065 13.800003051757812 257.1200073242187 122.39999389648438" style="background: none;" preserveAspectRatio="xMidYMid"><defs><filter id="editing-extrusion" x="-100%" y="-100%" width="300%" height="300%"><feFlood result="color1" flood-color="#444444"></feFlood><feConvolveMatrix order="8,8" divisor="1" kernelMatrix="1 0 0 0 0 0 0 0 0 1 0 0 0 0 0 0 0 0 1 0 0 0 0 0 0 0 0 1 0 0 0 0 0 0 0 0 1 0 0 0 0 0 0 0 0 1 0 0 0 0 0 0 0 0 1 0 0 0 0 0 0 0 0 1" in="SourceAlpha" result="extrude"></feConvolveMatrix><feComposite in="color1" in2="extrude" result="comp-extrude" operator="in"></feComposite><feOffset dx="4" dy="4" in="comp-extrude" result="offset-extrude"></feOffset><feMerge><feMergeNode in="offset-extrude"></feMergeNode><feMergeNode in="SourceGraphic"></feMergeNode></feMerge></filter></defs><g filter="url(#editing-extrusion)"><g transform="translate(163.8899941444397, 98.35999870300293)"><path d="M17.22-7.74L17.98-1.28L2.94-1.28L4.42-45.44L17.41-45.44L17.41-40.45L8.26-40.45L8.26-27.26L15.23-27.26L15.23-24.06L8.58-22.91L8.58-6.59L17.22-7.74ZM39.30 0.70L33.15 0.70L30.40-21.70L28.61-20.74L25.79 0L20.80 0L25.79-24.70L21.70-45.44L26.69-45.44L29.25-24.96L31.49-25.54L33.86-44.16L38.14-44.16L33.60-21.95L39.30 0.70ZM56.90-5.31L56.90 0L43.20 0L43.20-45.44L56.90-45.44L56.90-41.47L48.90-41.86L48.90-27.33L56.90-25.86L56.90-22.78L47.81-23.17L47.81-4.80L56.90-5.31ZM79.74-11.97L79.74-1.28L66.11-1.28L63.49-3.97L64.77-41.79L64.77-41.79Q64.83-43.20 65.95-44.32L65.95-44.32L65.95-44.32Q67.07-45.44 69.06-45.44L69.06-45.44L69.89-45.38L79.74-44.10L78.72-33.79L75.78-33.79L75.78-39.74L75.78-39.74Q75.78-40.32 75.01-40.32L75.01-40.32L71.04-40.32L71.04-40.32Q69.82-40.32 69.28-39.33L69.28-39.33L69.28-39.33Q68.74-38.34 68.74-37.12L68.74-37.12L68.74-37.12Q68.74-36.42 68.93-36.29L68.93-36.29L68.93-6.34L68.93-6.34Q68.74-6.27 68.74-6.14L68.74-6.14L68.74-6.14Q68.74-5.95 69.31-5.95L69.31-5.95L75.65-5.95L75.65-5.95Q76.42-5.95 76.42-6.34L76.42-6.34L76.42-11.14L77.63-11.90L79.74-11.97ZM85.89-44.80L90.62-44.80L89.28-3.97L94.66-4.35L94.66-43.97L99.14-43.71L99.14 1.28L84.42 1.28L85.89-44.80ZM104.06-45.44L117.31-44.54L117.63-40.51L112-40.51L112 0L106.56 0L107.84-39.36L103.23-40.90L104.06-45.44ZM126.46-45.44L127.81-1.28L122.43-1.28L122.43-45.44L126.46-45.44ZM146.75 0L138.24 0L138.24 0Q135.62 0 134.59-0.83L134.59-0.83L134.59-0.83Q133.57-1.66 133.57-3.58L133.57-3.58L133.57-43.90L133.57-43.90Q134.98-44.67 137.25-45.06L137.25-45.06L137.25-45.06Q139.52-45.44 143.30-45.44L143.30-45.44L143.30-45.44Q145.02-45.44 146.11-44.58L146.11-44.58L146.11-44.58Q147.20-43.71 147.20-42.37L147.20-42.37L146.75 0ZM137.66-4.03L142.21-3.65L142.78-4.22L143.17-40.77L143.17-40.77Q143.17-41.09 142.59-41.15L142.59-41.15L138.62-41.34L138.05-40.96L137.66-4.03ZM169.28-45.44L168.00 1.28L163.65 1.28L157.38-35.46L157.12-35.46L155.90 1.28L152.64 1.28L154.69-45.44L158.59-45.44L165.06-8.38L165.50-8.38L165.50-45.44L169.28-45.44Z" fill="#ccc"></path></g></g><style>text {
  font-size: 64px;
  font-family: Arial Black;
  dominant-baseline: central;
  text-anchor: middle;
}</style></svg>