<svg width="270.760009765625px" height="122.39999389648438px" xmlns="http://www.w3.org/2000/svg" viewBox="114.6199951171875 13.800003051757812 270.760009765625 122.39999389648438" style="background: none;" preserveAspectRatio="xMidYMid"><defs><filter id="editing-extrusion" x="-100%" y="-100%" width="300%" height="300%"><feFlood result="color1" flood-color="#444"></feFlood><feConvolveMatrix order="8,8" divisor="1" kernelMatrix="1 0 0 0 0 0 0 0 0 1 0 0 0 0 0 0 0 0 1 0 0 0 0 0 0 0 0 1 0 0 0 0 0 0 0 0 1 0 0 0 0 0 0 0 0 1 0 0 0 0 0 0 0 0 1 0 0 0 0 0 0 0 0 1" in="SourceAlpha" result="extrude"></feConvolveMatrix><feComposite in="color1" in2="extrude" result="comp-extrude" operator="in"></feComposite><feOffset dx="4" dy="4" in="comp-extrude" result="offset-extrude"></feOffset><feMerge><feMergeNode in="offset-extrude"></feMergeNode><feMergeNode in="SourceGraphic"></feMergeNode></feMerge></filter></defs><g filter="url(#editing-extrusion)"><g transform="translate(159.11999988555908, 98.35999870300293)"><path d="M8.51 0L2.88 0L4.35-45.44L16.06-45.44L16.06-39.81L8.19-39.81L8.19-27.07L15.17-27.07L15.17-23.87L8.51-22.72L8.51 0ZM21.18-44.74L21.18-44.74Q21.18-45.06 23.81-45.25L23.81-45.25L23.81-45.25Q26.43-45.44 28.99-45.44L28.99-45.44L31.74-45.44L31.74-45.44Q32.77-45.44 33.41-44.67L33.41-44.67L33.41-44.67Q34.05-43.90 34.11-42.69L34.11-42.69L34.75-24.26L31.87-20.48L36.99-1.41L35.78 0L32 0L28.74-19.90L25.47-19.58L24.13 0L21.18 0L21.18-44.74ZM25.22-24.38L30.02-24.64L30.02-24.64Q30.40-24.64 30.40-25.02L30.40-25.02L30.40-40.96L29.44-41.92L25.02-41.47L25.22-24.38ZM54.72 0L46.21 0L46.21 0Q43.58 0 42.56-0.83L42.56-0.83L42.56-0.83Q41.54-1.66 41.54-3.58L41.54-3.58L41.54-43.90L41.54-43.90Q42.94-44.67 45.22-45.06L45.22-45.06L45.22-45.06Q47.49-45.44 51.26-45.44L51.26-45.44L51.26-45.44Q52.99-45.44 54.08-44.58L54.08-44.58L54.08-44.58Q55.17-43.71 55.17-42.37L55.17-42.37L54.72 0ZM45.63-4.03L50.18-3.65L50.75-4.22L51.14-40.77L51.14-40.77Q51.14-41.09 50.56-41.15L50.56-41.15L46.59-41.34L46.02-40.96L45.63-4.03ZM77.25-45.44L75.97 1.28L71.62 1.28L65.34-35.46L65.09-35.46L63.87 1.28L60.61 1.28L62.66-45.44L66.56-45.44L73.02-8.38L73.47-8.38L73.47-45.44L77.25-45.44ZM82.24-45.44L95.49-44.54L95.81-40.51L90.18-40.51L90.18 0L84.74 0L86.02-39.36L81.41-40.90L82.24-45.44ZM98.05-23.42L118.40-22.85L118.40-19.71L98.24-19.71L98.05-23.42ZM136.32-7.74L137.09-1.28L122.05-1.28L123.52-45.44L136.51-45.44L136.51-40.45L127.36-40.45L127.36-27.26L134.34-27.26L134.34-24.06L127.68-22.91L127.68-6.59L136.32-7.74ZM158.21-45.44L156.93 1.28L152.58 1.28L146.30-35.46L146.05-35.46L144.83 1.28L141.57 1.28L143.62-45.44L147.52-45.44L153.98-8.38L154.43-8.38L154.43-45.44L158.21-45.44ZM173.95-45.44L178.88-43.39L178.88-3.58L178.88-3.58Q178.88-1.47 177.54-0.74L177.54-0.74L177.54-0.74Q176.19 0 175.10 0L175.10 0L164.35 0L164.35-3.58L164.74-5.38L163.39-45.44L173.95-45.44ZM171.52-4.42L171.52-4.42Q172.48-4.42 172.99-5.18L172.99-5.18L172.99-5.18Q173.50-5.95 173.63-8.38L173.63-8.38L174.91-40.83L174.91-40.83Q174.91-41.22 174.78-41.31L174.78-41.31L174.78-41.31Q174.66-41.41 174.34-41.41L174.34-41.41L169.47-41.41L169.47-41.41Q168.90-41.41 168.90-40.83L168.90-40.83L168.90-4.99L168.90-4.99Q168.90-4.42 169.47-4.42L169.47-4.42L171.52-4.42Z" fill="#ccc"></path></g></g><style>text {
  font-size: 64px;
  font-family: Arial Black;
  dominant-baseline: central;
  text-anchor: middle;
}</style></svg>