<svg width="331.45998535156247px" height="122.39999389648438px" xmlns="http://www.w3.org/2000/svg" viewBox="84.27000732421877 13.800003051757812 331.45998535156247 122.39999389648438" style="background: none;" preserveAspectRatio="xMidYMid"><defs><filter id="editing-extrusion" x="-100%" y="-100%" width="300%" height="300%"><feFlood result="color1" flood-color="#444"></feFlood><feConvolveMatrix order="8,8" divisor="1" kernelMatrix="1 0 0 0 0 0 0 0 0 1 0 0 0 0 0 0 0 0 1 0 0 0 0 0 0 0 0 1 0 0 0 0 0 0 0 0 1 0 0 0 0 0 0 0 0 1 0 0 0 0 0 0 0 0 1 0 0 0 0 0 0 0 0 1" in="SourceAlpha" result="extrude"></feConvolveMatrix><feComposite in="color1" in2="extrude" result="comp-extrude" operator="in"></feComposite><feOffset dx="4" dy="4" in="comp-extrude" result="offset-extrude"></feOffset><feMerge><feMergeNode in="offset-extrude"></feMergeNode><feMergeNode in="SourceGraphic"></feMergeNode></feMerge></filter></defs><g filter="url(#editing-extrusion)"><g transform="translate(137.04001331329346, 98.35999870300293)"><path d="M8.51 0L2.88 0L4.35-45.44L16.06-45.44L16.06-39.81L8.19-39.81L8.19-27.07L15.17-27.07L15.17-23.87L8.51-22.72L8.51 0ZM21.70-44.80L26.43-44.80L25.09-3.97L30.46-4.35L30.46-43.97L34.94-43.71L34.94 1.28L20.22 1.28L21.70-44.80ZM39.87-45.44L53.12-44.54L53.44-40.51L47.81-40.51L47.81 0L42.37 0L43.65-39.36L39.04-40.90L39.87-45.44ZM58.75-44.80L63.49-44.80L62.14-3.97L67.52-4.35L67.52-43.97L72-43.71L72 1.28L57.28 1.28L58.75-44.80ZM77.70-44.74L77.70-44.74Q77.70-45.06 80.32-45.25L80.32-45.25L80.32-45.25Q82.94-45.44 85.50-45.44L85.50-45.44L88.26-45.44L88.26-45.44Q89.28-45.44 89.92-44.67L89.92-44.67L89.92-44.67Q90.56-43.90 90.62-42.69L90.62-42.69L91.26-24.26L88.38-20.48L93.50-1.41L92.29 0L88.51 0L85.25-19.90L81.98-19.58L80.64 0L77.70 0L77.70-44.74ZM81.73-24.38L86.53-24.64L86.53-24.64Q86.91-24.64 86.91-25.02L86.91-25.02L86.91-40.96L85.95-41.92L81.54-41.47L81.73-24.38ZM112.13-5.31L112.13 0L98.43 0L98.43-45.44L112.13-45.44L112.13-41.47L104.13-41.86L104.13-27.33L112.13-25.86L112.13-22.78L103.04-23.17L103.04-4.80L112.13-5.31ZM134.14-41.09L135.10-26.94L143.23-24.83L143.23-3.84L143.23-3.84Q143.23-2.50 141.89-1.25L141.89-1.25L141.89-1.25Q140.54 0 139.14 0L139.14 0L129.98 0L129.98-4.35L138.88-4.35L137.34-21.50L129.98-23.42L129.98-42.43L129.98-42.43Q129.98-43.46 130.78-44.45L130.78-44.45L130.78-44.45Q131.58-45.44 132.54-45.44L132.54-45.44L143.23-45.44L143.23-42.30L134.14-41.09ZM164.74-11.97L164.74-1.28L151.10-1.28L148.48-3.97L149.76-41.79L149.76-41.79Q149.82-43.20 150.94-44.32L150.94-44.32L150.94-44.32Q152.06-45.44 154.05-45.44L154.05-45.44L154.88-45.38L164.74-44.10L163.71-33.79L160.77-33.79L160.77-39.74L160.77-39.74Q160.77-40.32 160-40.32L160-40.32L156.03-40.32L156.03-40.32Q154.82-40.32 154.27-39.33L154.27-39.33L154.27-39.33Q153.73-38.34 153.73-37.12L153.73-37.12L153.73-37.12Q153.73-36.42 153.92-36.29L153.92-36.29L153.92-6.34L153.92-6.34Q153.73-6.27 153.73-6.14L153.73-6.14L153.73-6.14Q153.73-5.95 154.30-5.95L154.30-5.95L160.64-5.95L160.64-5.95Q161.41-5.95 161.41-6.34L161.41-6.34L161.41-11.14L162.62-11.90L164.74-11.97ZM183.49 0L174.98 0L174.98 0Q172.35 0 171.33-0.83L171.33-0.83L171.33-0.83Q170.30-1.66 170.30-3.58L170.30-3.58L170.30-43.90L170.30-43.90Q171.71-44.67 173.98-45.06L173.98-45.06L173.98-45.06Q176.26-45.44 180.03-45.44L180.03-45.44L180.03-45.44Q181.76-45.44 182.85-44.58L182.85-44.58L182.85-44.58Q183.94-43.71 183.94-42.37L183.94-42.37L183.49 0ZM174.40-4.03L178.94-3.65L179.52-4.22L179.90-40.77L179.90-40.77Q179.90-41.09 179.33-41.15L179.33-41.15L175.36-41.34L174.78-40.96L174.40-4.03ZM190.85-43.97L190.85-43.97Q190.85-44.61 193.22-45.02L193.22-45.02L193.22-45.02Q195.58-45.44 197.82-45.44L197.82-45.44L200.58-45.44L200.58-45.44Q201.41-45.44 202.14-45.09L202.14-45.09L202.14-45.09Q202.88-44.74 202.88-44.10L202.88-44.10L203.58-24.26L201.34-20.29L194.30-19.58L193.79 0L189.38 0L190.85-43.97ZM194.69-24.45L198.85-24.64L198.85-24.64Q199.23-24.64 199.23-25.02L199.23-25.02L199.23-41.60L198.27-42.56L194.69-42.11L194.69-24.45ZM223.04-5.31L223.04 0L209.34 0L209.34-45.44L223.04-45.44L223.04-41.47L215.04-41.86L215.04-27.33L223.04-25.86L223.04-22.78L213.95-23.17L213.95-4.80L223.04-5.31Z" fill="#ccc"></path></g></g><style>text {
  font-size: 64px;
  font-family: Arial Black;
  dominant-baseline: central;
  text-anchor: middle;
}</style></svg>