<svg width="481.06000976562495px" height="122.39999389648438px" xmlns="http://www.w3.org/2000/svg" viewBox="9.469995117187523 13.800003051757812 481.06000976562495 122.39999389648438" style="background: none;" preserveAspectRatio="xMidYMid"><defs><filter id="editing-extrusion" x="-100%" y="-100%" width="300%" height="300%"><feFlood result="color1" flood-color="#444444"></feFlood><feConvolveMatrix order="8,8" divisor="1" kernelMatrix="1 0 0 0 0 0 0 0 0 1 0 0 0 0 0 0 0 0 1 0 0 0 0 0 0 0 0 1 0 0 0 0 0 0 0 0 1 0 0 0 0 0 0 0 0 1 0 0 0 0 0 0 0 0 1 0 0 0 0 0 0 0 0 1" in="SourceAlpha" result="extrude"></feConvolveMatrix><feComposite in="color1" in2="extrude" result="comp-extrude" operator="in"></feComposite><feOffset dx="4" dy="4" in="comp-extrude" result="offset-extrude"></feOffset><feMerge><feMergeNode in="offset-extrude"></feMergeNode><feMergeNode in="SourceGraphic"></feMergeNode></feMerge></filter></defs><g filter="url(#editing-extrusion)"><g transform="translate(79.28000462055206, 98.35999870300293)"><path d="M20.48-45.44L19.84 0L12.48 0L5.95-41.66L5.70-41.66L5.70 0L1.92 0L1.92-45.44L9.34-45.44L15.10-3.71L15.36-3.71L16.77-45.44L20.48-45.44ZM38.34 0L29.82 0L29.82 0Q27.20 0 26.18-0.83L26.18-0.83L26.18-0.83Q25.15-1.66 25.15-3.58L25.15-3.58L25.15-43.90L25.15-43.90Q26.56-44.67 28.83-45.06L28.83-45.06L28.83-45.06Q31.10-45.44 34.88-45.44L34.88-45.44L34.88-45.44Q36.61-45.44 37.70-44.58L37.70-44.58L37.70-44.58Q38.78-43.71 38.78-42.37L38.78-42.37L38.34 0ZM29.25-4.03L33.79-3.65L34.37-4.22L34.75-40.77L34.75-40.77Q34.75-41.09 34.18-41.15L34.18-41.15L30.21-41.34L29.63-40.96L29.25-4.03ZM44.42-45.44L57.66-44.54L57.98-40.51L52.35-40.51L52.35 0L46.91 0L48.19-39.36L43.58-40.90L44.42-45.44ZM66.82-45.44L68.16-1.28L62.78-1.28L62.78-45.44L66.82-45.44ZM79.55 1.28L74.30 1.28L74.30-45.44L88-44.16L88-40.19L79.36-39.42L79.36-28.61L88-28.61L88-24.90L78.27-23.81L79.55 1.28ZM97.92-45.44L99.26-1.28L93.89-1.28L93.89-45.44L97.92-45.44ZM120.83-11.97L120.83-1.28L107.20-1.28L104.58-3.97L105.86-41.79L105.86-41.79Q105.92-43.20 107.04-44.32L107.04-44.32L107.04-44.32Q108.16-45.44 110.14-45.44L110.14-45.44L110.98-45.38L120.83-44.10L119.81-33.79L116.86-33.79L116.86-39.74L116.86-39.74Q116.86-40.32 116.10-40.32L116.10-40.32L112.13-40.32L112.13-40.32Q110.91-40.32 110.37-39.33L110.37-39.33L110.37-39.33Q109.82-38.34 109.82-37.12L109.82-37.12L109.82-37.12Q109.82-36.42 110.02-36.29L110.02-36.29L110.02-6.34L110.02-6.34Q109.82-6.27 109.82-6.14L109.82-6.14L109.82-6.14Q109.82-5.95 110.40-5.95L110.40-5.95L116.74-5.95L116.74-5.95Q117.50-5.95 117.50-6.34L117.50-6.34L117.50-11.14L118.72-11.90L120.83-11.97ZM138.24-45.44L140.86 0L138.05 0L135.74-17.02L130.62-14.59L129.22 0L125.25 0L128.13-45.44L138.24-45.44ZM134.91-42.37L134.91-42.37Q134.91-42.75 134.53-42.75L134.53-42.75L131.78-42.11L131.78-42.11Q131.39-41.92 131.39-41.47L131.39-41.47L131.39-18.94L131.39-18.94Q131.39-18.62 131.78-18.62L131.78-18.62L134.14-19.01L134.14-19.01Q134.53-19.01 134.53-19.39L134.53-19.39L134.91-42.37ZM145.41-45.44L158.66-44.54L158.98-40.51L153.34-40.51L153.34 0L147.90 0L149.18-39.36L144.58-40.90L145.41-45.44ZM167.81-45.44L169.15-1.28L163.78-1.28L163.78-45.44L167.81-45.44ZM188.10 0L179.58 0L179.58 0Q176.96 0 175.94-0.83L175.94-0.83L175.94-0.83Q174.91-1.66 174.91-3.58L174.91-3.58L174.91-43.90L174.91-43.90Q176.32-44.67 178.59-45.06L178.59-45.06L178.59-45.06Q180.86-45.44 184.64-45.44L184.64-45.44L184.64-45.44Q186.37-45.44 187.46-44.58L187.46-44.58L187.46-44.58Q188.54-43.71 188.54-42.37L188.54-42.37L188.10 0ZM179.01-4.03L183.55-3.65L184.13-4.22L184.51-40.77L184.51-40.77Q184.51-41.09 183.94-41.15L183.94-41.15L179.97-41.34L179.39-40.96L179.01-4.03ZM210.62-45.44L209.34 1.28L204.99 1.28L198.72-35.46L198.46-35.46L197.25 1.28L193.98 1.28L196.03-45.44L199.94-45.44L206.40-8.38L206.85-8.38L206.85-45.44L210.62-45.44ZM231.30-41.09L232.26-26.94L240.38-24.83L240.38-3.84L240.38-3.84Q240.38-2.50 239.04-1.25L239.04-1.25L239.04-1.25Q237.70 0 236.29 0L236.29 0L227.14 0L227.14-4.35L236.03-4.35L234.50-21.50L227.14-23.42L227.14-42.43L227.14-42.43Q227.14-43.46 227.94-44.45L227.94-44.45L227.94-44.45Q228.74-45.44 229.70-45.44L229.70-45.44L240.38-45.44L240.38-42.30L231.30-41.09ZM253.70-23.62L254.78 0L249.86 0L249.86-23.94L243.90-44.80L249.73-44.80L251.90-26.43L252.42-26.56L254.34-45.44L258.82-45.44L256.00-27.58L253.70-23.62ZM275.07-36.42L272.70-36.42L271.42-41.41L267.58-40.96L266.62-26.75L275.90-25.09L275.01-3.84L275.01-3.84Q275.01-2.56 273.34-1.28L273.34-1.28L273.34-1.28Q271.68 0 270.27 0L270.27 0L262.78 0L262.21-10.94L265.98-10.94L265.92-5.38L270.40-4.35L271.42-21.38L262.78-23.30L262.78-43.90L265.34-45.44L275.39-45.44L275.07-36.42ZM280.70-45.44L293.95-44.54L294.27-40.51L288.64-40.51L288.64 0L283.20 0L284.48-39.36L279.87-40.90L280.70-45.44ZM313.09-5.31L313.09 0L299.39 0L299.39-45.44L313.09-45.44L313.09-41.47L305.09-41.86L305.09-27.33L313.09-25.86L313.09-22.78L304.00-23.17L304.00-4.80L313.09-5.31ZM323.52 0L320.19 0L320.19-45.44L324.80-45.44L329.47-17.66L329.98-17.66L334.34-45.44L338.05-45.44L339.52 0L335.30 0L335.30-34.24L334.85-34.24L330.43-10.05L328.32-9.60L323.78-37.70L323.52-37.70L323.52 0Z" fill="#ccc"></path></g></g><style>text {
  font-size: 64px;
  font-family: Arial Black;
  dominant-baseline: central;
  text-anchor: middle;
}</style></svg>