<svg width="345.239990234375px" height="122.39999389648438px" xmlns="http://www.w3.org/2000/svg" viewBox="77.3800048828125 13.800003051757812 345.239990234375 122.39999389648438" style="background: none;" preserveAspectRatio="xMidYMid"><defs><filter id="editing-extrusion" x="-100%" y="-100%" width="300%" height="300%"><feFlood result="color1" flood-color="#444444"></feFlood><feConvolveMatrix order="8,8" divisor="1" kernelMatrix="1 0 0 0 0 0 0 0 0 1 0 0 0 0 0 0 0 0 1 0 0 0 0 0 0 0 0 1 0 0 0 0 0 0 0 0 1 0 0 0 0 0 0 0 0 1 0 0 0 0 0 0 0 0 1 0 0 0 0 0 0 0 0 1" in="SourceAlpha" result="extrude"></feConvolveMatrix><feComposite in="color1" in2="extrude" result="comp-extrude" operator="in"></feComposite><feOffset dx="4" dy="4" in="comp-extrude" result="offset-extrude"></feOffset><feMerge><feMergeNode in="offset-extrude"></feMergeNode><feMergeNode in="SourceGraphic"></feMergeNode></feMerge></filter></defs><g filter="url(#editing-extrusion)"><g transform="translate(127.375004529953, 97.71999931335449)"><path d="M3.20-43.39L5.95-45.44L14.59-45.44L17.15-43.65L17.15-2.30L13.12 0L6.98 0L3.20-2.69L3.20-43.39ZM12.86-41.54L12.86-41.54Q12.86-42.11 12.29-42.11L12.29-42.11L8.96-42.11L8.96-42.11Q8.38-42.11 8.38-41.54L8.38-41.54L8.38-4.86L8.38-4.86Q8.38-4.48 8.96-4.48L8.96-4.48L11.65-4.48L11.65-4.48Q12.22-4.48 12.22-4.86L12.22-4.86L12.86-41.54ZM31.94 0L25.22 0L21.44-45.44L25.47-45.44L29.31-1.60L29.63-1.60L33.92-44.80L38.14-44.80L31.94 0ZM55.55-5.31L55.55 0L41.86 0L41.86-45.44L55.55-45.44L55.55-41.47L47.55-41.86L47.55-27.33L55.55-25.86L55.55-22.78L46.46-23.17L46.46-4.80L55.55-5.31ZM62.66-44.74L62.66-44.74Q62.66-45.06 65.28-45.25L65.28-45.25L65.28-45.25Q67.90-45.44 70.46-45.44L70.46-45.44L73.22-45.44L73.22-45.44Q74.24-45.44 74.88-44.67L74.88-44.67L74.88-44.67Q75.52-43.90 75.58-42.69L75.58-42.69L76.22-24.26L73.34-20.48L78.46-1.41L77.25 0L73.47 0L70.21-19.90L66.94-19.58L65.60 0L62.66 0L62.66-44.74ZM66.69-24.38L71.49-24.64L71.49-24.64Q71.87-24.64 71.87-25.02L71.87-25.02L71.87-40.96L70.91-41.92L66.50-41.47L66.69-24.38ZM91.46 0L84.74 0L80.96-45.44L84.99-45.44L88.83-1.60L89.15-1.60L93.44-44.80L97.66-44.80L91.46 0ZM105.09-45.44L106.43-1.28L101.06-1.28L101.06-45.44L105.09-45.44ZM126.27-5.31L126.27 0L112.58 0L112.58-45.44L126.27-45.44L126.27-41.47L118.27-41.86L118.27-27.33L126.27-25.86L126.27-22.78L117.18-23.17L117.18-4.80L126.27-5.31ZM154.43-0.64L148.29-0.64L143.42-32L143.17-32L141.70 0L134.98 0L130.56-45.44L134.72-45.44L137.98-2.37L138.24-2.37L141.38-44.16L145.98-44.16L145.60-34.50L150.91-2.11L151.23-2.11L152.64-44.80L156.54-44.80L154.43-0.64ZM184.38-45.44L184.38-41.79L179.78-41.79L179.78-1.28L174.40-1.28L174.40-42.24L169.98-43.01L170.62-45.44L184.38-45.44ZM202.30 0L193.79 0L193.79 0Q191.17 0 190.14-0.83L190.14-0.83L190.14-0.83Q189.12-1.66 189.12-3.58L189.12-3.58L189.12-43.90L189.12-43.90Q190.53-44.67 192.80-45.06L192.80-45.06L192.80-45.06Q195.07-45.44 198.85-45.44L198.85-45.44L198.85-45.44Q200.58-45.44 201.66-44.58L201.66-44.58L201.66-44.58Q202.75-43.71 202.75-42.37L202.75-42.37L202.30 0ZM193.22-4.03L197.76-3.65L198.34-4.22L198.72-40.77L198.72-40.77Q198.72-41.09 198.14-41.15L198.14-41.15L194.18-41.34L193.60-40.96L193.22-4.03ZM222.27 0L213.76 0L213.76 0Q211.14 0 210.11-0.83L210.11-0.83L210.11-0.83Q209.09-1.66 209.09-3.58L209.09-3.58L209.09-43.90L209.09-43.90Q210.50-44.67 212.77-45.06L212.77-45.06L212.77-45.06Q215.04-45.44 218.82-45.44L218.82-45.44L218.82-45.44Q220.54-45.44 221.63-44.58L221.63-44.58L221.63-44.58Q222.72-43.71 222.72-42.37L222.72-42.37L222.27 0ZM213.18-4.03L217.73-3.65L218.30-4.22L218.69-40.77L218.69-40.77Q218.69-41.09 218.11-41.15L218.11-41.15L214.14-41.34L213.57-40.96L213.18-4.03ZM242.05-4.42L242.05 0L229.12 0L229.12-45.44L233.86-45.44L233.86-6.72L234.82-5.25L242.05-4.42Z" fill="#ccc"></path></g></g><style>text {
  font-size: 64px;
  font-family: Arial Black;
  dominant-baseline: central;
  text-anchor: middle;
}</style></svg>