<svg width="513.6000122070312px" height="122.39999389648438px" xmlns="http://www.w3.org/2000/svg" viewBox="-6.800006103515614 13.800003051757812 513.6000122070312 122.39999389648438" style="background: none;" preserveAspectRatio="xMidYMid"><defs><filter id="editing-extrusion" x="-100%" y="-100%" width="300%" height="300%"><feFlood result="color1" flood-color="#444"></feFlood><feConvolveMatrix order="8,8" divisor="1" kernelMatrix="1 0 0 0 0 0 0 0 0 1 0 0 0 0 0 0 0 0 1 0 0 0 0 0 0 0 0 1 0 0 0 0 0 0 0 0 1 0 0 0 0 0 0 0 0 1 0 0 0 0 0 0 0 0 1 0 0 0 0 0 0 0 0 1" in="SourceAlpha" result="extrude"></feConvolveMatrix><feComposite in="color1" in2="extrude" result="comp-extrude" operator="in"></feComposite><feOffset dx="4" dy="4" in="comp-extrude" result="offset-extrude"></feOffset><feMerge><feMergeNode in="offset-extrude"></feMergeNode><feMergeNode in="SourceGraphic"></feMergeNode></feMerge></filter></defs><g filter="url(#editing-extrusion)"><g transform="translate(68.7849817276001, 99)"><path d="M11.14-45.44L11.14-45.44Q13.57-45.44 15.23-44.51L15.23-44.51L15.23-44.51Q16.90-43.58 16.90-42.30L16.90-42.30L16.90-24.26L16.90-24.26Q16.90-23.55 16.42-22.50L16.42-22.50L16.42-22.50Q15.94-21.44 14.46-20.51L14.46-20.51L14.46-20.51Q12.99-19.58 10.30-19.58L10.30-19.58L6.91-19.58L6.91 0L3.20 0L3.20-42.82L1.79-43.58L1.79-45.44L11.14-45.44ZM7.81-23.87L7.81-23.87Q7.81-23.68 8.03-23.52L8.03-23.52L8.03-23.52Q8.26-23.36 8.58-23.36L8.58-23.36L11.33-24L11.33-24Q11.71-24 11.71-24.38L11.71-24.38L12.35-40.51L12.35-40.51Q12.29-41.34 11.65-41.95L11.65-41.95L11.65-41.95Q11.01-42.56 9.66-42.56L9.66-42.56L8.58-42.56L8.58-42.56Q7.81-42.56 7.81-42.11L7.81-42.11L7.81-23.87ZM22.66-44.74L22.66-44.74Q22.66-45.06 25.28-45.25L25.28-45.25L25.28-45.25Q27.90-45.44 30.46-45.44L30.46-45.44L33.22-45.44L33.22-45.44Q34.24-45.44 34.88-44.67L34.88-44.67L34.88-44.67Q35.52-43.90 35.58-42.69L35.58-42.69L36.22-24.26L33.34-20.48L38.46-1.41L37.25 0L33.47 0L30.21-19.90L26.94-19.58L25.60 0L22.66 0L22.66-44.74ZM26.69-24.38L31.49-24.64L31.49-24.64Q31.87-24.64 31.87-25.02L31.87-25.02L31.87-40.96L30.91-41.92L26.50-41.47L26.69-24.38ZM56.19 0L47.68 0L47.68 0Q45.06 0 44.03-0.83L44.03-0.83L44.03-0.83Q43.01-1.66 43.01-3.58L43.01-3.58L43.01-43.90L43.01-43.90Q44.42-44.67 46.69-45.06L46.69-45.06L46.69-45.06Q48.96-45.44 52.74-45.44L52.74-45.44L52.74-45.44Q54.46-45.44 55.55-44.58L55.55-44.58L55.55-44.58Q56.64-43.71 56.64-42.37L56.64-42.37L56.19 0ZM47.10-4.03L51.65-3.65L52.22-4.22L52.61-40.77L52.61-40.77Q52.61-41.09 52.03-41.15L52.03-41.15L48.06-41.34L47.49-40.96L47.10-4.03ZM74.05 0L65.34 0L65.34 0Q64.45 0 63.55-0.77L63.55-0.77L63.55-0.77Q62.66-1.54 62.59-2.43L62.59-2.43L62.08-11.01L65.22-11.01L65.54-6.02L70.34-5.70L70.34-44.54L72.90-45.44L75.26-45.44L74.05 0ZM95.30-5.31L95.30 0L81.60 0L81.60-45.44L95.30-45.44L95.30-41.47L87.30-41.86L87.30-27.33L95.30-25.86L95.30-22.78L86.21-23.17L86.21-4.80L95.30-5.31ZM118.14-11.97L118.14-1.28L104.51-1.28L101.89-3.97L103.17-41.79L103.17-41.79Q103.23-43.20 104.35-44.32L104.35-44.32L104.35-44.32Q105.47-45.44 107.46-45.44L107.46-45.44L108.29-45.38L118.14-44.10L117.12-33.79L114.18-33.79L114.18-39.74L114.18-39.74Q114.18-40.32 113.41-40.32L113.41-40.32L109.44-40.32L109.44-40.32Q108.22-40.32 107.68-39.33L107.68-39.33L107.68-39.33Q107.14-38.34 107.14-37.12L107.14-37.12L107.14-37.12Q107.14-36.42 107.33-36.29L107.33-36.29L107.33-6.34L107.33-6.34Q107.14-6.27 107.14-6.14L107.14-6.14L107.14-6.14Q107.14-5.95 107.71-5.95L107.71-5.95L114.05-5.95L114.05-5.95Q114.82-5.95 114.82-6.34L114.82-6.34L114.82-11.14L116.03-11.90L118.14-11.97ZM123.01-45.44L136.26-44.54L136.58-40.51L130.94-40.51L130.94 0L125.50 0L126.78-39.36L122.18-40.90L123.01-45.44ZM154.82 1.28L151.49 1.28L151.49-45.44L157.25-45.44L160.58-21.25L160.96-21.25L163.97-46.72L170.18-46.72L170.18 0L165.95 0L167.36-42.30L167.10-42.30L161.54-11.58L159.62-11.58L155.07-39.04L154.82-39.04L154.82 1.28ZM187.07-45.44L189.70 0L186.88 0L184.58-17.02L179.46-14.59L178.05 0L174.08 0L176.96-45.44L187.07-45.44ZM183.74-42.37L183.74-42.37Q183.74-42.75 183.36-42.75L183.36-42.75L180.61-42.11L180.61-42.11Q180.22-41.92 180.22-41.47L180.22-41.47L180.22-18.94L180.22-18.94Q180.22-18.62 180.61-18.62L180.61-18.62L182.98-19.01L182.98-19.01Q183.36-19.01 183.36-19.39L183.36-19.39L183.74-42.37ZM210.69-45.44L209.41 1.28L205.06 1.28L198.78-35.46L198.53-35.46L197.31 1.28L194.05 1.28L196.10-45.44L200-45.44L206.46-8.38L206.91-8.38L206.91-45.44L210.69-45.44ZM228.22-45.44L230.85 0L228.03 0L225.73-17.02L220.61-14.59L219.20 0L215.23 0L218.11-45.44L228.22-45.44ZM224.90-42.37L224.90-42.37Q224.90-42.75 224.51-42.75L224.51-42.75L221.76-42.11L221.76-42.11Q221.38-41.92 221.38-41.47L221.38-41.47L221.38-18.94L221.38-18.94Q221.38-18.62 221.76-18.62L221.76-18.62L224.13-19.01L224.13-19.01Q224.51-19.01 224.51-19.39L224.51-19.39L224.90-42.37ZM253.50-18.82L251.01-17.73L251.01-3.71L251.01-3.71Q251.01-2.05 249.66-1.02L249.66-1.02L249.66-1.02Q248.32 0 246.53 0L246.53 0L236.93 0L235.52-41.98L235.52-41.98Q235.58-43.52 236.45-44.48L236.45-44.48L236.45-44.48Q237.31-45.44 238.66-45.44L238.66-45.44L251.46-45.44L251.46-42.75L250.30-35.78L247.49-35.78L247.49-41.92L240.32-40.32L241.41-7.17L241.41-7.17Q241.41-6.72 241.86-6.37L241.86-6.37L241.86-6.37Q242.30-6.02 242.75-6.02L242.75-6.02L245.70-6.02L245.70-6.02Q246.14-6.02 246.56-6.24L246.56-6.24L246.56-6.24Q246.98-6.46 246.98-6.78L246.98-6.78L246.98-21.95L253.50-21.31L253.50-18.82ZM272.96-5.31L272.96 0L259.26 0L259.26-45.44L272.96-45.44L272.96-41.47L264.96-41.86L264.96-27.33L272.96-25.86L272.96-22.78L263.87-23.17L263.87-4.80L272.96-5.31ZM283.39 0L280.06 0L280.06-45.44L284.67-45.44L289.34-17.66L289.86-17.66L294.21-45.44L297.92-45.44L299.39 0L295.17 0L295.17-34.24L294.72-34.24L290.30-10.05L288.19-9.60L283.65-37.70L283.39-37.70L283.39 0ZM319.30-5.31L319.30 0L305.60 0L305.60-45.44L319.30-45.44L319.30-41.47L311.30-41.86L311.30-27.33L319.30-25.86L319.30-22.78L310.21-23.17L310.21-4.80L319.30-5.31ZM342.08-45.44L340.80 1.28L336.45 1.28L330.18-35.46L329.92-35.46L328.70 1.28L325.44 1.28L327.49-45.44L331.39-45.44L337.86-8.38L338.30-8.38L338.30-45.44L342.08-45.44ZM347.07-45.44L360.32-44.54L360.64-40.51L355.01-40.51L355.01 0L349.57 0L350.85-39.36L346.24-40.90L347.07-45.44Z" fill="#ccc"></path></g></g><style>text {
  font-size: 64px;
  font-family: Arial Black;
  dominant-baseline: central;
  text-anchor: middle;
}</style></svg>