<svg width="232.0400146484375px" height="122.39999389648438px" xmlns="http://www.w3.org/2000/svg" viewBox="133.97999267578126 13.800003051757812 232.0400146484375 122.39999389648438" style="background: none;" preserveAspectRatio="xMidYMid"><defs><filter id="editing-extrusion" x="-100%" y="-100%" width="300%" height="300%"><feFlood result="color1" flood-color="#444"></feFlood><feConvolveMatrix order="8,8" divisor="1" kernelMatrix="1 0 0 0 0 0 0 0 0 1 0 0 0 0 0 0 0 0 1 0 0 0 0 0 0 0 0 1 0 0 0 0 0 0 0 0 1 0 0 0 0 0 0 0 0 1 0 0 0 0 0 0 0 0 1 0 0 0 0 0 0 0 0 1" in="SourceAlpha" result="extrude"></feConvolveMatrix><feComposite in="color1" in2="extrude" result="comp-extrude" operator="in"></feComposite><feOffset dx="4" dy="4" in="comp-extrude" result="offset-extrude"></feOffset><feMerge><feMergeNode in="offset-extrude"></feMergeNode><feMergeNode in="SourceGraphic"></feMergeNode></feMerge></filter></defs><g filter="url(#editing-extrusion)"><g transform="translate(172.68999576568604, 97.71999931335449)"><path d="M11.14-45.44L11.14-45.44Q13.57-45.44 15.23-44.51L15.23-44.51L15.23-44.51Q16.90-43.58 16.90-42.30L16.90-42.30L16.90-24.26L16.90-24.26Q16.90-23.55 16.42-22.50L16.42-22.50L16.42-22.50Q15.94-21.44 14.46-20.51L14.46-20.51L14.46-20.51Q12.99-19.58 10.30-19.58L10.30-19.58L6.91-19.58L6.91 0L3.20 0L3.20-42.82L1.79-43.58L1.79-45.44L11.14-45.44ZM7.81-23.87L7.81-23.87Q7.81-23.68 8.03-23.52L8.03-23.52L8.03-23.52Q8.26-23.36 8.58-23.36L8.58-23.36L11.33-24L11.33-24Q11.71-24 11.71-24.38L11.71-24.38L12.35-40.51L12.35-40.51Q12.29-41.34 11.65-41.95L11.65-41.95L11.65-41.95Q11.01-42.56 9.66-42.56L9.66-42.56L8.58-42.56L8.58-42.56Q7.81-42.56 7.81-42.11L7.81-42.11L7.81-23.87ZM22.66-44.74L22.66-44.74Q22.66-45.06 25.28-45.25L25.28-45.25L25.28-45.25Q27.90-45.44 30.46-45.44L30.46-45.44L33.22-45.44L33.22-45.44Q34.24-45.44 34.88-44.67L34.88-44.67L34.88-44.67Q35.52-43.90 35.58-42.69L35.58-42.69L36.22-24.26L33.34-20.48L38.46-1.41L37.25 0L33.47 0L30.21-19.90L26.94-19.58L25.60 0L22.66 0L22.66-44.74ZM26.69-24.38L31.49-24.64L31.49-24.64Q31.87-24.64 31.87-25.02L31.87-25.02L31.87-40.96L30.91-41.92L26.50-41.47L26.69-24.38ZM56.19 0L47.68 0L47.68 0Q45.06 0 44.03-0.83L44.03-0.83L44.03-0.83Q43.01-1.66 43.01-3.58L43.01-3.58L43.01-43.90L43.01-43.90Q44.42-44.67 46.69-45.06L46.69-45.06L46.69-45.06Q48.96-45.44 52.74-45.44L52.74-45.44L52.74-45.44Q54.46-45.44 55.55-44.58L55.55-44.58L55.55-44.58Q56.64-43.71 56.64-42.37L56.64-42.37L56.19 0ZM47.10-4.03L51.65-3.65L52.22-4.22L52.61-40.77L52.61-40.77Q52.61-41.09 52.03-41.15L52.03-41.15L48.06-41.34L47.49-40.96L47.10-4.03ZM63.55-43.97L63.55-43.97Q63.55-44.61 65.92-45.02L65.92-45.02L65.92-45.02Q68.29-45.44 70.53-45.44L70.53-45.44L73.28-45.44L73.28-45.44Q74.11-45.44 74.85-45.09L74.85-45.09L74.85-45.09Q75.58-44.74 75.58-44.10L75.58-44.10L76.29-24.26L74.05-20.29L67.01-19.58L66.50 0L62.08 0L63.55-43.97ZM67.39-24.45L71.55-24.64L71.55-24.64Q71.94-24.64 71.94-25.02L71.94-25.02L71.94-41.60L70.98-42.56L67.39-42.11L67.39-24.45ZM94.85 0L86.34 0L86.34 0Q83.71 0 82.69-0.83L82.69-0.83L82.69-0.83Q81.66-1.66 81.66-3.58L81.66-3.58L81.66-43.90L81.66-43.90Q83.07-44.67 85.34-45.06L85.34-45.06L85.34-45.06Q87.62-45.44 91.39-45.44L91.39-45.44L91.39-45.44Q93.12-45.44 94.21-44.58L94.21-44.58L94.21-44.58Q95.30-43.71 95.30-42.37L95.30-42.37L94.85 0ZM85.76-4.03L90.30-3.65L90.88-4.22L91.26-40.77L91.26-40.77Q91.26-41.09 90.69-41.15L90.69-41.15L86.72-41.34L86.14-40.96L85.76-4.03ZM113.79-36.42L111.42-36.42L110.14-41.41L106.30-40.96L105.34-26.75L114.62-25.09L113.73-3.84L113.73-3.84Q113.73-2.56 112.06-1.28L112.06-1.28L112.06-1.28Q110.40 0 108.99 0L108.99 0L101.50 0L100.93-10.94L104.70-10.94L104.64-5.38L109.12-4.35L110.14-21.38L101.50-23.30L101.50-43.90L104.06-45.44L114.11-45.44L113.79-36.42ZM131.97-45.44L134.59 0L131.78 0L129.47-17.02L124.35-14.59L122.94 0L118.98 0L121.86-45.44L131.97-45.44ZM128.64-42.37L128.64-42.37Q128.64-42.75 128.26-42.75L128.26-42.75L125.50-42.11L125.50-42.11Q125.12-41.92 125.12-41.47L125.12-41.47L125.12-18.94L125.12-18.94Q125.12-18.62 125.50-18.62L125.50-18.62L127.87-19.01L127.87-19.01Q128.26-19.01 128.26-19.39L128.26-19.39L128.64-42.37ZM152.83-4.42L152.83 0L139.90 0L139.90-45.44L144.64-45.44L144.64-6.72L145.60-5.25L152.83-4.42Z" fill="#ccc"></path></g></g><style>text {
  font-size: 64px;
  font-family: Arial Black;
  dominant-baseline: central;
  text-anchor: middle;
}</style></svg>