<svg width="280.6800048828125px" height="122.39999389648438px" xmlns="http://www.w3.org/2000/svg" viewBox="109.65999755859374 13.800003051757812 280.6800048828125 122.39999389648438" style="background: none;" preserveAspectRatio="xMidYMid"><defs><filter id="editing-extrusion" x="-100%" y="-100%" width="300%" height="300%"><feFlood result="color1" flood-color="#444444"></feFlood><feConvolveMatrix order="8,8" divisor="1" kernelMatrix="1 0 0 0 0 0 0 0 0 1 0 0 0 0 0 0 0 0 1 0 0 0 0 0 0 0 0 1 0 0 0 0 0 0 0 0 1 0 0 0 0 0 0 0 0 1 0 0 0 0 0 0 0 0 1 0 0 0 0 0 0 0 0 1" in="SourceAlpha" result="extrude"></feConvolveMatrix><feComposite in="color1" in2="extrude" result="comp-extrude" operator="in"></feComposite><feOffset dx="4" dy="4" in="comp-extrude" result="offset-extrude"></feOffset><feMerge><feMergeNode in="offset-extrude"></feMergeNode><feMergeNode in="SourceGraphic"></feMergeNode></feMerge></filter></defs><g filter="url(#editing-extrusion)"><g transform="translate(154.12999820709229, 98.35999870300293)"><path d="M6.91-19.90L6.91 0L3.20 0L3.20-42.82L1.79-43.58L1.79-45.44L11.78-45.44L11.78-45.44Q14.21-45.44 15.84-44.51L15.84-44.51L15.84-44.51Q17.47-43.58 17.54-42.30L17.54-42.30L16.90-24.58L16.90-24.58Q16.90-23.62 16.03-22.24L16.03-22.24L16.03-22.24Q15.17-20.86 12.86-20.22L12.86-20.22L16.64-13.18L17.98 0L13.31 0.19L12.29-12.35L8.77-19.90L6.91-19.90ZM7.81-24.51L7.81-24.51Q7.81-24.32 8.03-24.16L8.03-24.16L8.03-24.16Q8.26-24 8.58-24L8.58-24L11.97-24L11.97-24Q12.35-24 12.35-24.38L12.35-24.38L12.74-40.58L12.74-40.58Q12.74-41.47 11.94-42.08L11.94-42.08L11.94-42.08Q11.14-42.69 8.58-42.69L8.58-42.69L8.58-42.69Q7.81-42.43 7.81-41.92L7.81-41.92L7.81-24.51ZM37.63-5.31L37.63 0L23.94 0L23.94-45.44L37.63-45.44L37.63-41.47L29.63-41.86L29.63-27.33L37.63-25.86L37.63-22.78L28.54-23.17L28.54-4.80L37.63-5.31ZM50.30 1.28L45.06 1.28L45.06-45.44L58.75-44.16L58.75-40.19L50.11-39.42L50.11-28.61L58.75-28.61L58.75-24.90L49.02-23.81L50.30 1.28ZM77.57-4.42L77.57 0L64.64 0L64.64-45.44L69.38-45.44L69.38-6.72L70.34-5.25L77.57-4.42ZM97.02-5.31L97.02 0L83.33 0L83.33-45.44L97.02-45.44L97.02-41.47L89.02-41.86L89.02-27.33L97.02-25.86L97.02-22.78L87.94-23.17L87.94-4.80L97.02-5.31ZM119.87-11.97L119.87-1.28L106.24-1.28L103.62-3.97L104.90-41.79L104.90-41.79Q104.96-43.20 106.08-44.32L106.08-44.32L106.08-44.32Q107.20-45.44 109.18-45.44L109.18-45.44L110.02-45.38L119.87-44.10L118.85-33.79L115.90-33.79L115.90-39.74L115.90-39.74Q115.90-40.32 115.14-40.32L115.14-40.32L111.17-40.32L111.17-40.32Q109.95-40.32 109.41-39.33L109.41-39.33L109.41-39.33Q108.86-38.34 108.86-37.12L108.86-37.12L108.86-37.12Q108.86-36.42 109.06-36.29L109.06-36.29L109.06-6.34L109.06-6.34Q108.86-6.27 108.86-6.14L108.86-6.14L108.86-6.14Q108.86-5.95 109.44-5.95L109.44-5.95L115.78-5.95L115.78-5.95Q116.54-5.95 116.54-6.34L116.54-6.34L116.54-11.14L117.76-11.90L119.87-11.97ZM124.74-45.44L137.98-44.54L138.30-40.51L132.67-40.51L132.67 0L127.23 0L128.51-39.36L123.90-40.90L124.74-45.44ZM147.14-45.44L148.48-1.28L143.10-1.28L143.10-45.44L147.14-45.44ZM167.42 0L158.91 0L158.91 0Q156.29 0 155.26-0.83L155.26-0.83L155.26-0.83Q154.24-1.66 154.24-3.58L154.24-3.58L154.24-43.90L154.24-43.90Q155.65-44.67 157.92-45.06L157.92-45.06L157.92-45.06Q160.19-45.44 163.97-45.44L163.97-45.44L163.97-45.44Q165.70-45.44 166.78-44.58L166.78-44.58L166.78-44.58Q167.87-43.71 167.87-42.37L167.87-42.37L167.42 0ZM158.34-4.03L162.88-3.65L163.46-4.22L163.84-40.77L163.84-40.77Q163.84-41.09 163.26-41.15L163.26-41.15L159.30-41.34L158.72-40.96L158.34-4.03ZM189.95-45.44L188.67 1.28L184.32 1.28L178.05-35.46L177.79-35.46L176.58 1.28L173.31 1.28L175.36-45.44L179.26-45.44L185.73-8.38L186.18-8.38L186.18-45.44L189.95-45.44Z" fill="#ccc"></path></g></g><style>text {
  font-size: 64px;
  font-family: Arial Black;
  dominant-baseline: central;
  text-anchor: middle;
}</style></svg>