<svg width="467.6599853515625px" height="122.39999389648438px" xmlns="http://www.w3.org/2000/svg" viewBox="16.170007324218744 13.800003051757812 467.6599853515625 122.39999389648438" style="background: none;" preserveAspectRatio="xMidYMid"><defs><filter id="editing-extrusion" x="-100%" y="-100%" width="300%" height="300%"><feFlood result="color1" flood-color="#444444"></feFlood><feConvolveMatrix order="8,8" divisor="1" kernelMatrix="1 0 0 0 0 0 0 0 0 1 0 0 0 0 0 0 0 0 1 0 0 0 0 0 0 0 0 1 0 0 0 0 0 0 0 0 1 0 0 0 0 0 0 0 0 1 0 0 0 0 0 0 0 0 1 0 0 0 0 0 0 0 0 1" in="SourceAlpha" result="extrude"></feConvolveMatrix><feComposite in="color1" in2="extrude" result="comp-extrude" operator="in"></feComposite><feOffset dx="4" dy="4" in="comp-extrude" result="offset-extrude"></feOffset><feMerge><feMergeNode in="offset-extrude"></feMergeNode><feMergeNode in="SourceGraphic"></feMergeNode></feMerge></filter></defs><g filter="url(#editing-extrusion)"><g transform="translate(86.51500034332275, 98.35999870300293)"><path d="M6.91-19.90L6.91 0L3.20 0L3.20-42.82L1.79-43.58L1.79-45.44L11.78-45.44L11.78-45.44Q14.21-45.44 15.84-44.51L15.84-44.51L15.84-44.51Q17.47-43.58 17.54-42.30L17.54-42.30L16.90-24.58L16.90-24.58Q16.90-23.62 16.03-22.24L16.03-22.24L16.03-22.24Q15.17-20.86 12.86-20.22L12.86-20.22L16.64-13.18L17.98 0L13.31 0.19L12.29-12.35L8.77-19.90L6.91-19.90ZM7.81-24.51L7.81-24.51Q7.81-24.32 8.03-24.16L8.03-24.16L8.03-24.16Q8.26-24 8.58-24L8.58-24L11.97-24L11.97-24Q12.35-24 12.35-24.38L12.35-24.38L12.74-40.58L12.74-40.58Q12.74-41.47 11.94-42.08L11.94-42.08L11.94-42.08Q11.14-42.69 8.58-42.69L8.58-42.69L8.58-42.69Q7.81-42.43 7.81-41.92L7.81-41.92L7.81-24.51ZM37.63-5.31L37.63 0L23.94 0L23.94-45.44L37.63-45.44L37.63-41.47L29.63-41.86L29.63-27.33L37.63-25.86L37.63-22.78L28.54-23.17L28.54-4.80L37.63-5.31ZM45.25-43.97L45.25-43.97Q45.25-44.61 47.62-45.02L47.62-45.02L47.62-45.02Q49.98-45.44 52.22-45.44L52.22-45.44L54.98-45.44L54.98-45.44Q55.81-45.44 56.54-45.09L56.54-45.09L56.54-45.09Q57.28-44.74 57.28-44.10L57.28-44.10L57.98-24.26L55.74-20.29L48.70-19.58L48.19 0L43.78 0L45.25-43.97ZM49.09-24.45L53.25-24.64L53.25-24.64Q53.63-24.64 53.63-25.02L53.63-25.02L53.63-41.60L52.67-42.56L49.09-42.11L49.09-24.45ZM76.54 0L68.03 0L68.03 0Q65.41 0 64.38-0.83L64.38-0.83L64.38-0.83Q63.36-1.66 63.36-3.58L63.36-3.58L63.36-43.90L63.36-43.90Q64.77-44.67 67.04-45.06L67.04-45.06L67.04-45.06Q69.31-45.44 73.09-45.44L73.09-45.44L73.09-45.44Q74.82-45.44 75.90-44.58L75.90-44.58L75.90-44.58Q76.99-43.71 76.99-42.37L76.99-42.37L76.54 0ZM67.46-4.03L72-3.65L72.58-4.22L72.96-40.77L72.96-40.77Q72.96-41.09 72.38-41.15L72.38-41.15L68.42-41.34L67.84-40.96L67.46-4.03ZM83.39-44.74L83.39-44.74Q83.39-45.06 86.02-45.25L86.02-45.25L86.02-45.25Q88.64-45.44 91.20-45.44L91.20-45.44L93.95-45.44L93.95-45.44Q94.98-45.44 95.62-44.67L95.62-44.67L95.62-44.67Q96.26-43.90 96.32-42.69L96.32-42.69L96.96-24.26L94.08-20.48L99.20-1.41L97.98 0L94.21 0L90.94-19.90L87.68-19.58L86.34 0L83.39 0L83.39-44.74ZM87.42-24.38L92.22-24.64L92.22-24.64Q92.61-24.64 92.61-25.02L92.61-25.02L92.61-40.96L91.65-41.92L87.23-41.47L87.42-24.38ZM103.04-45.44L116.29-44.54L116.61-40.51L110.98-40.51L110.98 0L105.54 0L106.82-39.36L102.21-40.90L103.04-45.44ZM149.57-1.28L136.13-1.28L136.13-1.28Q134.72-1.28 133.76-2.56L133.76-2.56L133.76-2.56Q132.80-3.84 132.80-6.21L132.80-6.21L132.80-41.98L135.10-45.44L148.74-45.44L148.74-35.90L145.98-35.90L144.06-41.66L139.78-41.66L139.78-41.66Q137.22-41.66 137.09-38.78L137.09-38.78L138.24-7.04L138.24-7.04Q138.24-6.59 138.69-6.24L138.69-6.24L138.69-6.24Q139.14-5.89 139.58-5.89L139.58-5.89L144.26-5.89L144.26-5.89Q144.70-5.89 145.12-6.11L145.12-6.11L145.12-6.11Q145.54-6.34 145.54-6.66L145.54-6.66L146.18-19.07L142.34-19.20L142.34-22.78L149.57-23.62L149.57-1.28ZM170.94-5.31L170.94 0L157.25 0L157.25-45.44L170.94-45.44L170.94-41.47L162.94-41.86L162.94-27.33L170.94-25.86L170.94-22.78L161.86-23.17L161.86-4.80L170.94-5.31ZM193.73-45.44L192.45 1.28L188.10 1.28L181.82-35.46L181.57-35.46L180.35 1.28L177.09 1.28L179.14-45.44L183.04-45.44L189.50-8.38L189.95-8.38L189.95-45.44L193.73-45.44ZM213.50-5.31L213.50 0L199.81 0L199.81-45.44L213.50-45.44L213.50-41.47L205.50-41.86L205.50-27.33L213.50-25.86L213.50-22.78L204.42-23.17L204.42-4.80L213.50-5.31ZM220.61-44.74L220.61-44.74Q220.61-45.06 223.23-45.25L223.23-45.25L223.23-45.25Q225.86-45.44 228.42-45.44L228.42-45.44L231.17-45.44L231.17-45.44Q232.19-45.44 232.83-44.67L232.83-44.67L232.83-44.67Q233.47-43.90 233.54-42.69L233.54-42.69L234.18-24.26L231.30-20.48L236.42-1.41L235.20 0L231.42 0L228.16-19.90L224.90-19.58L223.55 0L220.61 0L220.61-44.74ZM224.64-24.38L229.44-24.64L229.44-24.64Q229.82-24.64 229.82-25.02L229.82-25.02L229.82-40.96L228.86-41.92L224.45-41.47L224.64-24.38ZM252.80-45.44L255.42 0L252.61 0L250.30-17.02L245.18-14.59L243.78 0L239.81 0L242.69-45.44L252.80-45.44ZM249.47-42.37L249.47-42.37Q249.47-42.75 249.09-42.75L249.09-42.75L246.34-42.11L246.34-42.11Q245.95-41.92 245.95-41.47L245.95-41.47L245.95-18.94L245.95-18.94Q245.95-18.62 246.34-18.62L246.34-18.62L248.70-19.01L248.70-19.01Q249.09-19.01 249.09-19.39L249.09-19.39L249.47-42.37ZM259.97-45.44L273.22-44.54L273.54-40.51L267.90-40.51L267.90 0L262.46 0L263.74-39.36L259.14-40.90L259.97-45.44ZM282.37-45.44L283.71-1.28L278.34-1.28L278.34-45.44L282.37-45.44ZM302.66 0L294.14 0L294.14 0Q291.52 0 290.50-0.83L290.50-0.83L290.50-0.83Q289.47-1.66 289.47-3.58L289.47-3.58L289.47-43.90L289.47-43.90Q290.88-44.67 293.15-45.06L293.15-45.06L293.15-45.06Q295.42-45.44 299.20-45.44L299.20-45.44L299.20-45.44Q300.93-45.44 302.02-44.58L302.02-44.58L302.02-44.58Q303.10-43.71 303.10-42.37L303.10-42.37L302.66 0ZM293.57-4.03L298.11-3.65L298.69-4.22L299.07-40.77L299.07-40.77Q299.07-41.09 298.50-41.15L298.50-41.15L294.53-41.34L293.95-40.96L293.57-4.03ZM325.18-45.44L323.90 1.28L319.55 1.28L313.28-35.46L313.02-35.46L311.81 1.28L308.54 1.28L310.59-45.44L314.50-45.44L320.96-8.38L321.41-8.38L321.41-45.44L325.18-45.44Z" fill="#ccc"></path></g></g><style>text {
  font-size: 64px;
  font-family: Arial Black;
  dominant-baseline: central;
  text-anchor: middle;
}</style></svg>