<svg width="488.44000244140625px" height="122.39999389648438px" xmlns="http://www.w3.org/2000/svg" viewBox="5.779998779296875 13.800003051757812 488.44000244140625 122.39999389648438" style="background: none;" preserveAspectRatio="xMidYMid"><defs><filter id="editing-extrusion" x="-100%" y="-100%" width="300%" height="300%"><feFlood result="color1" flood-color="#444444"></feFlood><feConvolveMatrix order="8,8" divisor="1" kernelMatrix="1 0 0 0 0 0 0 0 0 1 0 0 0 0 0 0 0 0 1 0 0 0 0 0 0 0 0 1 0 0 0 0 0 0 0 0 1 0 0 0 0 0 0 0 0 1 0 0 0 0 0 0 0 0 1 0 0 0 0 0 0 0 0 1" in="SourceAlpha" result="extrude"></feConvolveMatrix><feComposite in="color1" in2="extrude" result="comp-extrude" operator="in"></feComposite><feOffset dx="4" dy="4" in="comp-extrude" result="offset-extrude"></feOffset><feMerge><feMergeNode in="offset-extrude"></feMergeNode><feMergeNode in="SourceGraphic"></feMergeNode></feMerge></filter></defs><g filter="url(#editing-extrusion)"><g transform="translate(75.78999090194702, 97.71999931335449)"><path d="M6.72-41.09L7.68-26.94L15.81-24.83L15.81-3.84L15.81-3.84Q15.81-2.50 14.46-1.25L14.46-1.25L14.46-1.25Q13.12 0 11.71 0L11.71 0L2.56 0L2.56-4.35L11.46-4.35L9.92-21.50L2.56-23.42L2.56-42.43L2.56-42.43Q2.56-43.46 3.36-44.45L3.36-44.45L3.36-44.45Q4.16-45.44 5.12-45.44L5.12-45.44L15.81-45.44L15.81-42.30L6.72-41.09ZM22.21 0L22.21-5.89L28.35-6.14L28.10 0L22.21 0ZM46.85-4.10L46.85 0L34.75 0L34.75-45.44L40.96-45.44L39.62-5.25L46.85-4.10ZM52.29 0L52.29-5.89L58.43-6.14L58.18 0L52.29 0ZM77.63-45.44L77.63-41.79L73.02-41.79L73.02-1.28L67.65-1.28L67.65-42.24L63.23-43.01L63.87-45.44L77.63-45.44ZM83.07 0L83.07-5.89L89.22-6.14L88.96 0L83.07 0ZM107.01-43.39L109.76-45.44L118.40-45.44L120.96-43.65L120.96-2.30L116.93 0L110.78 0L107.01-2.69L107.01-43.39ZM116.67-41.54L116.67-41.54Q116.67-42.11 116.10-42.11L116.10-42.11L112.77-42.11L112.77-42.11Q112.19-42.11 112.19-41.54L112.19-41.54L112.19-4.86L112.19-4.86Q112.19-4.48 112.77-4.48L112.77-4.48L115.46-4.48L115.46-4.48Q116.03-4.48 116.03-4.86L116.03-4.86L116.67-41.54ZM135.74 0L129.02 0L125.25-45.44L129.28-45.44L133.12-1.60L133.44-1.60L137.73-44.80L141.95-44.80L135.74 0ZM159.36-5.31L159.36 0L145.66 0L145.66-45.44L159.36-45.44L159.36-41.47L151.36-41.86L151.36-27.33L159.36-25.86L159.36-22.78L150.27-23.17L150.27-4.80L159.36-5.31ZM166.46-44.74L166.46-44.74Q166.46-45.06 169.09-45.25L169.09-45.25L169.09-45.25Q171.71-45.44 174.27-45.44L174.27-45.44L177.02-45.44L177.02-45.44Q178.05-45.44 178.69-44.67L178.69-44.67L178.69-44.67Q179.33-43.90 179.39-42.69L179.39-42.69L180.03-24.26L177.15-20.48L182.27-1.41L181.06 0L177.28 0L174.02-19.90L170.75-19.58L169.41 0L166.46 0L166.46-44.74ZM170.50-24.38L175.30-24.64L175.30-24.64Q175.68-24.64 175.68-25.02L175.68-25.02L175.68-40.96L174.72-41.92L170.30-41.47L170.50-24.38ZM195.26 0L188.54 0L184.77-45.44L188.80-45.44L192.64-1.60L192.96-1.60L197.25-44.80L201.47-44.80L195.26 0ZM208.90-45.44L210.24-1.28L204.86-1.28L204.86-45.44L208.90-45.44ZM230.08-5.31L230.08 0L216.38 0L216.38-45.44L230.08-45.44L230.08-41.47L222.08-41.86L222.08-27.33L230.08-25.86L230.08-22.78L220.99-23.17L220.99-4.80L230.08-5.31ZM258.24-0.64L252.10-0.64L247.23-32L246.98-32L245.50 0L238.78 0L234.37-45.44L238.53-45.44L241.79-2.37L242.05-2.37L245.18-44.16L249.79-44.16L249.41-34.50L254.72-2.11L255.04-2.11L256.45-44.80L260.35-44.80L258.24-0.64ZM288.19-45.44L288.19-41.79L283.58-41.79L283.58-1.28L278.21-1.28L278.21-42.24L273.79-43.01L274.43-45.44L288.19-45.44ZM306.11 0L297.60 0L297.60 0Q294.98 0 293.95-0.83L293.95-0.83L293.95-0.83Q292.93-1.66 292.93-3.58L292.93-3.58L292.93-43.90L292.93-43.90Q294.34-44.67 296.61-45.06L296.61-45.06L296.61-45.06Q298.88-45.44 302.66-45.44L302.66-45.44L302.66-45.44Q304.38-45.44 305.47-44.58L305.47-44.58L305.47-44.58Q306.56-43.71 306.56-42.37L306.56-42.37L306.11 0ZM297.02-4.03L301.57-3.65L302.14-4.22L302.53-40.77L302.53-40.77Q302.53-41.09 301.95-41.15L301.95-41.15L297.98-41.34L297.41-40.96L297.02-4.03ZM326.08 0L317.57 0L317.57 0Q314.94 0 313.92-0.83L313.92-0.83L313.92-0.83Q312.90-1.66 312.90-3.58L312.90-3.58L312.90-43.90L312.90-43.90Q314.30-44.67 316.58-45.06L316.58-45.06L316.58-45.06Q318.85-45.44 322.62-45.44L322.62-45.44L322.62-45.44Q324.35-45.44 325.44-44.58L325.44-44.58L325.44-44.58Q326.53-43.71 326.53-42.37L326.53-42.37L326.08 0ZM316.99-4.03L321.54-3.65L322.11-4.22L322.50-40.77L322.50-40.77Q322.50-41.09 321.92-41.15L321.92-41.15L317.95-41.34L317.38-40.96L316.99-4.03ZM345.86-4.42L345.86 0L332.93 0L332.93-45.44L337.66-45.44L337.66-6.72L338.62-5.25L345.86-4.42Z" fill="#ccc"></path></g></g><style>text {
  font-size: 64px;
  font-family: Arial Black;
  dominant-baseline: central;
  text-anchor: middle;
}</style></svg>