<svg width="434.639990234375px" height="122.39999389648438px" xmlns="http://www.w3.org/2000/svg" viewBox="32.68000488281251 13.800003051757812 434.639990234375 122.39999389648438" style="background: none;" preserveAspectRatio="xMidYMid"><defs><filter id="editing-extrusion" x="-100%" y="-100%" width="300%" height="300%"><feFlood result="color1" flood-color="#444444"></feFlood><feConvolveMatrix order="8,8" divisor="1" kernelMatrix="1 0 0 0 0 0 0 0 0 1 0 0 0 0 0 0 0 0 1 0 0 0 0 0 0 0 0 1 0 0 0 0 0 0 0 0 1 0 0 0 0 0 0 0 0 1 0 0 0 0 0 0 0 0 1 0 0 0 0 0 0 0 0 1" in="SourceAlpha" result="extrude"></feConvolveMatrix><feComposite in="color1" in2="extrude" result="comp-extrude" operator="in"></feComposite><feOffset dx="4" dy="4" in="comp-extrude" result="offset-extrude"></feOffset><feMerge><feMergeNode in="offset-extrude"></feMergeNode><feMergeNode in="SourceGraphic"></feMergeNode></feMerge></filter></defs><g filter="url(#editing-extrusion)"><g transform="translate(95.57001256942749, 97.71999931335449)"><path d="M6.72-41.09L7.68-26.94L15.81-24.83L15.81-3.84L15.81-3.84Q15.81-2.50 14.46-1.25L14.46-1.25L14.46-1.25Q13.12 0 11.71 0L11.71 0L2.56 0L2.56-4.35L11.46-4.35L9.92-21.50L2.56-23.42L2.56-42.43L2.56-42.43Q2.56-43.46 3.36-44.45L3.36-44.45L3.36-44.45Q4.16-45.44 5.12-45.44L5.12-45.44L15.81-45.44L15.81-42.30L6.72-41.09ZM33.66-4.10L33.66 0L21.57 0L21.57-45.44L27.78-45.44L26.43-5.25L33.66-4.10ZM51.26-45.44L51.26-41.79L46.66-41.79L46.66-1.28L41.28-1.28L41.28-42.24L36.86-43.01L37.50-45.44L51.26-45.44ZM67.46-43.39L70.21-45.44L78.85-45.44L81.41-43.65L81.41-2.30L77.38 0L71.23 0L67.46-2.69L67.46-43.39ZM77.12-41.54L77.12-41.54Q77.12-42.11 76.54-42.11L76.54-42.11L73.22-42.11L73.22-42.11Q72.64-42.11 72.64-41.54L72.64-41.54L72.64-4.86L72.64-4.86Q72.64-4.48 73.22-4.48L73.22-4.48L75.90-4.48L75.90-4.48Q76.48-4.48 76.48-4.86L76.48-4.86L77.12-41.54ZM96.19 0L89.47 0L85.70-45.44L89.73-45.44L93.57-1.60L93.89-1.60L98.18-44.80L102.40-44.80L96.19 0ZM119.81-5.31L119.81 0L106.11 0L106.11-45.44L119.81-45.44L119.81-41.47L111.81-41.86L111.81-27.33L119.81-25.86L119.81-22.78L110.72-23.17L110.72-4.80L119.81-5.31ZM126.91-44.74L126.91-44.74Q126.91-45.06 129.54-45.25L129.54-45.25L129.54-45.25Q132.16-45.44 134.72-45.44L134.72-45.44L137.47-45.44L137.47-45.44Q138.50-45.44 139.14-44.67L139.14-44.67L139.14-44.67Q139.78-43.90 139.84-42.69L139.84-42.69L140.48-24.26L137.60-20.48L142.72-1.41L141.50 0L137.73 0L134.46-19.90L131.20-19.58L129.86 0L126.91 0L126.91-44.74ZM130.94-24.38L135.74-24.64L135.74-24.64Q136.13-24.64 136.13-25.02L136.13-25.02L136.13-40.96L135.17-41.92L130.75-41.47L130.94-24.38ZM155.71 0L148.99 0L145.22-45.44L149.25-45.44L153.09-1.60L153.41-1.60L157.70-44.80L161.92-44.80L155.71 0ZM169.34-45.44L170.69-1.28L165.31-1.28L165.31-45.44L169.34-45.44ZM190.53-5.31L190.53 0L176.83 0L176.83-45.44L190.53-45.44L190.53-41.47L182.53-41.86L182.53-27.33L190.53-25.86L190.53-22.78L181.44-23.17L181.44-4.80L190.53-5.31ZM218.69-0.64L212.54-0.64L207.68-32L207.42-32L205.95 0L199.23 0L194.82-45.44L198.98-45.44L202.24-2.37L202.50-2.37L205.63-44.16L210.24-44.16L209.86-34.50L215.17-2.11L215.49-2.11L216.90-44.80L220.80-44.80L218.69-0.64ZM248.64-45.44L248.64-41.79L244.03-41.79L244.03-1.28L238.66-1.28L238.66-42.24L234.24-43.01L234.88-45.44L248.64-45.44ZM266.56 0L258.05 0L258.05 0Q255.42 0 254.40-0.83L254.40-0.83L254.40-0.83Q253.38-1.66 253.38-3.58L253.38-3.58L253.38-43.90L253.38-43.90Q254.78-44.67 257.06-45.06L257.06-45.06L257.06-45.06Q259.33-45.44 263.10-45.44L263.10-45.44L263.10-45.44Q264.83-45.44 265.92-44.58L265.92-44.58L265.92-44.58Q267.01-43.71 267.01-42.37L267.01-42.37L266.56 0ZM257.47-4.03L262.02-3.65L262.59-4.22L262.98-40.77L262.98-40.77Q262.98-41.09 262.40-41.15L262.40-41.15L258.43-41.34L257.86-40.96L257.47-4.03ZM286.53 0L278.02 0L278.02 0Q275.39 0 274.37-0.83L274.37-0.83L274.37-0.83Q273.34-1.66 273.34-3.58L273.34-3.58L273.34-43.90L273.34-43.90Q274.75-44.67 277.02-45.06L277.02-45.06L277.02-45.06Q279.30-45.44 283.07-45.44L283.07-45.44L283.07-45.44Q284.80-45.44 285.89-44.58L285.89-44.58L285.89-44.58Q286.98-43.71 286.98-42.37L286.98-42.37L286.53 0ZM277.44-4.03L281.98-3.65L282.56-4.22L282.94-40.77L282.94-40.77Q282.94-41.09 282.37-41.15L282.37-41.15L278.40-41.34L277.82-40.96L277.44-4.03ZM306.30-4.42L306.30 0L293.38 0L293.38-45.44L298.11-45.44L298.11-6.72L299.07-5.25L306.30-4.42Z" fill="#ccc"></path></g></g><style>text {
  font-size: 64px;
  font-family: Arial Black;
  dominant-baseline: central;
  text-anchor: middle;
}</style></svg>