<svg width="392.2800048828125px" height="122.39999389648438px" xmlns="http://www.w3.org/2000/svg" viewBox="53.85999755859376 13.800003051757812 392.2800048828125 122.39999389648438" style="background: none;" preserveAspectRatio="xMidYMid"><defs><filter id="editing-extrusion" x="-100%" y="-100%" width="300%" height="300%"><feFlood result="color1" flood-color="#444"></feFlood><feConvolveMatrix order="8,8" divisor="1" kernelMatrix="1 0 0 0 0 0 0 0 0 1 0 0 0 0 0 0 0 0 1 0 0 0 0 0 0 0 0 1 0 0 0 0 0 0 0 0 1 0 0 0 0 0 0 0 0 1 0 0 0 0 0 0 0 0 1 0 0 0 0 0 0 0 0 1" in="SourceAlpha" result="extrude"></feConvolveMatrix><feComposite in="color1" in2="extrude" result="comp-extrude" operator="in"></feComposite><feOffset dx="4" dy="4" in="comp-extrude" result="offset-extrude"></feOffset><feMerge><feMergeNode in="offset-extrude"></feMergeNode><feMergeNode in="SourceGraphic"></feMergeNode></feMerge></filter></defs><g filter="url(#editing-extrusion)"><g transform="translate(114.2249960899353, 98.35999870300293)"><path d="M6.72-41.09L7.68-26.94L15.81-24.83L15.81-3.84L15.81-3.84Q15.81-2.50 14.46-1.25L14.46-1.25L14.46-1.25Q13.12 0 11.71 0L11.71 0L2.56 0L2.56-4.35L11.46-4.35L9.92-21.50L2.56-23.42L2.56-42.43L2.56-42.43Q2.56-43.46 3.36-44.45L3.36-44.45L3.36-44.45Q4.16-45.44 5.12-45.44L5.12-45.44L15.81-45.44L15.81-42.30L6.72-41.09ZM34.69 0L26.18 0L26.18 0Q23.55 0 22.53-0.83L22.53-0.83L22.53-0.83Q21.50-1.66 21.50-3.58L21.50-3.58L21.50-43.90L21.50-43.90Q22.91-44.67 25.18-45.06L25.18-45.06L25.18-45.06Q27.46-45.44 31.23-45.44L31.23-45.44L31.23-45.44Q32.96-45.44 34.05-44.58L34.05-44.58L34.05-44.58Q35.14-43.71 35.14-42.37L35.14-42.37L34.69 0ZM25.60-4.03L30.14-3.65L30.72-4.22L31.10-40.77L31.10-40.77Q31.10-41.09 30.53-41.15L30.53-41.15L26.56-41.34L25.98-40.96L25.60-4.03ZM42.05-44.80L46.78-44.80L45.44-3.97L50.82-4.35L50.82-43.97L55.30-43.71L55.30 1.28L40.58 1.28L42.05-44.80ZM60.99-44.74L60.99-44.74Q60.99-45.06 63.62-45.25L63.62-45.25L63.62-45.25Q66.24-45.44 68.80-45.44L68.80-45.44L71.55-45.44L71.55-45.44Q72.58-45.44 73.22-44.67L73.22-44.67L73.22-44.67Q73.86-43.90 73.92-42.69L73.92-42.69L74.56-24.26L71.68-20.48L76.80-1.41L75.58 0L71.81 0L68.54-19.90L65.28-19.58L63.94 0L60.99 0L60.99-44.74ZM65.02-24.38L69.82-24.64L69.82-24.64Q70.21-24.64 70.21-25.02L70.21-25.02L70.21-40.96L69.25-41.92L64.83-41.47L65.02-24.38ZM97.15-11.97L97.15-1.28L83.52-1.28L80.90-3.97L82.18-41.79L82.18-41.79Q82.24-43.20 83.36-44.32L83.36-44.32L83.36-44.32Q84.48-45.44 86.46-45.44L86.46-45.44L87.30-45.38L97.15-44.10L96.13-33.79L93.18-33.79L93.18-39.74L93.18-39.74Q93.18-40.32 92.42-40.32L92.42-40.32L88.45-40.32L88.45-40.32Q87.23-40.32 86.69-39.33L86.69-39.33L86.69-39.33Q86.14-38.34 86.14-37.12L86.14-37.12L86.14-37.12Q86.14-36.42 86.34-36.29L86.34-36.29L86.34-6.34L86.34-6.34Q86.14-6.27 86.14-6.14L86.14-6.14L86.14-6.14Q86.14-5.95 86.72-5.95L86.72-5.95L93.06-5.95L93.06-5.95Q93.82-5.95 93.82-6.34L93.82-6.34L93.82-11.14L95.04-11.90L97.15-11.97ZM116.80-5.31L116.80 0L103.10 0L103.10-45.44L116.80-45.44L116.80-41.47L108.80-41.86L108.80-27.33L116.80-25.86L116.80-22.78L107.71-23.17L107.71-4.80L116.80-5.31ZM150.91-10.69L150.91 0L141.76 0L141.76 0Q138.50 0 136.90-1.12L136.90-1.12L136.90-1.12Q135.30-2.24 135.30-3.97L135.30-3.97L135.30-41.86L135.30-41.86Q135.30-43.39 136.64-44.42L136.64-44.42L136.64-44.42Q137.98-45.44 140.42-45.44L140.42-45.44L150.91-45.44L150.91-41.86L149.89-33.86L145.66-33.86L145.02-41.09L145.02-41.09Q145.02-41.66 144.26-41.66L144.26-41.66L141.57-41.66L141.57-41.66Q140.35-41.66 139.81-40.67L139.81-40.67L139.81-40.67Q139.26-39.68 139.26-38.46L139.26-38.46L139.26-38.46Q139.26-37.76 139.46-37.63L139.46-37.63L140.74-5.70L140.74-5.70Q140.54-5.63 140.54-5.50L140.54-5.50L140.54-5.50Q140.54-5.31 141.12-5.31L141.12-5.31L144.90-5.31L144.90-5.31Q145.66-5.31 145.66-5.70L145.66-5.70L146.94-10.69L150.91-10.69ZM169.79 0L161.28 0L161.28 0Q158.66 0 157.63-0.83L157.63-0.83L157.63-0.83Q156.61-1.66 156.61-3.58L156.61-3.58L156.61-43.90L156.61-43.90Q158.02-44.67 160.29-45.06L160.29-45.06L160.29-45.06Q162.56-45.44 166.34-45.44L166.34-45.44L166.34-45.44Q168.06-45.44 169.15-44.58L169.15-44.58L169.15-44.58Q170.24-43.71 170.24-42.37L170.24-42.37L169.79 0ZM160.70-4.03L165.25-3.65L165.82-4.22L166.21-40.77L166.21-40.77Q166.21-41.09 165.63-41.15L165.63-41.15L161.66-41.34L161.09-40.96L160.70-4.03ZM192.32-45.44L191.04 1.28L186.69 1.28L180.42-35.46L180.16-35.46L178.94 1.28L175.68 1.28L177.73-45.44L181.63-45.44L188.10-8.38L188.54-8.38L188.54-45.44L192.32-45.44ZM197.31-45.44L210.56-44.54L210.88-40.51L205.25-40.51L205.25 0L199.81 0L201.09-39.36L196.48-40.90L197.31-45.44ZM215.68-44.74L215.68-44.74Q215.68-45.06 218.30-45.25L218.30-45.25L218.30-45.25Q220.93-45.44 223.49-45.44L223.49-45.44L226.24-45.44L226.24-45.44Q227.26-45.44 227.90-44.67L227.90-44.67L227.90-44.67Q228.54-43.90 228.61-42.69L228.61-42.69L229.25-24.26L226.37-20.48L231.49-1.41L230.27 0L226.50 0L223.23-19.90L219.97-19.58L218.62 0L215.68 0L215.68-44.74ZM219.71-24.38L224.51-24.64L224.51-24.64Q224.90-24.64 224.90-25.02L224.90-25.02L224.90-40.96L223.94-41.92L219.52-41.47L219.71-24.38ZM249.22 0L240.70 0L240.70 0Q238.08 0 237.06-0.83L237.06-0.83L237.06-0.83Q236.03-1.66 236.03-3.58L236.03-3.58L236.03-43.90L236.03-43.90Q237.44-44.67 239.71-45.06L239.71-45.06L239.71-45.06Q241.98-45.44 245.76-45.44L245.76-45.44L245.76-45.44Q247.49-45.44 248.58-44.58L248.58-44.58L248.58-44.58Q249.66-43.71 249.66-42.37L249.66-42.37L249.22 0ZM240.13-4.03L244.67-3.65L245.25-4.22L245.63-40.77L245.63-40.77Q245.63-41.09 245.06-41.15L245.06-41.15L241.09-41.34L240.51-40.96L240.13-4.03ZM268.99-4.42L268.99 0L256.06 0L256.06-45.44L260.80-45.44L260.80-6.72L261.76-5.25L268.99-4.42Z" fill="#ccc"></path></g></g><style>text {
  font-size: 64px;
  font-family: Arial Black;
  dominant-baseline: central;
  text-anchor: middle;
}</style></svg>