<svg width="340.4px" height="122.39999389648438px" xmlns="http://www.w3.org/2000/svg" viewBox="79.80000000000001 13.800003051757812 340.4 122.39999389648438" style="background: none;" preserveAspectRatio="xMidYMid"><defs><filter id="editing-extrusion" x="-100%" y="-100%" width="300%" height="300%"><feFlood result="color1" flood-color="#444"></feFlood><feConvolveMatrix order="8,8" divisor="1" kernelMatrix="1 0 0 0 0 0 0 0 0 1 0 0 0 0 0 0 0 0 1 0 0 0 0 0 0 0 0 1 0 0 0 0 0 0 0 0 1 0 0 0 0 0 0 0 0 1 0 0 0 0 0 0 0 0 1 0 0 0 0 0 0 0 0 1" in="SourceAlpha" result="extrude"></feConvolveMatrix><feComposite in="color1" in2="extrude" result="comp-extrude" operator="in"></feComposite><feOffset dx="4" dy="4" in="comp-extrude" result="offset-extrude"></feOffset><feMerge><feMergeNode in="offset-extrude"></feMergeNode><feMergeNode in="SourceGraphic"></feMergeNode></feMerge></filter></defs><g filter="url(#editing-extrusion)"><g transform="translate(131.3449912071228, 97.71999931335449)"><path d="M6.72-41.09L7.68-26.94L15.81-24.83L15.81-3.84L15.81-3.84Q15.81-2.50 14.46-1.25L14.46-1.25L14.46-1.25Q13.12 0 11.71 0L11.71 0L2.56 0L2.56-4.35L11.46-4.35L9.92-21.50L2.56-23.42L2.56-42.43L2.56-42.43Q2.56-43.46 3.36-44.45L3.36-44.45L3.36-44.45Q4.16-45.44 5.12-45.44L5.12-45.44L15.81-45.44L15.81-42.30L6.72-41.09ZM20.80-45.44L34.05-44.54L34.37-40.51L28.74-40.51L28.74 0L23.30 0L24.58-39.36L19.97-40.90L20.80-45.44ZM50.94-45.44L53.57 0L50.75 0L48.45-17.02L43.33-14.59L41.92 0L37.95 0L40.83-45.44L50.94-45.44ZM47.62-42.37L47.62-42.37Q47.62-42.75 47.23-42.75L47.23-42.75L44.48-42.11L44.48-42.11Q44.10-41.92 44.10-41.47L44.10-41.47L44.10-18.94L44.10-18.94Q44.10-18.62 44.48-18.62L44.48-18.62L46.85-19.01L46.85-19.01Q47.23-19.01 47.23-19.39L47.23-19.39L47.62-42.37ZM73.54-1.34L72.38 0L68.61 0L65.22-21.63L63.81-20.54L63.81 0L59.52 0L58.69-44.80L60.35-45.44L63.04-45.44L63.04-23.81L67.58-27.65L66.88-43.97L72.38-45.44L71.04-25.66L68.42-23.62L73.54-1.34ZM92.22-5.31L92.22 0L78.53 0L78.53-45.44L92.22-45.44L92.22-41.47L84.22-41.86L84.22-27.33L92.22-25.86L92.22-22.78L83.14-23.17L83.14-4.80L92.22-5.31ZM111.42 0L109.57-19.84L104.06-20.93L104.06 0L99.33 0L99.33-45.44L103.94-45.44L103.23-25.28L109.57-25.60L109.57-45.44L114.24-45.44L114.24 0L111.42 0ZM133.76 0L125.25 0L125.25 0Q122.62 0 121.60-0.83L121.60-0.83L121.60-0.83Q120.58-1.66 120.58-3.58L120.58-3.58L120.58-43.90L120.58-43.90Q121.98-44.67 124.26-45.06L124.26-45.06L124.26-45.06Q126.53-45.44 130.30-45.44L130.30-45.44L130.30-45.44Q132.03-45.44 133.12-44.58L133.12-44.58L133.12-44.58Q134.21-43.71 134.21-42.37L134.21-42.37L133.76 0ZM124.67-4.03L129.22-3.65L129.79-4.22L130.18-40.77L130.18-40.77Q130.18-41.09 129.60-41.15L129.60-41.15L125.63-41.34L125.06-40.96L124.67-4.03ZM153.54-4.42L153.54 0L140.61 0L140.61-45.44L145.34-45.44L145.34-6.72L146.30-5.25L153.54-4.42ZM168.96-45.44L173.89-43.39L173.89-3.58L173.89-3.58Q173.89-1.47 172.54-0.74L172.54-0.74L172.54-0.74Q171.20 0 170.11 0L170.11 0L159.36 0L159.36-3.58L159.74-5.38L158.40-45.44L168.96-45.44ZM166.53-4.42L166.53-4.42Q167.49-4.42 168-5.18L168-5.18L168-5.18Q168.51-5.95 168.64-8.38L168.64-8.38L169.92-40.83L169.92-40.83Q169.92-41.22 169.79-41.31L169.79-41.31L169.79-41.31Q169.66-41.41 169.34-41.41L169.34-41.41L164.48-41.41L164.48-41.41Q163.90-41.41 163.90-40.83L163.90-40.83L163.90-4.99L163.90-4.99Q163.90-4.42 164.48-4.42L164.48-4.42L166.53-4.42ZM194.30-5.31L194.30 0L180.61 0L180.61-45.44L194.30-45.44L194.30-41.47L186.30-41.86L186.30-27.33L194.30-25.86L194.30-22.78L185.22-23.17L185.22-4.80L194.30-5.31ZM201.41-44.74L201.41-44.74Q201.41-45.06 204.03-45.25L204.03-45.25L204.03-45.25Q206.66-45.44 209.22-45.44L209.22-45.44L211.97-45.44L211.97-45.44Q212.99-45.44 213.63-44.67L213.63-44.67L213.63-44.67Q214.27-43.90 214.34-42.69L214.34-42.69L214.98-24.26L212.10-20.48L217.22-1.41L216.00 0L212.22 0L208.96-19.90L205.70-19.58L204.35 0L201.41 0L201.41-44.74ZM205.44-24.38L210.24-24.64L210.24-24.64Q210.62-24.64 210.62-25.02L210.62-25.02L210.62-40.96L209.66-41.92L205.25-41.47L205.44-24.38ZM233.92-36.42L231.55-36.42L230.27-41.41L226.43-40.96L225.47-26.75L234.75-25.09L233.86-3.84L233.86-3.84Q233.86-2.56 232.19-1.28L232.19-1.28L232.19-1.28Q230.53 0 229.12 0L229.12 0L221.63 0L221.06-10.94L224.83-10.94L224.77-5.38L229.25-4.35L230.27-21.38L221.63-23.30L221.63-43.90L224.19-45.44L234.24-45.44L233.92-36.42Z" fill="#ccc"></path></g></g><style>text {
  font-size: 64px;
  font-family: Arial Black;
  dominant-baseline: central;
  text-anchor: middle;
}</style></svg>