<svg width="355.87999267578124px" height="122.39999389648438px" xmlns="http://www.w3.org/2000/svg" viewBox="72.06000366210938 13.800003051757812 355.87999267578124 122.39999389648438" style="background: none;" preserveAspectRatio="xMidYMid"><defs><filter id="editing-extrusion" x="-100%" y="-100%" width="300%" height="300%"><feFlood result="color1" flood-color="#444"></feFlood><feConvolveMatrix order="8,8" divisor="1" kernelMatrix="1 0 0 0 0 0 0 0 0 1 0 0 0 0 0 0 0 0 1 0 0 0 0 0 0 0 0 1 0 0 0 0 0 0 0 0 1 0 0 0 0 0 0 0 0 1 0 0 0 0 0 0 0 0 1 0 0 0 0 0 0 0 0 1" in="SourceAlpha" result="extrude"></feConvolveMatrix><feComposite in="color1" in2="extrude" result="comp-extrude" operator="in"></feComposite><feOffset dx="4" dy="4" in="comp-extrude" result="offset-extrude"></feOffset><feMerge><feMergeNode in="offset-extrude"></feMergeNode><feMergeNode in="SourceGraphic"></feMergeNode></feMerge></filter></defs><g filter="url(#editing-extrusion)"><g transform="translate(126.25500249862671, 97.71999931335449)"><path d="M6.72-41.09L7.68-26.94L15.81-24.83L15.81-3.84L15.81-3.84Q15.81-2.50 14.46-1.25L14.46-1.25L14.46-1.25Q13.12 0 11.71 0L11.71 0L2.56 0L2.56-4.35L11.46-4.35L9.92-21.50L2.56-23.42L2.56-42.43L2.56-42.43Q2.56-43.46 3.36-44.45L3.36-44.45L3.36-44.45Q4.16-45.44 5.12-45.44L5.12-45.44L15.81-45.44L15.81-42.30L6.72-41.09ZM20.80-45.44L34.05-44.54L34.37-40.51L28.74-40.51L28.74 0L23.30 0L24.58-39.36L19.97-40.90L20.80-45.44ZM52.29 0L43.78 0L43.78 0Q41.15 0 40.13-0.83L40.13-0.83L40.13-0.83Q39.10-1.66 39.10-3.58L39.10-3.58L39.10-43.90L39.10-43.90Q40.51-44.67 42.78-45.06L42.78-45.06L42.78-45.06Q45.06-45.44 48.83-45.44L48.83-45.44L48.83-45.44Q50.56-45.44 51.65-44.58L51.65-44.58L51.65-44.58Q52.74-43.71 52.74-42.37L52.74-42.37L52.29 0ZM43.20-4.03L47.74-3.65L48.32-4.22L48.70-40.77L48.70-40.77Q48.70-41.09 48.13-41.15L48.13-41.15L44.16-41.34L43.58-40.96L43.20-4.03ZM59.14-44.74L59.14-44.74Q59.14-45.06 61.76-45.25L61.76-45.25L61.76-45.25Q64.38-45.44 66.94-45.44L66.94-45.44L69.70-45.44L69.70-45.44Q70.72-45.44 71.36-44.67L71.36-44.67L71.36-44.67Q72-43.90 72.06-42.69L72.06-42.69L72.70-24.26L69.82-20.48L74.94-1.41L73.73 0L69.95 0L66.69-19.90L63.42-19.58L62.08 0L59.14 0L59.14-44.74ZM63.17-24.38L67.97-24.64L67.97-24.64Q68.35-24.64 68.35-25.02L68.35-25.02L68.35-40.96L67.39-41.92L62.98-41.47L63.17-24.38ZM91.33-45.44L93.95 0L91.14 0L88.83-17.02L83.71-14.59L82.30 0L78.34 0L81.22-45.44L91.33-45.44ZM88-42.37L88-42.37Q88-42.75 87.62-42.75L87.62-42.75L84.86-42.11L84.86-42.11Q84.48-41.92 84.48-41.47L84.48-41.47L84.48-18.94L84.48-18.94Q84.48-18.62 84.86-18.62L84.86-18.62L87.23-19.01L87.23-19.01Q87.62-19.01 87.62-19.39L87.62-19.39L88-42.37ZM116.61-18.82L114.11-17.73L114.11-3.71L114.11-3.71Q114.11-2.05 112.77-1.02L112.77-1.02L112.77-1.02Q111.42 0 109.63 0L109.63 0L100.03 0L98.62-41.98L98.62-41.98Q98.69-43.52 99.55-44.48L99.55-44.48L99.55-44.48Q100.42-45.44 101.76-45.44L101.76-45.44L114.56-45.44L114.56-42.75L113.41-35.78L110.59-35.78L110.59-41.92L103.42-40.32L104.51-7.17L104.51-7.17Q104.51-6.72 104.96-6.37L104.96-6.37L104.96-6.37Q105.41-6.02 105.86-6.02L105.86-6.02L108.80-6.02L108.80-6.02Q109.25-6.02 109.66-6.24L109.66-6.24L109.66-6.24Q110.08-6.46 110.08-6.78L110.08-6.78L110.08-21.95L116.61-21.31L116.61-18.82ZM136.06-5.31L136.06 0L122.37 0L122.37-45.44L136.06-45.44L136.06-41.47L128.06-41.86L128.06-27.33L136.06-25.86L136.06-22.78L126.98-23.17L126.98-4.80L136.06-5.31ZM166.66-4.10L166.66 0L154.56 0L154.56-45.44L160.77-45.44L159.42-5.25L166.66-4.10ZM183.23-45.44L185.86 0L183.04 0L180.74-17.02L175.62-14.59L174.21 0L170.24 0L173.12-45.44L183.23-45.44ZM179.90-42.37L179.90-42.37Q179.90-42.75 179.52-42.75L179.52-42.75L176.77-42.11L176.77-42.11Q176.38-41.92 176.38-41.47L176.38-41.47L176.38-18.94L176.38-18.94Q176.38-18.62 176.77-18.62L176.77-18.62L179.14-19.01L179.14-19.01Q179.52-19.01 179.52-19.39L179.52-19.39L179.90-42.37ZM198.72-23.62L199.81 0L194.88 0L194.88-23.94L188.93-44.80L194.75-44.80L196.93-26.43L197.44-26.56L199.36-45.44L203.84-45.44L201.02-27.58L198.72-23.62ZM222.02-5.31L222.02 0L208.32 0L208.32-45.44L222.02-45.44L222.02-41.47L214.02-41.86L214.02-27.33L222.02-25.86L222.02-22.78L212.93-23.17L212.93-4.80L222.02-5.31ZM229.12-44.74L229.12-44.74Q229.12-45.06 231.74-45.25L231.74-45.25L231.74-45.25Q234.37-45.44 236.93-45.44L236.93-45.44L239.68-45.44L239.68-45.44Q240.70-45.44 241.34-44.67L241.34-44.67L241.34-44.67Q241.98-43.90 242.05-42.69L242.05-42.69L242.69-24.26L239.81-20.48L244.93-1.41L243.71 0L239.94 0L236.67-19.90L233.41-19.58L232.06 0L229.12 0L229.12-44.74ZM233.15-24.38L237.95-24.64L237.95-24.64Q238.34-24.64 238.34-25.02L238.34-25.02L238.34-40.96L237.38-41.92L232.96-41.47L233.15-24.38Z" fill="#ccc"></path></g></g><style>text {
  font-size: 64px;
  font-family: Arial Black;
  dominant-baseline: central;
  text-anchor: middle;
}</style></svg>