<svg width="605.7000122070312px" height="131.039990234375px" xmlns="http://www.w3.org/2000/svg" viewBox="-52.850006103515625 9.480004882812494 605.7000122070312 131.039990234375" style="background: none;" preserveAspectRatio="xMidYMid"><defs><filter id="editing-extrusion" x="-100%" y="-100%" width="300%" height="300%"><feFlood result="color1" flood-color="#2f2222"></feFlood><feConvolveMatrix order="2,2" divisor="1" kernelMatrix="1 0 0 1" in="SourceAlpha" result="extrude"></feConvolveMatrix><feComposite in="color1" in2="extrude" result="comp-extrude" operator="in"></feComposite><feOffset dx="1" dy="1" in="comp-extrude" result="offset-extrude"></feOffset><feMerge><feMergeNode in="offset-extrude"></feMergeNode><feMergeNode in="SourceGraphic"></feMergeNode></feMerge></filter></defs><g filter="url(#editing-extrusion)"><g transform="translate(34.00793695449829, 104.34499931335449)"><path d="M17.41 0.77L17.41 0.77L17.41 0.77Q12.99 0.77 9.22-0.90L9.22-0.90L9.22-0.90Q5.44-2.56 2.69-5.44L2.69-5.44L5.89-9.15L5.89-9.15Q8.13-6.78 11.17-5.34L11.17-5.34L11.17-5.34Q14.21-3.90 17.47-3.90L17.47-3.90L17.47-3.90Q21.63-3.90 23.94-5.79L23.94-5.79L23.94-5.79Q26.24-7.68 26.24-10.75L26.24-10.75L26.24-10.75Q26.24-12.35 25.70-13.47L25.70-13.47L25.70-13.47Q25.15-14.59 24.22-15.39L24.22-15.39L24.22-15.39Q23.30-16.19 22.02-16.83L22.02-16.83L22.02-16.83Q20.74-17.47 19.26-18.18L19.26-18.18L13.25-20.80L13.25-20.80Q11.78-21.44 10.24-22.34L10.24-22.34L10.24-22.34Q8.70-23.23 7.49-24.51L7.49-24.51L7.49-24.51Q6.27-25.79 5.50-27.55L5.50-27.55L5.50-27.55Q4.74-29.31 4.74-31.62L4.74-31.62L4.74-31.62Q4.74-33.98 5.73-36.03L5.73-36.03L5.73-36.03Q6.72-38.08 8.48-39.58L8.48-39.58L8.48-39.58Q10.24-41.09 12.64-41.92L12.64-41.92L12.64-41.92Q15.04-42.75 17.92-42.75L17.92-42.75L17.92-42.75Q21.70-42.75 24.90-41.31L24.90-41.31L24.90-41.31Q28.10-39.87 30.34-37.57L30.34-37.57L27.46-34.11L27.46-34.11Q25.54-35.97 23.20-37.02L23.20-37.02L23.20-37.02Q20.86-38.08 17.92-38.08L17.92-38.08L17.92-38.08Q14.40-38.08 12.26-36.45L12.26-36.45L12.26-36.45Q10.11-34.82 10.11-31.94L10.11-31.94L10.11-31.94Q10.11-30.40 10.72-29.34L10.72-29.34L10.72-29.34Q11.33-28.29 12.35-27.49L12.35-27.49L12.35-27.49Q13.38-26.69 14.59-26.08L14.59-26.08L14.59-26.08Q15.81-25.47 17.09-24.96L17.09-24.96L23.04-22.40L23.04-22.40Q24.83-21.63 26.43-20.64L26.43-20.64L26.43-20.64Q28.03-19.65 29.18-18.34L29.18-18.34L29.18-18.34Q30.34-17.02 31.01-15.26L31.01-15.26L31.01-15.26Q31.68-13.50 31.68-11.20L31.68-11.20L31.68-11.20Q31.68-8.70 30.69-6.53L30.69-6.53L30.69-6.53Q29.70-4.35 27.84-2.72L27.84-2.72L27.84-2.72Q25.98-1.09 23.36-0.16L23.36-0.16L23.36-0.16Q20.74 0.77 17.41 0.77ZM48.51 0.77L48.51 0.77L48.51 0.77Q43.52 0.77 41.25-2.30L41.25-2.30L41.25-2.30Q38.98-5.38 38.98-11.39L38.98-11.39L38.98-31.10L44.29-31.10L44.29-12.10L44.29-12.10Q44.29-7.68 45.66-5.73L45.66-5.73L45.66-5.73Q47.04-3.78 50.11-3.78L50.11-3.78L50.11-3.78Q52.54-3.78 54.40-5.02L54.40-5.02L54.40-5.02Q56.26-6.27 58.50-9.02L58.50-9.02L58.50-31.10L63.74-31.10L63.74 0L59.39 0L58.94-4.86L58.75-4.86L58.75-4.86Q56.58-2.30 54.18-0.77L54.18-0.77L54.18-0.77Q51.78 0.77 48.51 0.77ZM79.49 13.12L74.24 13.12L74.24-31.10L78.59-31.10L79.04-27.52L79.23-27.52L79.23-27.52Q81.34-29.31 83.87-30.59L83.87-30.59L83.87-30.59Q86.40-31.87 89.15-31.87L89.15-31.87L89.15-31.87Q92.16-31.87 94.46-30.75L94.46-30.75L94.46-30.75Q96.77-29.63 98.30-27.55L98.30-27.55L98.30-27.55Q99.84-25.47 100.64-22.56L100.64-22.56L100.64-22.56Q101.44-19.65 101.44-16L101.44-16L101.44-16Q101.44-12.03 100.35-8.93L100.35-8.93L100.35-8.93Q99.26-5.82 97.41-3.65L97.41-3.65L97.41-3.65Q95.55-1.47 93.12-0.35L93.12-0.35L93.12-0.35Q90.69 0.77 88 0.77L88 0.77L88 0.77Q85.82 0.77 83.68-0.19L83.68-0.19L83.68-0.19Q81.54-1.15 79.36-2.82L79.36-2.82L79.49 2.62L79.49 13.12ZM87.10-3.65L87.10-3.65L87.10-3.65Q89.02-3.65 90.66-4.51L90.66-4.51L90.66-4.51Q92.29-5.38 93.47-6.94L93.47-6.94L93.47-6.94Q94.66-8.51 95.33-10.82L95.33-10.82L95.33-10.82Q96-13.12 96-16L96-16L96-16Q96-18.56 95.55-20.67L95.55-20.67L95.55-20.67Q95.10-22.78 94.11-24.29L94.11-24.29L94.11-24.29Q93.12-25.79 91.55-26.62L91.55-26.62L91.55-26.62Q89.98-27.46 87.81-27.46L87.81-27.46L87.81-27.46Q85.82-27.46 83.81-26.37L83.81-26.37L83.81-26.37Q81.79-25.28 79.49-23.23L79.49-23.23L79.49-6.91L79.49-6.91Q81.60-5.12 83.58-4.38L83.58-4.38L83.58-4.38Q85.57-3.65 87.10-3.65ZM115.01 13.12L109.76 13.12L109.76-31.10L114.11-31.10L114.56-27.52L114.75-27.52L114.75-27.52Q116.86-29.31 119.39-30.59L119.39-30.59L119.39-30.59Q121.92-31.87 124.67-31.87L124.67-31.87L124.67-31.87Q127.68-31.87 129.98-30.75L129.98-30.75L129.98-30.75Q132.29-29.63 133.82-27.55L133.82-27.55L133.82-27.55Q135.36-25.47 136.16-22.56L136.16-22.56L136.16-22.56Q136.96-19.65 136.96-16L136.96-16L136.96-16Q136.96-12.03 135.87-8.93L135.87-8.93L135.87-8.93Q134.78-5.82 132.93-3.65L132.93-3.65L132.93-3.65Q131.07-1.47 128.64-0.35L128.64-0.35L128.64-0.35Q126.21 0.77 123.52 0.77L123.52 0.77L123.52 0.77Q121.34 0.77 119.20-0.19L119.20-0.19L119.20-0.19Q117.06-1.15 114.88-2.82L114.88-2.82L115.01 2.62L115.01 13.12ZM122.62-3.65L122.62-3.65L122.62-3.65Q124.54-3.65 126.18-4.51L126.18-4.51L126.18-4.51Q127.81-5.38 128.99-6.94L128.99-6.94L128.99-6.94Q130.18-8.51 130.85-10.82L130.85-10.82L130.85-10.82Q131.52-13.12 131.52-16L131.52-16L131.52-16Q131.52-18.56 131.07-20.67L131.07-20.67L131.07-20.67Q130.62-22.78 129.63-24.29L129.63-24.29L129.63-24.29Q128.64-25.79 127.07-26.62L127.07-26.62L127.07-26.62Q125.50-27.46 123.33-27.46L123.33-27.46L123.33-27.46Q121.34-27.46 119.33-26.37L119.33-26.37L119.33-26.37Q117.31-25.28 115.01-23.23L115.01-23.23L115.01-6.91L115.01-6.91Q117.12-5.12 119.10-4.38L119.10-4.38L119.10-4.38Q121.09-3.65 122.62-3.65ZM157.38 0.77L157.38 0.77L157.38 0.77Q154.50 0.77 151.90-0.32L151.90-0.32L151.90-0.32Q149.31-1.41 147.33-3.49L147.33-3.49L147.33-3.49Q145.34-5.57 144.16-8.61L144.16-8.61L144.16-8.61Q142.98-11.65 142.98-15.49L142.98-15.49L142.98-15.49Q142.98-19.39 144.16-22.43L144.16-22.43L144.16-22.43Q145.34-25.47 147.33-27.58L147.33-27.58L147.33-27.58Q149.31-29.70 151.90-30.78L151.90-30.78L151.90-30.78Q154.50-31.87 157.38-31.87L157.38-31.87L157.38-31.87Q160.26-31.87 162.85-30.78L162.85-30.78L162.85-30.78Q165.44-29.70 167.42-27.58L167.42-27.58L167.42-27.58Q169.41-25.47 170.59-22.43L170.59-22.43L170.59-22.43Q171.78-19.39 171.78-15.49L171.78-15.49L171.78-15.49Q171.78-11.65 170.59-8.61L170.59-8.61L170.59-8.61Q169.41-5.57 167.42-3.49L167.42-3.49L167.42-3.49Q165.44-1.41 162.85-0.32L162.85-0.32L162.85-0.32Q160.26 0.77 157.38 0.77ZM157.38-3.58L157.38-3.58L157.38-3.58Q159.36-3.58 161.02-4.45L161.02-4.45L161.02-4.45Q162.69-5.31 163.87-6.88L163.87-6.88L163.87-6.88Q165.06-8.45 165.70-10.62L165.70-10.62L165.70-10.62Q166.34-12.80 166.34-15.49L166.34-15.49L166.34-15.49Q166.34-18.18 165.70-20.38L165.70-20.38L165.70-20.38Q165.06-22.59 163.87-24.19L163.87-24.19L163.87-24.19Q162.69-25.79 161.02-26.66L161.02-26.66L161.02-26.66Q159.36-27.52 157.38-27.52L157.38-27.52L157.38-27.52Q155.39-27.52 153.73-26.66L153.73-26.66L153.73-26.66Q152.06-25.79 150.88-24.19L150.88-24.19L150.88-24.19Q149.70-22.59 149.06-20.38L149.06-20.38L149.06-20.38Q148.42-18.18 148.42-15.49L148.42-15.49L148.42-15.49Q148.42-12.80 149.06-10.62L149.06-10.62L149.06-10.62Q149.70-8.45 150.88-6.88L150.88-6.88L150.88-6.88Q152.06-5.31 153.73-4.45L153.73-4.45L153.73-4.45Q155.39-3.58 157.38-3.58ZM185.22 0L179.97 0L179.97-31.10L184.32-31.10L184.77-25.47L184.96-25.47L184.96-25.47Q186.56-28.42 188.83-30.14L188.83-30.14L188.83-30.14Q191.10-31.87 193.79-31.87L193.79-31.87L193.79-31.87Q195.65-31.87 197.12-31.23L197.12-31.23L196.10-26.62L196.10-26.62Q195.33-26.88 194.69-27.01L194.69-27.01L194.69-27.01Q194.05-27.14 193.09-27.14L193.09-27.14L193.09-27.14Q191.10-27.14 188.96-25.54L188.96-25.54L188.96-25.54Q186.82-23.94 185.22-19.97L185.22-19.97L185.22 0ZM211.97 0.77L211.97 0.77L211.97 0.77Q209.47 0.77 207.78 0L207.78 0L207.78 0Q206.08-0.77 205.02-2.11L205.02-2.11L205.02-2.11Q203.97-3.46 203.52-5.38L203.52-5.38L203.52-5.38Q203.07-7.30 203.07-9.60L203.07-9.60L203.07-26.82L198.46-26.82L198.46-30.78L203.33-31.10L203.97-39.81L208.38-39.81L208.38-31.10L216.77-31.10L216.77-26.82L208.38-26.82L208.38-9.54L208.38-9.54Q208.38-6.66 209.44-5.09L209.44-5.09L209.44-5.09Q210.50-3.52 213.18-3.52L213.18-3.52L213.18-3.52Q214.02-3.52 214.98-3.78L214.98-3.78L214.98-3.78Q215.94-4.03 216.70-4.35L216.70-4.35L217.73-0.38L217.73-0.38Q216.45 0.06 214.94 0.42L214.94 0.42L214.94 0.42Q213.44 0.77 211.97 0.77ZM251.20 0L245.82 0L245.82-37.50L233.15-37.50L233.15-41.98L263.87-41.98L263.87-37.50L251.20-37.50L251.20 0ZM273.22 0L267.97 0L267.97-31.10L272.32-31.10L272.77-25.47L272.96-25.47L272.96-25.47Q274.56-28.42 276.83-30.14L276.83-30.14L276.83-30.14Q279.10-31.87 281.79-31.87L281.79-31.87L281.79-31.87Q283.65-31.87 285.12-31.23L285.12-31.23L284.10-26.62L284.10-26.62Q283.33-26.88 282.69-27.01L282.69-27.01L282.69-27.01Q282.05-27.14 281.09-27.14L281.09-27.14L281.09-27.14Q279.10-27.14 276.96-25.54L276.96-25.54L276.96-25.54Q274.82-23.94 273.22-19.97L273.22-19.97L273.22 0ZM295.81 0.77L295.81 0.77L295.81 0.77Q291.90 0.77 289.31-1.54L289.31-1.54L289.31-1.54Q286.72-3.84 286.72-8.06L286.72-8.06L286.72-8.06Q286.72-13.18 291.26-15.90L291.26-15.90L291.26-15.90Q295.81-18.62 305.79-19.71L305.79-19.71L305.79-19.71Q305.79-21.18 305.50-22.59L305.50-22.59L305.50-22.59Q305.22-24 304.51-25.09L304.51-25.09L304.51-25.09Q303.81-26.18 302.56-26.85L302.56-26.85L302.56-26.85Q301.31-27.52 299.39-27.52L299.39-27.52L299.39-27.52Q296.70-27.52 294.34-26.50L294.34-26.50L294.34-26.50Q291.97-25.47 290.11-24.19L290.11-24.19L288.06-27.84L288.06-27.84Q290.24-29.25 293.38-30.56L293.38-30.56L293.38-30.56Q296.51-31.87 300.29-31.87L300.29-31.87L300.29-31.87Q305.98-31.87 308.54-28.38L308.54-28.38L308.54-28.38Q311.10-24.90 311.10-19.07L311.10-19.07L311.10 0L306.75 0L306.30-3.71L306.11-3.71L306.11-3.71Q303.87-1.86 301.31-0.54L301.31-0.54L301.31-0.54Q298.75 0.77 295.81 0.77ZM297.34-3.46L297.34-3.46L297.34-3.46Q299.58-3.46 301.57-4.51L301.57-4.51L301.57-4.51Q303.55-5.57 305.79-7.62L305.79-7.62L305.79-16.26L305.79-16.26Q301.89-15.74 299.23-15.04L299.23-15.04L299.23-15.04Q296.58-14.34 294.94-13.38L294.94-13.38L294.94-13.38Q293.31-12.42 292.58-11.17L292.58-11.17L292.58-11.17Q291.84-9.92 291.84-8.45L291.84-8.45L291.84-8.45Q291.84-5.76 293.44-4.61L293.44-4.61L293.44-4.61Q295.04-3.46 297.34-3.46ZM333.18 0.77L333.18 0.77L333.18 0.77Q330.11 0.77 327.42-0.32L327.42-0.32L327.42-0.32Q324.74-1.41 322.78-3.49L322.78-3.49L322.78-3.49Q320.83-5.57 319.71-8.61L319.71-8.61L319.71-8.61Q318.59-11.65 318.59-15.49L318.59-15.49L318.59-15.49Q318.59-19.39 319.81-22.43L319.81-22.43L319.81-22.43Q321.02-25.47 323.07-27.58L323.07-27.58L323.07-27.58Q325.12-29.70 327.84-30.78L327.84-30.78L327.84-30.78Q330.56-31.87 333.57-31.87L333.57-31.87L333.57-31.87Q336.64-31.87 338.82-30.78L338.82-30.78L338.82-30.78Q340.99-29.70 342.66-28.22L342.66-28.22L339.97-24.77L339.97-24.77Q338.62-25.98 337.12-26.75L337.12-26.75L337.12-26.75Q335.62-27.52 333.76-27.52L333.76-27.52L333.76-27.52Q331.65-27.52 329.86-26.66L329.86-26.66L329.86-26.66Q328.06-25.79 326.78-24.19L326.78-24.19L326.78-24.19Q325.50-22.59 324.77-20.38L324.77-20.38L324.77-20.38Q324.03-18.18 324.03-15.49L324.03-15.49L324.03-15.49Q324.03-12.80 324.74-10.62L324.74-10.62L324.74-10.62Q325.44-8.45 326.69-6.88L326.69-6.88L326.69-6.88Q327.94-5.31 329.73-4.45L329.73-4.45L329.73-4.45Q331.52-3.58 333.63-3.58L333.63-3.58L333.63-3.58Q335.81-3.58 337.63-4.51L337.63-4.51L337.63-4.51Q339.46-5.44 340.93-6.72L340.93-6.72L343.23-3.20L343.23-3.20Q341.12-1.34 338.56-0.29L338.56-0.29L338.56-0.29Q336 0.77 333.18 0.77ZM355.26 0L350.08 0L350.08-45.57L355.26-45.57L355.26-14.72L355.46-14.72L368.70-31.10L374.53-31.10L364.10-18.62L375.94 0L370.18 0L361.09-14.98L355.26-8.19L355.26 0ZM393.22 0.77L393.22 0.77L393.22 0.77Q390.08 0.77 387.36-0.35L387.36-0.35L387.36-0.35Q384.64-1.47 382.62-3.55L382.62-3.55L382.62-3.55Q380.61-5.63 379.46-8.64L379.46-8.64L379.46-8.64Q378.30-11.65 378.30-15.49L378.30-15.49L378.30-15.49Q378.30-19.33 379.49-22.37L379.49-22.37L379.49-22.37Q380.67-25.41 382.62-27.52L382.62-27.52L382.62-27.52Q384.58-29.63 387.07-30.75L387.07-30.75L387.07-30.75Q389.57-31.87 392.26-31.87L392.26-31.87L392.26-31.87Q395.20-31.87 397.54-30.85L397.54-30.85L397.54-30.85Q399.87-29.82 401.44-27.90L401.44-27.90L401.44-27.90Q403.01-25.98 403.84-23.30L403.84-23.30L403.84-23.30Q404.67-20.61 404.67-17.28L404.67-17.28L404.67-17.28Q404.67-16.45 404.64-15.65L404.64-15.65L404.64-15.65Q404.61-14.85 404.48-14.27L404.48-14.27L383.49-14.27L383.49-14.27Q383.81-9.28 386.59-6.37L386.59-6.37L386.59-6.37Q389.38-3.46 393.86-3.46L393.86-3.46L393.86-3.46Q396.10-3.46 397.98-4.13L397.98-4.13L397.98-4.13Q399.87-4.80 401.60-5.89L401.60-5.89L403.46-2.43L403.46-2.43Q401.41-1.15 398.91-0.19L398.91-0.19L398.91-0.19Q396.42 0.77 393.22 0.77ZM383.42-18.05L383.42-18.05L400.06-18.05L400.06-18.05Q400.06-22.78 398.05-25.25L398.05-25.25L398.05-25.25Q396.03-27.71 392.38-27.71L392.38-27.71L392.38-27.71Q390.72-27.71 389.22-27.07L389.22-27.07L389.22-27.07Q387.71-26.43 386.50-25.18L386.50-25.18L386.50-25.18Q385.28-23.94 384.48-22.14L384.48-22.14L384.48-22.14Q383.68-20.35 383.42-18.05ZM417.60 0L412.35 0L412.35-31.10L416.70-31.10L417.15-25.47L417.34-25.47L417.34-25.47Q418.94-28.42 421.22-30.14L421.22-30.14L421.22-30.14Q423.49-31.87 426.18-31.87L426.18-31.87L426.18-31.87Q428.03-31.87 429.50-31.23L429.50-31.23L428.48-26.62L428.48-26.62Q427.71-26.88 427.07-27.01L427.07-27.01L427.07-27.01Q426.43-27.14 425.47-27.14L425.47-27.14L425.47-27.14Q423.49-27.14 421.34-25.54L421.34-25.54L421.34-25.54Q419.20-23.94 417.60-19.97L417.60-19.97L417.60 0Z" fill="#ea9a97"></path></g></g><style>text {
  font-size: 64px;
  font-family: Arial Black;
  dominant-baseline: central;
  text-anchor: middle;
}</style></svg>