<svg width="337.0800048828125px" height="122.39999389648438px" xmlns="http://www.w3.org/2000/svg" viewBox="81.45999755859376 13.800003051757812 337.0800048828125 122.39999389648438" style="background: none;" preserveAspectRatio="xMidYMid"><defs><filter id="editing-extrusion" x="-100%" y="-100%" width="300%" height="300%"><feFlood result="color1" flood-color="#444"></feFlood><feConvolveMatrix order="8,8" divisor="1" kernelMatrix="1 0 0 0 0 0 0 0 0 1 0 0 0 0 0 0 0 0 1 0 0 0 0 0 0 0 0 1 0 0 0 0 0 0 0 0 1 0 0 0 0 0 0 0 0 1 0 0 0 0 0 0 0 0 1 0 0 0 0 0 0 0 0 1" in="SourceAlpha" result="extrude"></feConvolveMatrix><feComposite in="color1" in2="extrude" result="comp-extrude" operator="in"></feComposite><feOffset dx="4" dy="4" in="comp-extrude" result="offset-extrude"></feOffset><feMerge><feMergeNode in="offset-extrude"></feMergeNode><feMergeNode in="SourceGraphic"></feMergeNode></feMerge></filter></defs><g filter="url(#editing-extrusion)"><g transform="translate(131.66499173641205, 97.71999931335449)"><path d="M16-45.44L16-41.79L11.39-41.79L11.39-1.28L6.02-1.28L6.02-42.24L1.60-43.01L2.24-45.44L16-45.44ZM32.58-45.44L35.20 0L32.38 0L30.08-17.02L24.96-14.59L23.55 0L19.58 0L22.46-45.44L32.58-45.44ZM29.25-42.37L29.25-42.37Q29.25-42.75 28.86-42.75L28.86-42.75L26.11-42.11L26.11-42.11Q25.73-41.92 25.73-41.47L25.73-41.47L25.73-18.94L25.73-18.94Q25.73-18.62 26.11-18.62L26.11-18.62L28.48-19.01L28.48-19.01Q28.86-19.01 28.86-19.39L28.86-19.39L29.25-42.37ZM52.67-23.30L52.67-23.30Q53.95-22.98 55.26-21.57L55.26-21.57L55.26-21.57Q56.58-20.16 56.58-18.05L56.58-18.05L55.30-1.92L55.30-1.92Q55.30-0.77 53.15-0.38L53.15-0.38L53.15-0.38Q51.01 0 49.22 0L49.22 0L40.51 0L40.51-45.44L49.02-45.44L49.02-45.44Q51.26-45.44 53.28-44.35L53.28-44.35L53.28-44.35Q55.30-43.26 55.30-41.47L55.30-41.47L55.30-28.61L52.67-23.30ZM44.54-25.92L44.54-25.92Q44.54-25.41 45.31-25.41L45.31-25.41L49.92-25.41L49.92-25.41Q50.11-25.41 50.37-25.66L50.37-25.66L50.37-25.66Q50.43-25.73 50.50-25.98L50.50-25.98L51.07-41.28L51.07-41.28Q51.07-41.54 50.18-41.54L50.18-41.54L44.54-41.28L44.54-25.92ZM46.02-3.58L46.02-3.58Q51.26-5.50 51.26-7.04L51.26-7.04L51.26-7.04Q51.26-7.42 51.14-7.42L51.14-7.42L51.14-20.54L51.14-20.54Q51.33-20.67 51.33-20.74L51.33-20.74L51.33-20.74Q51.33-20.93 50.88-20.93L50.88-20.93L46.02-21.57L46.02-21.57Q45.82-21.57 45.60-21.44L45.60-21.44L45.60-21.44Q45.38-21.31 45.31-21.18L45.31-21.18L45.31-3.78L46.02-3.58ZM75.33-4.42L75.33 0L62.40 0L62.40-45.44L67.14-45.44L67.14-6.72L68.10-5.25L75.33-4.42ZM94.78-5.31L94.78 0L81.09 0L81.09-45.44L94.78-45.44L94.78-41.47L86.78-41.86L86.78-27.33L94.78-25.86L94.78-22.78L85.70-23.17L85.70-4.80L94.78-5.31ZM116.80-41.09L117.76-26.94L125.89-24.83L125.89-3.84L125.89-3.84Q125.89-2.50 124.54-1.25L124.54-1.25L124.54-1.25Q123.20 0 121.79 0L121.79 0L112.64 0L112.64-4.35L121.54-4.35L120.00-21.50L112.64-23.42L112.64-42.43L112.64-42.43Q112.64-43.46 113.44-44.45L113.44-44.45L113.44-44.45Q114.24-45.44 115.20-45.44L115.20-45.44L125.89-45.44L125.89-42.30L116.80-41.09ZM147.39-11.97L147.39-1.28L133.76-1.28L131.14-3.97L132.42-41.79L132.42-41.79Q132.48-43.20 133.60-44.32L133.60-44.32L133.60-44.32Q134.72-45.44 136.70-45.44L136.70-45.44L137.54-45.38L147.39-44.10L146.37-33.79L143.42-33.79L143.42-39.74L143.42-39.74Q143.42-40.32 142.66-40.32L142.66-40.32L138.69-40.32L138.69-40.32Q137.47-40.32 136.93-39.33L136.93-39.33L136.93-39.33Q136.38-38.34 136.38-37.12L136.38-37.12L136.38-37.12Q136.38-36.42 136.58-36.29L136.58-36.29L136.58-6.34L136.58-6.34Q136.38-6.27 136.38-6.14L136.38-6.14L136.38-6.14Q136.38-5.95 136.96-5.95L136.96-5.95L143.30-5.95L143.30-5.95Q144.06-5.95 144.06-6.34L144.06-6.34L144.06-11.14L145.28-11.90L147.39-11.97ZM165.12 0L163.26-19.84L157.76-20.93L157.76 0L153.02 0L153.02-45.44L157.63-45.44L156.93-25.28L163.26-25.60L163.26-45.44L167.94-45.44L167.94 0L165.12 0ZM188.35-5.31L188.35 0L174.66 0L174.66-45.44L188.35-45.44L188.35-41.47L180.35-41.86L180.35-27.33L188.35-25.86L188.35-22.78L179.26-23.17L179.26-4.80L188.35-5.31ZM198.78 0L195.46 0L195.46-45.44L200.06-45.44L204.74-17.66L205.25-17.66L209.60-45.44L213.31-45.44L214.78 0L210.56 0L210.56-34.24L210.11-34.24L205.70-10.05L203.58-9.60L199.04-37.70L198.78-37.70L198.78 0ZM232.45-45.44L235.07 0L232.26 0L229.95-17.02L224.83-14.59L223.42 0L219.46 0L222.34-45.44L232.45-45.44ZM229.12-42.37L229.12-42.37Q229.12-42.75 228.74-42.75L228.74-42.75L225.98-42.11L225.98-42.11Q225.60-41.92 225.60-41.47L225.60-41.47L225.60-18.94L225.60-18.94Q225.60-18.62 225.98-18.62L225.98-18.62L228.35-19.01L228.35-19.01Q228.74-19.01 228.74-19.39L228.74-19.39L229.12-42.37Z" fill="#ccc"></path></g></g><style>text {
  font-size: 64px;
  font-family: Arial Black;
  dominant-baseline: central;
  text-anchor: middle;
}</style></svg>