<svg width="438.6000122070312px" height="122.39999389648438px" xmlns="http://www.w3.org/2000/svg" viewBox="30.699993896484386 13.800003051757812 438.6000122070312 122.39999389648438" style="background: none;" preserveAspectRatio="xMidYMid"><defs><filter id="editing-extrusion" x="-100%" y="-100%" width="300%" height="300%"><feFlood result="color1" flood-color="#444444"></feFlood><feConvolveMatrix order="8,8" divisor="1" kernelMatrix="1 0 0 0 0 0 0 0 0 1 0 0 0 0 0 0 0 0 1 0 0 0 0 0 0 0 0 1 0 0 0 0 0 0 0 0 1 0 0 0 0 0 0 0 0 1 0 0 0 0 0 0 0 0 1 0 0 0 0 0 0 0 0 1" in="SourceAlpha" result="extrude"></feConvolveMatrix><feComposite in="color1" in2="extrude" result="comp-extrude" operator="in"></feComposite><feOffset dx="4" dy="4" in="comp-extrude" result="offset-extrude"></feOffset><feMerge><feMergeNode in="offset-extrude"></feMergeNode><feMergeNode in="SourceGraphic"></feMergeNode></feMerge></filter></defs><g filter="url(#editing-extrusion)"><g transform="translate(95.66499936580658, 98.35999870300293)"><path d="M16-45.44L16-41.79L11.39-41.79L11.39-1.28L6.02-1.28L6.02-42.24L1.60-43.01L2.24-45.44L16-45.44ZM34.82-5.31L34.82 0L21.12 0L21.12-45.44L34.82-45.44L34.82-41.47L26.82-41.86L26.82-27.33L34.82-25.86L34.82-22.78L25.73-23.17L25.73-4.80L34.82-5.31ZM57.66-11.97L57.66-1.28L44.03-1.28L41.41-3.97L42.69-41.79L42.69-41.79Q42.75-43.20 43.87-44.32L43.87-44.32L43.87-44.32Q44.99-45.44 46.98-45.44L46.98-45.44L47.81-45.38L57.66-44.10L56.64-33.79L53.70-33.79L53.70-39.74L53.70-39.74Q53.70-40.32 52.93-40.32L52.93-40.32L48.96-40.32L48.96-40.32Q47.74-40.32 47.20-39.33L47.20-39.33L47.20-39.33Q46.66-38.34 46.66-37.12L46.66-37.12L46.66-37.12Q46.66-36.42 46.85-36.29L46.85-36.29L46.85-6.34L46.85-6.34Q46.66-6.27 46.66-6.14L46.66-6.14L46.66-6.14Q46.66-5.95 47.23-5.95L47.23-5.95L53.57-5.95L53.57-5.95Q54.34-5.95 54.34-6.34L54.34-6.34L54.34-11.14L55.55-11.90L57.66-11.97ZM75.39 0L73.54-19.84L68.03-20.93L68.03 0L63.30 0L63.30-45.44L67.90-45.44L67.20-25.28L73.54-25.60L73.54-45.44L78.21-45.44L78.21 0L75.39 0ZM100.29-45.44L99.01 1.28L94.66 1.28L88.38-35.46L88.13-35.46L86.91 1.28L83.65 1.28L85.70-45.44L89.60-45.44L96.06-8.38L96.51-8.38L96.51-45.44L100.29-45.44ZM119.17 0L110.66 0L110.66 0Q108.03 0 107.01-0.83L107.01-0.83L107.01-0.83Q105.98-1.66 105.98-3.58L105.98-3.58L105.98-43.90L105.98-43.90Q107.39-44.67 109.66-45.06L109.66-45.06L109.66-45.06Q111.94-45.44 115.71-45.44L115.71-45.44L115.71-45.44Q117.44-45.44 118.53-44.58L118.53-44.58L118.53-44.58Q119.62-43.71 119.62-42.37L119.62-42.37L119.17 0ZM110.08-4.03L114.62-3.65L115.20-4.22L115.58-40.77L115.58-40.77Q115.58-41.09 115.01-41.15L115.01-41.15L111.04-41.34L110.46-40.96L110.08-4.03ZM138.94-4.42L138.94 0L126.02 0L126.02-45.44L130.75-45.44L130.75-6.72L131.71-5.25L138.94-4.42ZM157.50 0L148.99 0L148.99 0Q146.37 0 145.34-0.83L145.34-0.83L145.34-0.83Q144.32-1.66 144.32-3.58L144.32-3.58L144.32-43.90L144.32-43.90Q145.73-44.67 148-45.06L148-45.06L148-45.06Q150.27-45.44 154.05-45.44L154.05-45.44L154.05-45.44Q155.78-45.44 156.86-44.58L156.86-44.58L156.86-44.58Q157.95-43.71 157.95-42.37L157.95-42.37L157.50 0ZM148.42-4.03L152.96-3.65L153.54-4.22L153.92-40.77L153.92-40.77Q153.92-41.09 153.34-41.15L153.34-41.15L149.38-41.34L148.80-40.96L148.42-4.03ZM181.70-18.82L179.20-17.73L179.20-3.71L179.20-3.71Q179.20-2.05 177.86-1.02L177.86-1.02L177.86-1.02Q176.51 0 174.72 0L174.72 0L165.12 0L163.71-41.98L163.71-41.98Q163.78-43.52 164.64-44.48L164.64-44.48L164.64-44.48Q165.50-45.44 166.85-45.44L166.85-45.44L179.65-45.44L179.65-42.75L178.50-35.78L175.68-35.78L175.68-41.92L168.51-40.32L169.60-7.17L169.60-7.17Q169.60-6.72 170.05-6.37L170.05-6.37L170.05-6.37Q170.50-6.02 170.94-6.02L170.94-6.02L173.89-6.02L173.89-6.02Q174.34-6.02 174.75-6.24L174.75-6.24L174.75-6.24Q175.17-6.46 175.17-6.78L175.17-6.78L175.17-21.95L181.70-21.31L181.70-18.82ZM194.69-23.62L195.78 0L190.85 0L190.85-23.94L184.90-44.80L190.72-44.80L192.90-26.43L193.41-26.56L195.33-45.44L199.81-45.44L196.99-27.58L194.69-23.62ZM218.88-41.09L219.84-26.94L227.97-24.83L227.97-3.84L227.97-3.84Q227.97-2.50 226.62-1.25L226.62-1.25L226.62-1.25Q225.28 0 223.87 0L223.87 0L214.72 0L214.72-4.35L223.62-4.35L222.08-21.50L214.72-23.42L214.72-42.43L214.72-42.43Q214.72-43.46 215.52-44.45L215.52-44.45L215.52-44.45Q216.32-45.44 217.28-45.44L217.28-45.44L227.97-45.44L227.97-42.30L218.88-41.09ZM232.96-45.44L246.21-44.54L246.53-40.51L240.90-40.51L240.90 0L235.46 0L236.74-39.36L232.13-40.90L232.96-45.44ZM263.10-45.44L265.73 0L262.91 0L260.61-17.02L255.49-14.59L254.08 0L250.11 0L252.99-45.44L263.10-45.44ZM259.78-42.37L259.78-42.37Q259.78-42.75 259.39-42.75L259.39-42.75L256.64-42.11L256.64-42.11Q256.26-41.92 256.26-41.47L256.26-41.47L256.26-18.94L256.26-18.94Q256.26-18.62 256.64-18.62L256.64-18.62L259.01-19.01L259.01-19.01Q259.39-19.01 259.39-19.39L259.39-19.39L259.78-42.37ZM286.78-11.97L286.78-1.28L273.15-1.28L270.53-3.97L271.81-41.79L271.81-41.79Q271.87-43.20 272.99-44.32L272.99-44.32L272.99-44.32Q274.11-45.44 276.10-45.44L276.10-45.44L276.93-45.38L286.78-44.10L285.76-33.79L282.82-33.79L282.82-39.74L282.82-39.74Q282.82-40.32 282.05-40.32L282.05-40.32L278.08-40.32L278.08-40.32Q276.86-40.32 276.32-39.33L276.32-39.33L276.32-39.33Q275.78-38.34 275.78-37.12L275.78-37.12L275.78-37.12Q275.78-36.42 275.97-36.29L275.97-36.29L275.97-6.34L275.97-6.34Q275.78-6.27 275.78-6.14L275.78-6.14L275.78-6.14Q275.78-5.95 276.35-5.95L276.35-5.95L282.69-5.95L282.69-5.95Q283.46-5.95 283.46-6.34L283.46-6.34L283.46-11.14L284.67-11.90L286.78-11.97ZM307.07-1.34L305.92 0L302.14 0L298.75-21.63L297.34-20.54L297.34 0L293.06 0L292.22-44.80L293.89-45.44L296.58-45.44L296.58-23.81L301.12-27.65L300.42-43.97L305.92-45.44L304.58-25.66L301.95-23.62L307.07-1.34Z" fill="#ccc"></path></g></g><style>text {
  font-size: 64px;
  font-family: Arial Black;
  dominant-baseline: central;
  text-anchor: middle;
}</style></svg>