<svg width="614.5199829101563px" height="122.39999389648438px" xmlns="http://www.w3.org/2000/svg" viewBox="-57.259991455078136 13.800003051757812 614.5199829101563 122.39999389648438" style="background: none;" preserveAspectRatio="xMidYMid"><defs><filter id="editing-extrusion" x="-100%" y="-100%" width="300%" height="300%"><feFlood result="color1" flood-color="#444444"></feFlood><feConvolveMatrix order="8,8" divisor="1" kernelMatrix="1 0 0 0 0 0 0 0 0 1 0 0 0 0 0 0 0 0 1 0 0 0 0 0 0 0 0 1 0 0 0 0 0 0 0 0 1 0 0 0 0 0 0 0 0 1 0 0 0 0 0 0 0 0 1 0 0 0 0 0 0 0 0 1" in="SourceAlpha" result="extrude"></feConvolveMatrix><feComposite in="color1" in2="extrude" result="comp-extrude" operator="in"></feComposite><feOffset dx="4" dy="4" in="comp-extrude" result="offset-extrude"></feOffset><feMerge><feMergeNode in="offset-extrude"></feMergeNode><feMergeNode in="SourceGraphic"></feMergeNode></feMerge></filter></defs><g filter="url(#editing-extrusion)"><g transform="translate(31.27999722957611, 99)"><path d="M16-45.44L16-41.79L11.39-41.79L11.39-1.28L6.02-1.28L6.02-42.24L1.60-43.01L2.24-45.44L16-45.44ZM24.83-45.44L26.18-1.28L20.80-1.28L20.80-45.44L24.83-45.44ZM47.74-11.97L47.74-1.28L34.11-1.28L31.49-3.97L32.77-41.79L32.77-41.79Q32.83-43.20 33.95-44.32L33.95-44.32L33.95-44.32Q35.07-45.44 37.06-45.44L37.06-45.44L37.89-45.38L47.74-44.10L46.72-33.79L43.78-33.79L43.78-39.74L43.78-39.74Q43.78-40.32 43.01-40.32L43.01-40.32L39.04-40.32L39.04-40.32Q37.82-40.32 37.28-39.33L37.28-39.33L37.28-39.33Q36.74-38.34 36.74-37.12L36.74-37.12L36.74-37.12Q36.74-36.42 36.93-36.29L36.93-36.29L36.93-6.34L36.93-6.34Q36.74-6.27 36.74-6.14L36.74-6.14L36.74-6.14Q36.74-5.95 37.31-5.95L37.31-5.95L43.65-5.95L43.65-5.95Q44.42-5.95 44.42-6.34L44.42-6.34L44.42-11.14L45.63-11.90L47.74-11.97ZM68.03-1.34L66.88 0L63.10 0L59.71-21.63L58.30-20.54L58.30 0L54.02 0L53.18-44.80L54.85-45.44L57.54-45.44L57.54-23.81L62.08-27.65L61.38-43.97L66.88-45.44L65.54-25.66L62.91-23.62L68.03-1.34ZM86.72-5.31L86.72 0L73.02 0L73.02-45.44L86.72-45.44L86.72-41.47L78.72-41.86L78.72-27.33L86.72-25.86L86.72-22.78L77.63-23.17L77.63-4.80L86.72-5.31ZM93.06-45.44L106.30-44.54L106.62-40.51L100.99-40.51L100.99 0L95.55 0L96.83-39.36L92.22-40.90L93.06-45.44ZM123.52-36.42L121.15-36.42L119.87-41.41L116.03-40.96L115.07-26.75L124.35-25.09L123.46-3.84L123.46-3.84Q123.46-2.56 121.79-1.28L121.79-1.28L121.79-1.28Q120.13 0 118.72 0L118.72 0L111.23 0L110.66-10.94L114.43-10.94L114.37-5.38L118.85-4.35L119.87-21.38L111.23-23.30L111.23-43.90L113.79-45.44L123.84-45.44L123.52-36.42ZM143.36 1.28L140.03 1.28L140.03-45.44L145.79-45.44L149.12-21.25L149.50-21.25L152.51-46.72L158.72-46.72L158.72 0L154.50 0L155.90-42.30L155.65-42.30L150.08-11.58L148.16-11.58L143.62-39.04L143.36-39.04L143.36 1.28ZM175.62-45.44L178.24 0L175.42 0L173.12-17.02L168.00-14.59L166.59 0L162.62 0L165.50-45.44L175.62-45.44ZM172.29-42.37L172.29-42.37Q172.29-42.75 171.90-42.75L171.90-42.75L169.15-42.11L169.15-42.11Q168.77-41.92 168.77-41.47L168.77-41.47L168.77-18.94L168.77-18.94Q168.77-18.62 169.15-18.62L169.15-18.62L171.52-19.01L171.52-19.01Q171.90-19.01 171.90-19.39L171.90-19.39L172.29-42.37ZM199.23-45.44L197.95 1.28L193.60 1.28L187.33-35.46L187.07-35.46L185.86 1.28L182.59 1.28L184.64-45.44L188.54-45.44L195.01-8.38L195.46-8.38L195.46-45.44L199.23-45.44ZM216.77-45.44L219.39 0L216.58 0L214.27-17.02L209.15-14.59L207.74 0L203.78 0L206.66-45.44L216.77-45.44ZM213.44-42.37L213.44-42.37Q213.44-42.75 213.06-42.75L213.06-42.75L210.30-42.11L210.30-42.11Q209.92-41.92 209.92-41.47L209.92-41.47L209.92-18.94L209.92-18.94Q209.92-18.62 210.30-18.62L210.30-18.62L212.67-19.01L212.67-19.01Q213.06-19.01 213.06-19.39L213.06-19.39L213.44-42.37ZM242.05-18.82L239.55-17.73L239.55-3.71L239.55-3.71Q239.55-2.05 238.21-1.02L238.21-1.02L238.21-1.02Q236.86 0 235.07 0L235.07 0L225.47 0L224.06-41.98L224.06-41.98Q224.13-43.52 224.99-44.48L224.99-44.48L224.99-44.48Q225.86-45.44 227.20-45.44L227.20-45.44L240-45.44L240-42.75L238.85-35.78L236.03-35.78L236.03-41.92L228.86-40.32L229.95-7.17L229.95-7.17Q229.95-6.72 230.40-6.37L230.40-6.37L230.40-6.37Q230.85-6.02 231.30-6.02L231.30-6.02L234.24-6.02L234.24-6.02Q234.69-6.02 235.10-6.24L235.10-6.24L235.10-6.24Q235.52-6.46 235.52-6.78L235.52-6.78L235.52-21.95L242.05-21.31L242.05-18.82ZM261.50-5.31L261.50 0L247.81 0L247.81-45.44L261.50-45.44L261.50-41.47L253.50-41.86L253.50-27.33L261.50-25.86L261.50-22.78L252.42-23.17L252.42-4.80L261.50-5.31ZM271.94 0L268.61 0L268.61-45.44L273.22-45.44L277.89-17.66L278.40-17.66L282.75-45.44L286.46-45.44L287.94 0L283.71 0L283.71-34.24L283.26-34.24L278.85-10.05L276.74-9.60L272.19-37.70L271.94-37.70L271.94 0ZM307.84-5.31L307.84 0L294.14 0L294.14-45.44L307.84-45.44L307.84-41.47L299.84-41.86L299.84-27.33L307.84-25.86L307.84-22.78L298.75-23.17L298.75-4.80L307.84-5.31ZM330.62-45.44L329.34 1.28L324.99 1.28L318.72-35.46L318.46-35.46L317.25 1.28L313.98 1.28L316.03-45.44L319.94-45.44L326.40-8.38L326.85-8.38L326.85-45.44L330.62-45.44ZM335.62-45.44L348.86-44.54L349.18-40.51L343.55-40.51L343.55 0L338.11 0L339.39-39.36L334.78-40.90L335.62-45.44ZM378.18-45.44L378.18-41.79L373.57-41.79L373.57-1.28L368.19-1.28L368.19-42.24L363.78-43.01L364.42-45.44L378.18-45.44ZM396.10 0L387.58 0L387.58 0Q384.96 0 383.94-0.83L383.94-0.83L383.94-0.83Q382.91-1.66 382.91-3.58L382.91-3.58L382.91-43.90L382.91-43.90Q384.32-44.67 386.59-45.06L386.59-45.06L386.59-45.06Q388.86-45.44 392.64-45.44L392.64-45.44L392.64-45.44Q394.37-45.44 395.46-44.58L395.46-44.58L395.46-44.58Q396.54-43.71 396.54-42.37L396.54-42.37L396.10 0ZM387.01-4.03L391.55-3.65L392.13-4.22L392.51-40.77L392.51-40.77Q392.51-41.09 391.94-41.15L391.94-41.15L387.97-41.34L387.39-40.96L387.01-4.03ZM416.06 0L407.55 0L407.55 0Q404.93 0 403.90-0.83L403.90-0.83L403.90-0.83Q402.88-1.66 402.88-3.58L402.88-3.58L402.88-43.90L402.88-43.90Q404.29-44.67 406.56-45.06L406.56-45.06L406.56-45.06Q408.83-45.44 412.61-45.44L412.61-45.44L412.61-45.44Q414.34-45.44 415.42-44.58L415.42-44.58L415.42-44.58Q416.51-43.71 416.51-42.37L416.51-42.37L416.06 0ZM406.98-4.03L411.52-3.65L412.10-4.22L412.48-40.77L412.48-40.77Q412.48-41.09 411.90-41.15L411.90-41.15L407.94-41.34L407.36-40.96L406.98-4.03ZM435.84-4.42L435.84 0L422.91 0L422.91-45.44L427.65-45.44L427.65-6.72L428.61-5.25L435.84-4.42Z" fill="#ccc"></path></g></g><style>text {
  font-size: 64px;
  font-family: Arial Black;
  dominant-baseline: central;
  text-anchor: middle;
}</style></svg>