<svg width="593.4000122070312px" height="122.39999389648438px" xmlns="http://www.w3.org/2000/svg" viewBox="-46.70000610351559 13.800003051757812 593.4000122070312 122.39999389648438" style="background: none;" preserveAspectRatio="xMidYMid"><defs><filter id="editing-extrusion" x="-100%" y="-100%" width="300%" height="300%"><feFlood result="color1" flood-color="#444444"></feFlood><feConvolveMatrix order="8,8" divisor="1" kernelMatrix="1 0 0 0 0 0 0 0 0 1 0 0 0 0 0 0 0 0 1 0 0 0 0 0 0 0 0 1 0 0 0 0 0 0 0 0 1 0 0 0 0 0 0 0 0 1 0 0 0 0 0 0 0 0 1 0 0 0 0 0 0 0 0 1" in="SourceAlpha" result="extrude"></feConvolveMatrix><feComposite in="color1" in2="extrude" result="comp-extrude" operator="in"></feComposite><feOffset dx="4" dy="4" in="comp-extrude" result="offset-extrude"></feOffset><feMerge><feMergeNode in="offset-extrude"></feMergeNode><feMergeNode in="SourceGraphic"></feMergeNode></feMerge></filter></defs><g filter="url(#editing-extrusion)"><g transform="translate(40.53000867366791, 99)"><path d="M16-45.44L16-41.79L11.39-41.79L11.39-1.28L6.02-1.28L6.02-42.24L1.60-43.01L2.24-45.44L16-45.44ZM24.83-45.44L26.18-1.28L20.80-1.28L20.80-45.44L24.83-45.44ZM47.74-11.97L47.74-1.28L34.11-1.28L31.49-3.97L32.77-41.79L32.77-41.79Q32.83-43.20 33.95-44.32L33.95-44.32L33.95-44.32Q35.07-45.44 37.06-45.44L37.06-45.44L37.89-45.38L47.74-44.10L46.72-33.79L43.78-33.79L43.78-39.74L43.78-39.74Q43.78-40.32 43.01-40.32L43.01-40.32L39.04-40.32L39.04-40.32Q37.82-40.32 37.28-39.33L37.28-39.33L37.28-39.33Q36.74-38.34 36.74-37.12L36.74-37.12L36.74-37.12Q36.74-36.42 36.93-36.29L36.93-36.29L36.93-6.34L36.93-6.34Q36.74-6.27 36.74-6.14L36.74-6.14L36.74-6.14Q36.74-5.95 37.31-5.95L37.31-5.95L43.65-5.95L43.65-5.95Q44.42-5.95 44.42-6.34L44.42-6.34L44.42-11.14L45.63-11.90L47.74-11.97ZM68.03-1.34L66.88 0L63.10 0L59.71-21.63L58.30-20.54L58.30 0L54.02 0L53.18-44.80L54.85-45.44L57.54-45.44L57.54-23.81L62.08-27.65L61.38-43.97L66.88-45.44L65.54-25.66L62.91-23.62L68.03-1.34ZM86.72-5.31L86.72 0L73.02 0L73.02-45.44L86.72-45.44L86.72-41.47L78.72-41.86L78.72-27.33L86.72-25.86L86.72-22.78L77.63-23.17L77.63-4.80L86.72-5.31ZM93.06-45.44L106.30-44.54L106.62-40.51L100.99-40.51L100.99 0L95.55 0L96.83-39.36L92.22-40.90L93.06-45.44ZM124.86 1.28L121.54 1.28L121.54-45.44L127.30-45.44L130.62-21.25L131.01-21.25L134.02-46.72L140.22-46.72L140.22 0L136 0L137.41-42.30L137.15-42.30L131.58-11.58L129.66-11.58L125.12-39.04L124.86-39.04L124.86 1.28ZM157.12-45.44L159.74 0L156.93 0L154.62-17.02L149.50-14.59L148.10 0L144.13 0L147.01-45.44L157.12-45.44ZM153.79-42.37L153.79-42.37Q153.79-42.75 153.41-42.75L153.41-42.75L150.66-42.11L150.66-42.11Q150.27-41.92 150.27-41.47L150.27-41.47L150.27-18.94L150.27-18.94Q150.27-18.62 150.66-18.62L150.66-18.62L153.02-19.01L153.02-19.01Q153.41-19.01 153.41-19.39L153.41-19.39L153.79-42.37ZM180.74-45.44L179.46 1.28L175.10 1.28L168.83-35.46L168.58-35.46L167.36 1.28L164.10 1.28L166.14-45.44L170.05-45.44L176.51-8.38L176.96-8.38L176.96-45.44L180.74-45.44ZM198.27-45.44L200.90 0L198.08 0L195.78-17.02L190.66-14.59L189.25 0L185.28 0L188.16-45.44L198.27-45.44ZM194.94-42.37L194.94-42.37Q194.94-42.75 194.56-42.75L194.56-42.75L191.81-42.11L191.81-42.11Q191.42-41.92 191.42-41.47L191.42-41.47L191.42-18.94L191.42-18.94Q191.42-18.62 191.81-18.62L191.81-18.62L194.18-19.01L194.18-19.01Q194.56-19.01 194.56-19.39L194.56-19.39L194.94-42.37ZM223.55-18.82L221.06-17.73L221.06-3.71L221.06-3.71Q221.06-2.05 219.71-1.02L219.71-1.02L219.71-1.02Q218.37 0 216.58 0L216.58 0L206.98 0L205.57-41.98L205.57-41.98Q205.63-43.52 206.50-44.48L206.50-44.48L206.50-44.48Q207.36-45.44 208.70-45.44L208.70-45.44L221.50-45.44L221.50-42.75L220.35-35.78L217.54-35.78L217.54-41.92L210.37-40.32L211.46-7.17L211.46-7.17Q211.46-6.72 211.90-6.37L211.90-6.37L211.90-6.37Q212.35-6.02 212.80-6.02L212.80-6.02L215.74-6.02L215.74-6.02Q216.19-6.02 216.61-6.24L216.61-6.24L216.61-6.24Q217.02-6.46 217.02-6.78L217.02-6.78L217.02-21.95L223.55-21.31L223.55-18.82ZM243.01-5.31L243.01 0L229.31 0L229.31-45.44L243.01-45.44L243.01-41.47L235.01-41.86L235.01-27.33L243.01-25.86L243.01-22.78L233.92-23.17L233.92-4.80L243.01-5.31ZM253.44 0L250.11 0L250.11-45.44L254.72-45.44L259.39-17.66L259.90-17.66L264.26-45.44L267.97-45.44L269.44 0L265.22 0L265.22-34.24L264.77-34.24L260.35-10.05L258.24-9.60L253.70-37.70L253.44-37.70L253.44 0ZM289.34-5.31L289.34 0L275.65 0L275.65-45.44L289.34-45.44L289.34-41.47L281.34-41.86L281.34-27.33L289.34-25.86L289.34-22.78L280.26-23.17L280.26-4.80L289.34-5.31ZM312.13-45.44L310.85 1.28L306.50 1.28L300.22-35.46L299.97-35.46L298.75 1.28L295.49 1.28L297.54-45.44L301.44-45.44L307.90-8.38L308.35-8.38L308.35-45.44L312.13-45.44ZM317.12-45.44L330.37-44.54L330.69-40.51L325.06-40.51L325.06 0L319.62 0L320.90-39.36L316.29-40.90L317.12-45.44ZM359.68-45.44L359.68-41.79L355.07-41.79L355.07-1.28L349.70-1.28L349.70-42.24L345.28-43.01L345.92-45.44L359.68-45.44ZM377.60 0L369.09 0L369.09 0Q366.46 0 365.44-0.83L365.44-0.83L365.44-0.83Q364.42-1.66 364.42-3.58L364.42-3.58L364.42-43.90L364.42-43.90Q365.82-44.67 368.10-45.06L368.10-45.06L368.10-45.06Q370.37-45.44 374.14-45.44L374.14-45.44L374.14-45.44Q375.87-45.44 376.96-44.58L376.96-44.58L376.96-44.58Q378.05-43.71 378.05-42.37L378.05-42.37L377.60 0ZM368.51-4.03L373.06-3.65L373.63-4.22L374.02-40.77L374.02-40.77Q374.02-41.09 373.44-41.15L373.44-41.15L369.47-41.34L368.90-40.96L368.51-4.03ZM397.57 0L389.06 0L389.06 0Q386.43 0 385.41-0.83L385.41-0.83L385.41-0.83Q384.38-1.66 384.38-3.58L384.38-3.58L384.38-43.90L384.38-43.90Q385.79-44.67 388.06-45.06L388.06-45.06L388.06-45.06Q390.34-45.44 394.11-45.44L394.11-45.44L394.11-45.44Q395.84-45.44 396.93-44.58L396.93-44.58L396.93-44.58Q398.02-43.71 398.02-42.37L398.02-42.37L397.57 0ZM388.48-4.03L393.02-3.65L393.60-4.22L393.98-40.77L393.98-40.77Q393.98-41.09 393.41-41.15L393.41-41.15L389.44-41.34L388.86-40.96L388.48-4.03ZM417.34-4.42L417.34 0L404.42 0L404.42-45.44L409.15-45.44L409.15-6.72L410.11-5.25L417.34-4.42Z" fill="#ccc"></path></g></g><style>text {
  font-size: 64px;
  font-family: Arial Black;
  dominant-baseline: central;
  text-anchor: middle;
}</style></svg>