<svg width="511.15998535156245px" height="122.39999389648438px" xmlns="http://www.w3.org/2000/svg" viewBox="-5.579992675781227 13.800003051757812 511.15998535156245 122.39999389648438" style="background: none;" preserveAspectRatio="xMidYMid"><defs><filter id="editing-extrusion" x="-100%" y="-100%" width="300%" height="300%"><feFlood result="color1" flood-color="#444444"></feFlood><feConvolveMatrix order="8,8" divisor="1" kernelMatrix="1 0 0 0 0 0 0 0 0 1 0 0 0 0 0 0 0 0 1 0 0 0 0 0 0 0 0 1 0 0 0 0 0 0 0 0 1 0 0 0 0 0 0 0 0 1 0 0 0 0 0 0 0 0 1 0 0 0 0 0 0 0 0 1" in="SourceAlpha" result="extrude"></feConvolveMatrix><feComposite in="color1" in2="extrude" result="comp-extrude" operator="in"></feComposite><feOffset dx="4" dy="4" in="comp-extrude" result="offset-extrude"></feOffset><feMerge><feMergeNode in="offset-extrude"></feMergeNode><feMergeNode in="SourceGraphic"></feMergeNode></feMerge></filter></defs><g filter="url(#editing-extrusion)"><g transform="translate(70.45001065731049, 98.35999870300293)"><path d="M16-45.44L16-41.79L11.39-41.79L11.39-1.28L6.02-1.28L6.02-42.24L1.60-43.01L2.24-45.44L16-45.44ZM24.83-45.44L26.18-1.28L20.80-1.28L20.80-45.44L24.83-45.44ZM47.74-11.97L47.74-1.28L34.11-1.28L31.49-3.97L32.77-41.79L32.77-41.79Q32.83-43.20 33.95-44.32L33.95-44.32L33.95-44.32Q35.07-45.44 37.06-45.44L37.06-45.44L37.89-45.38L47.74-44.10L46.72-33.79L43.78-33.79L43.78-39.74L43.78-39.74Q43.78-40.32 43.01-40.32L43.01-40.32L39.04-40.32L39.04-40.32Q37.82-40.32 37.28-39.33L37.28-39.33L37.28-39.33Q36.74-38.34 36.74-37.12L36.74-37.12L36.74-37.12Q36.74-36.42 36.93-36.29L36.93-36.29L36.93-6.34L36.93-6.34Q36.74-6.27 36.74-6.14L36.74-6.14L36.74-6.14Q36.74-5.95 37.31-5.95L37.31-5.95L43.65-5.95L43.65-5.95Q44.42-5.95 44.42-6.34L44.42-6.34L44.42-11.14L45.63-11.90L47.74-11.97ZM68.03-1.34L66.88 0L63.10 0L59.71-21.63L58.30-20.54L58.30 0L54.02 0L53.18-44.80L54.85-45.44L57.54-45.44L57.54-23.81L62.08-27.65L61.38-43.97L66.88-45.44L65.54-25.66L62.91-23.62L68.03-1.34ZM86.72-5.31L86.72 0L73.02 0L73.02-45.44L86.72-45.44L86.72-41.47L78.72-41.86L78.72-27.33L86.72-25.86L86.72-22.78L77.63-23.17L77.63-4.80L86.72-5.31ZM93.06-45.44L106.30-44.54L106.62-40.51L100.99-40.51L100.99 0L95.55 0L96.83-39.36L92.22-40.90L93.06-45.44ZM138.43-10.69L138.43 0L129.28 0L129.28 0Q126.02 0 124.42-1.12L124.42-1.12L124.42-1.12Q122.82-2.24 122.82-3.97L122.82-3.97L122.82-41.86L122.82-41.86Q122.82-43.39 124.16-44.42L124.16-44.42L124.16-44.42Q125.50-45.44 127.94-45.44L127.94-45.44L138.43-45.44L138.43-41.86L137.41-33.86L133.18-33.86L132.54-41.09L132.54-41.09Q132.54-41.66 131.78-41.66L131.78-41.66L129.09-41.66L129.09-41.66Q127.87-41.66 127.33-40.67L127.33-40.67L127.33-40.67Q126.78-39.68 126.78-38.46L126.78-38.46L126.78-38.46Q126.78-37.76 126.98-37.63L126.98-37.63L128.26-5.70L128.26-5.70Q128.06-5.63 128.06-5.50L128.06-5.50L128.06-5.50Q128.06-5.31 128.64-5.31L128.64-5.31L132.42-5.31L132.42-5.31Q133.18-5.31 133.18-5.70L133.18-5.70L134.46-10.69L138.43-10.69ZM144.19-44.74L144.19-44.74Q144.19-45.06 146.82-45.25L146.82-45.25L146.82-45.25Q149.44-45.44 152.00-45.44L152.00-45.44L154.75-45.44L154.75-45.44Q155.78-45.44 156.42-44.67L156.42-44.67L156.42-44.67Q157.06-43.90 157.12-42.69L157.12-42.69L157.76-24.26L154.88-20.48L160.00-1.41L158.78 0L155.01 0L151.74-19.90L148.48-19.58L147.14 0L144.19 0L144.19-44.74ZM148.22-24.38L153.02-24.64L153.02-24.64Q153.41-24.64 153.41-25.02L153.41-25.02L153.41-40.96L152.45-41.92L148.03-41.47L148.22-24.38ZM178.62-5.31L178.62 0L164.93 0L164.93-45.44L178.62-45.44L178.62-41.47L170.62-41.86L170.62-27.33L178.62-25.86L178.62-22.78L169.54-23.17L169.54-4.80L178.62-5.31ZM197.50-45.44L200.13 0L197.31 0L195.01-17.02L189.89-14.59L188.48 0L184.51 0L187.39-45.44L197.50-45.44ZM194.18-42.37L194.18-42.37Q194.18-42.75 193.79-42.75L193.79-42.75L191.04-42.11L191.04-42.11Q190.66-41.92 190.66-41.47L190.66-41.47L190.66-18.94L190.66-18.94Q190.66-18.62 191.04-18.62L191.04-18.62L193.41-19.01L193.41-19.01Q193.79-19.01 193.79-19.39L193.79-19.39L194.18-42.37ZM204.67-45.44L217.92-44.54L218.24-40.51L212.61-40.51L212.61 0L207.17 0L208.45-39.36L203.84-40.90L204.67-45.44ZM227.07-45.44L228.42-1.28L223.04-1.28L223.04-45.44L227.07-45.44ZM247.36 0L238.85 0L238.85 0Q236.22 0 235.20-0.83L235.20-0.83L235.20-0.83Q234.18-1.66 234.18-3.58L234.18-3.58L234.18-43.90L234.18-43.90Q235.58-44.67 237.86-45.06L237.86-45.06L237.86-45.06Q240.13-45.44 243.90-45.44L243.90-45.44L243.90-45.44Q245.63-45.44 246.72-44.58L246.72-44.58L246.72-44.58Q247.81-43.71 247.81-42.37L247.81-42.37L247.36 0ZM238.27-4.03L242.82-3.65L243.39-4.22L243.78-40.77L243.78-40.77Q243.78-41.09 243.20-41.15L243.20-41.15L239.23-41.34L238.66-40.96L238.27-4.03ZM269.89-45.44L268.61 1.28L264.26 1.28L257.98-35.46L257.73-35.46L256.51 1.28L253.25 1.28L255.30-45.44L259.20-45.44L265.66-8.38L266.11-8.38L266.11-45.44L269.89-45.44ZM299.84-45.44L299.84-41.79L295.23-41.79L295.23-1.28L289.86-1.28L289.86-42.24L285.44-43.01L286.08-45.44L299.84-45.44ZM317.76 0L309.25 0L309.25 0Q306.62 0 305.60-0.83L305.60-0.83L305.60-0.83Q304.58-1.66 304.58-3.58L304.58-3.58L304.58-43.90L304.58-43.90Q305.98-44.67 308.26-45.06L308.26-45.06L308.26-45.06Q310.53-45.44 314.30-45.44L314.30-45.44L314.30-45.44Q316.03-45.44 317.12-44.58L317.12-44.58L317.12-44.58Q318.21-43.71 318.21-42.37L318.21-42.37L317.76 0ZM308.67-4.03L313.22-3.65L313.79-4.22L314.18-40.77L314.18-40.77Q314.18-41.09 313.60-41.15L313.60-41.15L309.63-41.34L309.06-40.96L308.67-4.03ZM337.73 0L329.22 0L329.22 0Q326.59 0 325.57-0.83L325.57-0.83L325.57-0.83Q324.54-1.66 324.54-3.58L324.54-3.58L324.54-43.90L324.54-43.90Q325.95-44.67 328.22-45.06L328.22-45.06L328.22-45.06Q330.50-45.44 334.27-45.44L334.27-45.44L334.27-45.44Q336-45.44 337.09-44.58L337.09-44.58L337.09-44.58Q338.18-43.71 338.18-42.37L338.18-42.37L337.73 0ZM328.64-4.03L333.18-3.65L333.76-4.22L334.14-40.77L334.14-40.77Q334.14-41.09 333.57-41.15L333.57-41.15L329.60-41.34L329.02-40.96L328.64-4.03ZM357.50-4.42L357.50 0L344.58 0L344.58-45.44L349.31-45.44L349.31-6.72L350.27-5.25L357.50-4.42Z" fill="#ccc"></path></g></g><style>text {
  font-size: 64px;
  font-family: Arial Black;
  dominant-baseline: central;
  text-anchor: middle;
}</style></svg>