<svg width="373.439990234375px" height="122.39999389648438px" xmlns="http://www.w3.org/2000/svg" viewBox="63.280004882812506 13.800003051757812 373.439990234375 122.39999389648438" style="background: none;" preserveAspectRatio="xMidYMid"><defs><filter id="editing-extrusion" x="-100%" y="-100%" width="300%" height="300%"><feFlood result="color1" flood-color="#444"></feFlood><feConvolveMatrix order="8,8" divisor="1" kernelMatrix="1 0 0 0 0 0 0 0 0 1 0 0 0 0 0 0 0 0 1 0 0 0 0 0 0 0 0 1 0 0 0 0 0 0 0 0 1 0 0 0 0 0 0 0 0 1 0 0 0 0 0 0 0 0 1 0 0 0 0 0 0 0 0 1" in="SourceAlpha" result="extrude"></feConvolveMatrix><feComposite in="color1" in2="extrude" result="comp-extrude" operator="in"></feComposite><feOffset dx="4" dy="4" in="comp-extrude" result="offset-extrude"></feOffset><feMerge><feMergeNode in="offset-extrude"></feMergeNode><feMergeNode in="SourceGraphic"></feMergeNode></feMerge></filter></defs><g filter="url(#editing-extrusion)"><g transform="translate(121.68001401424408, 97.71999931335449)"><path d="M16-45.44L16-41.79L11.39-41.79L11.39-1.28L6.02-1.28L6.02-42.24L1.60-43.01L2.24-45.44L16-45.44ZM33.92 0L25.41 0L25.41 0Q22.78 0 21.76-0.83L21.76-0.83L21.76-0.83Q20.74-1.66 20.74-3.58L20.74-3.58L20.74-43.90L20.74-43.90Q22.14-44.67 24.42-45.06L24.42-45.06L24.42-45.06Q26.69-45.44 30.46-45.44L30.46-45.44L30.46-45.44Q32.19-45.44 33.28-44.58L33.28-44.58L33.28-44.58Q34.37-43.71 34.37-42.37L34.37-42.37L33.92 0ZM24.83-4.03L29.38-3.65L29.95-4.22L30.34-40.77L30.34-40.77Q30.34-41.09 29.76-41.15L29.76-41.15L25.79-41.34L25.22-40.96L24.83-4.03ZM53.89 0L45.38 0L45.38 0Q42.75 0 41.73-0.83L41.73-0.83L41.73-0.83Q40.70-1.66 40.70-3.58L40.70-3.58L40.70-43.90L40.70-43.90Q42.11-44.67 44.38-45.06L44.38-45.06L44.38-45.06Q46.66-45.44 50.43-45.44L50.43-45.44L50.43-45.44Q52.16-45.44 53.25-44.58L53.25-44.58L53.25-44.58Q54.34-43.71 54.34-42.37L54.34-42.37L53.89 0ZM44.80-4.03L49.34-3.65L49.92-4.22L50.30-40.77L50.30-40.77Q50.30-41.09 49.73-41.15L49.73-41.15L45.76-41.34L45.18-40.96L44.80-4.03ZM73.66-4.42L73.66 0L60.74 0L60.74-45.44L65.47-45.44L65.47-6.72L66.43-5.25L73.66-4.42ZM98.43-45.44L98.43-45.44Q100.86-45.44 102.53-44.51L102.53-44.51L102.53-44.51Q104.19-43.58 104.19-42.30L104.19-42.30L104.19-24.26L104.19-24.26Q104.19-23.55 103.71-22.50L103.71-22.50L103.71-22.50Q103.23-21.44 101.76-20.51L101.76-20.51L101.76-20.51Q100.29-19.58 97.60-19.58L97.60-19.58L94.21-19.58L94.21 0L90.50 0L90.50-42.82L89.09-43.58L89.09-45.44L98.43-45.44ZM95.10-23.87L95.10-23.87Q95.10-23.68 95.33-23.52L95.33-23.52L95.33-23.52Q95.55-23.36 95.87-23.36L95.87-23.36L98.62-24L98.62-24Q99.01-24 99.01-24.38L99.01-24.38L99.65-40.51L99.65-40.51Q99.58-41.34 98.94-41.95L98.94-41.95L98.94-41.95Q98.30-42.56 96.96-42.56L96.96-42.56L95.87-42.56L95.87-42.56Q95.10-42.56 95.10-42.11L95.10-42.11L95.10-23.87ZM109.95-44.74L109.95-44.74Q109.95-45.06 112.58-45.25L112.58-45.25L112.58-45.25Q115.20-45.44 117.76-45.44L117.76-45.44L120.51-45.44L120.51-45.44Q121.54-45.44 122.18-44.67L122.18-44.67L122.18-44.67Q122.82-43.90 122.88-42.69L122.88-42.69L123.52-24.26L120.64-20.48L125.76-1.41L124.54 0L120.77 0L117.50-19.90L114.24-19.58L112.90 0L109.95 0L109.95-44.74ZM113.98-24.38L118.78-24.64L118.78-24.64Q119.17-24.64 119.17-25.02L119.17-25.02L119.17-40.96L118.21-41.92L113.79-41.47L113.98-24.38ZM143.49 0L134.98 0L134.98 0Q132.35 0 131.33-0.83L131.33-0.83L131.33-0.83Q130.30-1.66 130.30-3.58L130.30-3.58L130.30-43.90L130.30-43.90Q131.71-44.67 133.98-45.06L133.98-45.06L133.98-45.06Q136.26-45.44 140.03-45.44L140.03-45.44L140.03-45.44Q141.76-45.44 142.85-44.58L142.85-44.58L142.85-44.58Q143.94-43.71 143.94-42.37L143.94-42.37L143.49 0ZM134.40-4.03L138.94-3.65L139.52-4.22L139.90-40.77L139.90-40.77Q139.90-41.09 139.33-41.15L139.33-41.15L135.36-41.34L134.78-40.96L134.40-4.03ZM149.57-45.44L162.82-44.54L163.14-40.51L157.50-40.51L157.50 0L152.06 0L153.34-39.36L148.74-40.90L149.57-45.44ZM181.06 0L172.54 0L172.54 0Q169.92 0 168.90-0.83L168.90-0.83L168.90-0.83Q167.87-1.66 167.87-3.58L167.87-3.58L167.87-43.90L167.87-43.90Q169.28-44.67 171.55-45.06L171.55-45.06L171.55-45.06Q173.82-45.44 177.60-45.44L177.60-45.44L177.60-45.44Q179.33-45.44 180.42-44.58L180.42-44.58L180.42-44.58Q181.50-43.71 181.50-42.37L181.50-42.37L181.06 0ZM171.97-4.03L176.51-3.65L177.09-4.22L177.47-40.77L177.47-40.77Q177.47-41.09 176.90-41.15L176.90-41.15L172.93-41.34L172.35-40.96L171.97-4.03ZM187.14-45.44L200.38-44.54L200.70-40.51L195.07-40.51L195.07 0L189.63 0L190.91-39.36L186.30-40.90L187.14-45.44ZM213.06-23.62L214.14 0L209.22 0L209.22-23.94L203.26-44.80L209.09-44.80L211.26-26.43L211.78-26.56L213.70-45.44L218.18-45.44L215.36-27.58L213.06-23.62ZM222.85-43.97L222.85-43.97Q222.85-44.61 225.22-45.02L225.22-45.02L225.22-45.02Q227.58-45.44 229.82-45.44L229.82-45.44L232.58-45.44L232.58-45.44Q233.41-45.44 234.14-45.09L234.14-45.09L234.14-45.09Q234.88-44.74 234.88-44.10L234.88-44.10L235.58-24.26L233.34-20.29L226.30-19.58L225.79 0L221.38 0L222.85-43.97ZM226.69-24.45L230.85-24.64L230.85-24.64Q231.23-24.64 231.23-25.02L231.23-25.02L231.23-41.60L230.27-42.56L226.69-42.11L226.69-24.45ZM255.04-5.31L255.04 0L241.34 0L241.34-45.44L255.04-45.44L255.04-41.47L247.04-41.86L247.04-27.33L255.04-25.86L255.04-22.78L245.95-23.17L245.95-4.80L255.04-5.31Z" fill="#ccc"></path></g></g><style>text {
  font-size: 64px;
  font-family: Arial Black;
  dominant-baseline: central;
  text-anchor: middle;
}</style></svg>