<svg width="379.52000732421874px" height="122.39999389648438px" xmlns="http://www.w3.org/2000/svg" viewBox="60.23999633789063 13.800003051757812 379.52000732421874 122.39999389648438" style="background: none;" preserveAspectRatio="xMidYMid"><defs><filter id="editing-extrusion" x="-100%" y="-100%" width="300%" height="300%"><feFlood result="color1" flood-color="#444444"></feFlood><feConvolveMatrix order="8,8" divisor="1" kernelMatrix="1 0 0 0 0 0 0 0 0 1 0 0 0 0 0 0 0 0 1 0 0 0 0 0 0 0 0 1 0 0 0 0 0 0 0 0 1 0 0 0 0 0 0 0 0 1 0 0 0 0 0 0 0 0 1 0 0 0 0 0 0 0 0 1" in="SourceAlpha" result="extrude"></feConvolveMatrix><feComposite in="color1" in2="extrude" result="comp-extrude" operator="in"></feComposite><feOffset dx="4" dy="4" in="comp-extrude" result="offset-extrude"></feOffset><feMerge><feMergeNode in="offset-extrude"></feMergeNode><feMergeNode in="SourceGraphic"></feMergeNode></feMerge></filter></defs><g filter="url(#editing-extrusion)"><g transform="translate(117.77500605583191, 98.35999870300293)"><path d="M16.64-2.56L16.64-2.56Q16.64-1.66 15.71-0.83L15.71-0.83L15.71-0.83Q14.78 0 13.89 0L13.89 0L3.20 0L3.20-43.97L7.04-43.97L7.04-4.42L12.61-4.03L11.26-45.44L16.70-45.44L16.64-2.56ZM35.14-36.42L32.77-36.42L31.49-41.41L27.65-40.96L26.69-26.75L35.97-25.09L35.07-3.84L35.07-3.84Q35.07-2.56 33.41-1.28L33.41-1.28L33.41-1.28Q31.74 0 30.34 0L30.34 0L22.85 0L22.27-10.94L26.05-10.94L25.98-5.38L30.46-4.35L31.49-21.38L22.85-23.30L22.85-43.90L25.41-45.44L35.46-45.44L35.14-36.42ZM55.55-5.31L55.55 0L41.86 0L41.86-45.44L55.55-45.44L55.55-41.47L47.55-41.86L47.55-27.33L55.55-25.86L55.55-22.78L46.46-23.17L46.46-4.80L55.55-5.31ZM62.66-44.74L62.66-44.74Q62.66-45.06 65.28-45.25L65.28-45.25L65.28-45.25Q67.90-45.44 70.46-45.44L70.46-45.44L73.22-45.44L73.22-45.44Q74.24-45.44 74.88-44.67L74.88-44.67L74.88-44.67Q75.52-43.90 75.58-42.69L75.58-42.69L76.22-24.26L73.34-20.48L78.46-1.41L77.25 0L73.47 0L70.21-19.90L66.94-19.58L65.60 0L62.66 0L62.66-44.74ZM66.69-24.38L71.49-24.64L71.49-24.64Q71.87-24.64 71.87-25.02L71.87-25.02L71.87-40.96L70.91-41.92L66.50-41.47L66.69-24.38ZM98.50-45.44L99.84-1.28L94.46-1.28L94.46-45.44L98.50-45.44ZM121.34-45.44L120.06 1.28L115.71 1.28L109.44-35.46L109.18-35.46L107.97 1.28L104.70 1.28L106.75-45.44L110.66-45.44L117.12-8.38L117.57-8.38L117.57-45.44L121.34-45.44ZM126.34-45.44L139.58-44.54L139.90-40.51L134.27-40.51L134.27 0L128.83 0L130.11-39.36L125.50-40.90L126.34-45.44ZM158.72-5.31L158.72 0L145.02 0L145.02-45.44L158.72-45.44L158.72-41.47L150.72-41.86L150.72-27.33L158.72-25.86L158.72-22.78L149.63-23.17L149.63-4.80L158.72-5.31ZM165.82-44.74L165.82-44.74Q165.82-45.06 168.45-45.25L168.45-45.25L168.45-45.25Q171.07-45.44 173.63-45.44L173.63-45.44L176.38-45.44L176.38-45.44Q177.41-45.44 178.05-44.67L178.05-44.67L178.05-44.67Q178.69-43.90 178.75-42.69L178.75-42.69L179.39-24.26L176.51-20.48L181.63-1.41L180.42 0L176.64 0L173.38-19.90L170.11-19.58L168.77 0L165.82 0L165.82-44.74ZM169.86-24.38L174.66-24.64L174.66-24.64Q175.04-24.64 175.04-25.02L175.04-25.02L175.04-40.96L174.08-41.92L169.66-41.47L169.86-24.38ZM191.81 1.28L186.56 1.28L186.56-45.44L200.26-44.16L200.26-40.19L191.62-39.42L191.62-28.61L200.26-28.61L200.26-24.90L190.53-23.81L191.81 1.28ZM217.92-45.44L220.54 0L217.73 0L215.42-17.02L210.30-14.59L208.90 0L204.93 0L207.81-45.44L217.92-45.44ZM214.59-42.37L214.59-42.37Q214.59-42.75 214.21-42.75L214.21-42.75L211.46-42.11L211.46-42.11Q211.07-41.92 211.07-41.47L211.07-41.47L211.07-18.94L211.07-18.94Q211.07-18.62 211.46-18.62L211.46-18.62L213.82-19.01L213.82-19.01Q214.21-19.01 214.21-19.39L214.21-19.39L214.59-42.37ZM241.60-11.97L241.60-1.28L227.97-1.28L225.34-3.97L226.62-41.79L226.62-41.79Q226.69-43.20 227.81-44.32L227.81-44.32L227.81-44.32Q228.93-45.44 230.91-45.44L230.91-45.44L231.74-45.38L241.60-44.10L240.58-33.79L237.63-33.79L237.63-39.74L237.63-39.74Q237.63-40.32 236.86-40.32L236.86-40.32L232.90-40.32L232.90-40.32Q231.68-40.32 231.14-39.33L231.14-39.33L231.14-39.33Q230.59-38.34 230.59-37.12L230.59-37.12L230.59-37.12Q230.59-36.42 230.78-36.29L230.78-36.29L230.78-6.34L230.78-6.34Q230.59-6.27 230.59-6.14L230.59-6.14L230.59-6.14Q230.59-5.95 231.17-5.95L231.17-5.95L237.50-5.95L237.50-5.95Q238.27-5.95 238.27-6.34L238.27-6.34L238.27-11.14L239.49-11.90L241.60-11.97ZM261.25-5.31L261.25 0L247.55 0L247.55-45.44L261.25-45.44L261.25-41.47L253.25-41.86L253.25-27.33L261.25-25.86L261.25-22.78L252.16-23.17L252.16-4.80L261.25-5.31Z" fill="#ccc"></path></g></g><style>text {
  font-size: 64px;
  font-family: Arial Black;
  dominant-baseline: central;
  text-anchor: middle;
}</style></svg>