<svg width="413.3199951171875px" height="122.39999389648438px" xmlns="http://www.w3.org/2000/svg" viewBox="43.340002441406256 13.800003051757812 413.3199951171875 122.39999389648438" style="background: none;" preserveAspectRatio="xMidYMid"><defs><filter id="editing-extrusion" x="-100%" y="-100%" width="300%" height="300%"><feFlood result="color1" flood-color="#444444"></feFlood><feConvolveMatrix order="8,8" divisor="1" kernelMatrix="1 0 0 0 0 0 0 0 0 1 0 0 0 0 0 0 0 0 1 0 0 0 0 0 0 0 0 1 0 0 0 0 0 0 0 0 1 0 0 0 0 0 0 0 0 1 0 0 0 0 0 0 0 0 1 0 0 0 0 0 0 0 0 1" in="SourceAlpha" result="extrude"></feConvolveMatrix><feComposite in="color1" in2="extrude" result="comp-extrude" operator="in"></feComposite><feOffset dx="4" dy="4" in="comp-extrude" result="offset-extrude"></feOffset><feMerge><feMergeNode in="offset-extrude"></feMergeNode><feMergeNode in="SourceGraphic"></feMergeNode></feMerge></filter></defs><g filter="url(#editing-extrusion)"><g transform="translate(106.64001154899597, 98.35999870300293)"><path d="M16.64-2.56L16.64-2.56Q16.64-1.66 15.71-0.83L15.71-0.83L15.71-0.83Q14.78 0 13.89 0L13.89 0L3.20 0L3.20-43.97L7.04-43.97L7.04-4.42L12.61-4.03L11.26-45.44L16.70-45.44L16.64-2.56ZM35.14-36.42L32.77-36.42L31.49-41.41L27.65-40.96L26.69-26.75L35.97-25.09L35.07-3.84L35.07-3.84Q35.07-2.56 33.41-1.28L33.41-1.28L33.41-1.28Q31.74 0 30.34 0L30.34 0L22.85 0L22.27-10.94L26.05-10.94L25.98-5.38L30.46-4.35L31.49-21.38L22.85-23.30L22.85-43.90L25.41-45.44L35.46-45.44L35.14-36.42ZM55.55-5.31L55.55 0L41.86 0L41.86-45.44L55.55-45.44L55.55-41.47L47.55-41.86L47.55-27.33L55.55-25.86L55.55-22.78L46.46-23.17L46.46-4.80L55.55-5.31ZM62.66-44.74L62.66-44.74Q62.66-45.06 65.28-45.25L65.28-45.25L65.28-45.25Q67.90-45.44 70.46-45.44L70.46-45.44L73.22-45.44L73.22-45.44Q74.24-45.44 74.88-44.67L74.88-44.67L74.88-44.67Q75.52-43.90 75.58-42.69L75.58-42.69L76.22-24.26L73.34-20.48L78.46-1.41L77.25 0L73.47 0L70.21-19.90L66.94-19.58L65.60 0L62.66 0L62.66-44.74ZM66.69-24.38L71.49-24.64L71.49-24.64Q71.87-24.64 71.87-25.02L71.87-25.02L71.87-40.96L70.91-41.92L66.50-41.47L66.69-24.38ZM108.48-7.74L109.25-1.28L94.21-1.28L95.68-45.44L108.67-45.44L108.67-40.45L99.52-40.45L99.52-27.26L106.50-27.26L106.50-24.06L99.84-22.91L99.84-6.59L108.48-7.74ZM130.56 0.70L124.42 0.70L121.66-21.70L119.87-20.74L117.06 0L112.06 0L117.06-24.70L112.96-45.44L117.95-45.44L120.51-24.96L122.75-25.54L125.12-44.16L129.41-44.16L124.86-21.95L130.56 0.70ZM134.66-43.97L134.66-43.97Q134.66-44.61 137.02-45.02L137.02-45.02L137.02-45.02Q139.39-45.44 141.63-45.44L141.63-45.44L144.38-45.44L144.38-45.44Q145.22-45.44 145.95-45.09L145.95-45.09L145.95-45.09Q146.69-44.74 146.69-44.10L146.69-44.10L147.39-24.26L145.15-20.29L138.11-19.58L137.60 0L133.18 0L134.66-43.97ZM138.50-24.45L142.66-24.64L142.66-24.64Q143.04-24.64 143.04-25.02L143.04-25.02L143.04-41.60L142.08-42.56L138.50-42.11L138.50-24.45ZM166.85-5.31L166.85 0L153.15 0L153.15-45.44L166.85-45.44L166.85-41.47L158.85-41.86L158.85-27.33L166.85-25.86L166.85-22.78L157.76-23.17L157.76-4.80L166.85-5.31ZM173.95-44.74L173.95-44.74Q173.95-45.06 176.58-45.25L176.58-45.25L176.58-45.25Q179.20-45.44 181.76-45.44L181.76-45.44L184.51-45.44L184.51-45.44Q185.54-45.44 186.18-44.67L186.18-44.67L186.18-44.67Q186.82-43.90 186.88-42.69L186.88-42.69L187.52-24.26L184.64-20.48L189.76-1.41L188.54 0L184.77 0L181.50-19.90L178.24-19.58L176.90 0L173.95 0L173.95-44.74ZM177.98-24.38L182.78-24.64L182.78-24.64Q183.17-24.64 183.17-25.02L183.17-25.02L183.17-40.96L182.21-41.92L177.79-41.47L177.98-24.38ZM198.40-45.44L199.74-1.28L194.37-1.28L194.37-45.44L198.40-45.44ZM219.58-5.31L219.58 0L205.89 0L205.89-45.44L219.58-45.44L219.58-41.47L211.58-41.86L211.58-27.33L219.58-25.86L219.58-22.78L210.50-23.17L210.50-4.80L219.58-5.31ZM242.37-45.44L241.09 1.28L236.74 1.28L230.46-35.46L230.21-35.46L228.99 1.28L225.73 1.28L227.78-45.44L231.68-45.44L238.14-8.38L238.59-8.38L238.59-45.44L242.37-45.44ZM263.87-11.97L263.87-1.28L250.24-1.28L247.62-3.97L248.90-41.79L248.90-41.79Q248.96-43.20 250.08-44.32L250.08-44.32L250.08-44.32Q251.20-45.44 253.18-45.44L253.18-45.44L254.02-45.38L263.87-44.10L262.85-33.79L259.90-33.79L259.90-39.74L259.90-39.74Q259.90-40.32 259.14-40.32L259.14-40.32L255.17-40.32L255.17-40.32Q253.95-40.32 253.41-39.33L253.41-39.33L253.41-39.33Q252.86-38.34 252.86-37.12L252.86-37.12L252.86-37.12Q252.86-36.42 253.06-36.29L253.06-36.29L253.06-6.34L253.06-6.34Q252.86-6.27 252.86-6.14L252.86-6.14L252.86-6.14Q252.86-5.95 253.44-5.95L253.44-5.95L259.78-5.95L259.78-5.95Q260.54-5.95 260.54-6.34L260.54-6.34L260.54-11.14L261.76-11.90L263.87-11.97ZM283.52-5.31L283.52 0L269.82 0L269.82-45.44L283.52-45.44L283.52-41.47L275.52-41.86L275.52-27.33L283.52-25.86L283.52-22.78L274.43-23.17L274.43-4.80L283.52-5.31Z" fill="#ccc"></path></g></g><style>text {
  font-size: 64px;
  font-family: Arial Black;
  dominant-baseline: central;
  text-anchor: middle;
}</style></svg>