<svg width="689.2000244140625px" height="122.39999389648438px" xmlns="http://www.w3.org/2000/svg" viewBox="-94.60001220703123 13.800003051757812 689.2000244140625 122.39999389648438" style="background: none;" preserveAspectRatio="xMidYMid"><defs><filter id="editing-extrusion" x="-100%" y="-100%" width="300%" height="300%"><feFlood result="color1" flood-color="#444"></feFlood><feConvolveMatrix order="8,8" divisor="1" kernelMatrix="1 0 0 0 0 0 0 0 0 1 0 0 0 0 0 0 0 0 1 0 0 0 0 0 0 0 0 1 0 0 0 0 0 0 0 0 1 0 0 0 0 0 0 0 0 1 0 0 0 0 0 0 0 0 1 0 0 0 0 0 0 0 0 1" in="SourceAlpha" result="extrude"></feConvolveMatrix><feComposite in="color1" in2="extrude" result="comp-extrude" operator="in"></feComposite><feOffset dx="4" dy="4" in="comp-extrude" result="offset-extrude"></feOffset><feMerge><feMergeNode in="offset-extrude"></feMergeNode><feMergeNode in="SourceGraphic"></feMergeNode></feMerge></filter></defs><g filter="url(#editing-extrusion)"><g transform="translate(3.4099819660186768, 98.35999870300293)"><path d="M16.64-2.56L16.64-2.56Q16.64-1.66 15.71-0.83L15.71-0.83L15.71-0.83Q14.78 0 13.89 0L13.89 0L3.20 0L3.20-43.97L7.04-43.97L7.04-4.42L12.61-4.03L11.26-45.44L16.70-45.44L16.64-2.56ZM35.14-36.42L32.77-36.42L31.49-41.41L27.65-40.96L26.69-26.75L35.97-25.09L35.07-3.84L35.07-3.84Q35.07-2.56 33.41-1.28L33.41-1.28L33.41-1.28Q31.74 0 30.34 0L30.34 0L22.85 0L22.27-10.94L26.05-10.94L25.98-5.38L30.46-4.35L31.49-21.38L22.85-23.30L22.85-43.90L25.41-45.44L35.46-45.44L35.14-36.42ZM55.55-5.31L55.55 0L41.86 0L41.86-45.44L55.55-45.44L55.55-41.47L47.55-41.86L47.55-27.33L55.55-25.86L55.55-22.78L46.46-23.17L46.46-4.80L55.55-5.31ZM62.66-44.74L62.66-44.74Q62.66-45.06 65.28-45.25L65.28-45.25L65.28-45.25Q67.90-45.44 70.46-45.44L70.46-45.44L73.22-45.44L73.22-45.44Q74.24-45.44 74.88-44.67L74.88-44.67L74.88-44.67Q75.52-43.90 75.58-42.69L75.58-42.69L76.22-24.26L73.34-20.48L78.46-1.41L77.25 0L73.47 0L70.21-19.90L66.94-19.58L65.60 0L62.66 0L62.66-44.74ZM66.69-24.38L71.49-24.64L71.49-24.64Q71.87-24.64 71.87-25.02L71.87-25.02L71.87-40.96L70.91-41.92L66.50-41.47L66.69-24.38ZM80.51-23.42L100.86-22.85L100.86-19.71L80.70-19.71L80.51-23.42ZM110.08-45.44L109.50 0L104.77 0L104.77-39.42L103.62-42.50L103.62-45.44L110.08-45.44ZM131.84-45.44L130.56 1.28L126.21 1.28L119.94-35.46L119.68-35.46L118.46 1.28L115.20 1.28L117.25-45.44L121.15-45.44L127.62-8.38L128.06-8.38L128.06-45.44L131.84-45.44ZM136.83-45.44L150.08-44.54L150.40-40.51L144.77-40.51L144.77 0L139.33 0L140.61-39.36L136-40.90L136.83-45.44ZM169.22-5.31L169.22 0L155.52 0L155.52-45.44L169.22-45.44L169.22-41.47L161.22-41.86L161.22-27.33L169.22-25.86L169.22-22.78L160.13-23.17L160.13-4.80L169.22-5.31ZM176.32-44.74L176.32-44.74Q176.32-45.06 178.94-45.25L178.94-45.25L178.94-45.25Q181.57-45.44 184.13-45.44L184.13-45.44L186.88-45.44L186.88-45.44Q187.90-45.44 188.54-44.67L188.54-44.67L188.54-44.67Q189.18-43.90 189.25-42.69L189.25-42.69L189.89-24.26L187.01-20.48L192.13-1.41L190.91 0L187.14 0L183.87-19.90L180.61-19.58L179.26 0L176.32 0L176.32-44.74ZM180.35-24.38L185.15-24.64L185.15-24.64Q185.54-24.64 185.54-25.02L185.54-25.02L185.54-40.96L184.58-41.92L180.16-41.47L180.35-24.38ZM202.30 1.28L197.06 1.28L197.06-45.44L210.75-44.16L210.75-40.19L202.11-39.42L202.11-28.61L210.75-28.61L210.75-24.90L201.02-23.81L202.30 1.28ZM228.42-45.44L231.04 0L228.22 0L225.92-17.02L220.80-14.59L219.39 0L215.42 0L218.30-45.44L228.42-45.44ZM225.09-42.37L225.09-42.37Q225.09-42.75 224.70-42.75L224.70-42.75L221.95-42.11L221.95-42.11Q221.57-41.92 221.57-41.47L221.57-41.47L221.57-18.94L221.57-18.94Q221.57-18.62 221.95-18.62L221.95-18.62L224.32-19.01L224.32-19.01Q224.70-19.01 224.70-19.39L224.70-19.39L225.09-42.37ZM252.10-11.97L252.10-1.28L238.46-1.28L235.84-3.97L237.12-41.79L237.12-41.79Q237.18-43.20 238.30-44.32L238.30-44.32L238.30-44.32Q239.42-45.44 241.41-45.44L241.41-45.44L242.24-45.38L252.10-44.10L251.07-33.79L248.13-33.79L248.13-39.74L248.13-39.74Q248.13-40.32 247.36-40.32L247.36-40.32L243.39-40.32L243.39-40.32Q242.18-40.32 241.63-39.33L241.63-39.33L241.63-39.33Q241.09-38.34 241.09-37.12L241.09-37.12L241.09-37.12Q241.09-36.42 241.28-36.29L241.28-36.29L241.28-6.34L241.28-6.34Q241.09-6.27 241.09-6.14L241.09-6.14L241.09-6.14Q241.09-5.95 241.66-5.95L241.66-5.95L248-5.95L248-5.95Q248.77-5.95 248.77-6.34L248.77-6.34L248.77-11.14L249.98-11.90L252.10-11.97ZM271.74-5.31L271.74 0L258.05 0L258.05-45.44L271.74-45.44L271.74-41.47L263.74-41.86L263.74-27.33L271.74-25.86L271.74-22.78L262.66-23.17L262.66-4.80L271.74-5.31ZM305.86-10.69L305.86 0L296.70 0L296.70 0Q293.44 0 291.84-1.12L291.84-1.12L291.84-1.12Q290.24-2.24 290.24-3.97L290.24-3.97L290.24-41.86L290.24-41.86Q290.24-43.39 291.58-44.42L291.58-44.42L291.58-44.42Q292.93-45.44 295.36-45.44L295.36-45.44L305.86-45.44L305.86-41.86L304.83-33.86L300.61-33.86L299.97-41.09L299.97-41.09Q299.97-41.66 299.20-41.66L299.20-41.66L296.51-41.66L296.51-41.66Q295.30-41.66 294.75-40.67L294.75-40.67L294.75-40.67Q294.21-39.68 294.21-38.46L294.21-38.46L294.21-38.46Q294.21-37.76 294.40-37.63L294.40-37.63L295.68-5.70L295.68-5.70Q295.49-5.63 295.49-5.50L295.49-5.50L295.49-5.50Q295.49-5.31 296.06-5.31L296.06-5.31L299.84-5.31L299.84-5.31Q300.61-5.31 300.61-5.70L300.61-5.70L301.89-10.69L305.86-10.69ZM324.74 0L316.22 0L316.22 0Q313.60 0 312.58-0.83L312.58-0.83L312.58-0.83Q311.55-1.66 311.55-3.58L311.55-3.58L311.55-43.90L311.55-43.90Q312.96-44.67 315.23-45.06L315.23-45.06L315.23-45.06Q317.50-45.44 321.28-45.44L321.28-45.44L321.28-45.44Q323.01-45.44 324.10-44.58L324.10-44.58L324.10-44.58Q325.18-43.71 325.18-42.37L325.18-42.37L324.74 0ZM315.65-4.03L320.19-3.65L320.77-4.22L321.15-40.77L321.15-40.77Q321.15-41.09 320.58-41.15L320.58-41.15L316.61-41.34L316.03-40.96L315.65-4.03ZM334.91 0L331.58 0L331.58-45.44L336.19-45.44L340.86-17.66L341.38-17.66L345.73-45.44L349.44-45.44L350.91 0L346.69 0L346.69-34.24L346.24-34.24L341.82-10.05L339.71-9.60L335.17-37.70L334.91-37.70L334.91 0ZM357.31-43.97L357.31-43.97Q357.31-44.61 359.68-45.02L359.68-45.02L359.68-45.02Q362.05-45.44 364.29-45.44L364.29-45.44L367.04-45.44L367.04-45.44Q367.87-45.44 368.61-45.09L368.61-45.09L368.61-45.09Q369.34-44.74 369.34-44.10L369.34-44.10L370.05-24.26L367.81-20.29L360.77-19.58L360.26 0L355.84 0L357.31-43.97ZM361.15-24.45L365.31-24.64L365.31-24.64Q365.70-24.64 365.70-25.02L365.70-25.02L365.70-41.60L364.74-42.56L361.15-42.11L361.15-24.45ZM388.61 0L380.10 0L380.10 0Q377.47 0 376.45-0.83L376.45-0.83L376.45-0.83Q375.42-1.66 375.42-3.58L375.42-3.58L375.42-43.90L375.42-43.90Q376.83-44.67 379.10-45.06L379.10-45.06L379.10-45.06Q381.38-45.44 385.15-45.44L385.15-45.44L385.15-45.44Q386.88-45.44 387.97-44.58L387.97-44.58L387.97-44.58Q389.06-43.71 389.06-42.37L389.06-42.37L388.61 0ZM379.52-4.03L384.06-3.65L384.64-4.22L385.02-40.77L385.02-40.77Q385.02-41.09 384.45-41.15L384.45-41.15L380.48-41.34L379.90-40.96L379.52-4.03ZM411.14-45.44L409.86 1.28L405.50 1.28L399.23-35.46L398.98-35.46L397.76 1.28L394.50 1.28L396.54-45.44L400.45-45.44L406.91-8.38L407.36-8.38L407.36-45.44L411.14-45.44ZM430.91-5.31L430.91 0L417.22 0L417.22-45.44L430.91-45.44L430.91-41.47L422.91-41.86L422.91-27.33L430.91-25.86L430.91-22.78L421.82-23.17L421.82-4.80L430.91-5.31ZM453.70-45.44L452.42 1.28L448.06 1.28L441.79-35.46L441.54-35.46L440.32 1.28L437.06 1.28L439.10-45.44L443.01-45.44L449.47-8.38L449.92-8.38L449.92-45.44L453.70-45.44ZM458.69-45.44L471.94-44.54L472.26-40.51L466.62-40.51L466.62 0L461.18 0L462.46-39.36L457.86-40.90L458.69-45.44ZM489.15-36.42L486.78-36.42L485.50-41.41L481.66-40.96L480.70-26.75L489.98-25.09L489.09-3.84L489.09-3.84Q489.09-2.56 487.42-1.28L487.42-1.28L487.42-1.28Q485.76 0 484.35 0L484.35 0L476.86 0L476.29-10.94L480.06-10.94L480-5.38L484.48-4.35L485.50-21.38L476.86-23.30L476.86-43.90L479.42-45.44L489.47-45.44L489.15-36.42Z" fill="#ccc"></path></g></g><style>text {
  font-size: 64px;
  font-family: Arial Black;
  dominant-baseline: central;
  text-anchor: middle;
}</style></svg>