<svg width="273.5599853515625px" height="122.39999389648438px" xmlns="http://www.w3.org/2000/svg" viewBox="113.22000732421876 13.800003051757812 273.5599853515625 122.39999389648438" style="background: none;" preserveAspectRatio="xMidYMid"><defs><filter id="editing-extrusion" x="-100%" y="-100%" width="300%" height="300%"><feFlood result="color1" flood-color="#444"></feFlood><feConvolveMatrix order="8,8" divisor="1" kernelMatrix="1 0 0 0 0 0 0 0 0 1 0 0 0 0 0 0 0 0 1 0 0 0 0 0 0 0 0 1 0 0 0 0 0 0 0 0 1 0 0 0 0 0 0 0 0 1 0 0 0 0 0 0 0 0 1 0 0 0 0 0 0 0 0 1" in="SourceAlpha" result="extrude"></feConvolveMatrix><feComposite in="color1" in2="extrude" result="comp-extrude" operator="in"></feComposite><feOffset dx="4" dy="4" in="comp-extrude" result="offset-extrude"></feOffset><feMerge><feMergeNode in="offset-extrude"></feMergeNode><feMergeNode in="SourceGraphic"></feMergeNode></feMerge></filter></defs><g filter="url(#editing-extrusion)"><g transform="translate(156.10999751091003, 98.35999870300293)"><path d="M16.64-2.56L16.64-2.56Q16.64-1.66 15.71-0.83L15.71-0.83L15.71-0.83Q14.78 0 13.89 0L13.89 0L3.20 0L3.20-43.97L7.04-43.97L7.04-4.42L12.61-4.03L11.26-45.44L16.70-45.44L16.64-2.56ZM35.14-36.42L32.77-36.42L31.49-41.41L27.65-40.96L26.69-26.75L35.97-25.09L35.07-3.84L35.07-3.84Q35.07-2.56 33.41-1.28L33.41-1.28L33.41-1.28Q31.74 0 30.34 0L30.34 0L22.85 0L22.27-10.94L26.05-10.94L25.98-5.38L30.46-4.35L31.49-21.38L22.85-23.30L22.85-43.90L25.41-45.44L35.46-45.44L35.14-36.42ZM55.55-5.31L55.55 0L41.86 0L41.86-45.44L55.55-45.44L55.55-41.47L47.55-41.86L47.55-27.33L55.55-25.86L55.55-22.78L46.46-23.17L46.46-4.80L55.55-5.31ZM62.66-44.74L62.66-44.74Q62.66-45.06 65.28-45.25L65.28-45.25L65.28-45.25Q67.90-45.44 70.46-45.44L70.46-45.44L73.22-45.44L73.22-45.44Q74.24-45.44 74.88-44.67L74.88-44.67L74.88-44.67Q75.52-43.90 75.58-42.69L75.58-42.69L76.22-24.26L73.34-20.48L78.46-1.41L77.25 0L73.47 0L70.21-19.90L66.94-19.58L65.60 0L62.66 0L62.66-44.74ZM66.69-24.38L71.49-24.64L71.49-24.64Q71.87-24.64 71.87-25.02L71.87-25.02L71.87-40.96L70.91-41.92L66.50-41.47L66.69-24.38ZM111.23-1.28L97.79-1.28L97.79-1.28Q96.38-1.28 95.42-2.56L95.42-2.56L95.42-2.56Q94.46-3.84 94.46-6.21L94.46-6.21L94.46-41.98L96.77-45.44L110.40-45.44L110.40-35.90L107.65-35.90L105.73-41.66L101.44-41.66L101.44-41.66Q98.88-41.66 98.75-38.78L98.75-38.78L99.90-7.04L99.90-7.04Q99.90-6.59 100.35-6.24L100.35-6.24L100.35-6.24Q100.80-5.89 101.25-5.89L101.25-5.89L105.92-5.89L105.92-5.89Q106.37-5.89 106.78-6.11L106.78-6.11L106.78-6.11Q107.20-6.34 107.20-6.66L107.20-6.66L107.84-19.07L104-19.20L104-22.78L111.23-23.62L111.23-1.28ZM119.10-44.80L123.84-44.80L122.50-3.97L127.87-4.35L127.87-43.97L132.35-43.71L132.35 1.28L117.63 1.28L119.10-44.80ZM142.08-45.44L143.42-1.28L138.05-1.28L138.05-45.44L142.08-45.44ZM159.23-45.44L164.16-43.39L164.16-3.58L164.16-3.58Q164.16-1.47 162.82-0.74L162.82-0.74L162.82-0.74Q161.47 0 160.38 0L160.38 0L149.63 0L149.63-3.58L150.02-5.38L148.67-45.44L159.23-45.44ZM156.80-4.42L156.80-4.42Q157.76-4.42 158.27-5.18L158.27-5.18L158.27-5.18Q158.78-5.95 158.91-8.38L158.91-8.38L160.19-40.83L160.19-40.83Q160.19-41.22 160.06-41.31L160.06-41.31L160.06-41.31Q159.94-41.41 159.62-41.41L159.62-41.41L154.75-41.41L154.75-41.41Q154.18-41.41 154.18-40.83L154.18-40.83L154.18-4.99L154.18-4.99Q154.18-4.42 154.75-4.42L154.75-4.42L156.80-4.42ZM184.58-5.31L184.58 0L170.88 0L170.88-45.44L184.58-45.44L184.58-41.47L176.58-41.86L176.58-27.33L184.58-25.86L184.58-22.78L175.49-23.17L175.49-4.80L184.58-5.31Z" fill="#ccc"></path></g></g><style>text {
  font-size: 64px;
  font-family: Arial Black;
  dominant-baseline: central;
  text-anchor: middle;
}</style></svg>