<svg width="268.68000488281245px" height="122.39999389648438px" xmlns="http://www.w3.org/2000/svg" viewBox="115.65999755859377 13.800003051757812 268.68000488281245 122.39999389648438" style="background: none;" preserveAspectRatio="xMidYMid"><defs><filter id="editing-extrusion" x="-100%" y="-100%" width="300%" height="300%"><feFlood result="color1" flood-color="#444"></feFlood><feConvolveMatrix order="8,8" divisor="1" kernelMatrix="1 0 0 0 0 0 0 0 0 1 0 0 0 0 0 0 0 0 1 0 0 0 0 0 0 0 0 1 0 0 0 0 0 0 0 0 1 0 0 0 0 0 0 0 0 1 0 0 0 0 0 0 0 0 1 0 0 0 0 0 0 0 0 1" in="SourceAlpha" result="extrude"></feConvolveMatrix><feComposite in="color1" in2="extrude" result="comp-extrude" operator="in"></feComposite><feOffset dx="4" dy="4" in="comp-extrude" result="offset-extrude"></feOffset><feMerge><feMergeNode in="offset-extrude"></feMergeNode><feMergeNode in="SourceGraphic"></feMergeNode></feMerge></filter></defs><g filter="url(#editing-extrusion)"><g transform="translate(158.73498994112015, 98.03999900817871)"><path d="M12.10 0L7.87 0.64L0.45-45.44L5.50-45.44L10.05-4.99L10.30-4.99L13.38-45.44L17.54-45.44L12.10 0ZM25.22-45.44L26.56-1.28L21.18-1.28L21.18-45.44L25.22-45.44ZM46.40-5.31L46.40 0L32.70 0L32.70-45.44L46.40-45.44L46.40-41.47L38.40-41.86L38.40-27.33L46.40-25.86L46.40-22.78L37.31-23.17L37.31-4.80L46.40-5.31ZM74.56-0.64L68.42-0.64L63.55-32L63.30-32L61.82 0L55.10 0L50.69-45.44L54.85-45.44L58.11-2.37L58.37-2.37L61.50-44.16L66.11-44.16L65.73-34.50L71.04-2.11L71.36-2.11L72.77-44.80L76.67-44.80L74.56-0.64ZM103.81-4.10L103.81 0L91.71 0L91.71-45.44L97.92-45.44L96.58-5.25L103.81-4.10ZM120.38-45.44L123.01 0L120.19 0L117.89-17.02L112.77-14.59L111.36 0L107.39 0L110.27-45.44L120.38-45.44ZM117.06-42.37L117.06-42.37Q117.06-42.75 116.67-42.75L116.67-42.75L113.92-42.11L113.92-42.11Q113.54-41.92 113.54-41.47L113.54-41.47L113.54-18.94L113.54-18.94Q113.54-18.62 113.92-18.62L113.92-18.62L116.29-19.01L116.29-19.01Q116.67-19.01 116.67-19.39L116.67-19.39L117.06-42.37ZM135.87-23.62L136.96 0L132.03 0L132.03-23.94L126.08-44.80L131.90-44.80L134.08-26.43L134.59-26.56L136.51-45.44L140.99-45.44L138.18-27.58L135.87-23.62ZM159.17-5.31L159.17 0L145.47 0L145.47-45.44L159.17-45.44L159.17-41.47L151.17-41.86L151.17-27.33L159.17-25.86L159.17-22.78L150.08-23.17L150.08-4.80L159.17-5.31ZM166.27-44.74L166.27-44.74Q166.27-45.06 168.90-45.25L168.90-45.25L168.90-45.25Q171.52-45.44 174.08-45.44L174.08-45.44L176.83-45.44L176.83-45.44Q177.86-45.44 178.50-44.67L178.50-44.67L178.50-44.67Q179.14-43.90 179.20-42.69L179.20-42.69L179.84-24.26L176.96-20.48L182.08-1.41L180.86 0L177.09 0L173.82-19.90L170.56-19.58L169.22 0L166.27 0L166.27-44.74ZM170.30-24.38L175.10-24.64L175.10-24.64Q175.49-24.64 175.49-25.02L175.49-25.02L175.49-40.96L174.53-41.92L170.11-41.47L170.30-24.38Z" fill="#ccc"></path></g></g><style>text {
  font-size: 64px;
  font-family: Arial Black;
  dominant-baseline: central;
  text-anchor: middle;
}</style></svg>