<svg width="150.2px" height="122.39999389648438px" xmlns="http://www.w3.org/2000/svg" viewBox="174.9 13.800003051757812 150.2 122.39999389648438" style="background: none;" preserveAspectRatio="xMidYMid"><defs><filter id="editing-extrusion" x="-100%" y="-100%" width="300%" height="300%"><feFlood result="color1" flood-color="#444"></feFlood><feConvolveMatrix order="8,8" divisor="1" kernelMatrix="1 0 0 0 0 0 0 0 0 1 0 0 0 0 0 0 0 0 1 0 0 0 0 0 0 0 0 1 0 0 0 0 0 0 0 0 1 0 0 0 0 0 0 0 0 1 0 0 0 0 0 0 0 0 1 0 0 0 0 0 0 0 0 1" in="SourceAlpha" result="extrude"></feConvolveMatrix><feComposite in="color1" in2="extrude" result="comp-extrude" operator="in"></feComposite><feOffset dx="4" dy="4" in="comp-extrude" result="offset-extrude"></feOffset><feMerge><feMergeNode in="offset-extrude"></feMergeNode><feMergeNode in="SourceGraphic"></feMergeNode></feMerge></filter></defs><g filter="url(#editing-extrusion)"><g transform="translate(203.1500023007393, 98.03999900817871)"><path d="M12.10 0L7.87 0.64L0.45-45.44L5.50-45.44L10.05-4.99L10.30-4.99L13.38-45.44L17.54-45.44L12.10 0ZM25.22-45.44L26.56-1.28L21.18-1.28L21.18-45.44L25.22-45.44ZM46.40-5.31L46.40 0L32.70 0L32.70-45.44L46.40-45.44L46.40-41.47L38.40-41.86L38.40-27.33L46.40-25.86L46.40-22.78L37.31-23.17L37.31-4.80L46.40-5.31ZM74.56-0.64L68.42-0.64L63.55-32L63.30-32L61.82 0L55.10 0L50.69-45.44L54.85-45.44L58.11-2.37L58.37-2.37L61.50-44.16L66.11-44.16L65.73-34.50L71.04-2.11L71.36-2.11L72.77-44.80L76.67-44.80L74.56-0.64ZM92.42-36.42L90.05-36.42L88.77-41.41L84.93-40.96L83.97-26.75L93.25-25.09L92.35-3.84L92.35-3.84Q92.35-2.56 90.69-1.28L90.69-1.28L90.69-1.28Q89.02 0 87.62 0L87.62 0L80.13 0L79.55-10.94L83.33-10.94L83.26-5.38L87.74-4.35L88.77-21.38L80.13-23.30L80.13-43.90L82.69-45.44L92.74-45.44L92.42-36.42Z" fill="#ccc"></path></g></g><style>text {
  font-size: 64px;
  font-family: Arial Black;
  dominant-baseline: central;
  text-anchor: middle;
}</style></svg>