<svg width="488.2800048828125px" height="122.39999389648438px" xmlns="http://www.w3.org/2000/svg" viewBox="5.859997558593761 13.800003051757812 488.2800048828125 122.39999389648438" style="background: none;" preserveAspectRatio="xMidYMid"><defs><filter id="editing-extrusion" x="-100%" y="-100%" width="300%" height="300%"><feFlood result="color1" flood-color="#444"></feFlood><feConvolveMatrix order="8,8" divisor="1" kernelMatrix="1 0 0 0 0 0 0 0 0 1 0 0 0 0 0 0 0 0 1 0 0 0 0 0 0 0 0 1 0 0 0 0 0 0 0 0 1 0 0 0 0 0 0 0 0 1 0 0 0 0 0 0 0 0 1 0 0 0 0 0 0 0 0 1" in="SourceAlpha" result="extrude"></feConvolveMatrix><feComposite in="color1" in2="extrude" result="comp-extrude" operator="in"></feComposite><feOffset dx="4" dy="4" in="comp-extrude" result="offset-extrude"></feOffset><feMerge><feMergeNode in="offset-extrude"></feMergeNode><feMergeNode in="SourceGraphic"></feMergeNode></feMerge></filter></defs><g filter="url(#editing-extrusion)"><g transform="translate(79.440012216568, 97.71999931335449)"><path d="M16.45-45.44L20.93-45.44L18.62 0L14.59 0L10.69-26.69L10.43-26.69L6.53 0L3.01 0L0.51-45.44L5.18-45.44L5.18-5.50L5.44-5.50L9.09-38.27L11.84-38.27L16.13-5.50L16.45-5.50L16.45-45.44ZM36.67 0L34.82-19.84L29.31-20.93L29.31 0L24.58 0L24.58-45.44L29.18-45.44L28.48-25.28L34.82-25.60L34.82-45.44L39.49-45.44L39.49 0L36.67 0ZM57.66-45.44L60.29 0L57.47 0L55.17-17.02L50.05-14.59L48.64 0L44.67 0L47.55-45.44L57.66-45.44ZM54.34-42.37L54.34-42.37Q54.34-42.75 53.95-42.75L53.95-42.75L51.20-42.11L51.20-42.11Q50.82-41.92 50.82-41.47L50.82-41.47L50.82-18.94L50.82-18.94Q50.82-18.62 51.20-18.62L51.20-18.62L53.57-19.01L53.57-19.01Q53.95-19.01 53.95-19.39L53.95-19.39L54.34-42.37ZM64.83-45.44L78.08-44.54L78.40-40.51L72.77-40.51L72.77 0L67.33 0L68.61-39.36L64-40.90L64.83-45.44ZM98.62-45.44L99.97-1.28L94.59-1.28L94.59-45.44L98.62-45.44ZM117.89-36.42L115.52-36.42L114.24-41.41L110.40-40.96L109.44-26.75L118.72-25.09L117.82-3.84L117.82-3.84Q117.82-2.56 116.16-1.28L116.16-1.28L116.16-1.28Q114.50 0 113.09 0L113.09 0L105.60 0L105.02-10.94L108.80-10.94L108.74-5.38L113.22-4.35L114.24-21.38L105.60-23.30L105.60-43.90L108.16-45.44L118.21-45.44L117.89-36.42ZM139.01 0L135.68 0L135.68-45.44L140.29-45.44L144.96-17.66L145.47-17.66L149.82-45.44L153.54-45.44L155.01 0L150.78 0L150.78-34.24L150.34-34.24L145.92-10.05L143.81-9.60L139.26-37.70L139.01-37.70L139.01 0ZM168.45-23.62L169.54 0L164.61 0L164.61-23.94L158.66-44.80L164.48-44.80L166.66-26.43L167.17-26.56L169.09-45.44L173.57-45.44L170.75-27.58L168.45-23.62ZM189.63-43.97L189.63-43.97Q189.63-44.61 192-45.02L192-45.02L192-45.02Q194.37-45.44 196.61-45.44L196.61-45.44L199.36-45.44L199.36-45.44Q200.19-45.44 200.93-45.09L200.93-45.09L200.93-45.09Q201.66-44.74 201.66-44.10L201.66-44.10L202.37-24.26L200.13-20.29L193.09-19.58L192.58 0L188.16 0L189.63-43.97ZM193.47-24.45L197.63-24.64L197.63-24.64Q198.02-24.64 198.02-25.02L198.02-25.02L198.02-41.60L197.06-42.56L193.47-42.11L193.47-24.45ZM207.81-44.74L207.81-44.74Q207.81-45.06 210.43-45.25L210.43-45.25L210.43-45.25Q213.06-45.44 215.62-45.44L215.62-45.44L218.37-45.44L218.37-45.44Q219.39-45.44 220.03-44.67L220.03-44.67L220.03-44.67Q220.67-43.90 220.74-42.69L220.74-42.69L221.38-24.26L218.50-20.48L223.62-1.41L222.40 0L218.62 0L215.36-19.90L212.10-19.58L210.75 0L207.81 0L207.81-44.74ZM211.84-24.38L216.64-24.64L216.64-24.64Q217.02-24.64 217.02-25.02L217.02-25.02L217.02-40.96L216.06-41.92L211.65-41.47L211.84-24.38ZM241.34 0L232.83 0L232.83 0Q230.21 0 229.18-0.83L229.18-0.83L229.18-0.83Q228.16-1.66 228.16-3.58L228.16-3.58L228.16-43.90L228.16-43.90Q229.57-44.67 231.84-45.06L231.84-45.06L231.84-45.06Q234.11-45.44 237.89-45.44L237.89-45.44L237.89-45.44Q239.62-45.44 240.70-44.58L240.70-44.58L240.70-44.58Q241.79-43.71 241.79-42.37L241.79-42.37L241.34 0ZM232.26-4.03L236.80-3.65L237.38-4.22L237.76-40.77L237.76-40.77Q237.76-41.09 237.18-41.15L237.18-41.15L233.22-41.34L232.64-40.96L232.26-4.03ZM259.20 0L250.50 0L250.50 0Q249.60 0 248.70-0.77L248.70-0.77L248.70-0.77Q247.81-1.54 247.74-2.43L247.74-2.43L247.23-11.01L250.37-11.01L250.69-6.02L255.49-5.70L255.49-44.54L258.05-45.44L260.42-45.44L259.20 0ZM280.45-5.31L280.45 0L266.75 0L266.75-45.44L280.45-45.44L280.45-41.47L272.45-41.86L272.45-27.33L280.45-25.86L280.45-22.78L271.36-23.17L271.36-4.80L280.45-5.31ZM303.30-11.97L303.30-1.28L289.66-1.28L287.04-3.97L288.32-41.79L288.32-41.79Q288.38-43.20 289.50-44.32L289.50-44.32L289.50-44.32Q290.62-45.44 292.61-45.44L292.61-45.44L293.44-45.38L303.30-44.10L302.27-33.79L299.33-33.79L299.33-39.74L299.33-39.74Q299.33-40.32 298.56-40.32L298.56-40.32L294.59-40.32L294.59-40.32Q293.38-40.32 292.83-39.33L292.83-39.33L292.83-39.33Q292.29-38.34 292.29-37.12L292.29-37.12L292.29-37.12Q292.29-36.42 292.48-36.29L292.48-36.29L292.48-6.34L292.48-6.34Q292.29-6.27 292.29-6.14L292.29-6.14L292.29-6.14Q292.29-5.95 292.86-5.95L292.86-5.95L299.20-5.95L299.20-5.95Q299.97-5.95 299.97-6.34L299.97-6.34L299.97-11.14L301.18-11.90L303.30-11.97ZM308.16-45.44L321.41-44.54L321.73-40.51L316.10-40.51L316.10 0L310.66 0L311.94-39.36L307.33-40.90L308.16-45.44ZM332.67-9.92L329.79-10.43L329.79-22.98L335.04-31.49L335.81-41.34L331.07-41.34L329.92-39.81L329.73-34.69L326.59-35.14L326.59-44.16L332.10-45.44L340.61-45.44L339.78-29.70L333.57-20.42L332.67-9.92ZM328.32 0L328.32-5.89L334.46-6.14L334.21 0L328.32 0Z" fill="#ccc"></path></g></g><style>text {
  font-size: 64px;
  font-family: Arial Black;
  dominant-baseline: central;
  text-anchor: middle;
}</style></svg>