<svg width="483.0000122070312px" height="122.39999389648438px" xmlns="http://www.w3.org/2000/svg" viewBox="8.499993896484398 13.800003051757812 483.0000122070312 122.39999389648438" style="background: none;" preserveAspectRatio="xMidYMid"><defs><filter id="editing-extrusion" x="-100%" y="-100%" width="300%" height="300%"><feFlood result="color1" flood-color="#444"></feFlood><feConvolveMatrix order="8,8" divisor="1" kernelMatrix="1 0 0 0 0 0 0 0 0 1 0 0 0 0 0 0 0 0 1 0 0 0 0 0 0 0 0 1 0 0 0 0 0 0 0 0 1 0 0 0 0 0 0 0 0 1 0 0 0 0 0 0 0 0 1 0 0 0 0 0 0 0 0 1" in="SourceAlpha" result="extrude"></feConvolveMatrix><feComposite in="color1" in2="extrude" result="comp-extrude" operator="in"></feComposite><feOffset dx="4" dy="4" in="comp-extrude" result="offset-extrude"></feOffset><feMerge><feMergeNode in="offset-extrude"></feMergeNode><feMergeNode in="SourceGraphic"></feMergeNode></feMerge></filter></defs><g filter="url(#editing-extrusion)"><g transform="translate(78.7350103855133, 97.71999931335449)"><path d="M16.45-45.44L20.93-45.44L18.62 0L14.59 0L10.69-26.69L10.43-26.69L6.53 0L3.01 0L0.51-45.44L5.18-45.44L5.18-5.50L5.44-5.50L9.09-38.27L11.84-38.27L16.13-5.50L16.45-5.50L16.45-45.44ZM36.67 0L34.82-19.84L29.31-20.93L29.31 0L24.58 0L24.58-45.44L29.18-45.44L28.48-25.28L34.82-25.60L34.82-45.44L39.49-45.44L39.49 0L36.67 0ZM57.66-45.44L60.29 0L57.47 0L55.17-17.02L50.05-14.59L48.64 0L44.67 0L47.55-45.44L57.66-45.44ZM54.34-42.37L54.34-42.37Q54.34-42.75 53.95-42.75L53.95-42.75L51.20-42.11L51.20-42.11Q50.82-41.92 50.82-41.47L50.82-41.47L50.82-18.94L50.82-18.94Q50.82-18.62 51.20-18.62L51.20-18.62L53.57-19.01L53.57-19.01Q53.95-19.01 53.95-19.39L53.95-19.39L54.34-42.37ZM64.83-45.44L78.08-44.54L78.40-40.51L72.77-40.51L72.77 0L67.33 0L68.61-39.36L64-40.90L64.83-45.44ZM104.58-45.44L109.50-43.39L109.50-3.58L109.50-3.58Q109.50-1.47 108.16-0.74L108.16-0.74L108.16-0.74Q106.82 0 105.73 0L105.73 0L94.98 0L94.98-3.58L95.36-5.38L94.02-45.44L104.58-45.44ZM102.14-4.42L102.14-4.42Q103.10-4.42 103.62-5.18L103.62-5.18L103.62-5.18Q104.13-5.95 104.26-8.38L104.26-8.38L105.54-40.83L105.54-40.83Q105.54-41.22 105.41-41.31L105.41-41.31L105.41-41.31Q105.28-41.41 104.96-41.41L104.96-41.41L100.10-41.41L100.10-41.41Q99.52-41.41 99.52-40.83L99.52-40.83L99.52-4.99L99.52-4.99Q99.52-4.42 100.10-4.42L100.10-4.42L102.14-4.42ZM129.02 0L120.51 0L120.51 0Q117.89 0 116.86-0.83L116.86-0.83L116.86-0.83Q115.84-1.66 115.84-3.58L115.84-3.58L115.84-43.90L115.84-43.90Q117.25-44.67 119.52-45.06L119.52-45.06L119.52-45.06Q121.79-45.44 125.57-45.44L125.57-45.44L125.57-45.44Q127.30-45.44 128.38-44.58L128.38-44.58L128.38-44.58Q129.47-43.71 129.47-42.37L129.47-42.37L129.02 0ZM119.94-4.03L124.48-3.65L125.06-4.22L125.44-40.77L125.44-40.77Q125.44-41.09 124.86-41.15L124.86-41.15L120.90-41.34L120.32-40.96L119.94-4.03ZM168.32-0.64L162.18-0.64L157.31-32L157.06-32L155.58 0L148.86 0L144.45-45.44L148.61-45.44L151.87-2.37L152.13-2.37L155.26-44.16L159.87-44.16L159.49-34.50L164.80-2.11L165.12-2.11L166.53-44.80L170.43-44.80L168.32-0.64ZM188.10-5.31L188.10 0L174.40 0L174.40-45.44L188.10-45.44L188.10-41.47L180.10-41.86L180.10-27.33L188.10-25.86L188.10-22.78L179.01-23.17L179.01-4.80L188.10-5.31ZM222.34-11.97L222.34-1.28L208.70-1.28L206.08-3.97L207.36-41.79L207.36-41.79Q207.42-43.20 208.54-44.32L208.54-44.32L208.54-44.32Q209.66-45.44 211.65-45.44L211.65-45.44L212.48-45.38L222.34-44.10L221.31-33.79L218.37-33.79L218.37-39.74L218.37-39.74Q218.37-40.32 217.60-40.32L217.60-40.32L213.63-40.32L213.63-40.32Q212.42-40.32 211.87-39.33L211.87-39.33L211.87-39.33Q211.33-38.34 211.33-37.12L211.33-37.12L211.33-37.12Q211.33-36.42 211.52-36.29L211.52-36.29L211.52-6.34L211.52-6.34Q211.33-6.27 211.33-6.14L211.33-6.14L211.33-6.14Q211.33-5.95 211.90-5.95L211.90-5.95L218.24-5.95L218.24-5.95Q219.01-5.95 219.01-6.34L219.01-6.34L219.01-11.14L220.22-11.90L222.34-11.97ZM227.97-44.74L227.97-44.74Q227.97-45.06 230.59-45.25L230.59-45.25L230.59-45.25Q233.22-45.44 235.78-45.44L235.78-45.44L238.53-45.44L238.53-45.44Q239.55-45.44 240.19-44.67L240.19-44.67L240.19-44.67Q240.83-43.90 240.90-42.69L240.90-42.69L241.54-24.26L238.66-20.48L243.78-1.41L242.56 0L238.78 0L235.52-19.90L232.26-19.58L230.91 0L227.97 0L227.97-44.74ZM232-24.38L236.80-24.64L236.80-24.64Q237.18-24.64 237.18-25.02L237.18-25.02L237.18-40.96L236.22-41.92L231.81-41.47L232-24.38ZM262.40-5.31L262.40 0L248.70 0L248.70-45.44L262.40-45.44L262.40-41.47L254.40-41.86L254.40-27.33L262.40-25.86L262.40-22.78L253.31-23.17L253.31-4.80L262.40-5.31ZM281.28-45.44L283.90 0L281.09 0L278.78-17.02L273.66-14.59L272.26 0L268.29 0L271.17-45.44L281.28-45.44ZM277.95-42.37L277.95-42.37Q277.95-42.75 277.57-42.75L277.57-42.75L274.82-42.11L274.82-42.11Q274.43-41.92 274.43-41.47L274.43-41.47L274.43-18.94L274.43-18.94Q274.43-18.62 274.82-18.62L274.82-18.62L277.18-19.01L277.18-19.01Q277.57-19.01 277.57-19.39L277.57-19.39L277.95-42.37ZM288.45-45.44L301.70-44.54L302.02-40.51L296.38-40.51L296.38 0L290.94 0L292.22-39.36L287.62-40.90L288.45-45.44ZM320.83-5.31L320.83 0L307.14 0L307.14-45.44L320.83-45.44L320.83-41.47L312.83-41.86L312.83-27.33L320.83-25.86L320.83-22.78L311.74-23.17L311.74-4.80L320.83-5.31ZM334.08-9.92L331.20-10.43L331.20-22.98L336.45-31.49L337.22-41.34L332.48-41.34L331.33-39.81L331.14-34.69L328-35.14L328-44.16L333.50-45.44L342.02-45.44L341.18-29.70L334.98-20.42L334.08-9.92ZM329.73 0L329.73-5.89L335.87-6.14L335.62 0L329.73 0Z" fill="#ccc"></path></g></g><style>text {
  font-size: 64px;
  font-family: Arial Black;
  dominant-baseline: central;
  text-anchor: middle;
}</style></svg>