<svg width="283.4800170898437px" height="122.39999389648438px" xmlns="http://www.w3.org/2000/svg" viewBox="108.25999145507814 13.800003051757812 283.4800170898437 122.39999389648438" style="background: none;" preserveAspectRatio="xMidYMid"><defs><filter id="editing-extrusion" x="-100%" y="-100%" width="300%" height="300%"><feFlood result="color1" flood-color="#444"></feFlood><feConvolveMatrix order="8,8" divisor="1" kernelMatrix="1 0 0 0 0 0 0 0 0 1 0 0 0 0 0 0 0 0 1 0 0 0 0 0 0 0 0 1 0 0 0 0 0 0 0 0 1 0 0 0 0 0 0 0 0 1 0 0 0 0 0 0 0 0 1 0 0 0 0 0 0 0 0 1" in="SourceAlpha" result="extrude"></feConvolveMatrix><feComposite in="color1" in2="extrude" result="comp-extrude" operator="in"></feComposite><feOffset dx="4" dy="4" in="comp-extrude" result="offset-extrude"></feOffset><feMerge><feMergeNode in="offset-extrude"></feMergeNode><feMergeNode in="SourceGraphic"></feMergeNode></feMerge></filter></defs><g filter="url(#editing-extrusion)"><g transform="translate(151.4399893283844, 98.35999870300293)"><path d="M16.45-45.44L20.93-45.44L18.62 0L14.59 0L10.69-26.69L10.43-26.69L6.53 0L3.01 0L0.51-45.44L5.18-45.44L5.18-5.50L5.44-5.50L9.09-38.27L11.84-38.27L16.13-5.50L16.45-5.50L16.45-45.44ZM28.61-45.44L29.95-1.28L24.58-1.28L24.58-45.44L28.61-45.44ZM35.78-44.74L35.78-44.74Q35.78-45.06 38.40-45.25L38.40-45.25L38.40-45.25Q41.02-45.44 43.58-45.44L43.58-45.44L46.34-45.44L46.34-45.44Q47.36-45.44 48-44.67L48-44.67L48-44.67Q48.64-43.90 48.70-42.69L48.70-42.69L49.34-24.26L46.46-20.48L51.58-1.41L50.37 0L46.59 0L43.33-19.90L40.06-19.58L38.72 0L35.78 0L35.78-44.74ZM39.81-24.38L44.61-24.64L44.61-24.64Q44.99-24.64 44.99-25.02L44.99-25.02L44.99-40.96L44.03-41.92L39.62-41.47L39.81-24.38ZM70.21-5.31L70.21 0L56.51 0L56.51-45.44L70.21-45.44L70.21-41.47L62.21-41.86L62.21-27.33L70.21-25.86L70.21-22.78L61.12-23.17L61.12-4.80L70.21-5.31ZM82.88 1.28L77.63 1.28L77.63-45.44L91.33-44.16L91.33-40.19L82.69-39.42L82.69-28.61L91.33-28.61L91.33-24.90L81.60-23.81L82.88 1.28ZM97.22-44.74L97.22-44.74Q97.22-45.06 99.84-45.25L99.84-45.25L99.84-45.25Q102.46-45.44 105.02-45.44L105.02-45.44L107.78-45.44L107.78-45.44Q108.80-45.44 109.44-44.67L109.44-44.67L109.44-44.67Q110.08-43.90 110.14-42.69L110.14-42.69L110.78-24.26L107.90-20.48L113.02-1.41L111.81 0L108.03 0L104.77-19.90L101.50-19.58L100.16 0L97.22 0L97.22-44.74ZM101.25-24.38L106.05-24.64L106.05-24.64Q106.43-24.64 106.43-25.02L106.43-25.02L106.43-40.96L105.47-41.92L101.06-41.47L101.25-24.38ZM129.41-45.44L132.03 0L129.22 0L126.91-17.02L121.79-14.59L120.38 0L116.42 0L119.30-45.44L129.41-45.44ZM126.08-42.37L126.08-42.37Q126.08-42.75 125.70-42.75L125.70-42.75L122.94-42.11L122.94-42.11Q122.56-41.92 122.56-41.47L122.56-41.47L122.56-18.94L122.56-18.94Q122.56-18.62 122.94-18.62L122.94-18.62L125.31-19.01L125.31-19.01Q125.70-19.01 125.70-19.39L125.70-19.39L126.08-42.37ZM140.67 0L137.34 0L137.34-45.44L141.95-45.44L146.62-17.66L147.14-17.66L151.49-45.44L155.20-45.44L156.67 0L152.45 0L152.45-34.24L152-34.24L147.58-10.05L145.47-9.60L140.93-37.70L140.67-37.70L140.67 0ZM176.58-5.31L176.58 0L162.88 0L162.88-45.44L176.58-45.44L176.58-41.47L168.58-41.86L168.58-27.33L176.58-25.86L176.58-22.78L167.49-23.17L167.49-4.80L176.58-5.31ZM195.78-36.42L193.41-36.42L192.13-41.41L188.29-40.96L187.33-26.75L196.61-25.09L195.71-3.84L195.71-3.84Q195.71-2.56 194.05-1.28L194.05-1.28L194.05-1.28Q192.38 0 190.98 0L190.98 0L183.49 0L182.91-10.94L186.69-10.94L186.62-5.38L191.10-4.35L192.13-21.38L183.49-23.30L183.49-43.90L186.05-45.44L196.10-45.44L195.78-36.42Z" fill="#ccc"></path></g></g><style>text {
  font-size: 64px;
  font-family: Arial Black;
  dominant-baseline: central;
  text-anchor: middle;
}</style></svg>