<?xml version="1.0" encoding="UTF-8"?>
<!DOCTYPE svg PUBLIC "-//W3C//DTD SVG 1.1//EN" "http://www.w3.org/Graphics/SVG/1.1/DTD/svg11.dtd">
<!-- Creator: CorelDRAW -->
<svg xmlns="http://www.w3.org/2000/svg" xml:space="preserve" width="2048px" height="2048px" style="shape-rendering:geometricPrecision; text-rendering:geometricPrecision; image-rendering:optimizeQuality; fill-rule:evenodd; clip-rule:evenodd"
viewBox="0 0 2048 2048"
 xmlns:xlink="http://www.w3.org/1999/xlink">
 <defs>
  <style type="text/css">
   <![CDATA[
    .fil3 {fill:none}
    .fil1 {fill:#0288D1}
    .fil2 {fill:#0881C3}
    .fil0 {fill:#546E7A;fill-rule:nonzero}
   ]]>
  </style>
 </defs>
 <g id="Layer_x0020_1">
  <metadata id="CorelCorpID_0Corel-Layer"/>
  <g id="_490125064">
   <polygon id="_490125856" class="fil0" points="859.214,1183.72 859.215,1636.52 859.216,1669.78 825.953,1669.78 422.955,1669.78 422.955,1603.25 792.692,1603.25 792.69,1183.72 "/>
   <polygon id="_490125808" class="fil0" points="1625.04,1669.78 1222.05,1669.78 1188.78,1669.78 1188.79,1636.52 1188.79,1183.72 1255.31,1183.72 1255.31,1603.25 1625.04,1603.25 "/>
   <polygon id="_490125544" class="fil0" points="1123.41,1183.72 1123.41,1636.52 1056.62,1636.52 1056.62,1183.72 "/>
   <polygon id="_490126264" class="fil0" points="991.376,1183.72 991.376,1636.52 924.591,1636.52 924.591,1183.72 "/>
   <path id="_490125976" class="fil1" d="M501.322 746.207c1.43504,0 2.86063,0.0295276 4.28859,0.0543308 -1.74685,-13.6736 -2.6504,-27.6107 -2.6504,-41.7603 0,-180.197 146.079,-326.277 326.277,-326.277 167.919,0 306.187,126.855 324.255,289.955 13.9347,-2.45669 28.2733,-3.74528 42.9107,-3.74528 86.6079,0 162.732,44.8855 206.386,112.66 40.4233,-29.3244 90.13,-46.6288 143.889,-46.6288 135.486,0 245.322,109.834 245.322,245.322 0,109.774 -72.1052,202.7 -171.533,234.021l-1231.22 0c-79.1245,-40.7079 -133.249,-123.171 -133.249,-218.277 0,-135.488 109.837,-245.323 245.322,-245.323z"/>
   <path id="_490125640" class="fil2" d="M829.237 378.224c-180.199,0 -326.277,146.08 -326.277,326.277 0,14.1496 0.903544,28.0866 2.6504,41.7603 -1.42795,-0.0248032 -2.85355,-0.0543308 -4.28859,-0.0543308 -135.486,0 -245.322,109.836 -245.322,245.323 0,95.106 54.1241,177.569 133.249,218.277l403.442 0 66.5233 0 65.3776 0 66.7843 0 32.6244 0 0 -767.094c-54.3544,-40.5118 -121.756,-64.4906 -194.763,-64.4906z"/>
  </g>
 </g>
 <rect class="fil3" width="2048" height="2048"/>
</svg>
