<?xml version="1.0" encoding="UTF-8"?>
<!DOCTYPE svg PUBLIC "-//W3C//DTD SVG 1.1//EN" "http://www.w3.org/Graphics/SVG/1.1/DTD/svg11.dtd">
<!-- Creator: CorelDRAW -->
<svg xmlns="http://www.w3.org/2000/svg" xml:space="preserve" width="2048px" height="2048px" style="shape-rendering:geometricPrecision; text-rendering:geometricPrecision; image-rendering:optimizeQuality; fill-rule:evenodd; clip-rule:evenodd"
viewBox="0 0 2048 2048"
 xmlns:xlink="http://www.w3.org/1999/xlink">
 <defs>
  <style type="text/css">
   <![CDATA[
    .fil2 {fill:none}
    .fil0 {fill:#7E57C2}
    .fil1 {fill:#FFFFFE}
    .fil3 {fill:#FFFFFE;fill-rule:nonzero}
   ]]>
  </style>
 </defs>
 <g id="Layer_x0020_1">
  <metadata id="CorelCorpID_0Corel-Layer"/>
  <rect class="fil0" width="2048" height="2048" rx="256.001" ry="256.001"/>
  <path class="fil1" d="M348.182 319.997l1351.64 0c34.1847,0 65.1886,13.8343 87.6922,36.2103 22.5484,22.4209 36.489,53.3386 36.489,87.4489l0 1160.78c0,34.0713 -13.9453,64.9713 -36.4996,87.3745 -22.5059,22.3559 -53.5075,36.1878 -87.6816,36.1878l-1351.64 0c-34.1705,0 -65.1733,-13.8331 -87.6804,-36.189 -22.5543,-22.4032 -36.5008,-53.302 -36.5008,-87.3733l0 -1160.78c0,-34.1091 13.9417,-65.0268 36.4902,-87.4477 22.5024,-22.3748 53.5099,-36.2114 87.691,-36.2114zm1315.82 1280l-1280 0 -32.0008 0 0 -32.0008 0 -960.001 0 -32.0008 32.0008 0 1280 0 32.0008 0 0 32.0008 0 960.001 0 32.0008 -32.0008 0zm-64.3123 -1088c-17.752,0 -32.1567,-14.3728 -32.1567,-32.0256 0,-17.6008 14.4047,-31.9748 32.1567,-31.9748 17.7532,0 32.1567,14.374 32.1567,31.9748 0,17.6528 -14.4036,32.0256 -32.1567,32.0256zm-127.531 0c-17.752,0 -32.1567,-14.3728 -32.1567,-32.0256 0,-17.6008 14.4047,-31.9748 32.1567,-31.9748 17.7532,0 32.1567,14.374 32.1567,31.9748 0,17.6528 -14.4036,32.0256 -32.1567,32.0256z"/>
  <rect class="fil2" x="255.999" y="255.999" width="1536" height="1536"/>
  <g id="_290932552">
   <polyline id="_290928880" class="fil2" points="1185.43,960 1409.43,1120 1185.43,1280 "/>
   <polygon id="_290929504" class="fil3" points="1203.93,934 1427.93,1094 1464.33,1120 1427.93,1146 1203.93,1306 1166.93,1254 1354.53,1120 1166.93,985.999 "/>
   <polygon id="_290930176" class="fil3" points="1120.97,761.207 993.768,1458.04 931.019,1446.79 1058.22,749.956 "/>
   <polyline id="_290930536" class="fil2" points="862.57,960 638.572,1120 862.57,1280 "/>
   <polygon id="_290931760" class="fil3" points="881.07,985.999 693.471,1120 881.07,1254 844.071,1306 620.072,1146 583.673,1120 620.072,1094 844.071,934 "/>
  </g>
 </g>
</svg>
