<?xml version="1.0" encoding="utf-8"?>
<!-- Generator: Adobe Illustrator 22.1.0, SVG Export Plug-In . SVG Version: 6.00 Build 0)  -->
<svg version="1.1" id="Layer_1" xmlns="http://www.w3.org/2000/svg" xmlns:xlink="http://www.w3.org/1999/xlink" x="0px" y="0px"
	 viewBox="0 0 256 256" style="enable-background:new 0 0 256 256;" xml:space="preserve">
<style type="text/css">
	.st0{fill:#D73735;}
	.st1{fill:#F85252;}
	.st2{fill:#EDAF85;}
	.st3{fill:#F7C09A;}
	.st4{fill:#D8D6D7;}
	.st5{fill:#FFFFFF;}
	.st6{fill:#1C868E;}
	.st7{fill:#40C4DF;}
	.st8{fill:#491352;}
	.st9{fill:#56C1B3;}
	.st10{fill:#7BEFE4;}
</style>
<g>
	<path class="st4" d="M245.36,165.647H10.64c-2.761,0-5-2.239-5-5V7.75c0-2.761,2.239-5,5-5h234.72c2.761,0,5,2.239,5,5v152.897
		C250.36,163.408,248.121,165.647,245.36,165.647z"/>
	<path class="st9" d="M237.36,21v126.9c0,2.76-2.24,5-5,5H23.64c-2.76,0-5-2.24-5-5V21c0-2.76,2.24-5,5-5h208.72
		C235.12,16,237.36,18.24,237.36,21z"/>
	<path class="st10" d="M237.36,20.75v126.9c0,2.761-2.239,5-5,5H45.39c-2.761,0-5-2.239-5-5V20.75c0-2.761,2.239-5,5-5h186.97
		C235.121,15.75,237.36,17.989,237.36,20.75z"/>
	<path class="st1" d="M189.132,141.73H66.868c-2.761,0-5-2.239-5-5V31.667c0-2.761,2.239-5,5-5h122.263c2.761,0,5,2.239,5,5V136.73
		C194.132,139.491,191.893,141.73,189.132,141.73z"/>
	<path class="st5" d="M194.13,45.5v91.23c0,2.76-2.24,5-5,5H66.87c-2.76,0-5-2.24-5-5V31.67c0-2.76,2.24-5,5-5h29.78l13.66,16.97
		c0.95,1.18,2.38,1.86,3.89,1.86H194.13z"/>
	<circle class="st5" cx="169.415" cy="36.25" r="3.693"/>
	<circle class="st5" cx="182.932" cy="36.25" r="3.693"/>
	<rect x="114.17" y="165.65" class="st4" width="27.66" height="65.93"/>
	<path class="st4" d="M191.67,236.58v11.67c0,2.76-2.24,5-5,5H69.33c-2.76,0-5-2.24-5-5v-11.67c0-2.76,2.24-5,5-5h117.34
		C189.43,231.58,191.67,233.82,191.67,236.58z"/>
	<rect x="131.09" y="165.65" class="st5" width="10.74" height="65.93"/>
	<path class="st5" d="M191.67,236.58v11.67c0,2.76-2.24,5-5,5H85.33c-2.76,0-5-2.24-5-5v-11.67c0-2.76,2.24-5,5-5h101.34
		C189.43,231.58,191.67,233.82,191.67,236.58z"/>
	<g>
		<path class="st8" d="M169.415,30.557c-3.139,0-5.693,2.554-5.693,5.693s2.554,5.693,5.693,5.693s5.693-2.554,5.693-5.693
			S172.554,30.557,169.415,30.557z M169.415,37.943c-0.934,0-1.693-0.759-1.693-1.693s0.759-1.693,1.693-1.693
			s1.693,0.759,1.693,1.693S170.349,37.943,169.415,37.943z"/>
		<path class="st8" d="M182.932,30.557c-3.139,0-5.693,2.554-5.693,5.693s2.554,5.693,5.693,5.693s5.693-2.554,5.693-5.693
			S186.071,30.557,182.932,30.557z M182.932,37.943c-0.934,0-1.693-0.759-1.693-1.693s0.759-1.693,1.693-1.693
			s1.693,0.759,1.693,1.693S183.865,37.943,182.932,37.943z"/>
		<path class="st8" d="M245.36,0.75H10.64c-3.86,0-7,3.14-7,7v152.896c0,3.86,3.14,7,7,7h101.53v61.932H69.333c-3.86,0-7,3.14-7,7
			v11.671c0,3.86,3.14,7,7,7h117.333c3.86,0,7-3.14,7-7v-11.671c0-3.86-3.14-7-7-7H143.83v-61.932h101.53c3.86,0,7-3.14,7-7V7.75
			C252.36,3.89,249.22,0.75,245.36,0.75z M186.667,233.579c1.654,0,3,1.346,3,3v11.671c0,1.654-1.346,3-3,3H69.333
			c-1.654,0-3-1.346-3-3v-11.671c0-1.654,1.346-3,3-3h44.822c0.005,0,0.01,0.001,0.015,0.001h27.66c0.005,0,0.01-0.001,0.015-0.001
			H186.667z M116.17,229.579v-61.932h23.66v61.932H116.17z M248.36,160.646c0,1.654-1.346,3-3,3H10.64c-1.654,0-3-1.346-3-3V7.75
			c0-1.654,1.346-3,3-3h234.72c1.654,0,3,1.346,3,3V160.646z"/>
		<path class="st8" d="M232.36,13.75H23.64c-3.86,0-7,3.14-7,7v126.896c0,3.86,3.14,7,7,7h208.72c3.86,0,7-3.14,7-7V20.75
			C239.36,16.89,236.22,13.75,232.36,13.75z M235.36,147.646c0,1.654-1.346,3-3,3H23.64c-1.654,0-3-1.346-3-3V20.75
			c0-1.654,1.346-3,3-3h208.72c1.654,0,3,1.346,3,3V147.646z"/>
		<path class="st8" d="M189.132,24.667H96.647H66.868c-3.86,0-7,3.14-7,7V136.73c0,3.86,3.14,7,7,7h122.264c3.86,0,7-3.14,7-7
			V45.504V31.667C196.132,27.807,192.992,24.667,189.132,24.667z M192.132,136.73c0,1.654-1.346,3-3,3H66.868c-1.654,0-3-1.346-3-3
			V31.667c0-1.654,1.346-3,3-3H95.69l13.061,16.227c1.336,1.659,3.323,2.61,5.453,2.61h77.928V136.73z M192.132,43.504h-77.928
			c-0.913,0-1.765-0.408-2.337-1.119l-11.042-13.719h88.307c1.654,0,3,1.346,3,3V43.504z"/>
		<path class="st8" d="M94.787,38.5c0-1.104-0.896-2-2-2H74.29c-1.104,0-2,0.896-2,2s0.896,2,2,2h18.497
			C93.891,40.5,94.787,39.604,94.787,38.5z"/>
		<path class="st8" d="M92.5,63.333v38.833c0,3.86,3.14,7,7,7h12.67v8.333c0,3.86,3.14,7,7,7h38.833c3.86,0,7-3.14,7-7V78.667
			c0-3.86-3.14-7-7-7h-12.67v-8.333c0-3.86-3.14-7-7-7H99.5C95.64,56.333,92.5,59.474,92.5,63.333z M145.333,102.167v-26.5h12.67
			c1.654,0,3,1.346,3,3V117.5c0,1.654-1.346,3-3,3H119.17c-1.654,0-3-1.346-3-3v-8.333h22.164
			C142.193,109.167,145.333,106.026,145.333,102.167z M116.17,105.167v-26.5c0-1.654,1.346-3,3-3h22.164v26.5c0,1.654-1.346,3-3,3
			H116.17z M141.333,63.333v8.333H119.17c-3.86,0-7,3.14-7,7v26.5H99.5c-1.654,0-3-1.346-3-3V63.333c0-1.654,1.346-3,3-3h38.833
			C139.988,60.333,141.333,61.679,141.333,63.333z"/>
	</g>
</g>
</svg>
